<?xml version="1.0" encoding="UTF-8"?>
<svg id="Capa_1" data-name="Capa 1" xmlns="http://www.w3.org/2000/svg" viewBox="0 0 203.46 162.77">
  <defs>
    <style>
      .cls-1 {
        fill: #33915c;
      }

      .cls-1, .cls-2 {
        stroke-width: 0px;
      }

      .cls-2 {
        fill: #fdc300;
      }
    </style>
  </defs>
  <rect class="cls-2" width="203.46" height="162.77"/>
  <g>
    <polygon class="cls-1" points="136.66 105.02 150.48 83.03 150.48 58.54 137.29 45.36 126.38 42.26 115.92 43 106.03 31.7 121.75 27.93 138.7 29.82 153.21 37.35 163.66 51.48 166.49 65.84 164.6 87.74 155.19 105.64 148.43 113.03 136.66 105.02"/>
    <polygon class="cls-1" points="107.9 78.46 102.9 60.7 94.9 48.18 78.42 42.06 61.47 47.24 52.52 61.84 54.4 85.54 66.18 104.71 54.75 113.66 42.16 93.4 36.98 69.85 42.63 47.71 56.76 33.58 76.54 27.93 96.79 32.64 108.56 42.06 116.1 53.83 117.98 65.14 107.9 78.46"/>
    <polygon class="cls-1" points="87.81 119.93 111.09 120.56 128.04 130.13 108.56 134.84 93.96 134.84 73.69 129.03 87.81 119.93"/>
    <polygon class="cls-1" points="82.19 48.17 91.55 52.04 96.32 59.02 101.5 77.38 110.92 91.04 125.52 103.76 146.71 117.41 146.71 124.48 137.52 129.19 117.98 116.94 100.86 103.92 91.92 90.26 85.01 73.61 82.19 59.96 82.19 48.17"/>
    <polygon class="cls-1" points="88.92 94.81 95.85 106.11 82.19 117.41 67.59 127.07 56.76 127.07 56.76 117.88 69.47 108.94 88.92 94.81"/>
  </g>
</svg>