<?xml version="1.0" encoding="UTF-8"?>
<svg id="Capa_1" data-name="Capa 1" xmlns="http://www.w3.org/2000/svg" viewBox="0 0 203.46 162.77">
  <defs>
    <style>
      .cls-1 {
        fill: #f8f5e0;
      }

      .cls-1, .cls-2, .cls-3, .cls-4, .cls-5 {
        stroke-width: 0px;
      }

      .cls-2 {
        fill: #601313;
      }

      .cls-3 {
        fill: #33915c;
      }

      .cls-4 {
        fill: #7e6a25;
      }

      .cls-5 {
        fill: #fdc300;
      }
    </style>
  </defs>
  <rect class="cls-3" width="203.46" height="162.77"/>
  <g>
    <ellipse class="cls-1" cx="128.74" cy="46.52" rx="24.07" ry="24.16"/>
    <polygon class="cls-5" points="58.1 141.88 108.82 141.88 108.82 66.24 107.63 65 84.71 16.85 66.18 58.85 58.1 67.49 58.1 141.88"/>
    <rect class="cls-1" x="68.15" y="103.92" width="30" height="9.76"/>
    <rect class="cls-1" x="65.86" y="72.6" width="38.11" height="12.97"/>
    <rect class="cls-1" x="79.31" y="51.26" width="11.72" height="7.13"/>
    <polygon class="cls-4" points="134.92 160.41 108.82 160.41 108.82 66.24 112.57 70.15 134.92 81.98 134.92 160.41"/>
    <polygon class="cls-2" points="166.06 161.78 134.92 160.41 108.82 160.41 108.82 140.49 105.38 140.49 103.45 138.35 103.45 128.84 97.04 122.65 59.21 129.38 48.2 137.71 48.2 162.77 72.78 162.77 174.01 162.77 166.06 161.78"/>
    <rect class="cls-1" x="82.87" y="24.44" width="4.3" height="7.71"/>
    <g>
      <polygon class="cls-2" points="134.92 81.98 139.23 83.09 128.24 68.5 128.24 61.71 130.11 63.24 130.88 62.25 123.42 55.46 123.42 42.84 120.36 40.37 117.17 42.73 117.17 51.99 105.66 37.03 95.75 28.59 84.16 11.37 63.54 57.76 53.02 69.05 56.64 69.05 66.18 58.85 84.71 16.85 107.63 65 112.57 70.15 134.92 81.98"/>
      <polygon class="cls-2" points="97.85 44.45 72.53 44.45 73.31 42.69 97.01 42.69 97.85 44.45"/>
      <rect class="cls-2" x="84.44" y="32.95" width="1.38" height="27.25"/>
      <polygon class="cls-2" points="92.76 33.77 77.24 33.77 77.96 32.15 91.99 32.15 92.76 33.77"/>
      <rect class="cls-2" x="80.37" y="32.19" width="1.2" height="11.97" transform="translate(-8.24 45.6) rotate(-30)"/>
      <rect class="cls-2" x="74.69" y="37.57" width="11.97" height="1.2" transform="translate(7.28 88.95) rotate(-60)"/>
      <rect class="cls-2" x="84.59" y="58.79" width="1.2" height="11.97" transform="translate(-20.97 51.27) rotate(-30)"/>
      <rect class="cls-2" x="98.07" y="57.54" width="1.2" height="11.97" transform="translate(-18.54 57.84) rotate(-30)"/>
      <rect class="cls-2" x="76.57" y="58.2" width="1.2" height="11.97" transform="translate(-21.76 47.18) rotate(-30)"/>
      <rect class="cls-2" x="78.91" y="64.18" width="11.97" height="1.2" transform="translate(-13.65 105.91) rotate(-60)"/>
      <rect class="cls-2" x="74.37" y="85.8" width="1.41" height="14.09" transform="translate(-36.36 49.98) rotate(-30)"/>
      <rect class="cls-2" x="62.98" y="86.09" width="1.41" height="14.09" transform="translate(-38.04 44.32) rotate(-30)"/>
      <rect class="cls-2" x="67.68" y="92.14" width="14.09" height="1.41" transform="translate(-43.04 111.14) rotate(-60)"/>
      <rect class="cls-2" x="93.71" y="85.8" width="1.41" height="14.09" transform="translate(-33.77 59.64) rotate(-30)"/>
      <rect class="cls-2" x="87.02" y="92.14" width="14.09" height="1.41" transform="translate(-33.37 127.88) rotate(-60)"/>
      <rect class="cls-2" x="97.71" y="91.55" width="14.09" height="1.41" transform="translate(-27.52 136.85) rotate(-60)"/>
      <rect class="cls-2" x="87.19" y="63.27" width="11.97" height="1.2" transform="translate(-8.72 112.62) rotate(-60)"/>
      <rect class="cls-2" x="64.6" y="64.18" width="11.97" height="1.2" transform="translate(-20.81 93.51) rotate(-60)"/>
      <rect class="cls-2" x="88.66" y="32.19" width="1.2" height="11.97" transform="translate(-7.13 49.74) rotate(-30)"/>
      <rect class="cls-2" x="82.98" y="37.57" width="11.97" height="1.2" transform="translate(11.42 96.13) rotate(-60)"/>
      <rect class="cls-2" x="81.62" y="22.84" width="6.79" height="9.31"/>
      <polygon class="cls-2" points="101.09 51.26 69.53 51.26 70.33 49.44 100.22 49.44 101.09 51.26"/>
      <polygon class="cls-2" points="105.35 60.21 64.74 60.21 66.38 58.39 104.48 58.39 105.35 60.21"/>
      <rect class="cls-2" x="94.85" y="44.45" width="2.26" height="24.26"/>
      <rect class="cls-2" x="72.96" y="44.45" width="2.26" height="24.26"/>
      <rect class="cls-2" x="58.1" y="68.71" width="50.72" height="3.89"/>
      <rect class="cls-2" x="58.1" y="72.6" width="2.77" height="26.42"/>
      <rect class="cls-2" x="106.86" y="72.6" width="1.96" height="25.94"/>
      <rect class="cls-2" x="77.73" y="51.26" width="1.58" height="8.04"/>
      <rect class="cls-2" x="91.03" y="51.26" width="1.27" height="8.04"/>
      <rect class="cls-2" x="60.87" y="85.68" width="45.99" height="1.42"/>
      <rect class="cls-2" x="83.86" y="72.6" width="1.96" height="26.42"/>
      <rect class="cls-2" x="64.27" y="72.02" width="1.58" height="14.37"/>
      <rect class="cls-2" x="73.64" y="72.02" width="1.58" height="14.37"/>
      <rect class="cls-2" x="94.06" y="72.02" width="1.58" height="14.37"/>
      <rect class="cls-2" x="103.96" y="72.02" width="1.58" height="14.37"/>
      <rect class="cls-2" x="58.1" y="98.06" width="50.72" height="2.3"/>
      <rect class="cls-2" x="66.65" y="102.42" width="33.01" height="1.5"/>
      <rect class="cls-2" x="66.65" y="113.68" width="33.01" height="1.5"/>
      <rect class="cls-2" x="98.15" y="102.42" width="1.5" height="12.02"/>
      <rect class="cls-2" x="66.65" y="102.42" width="1.5" height="12.02"/>
      <rect class="cls-2" x="87.88" y="103.17" width="1.98" height="11.26"/>
      <rect class="cls-2" x="76.86" y="103.17" width="1.98" height="11.26"/>
      <polygon class="cls-2" points="134.92 99.93 108.82 97.57 108.82 96.09 134.92 98.46 134.92 99.93"/>
      <polygon class="cls-2" points="134.92 123.9 108.82 125.97 108.82 124.49 134.92 122.42 134.92 123.9"/>
    </g>
    <rect class="cls-2" y="148.77" width="91.03" height="14"/>
    <rect class="cls-2" x="107.84" y="157.86" width="95.63" height="4.91"/>
  </g>
</svg>