<?xml version="1.0" encoding="UTF-8"?>
<svg id="Capa_1" data-name="Capa 1" xmlns="http://www.w3.org/2000/svg" viewBox="0 0 203.46 162.77">
  <defs>
    <style>
      .cls-1 {
        fill: #f39d96;
      }

      .cls-1, .cls-2, .cls-3, .cls-4, .cls-5 {
        stroke-width: 0px;
      }

      .cls-2 {
        fill: #2c80c3;
      }

      .cls-3 {
        fill: #7e6a25;
      }

      .cls-4 {
        fill: #e6332a;
      }

      .cls-5 {
        fill: #fdc300;
      }
    </style>
  </defs>
  <rect class="cls-4" width="203.46" height="162.77"/>
  <g>
    <polygon class="cls-1" points="114.58 48.21 102.12 48.21 102.12 50.93 104.12 58.67 110.71 72.87 95.85 83.55 107.13 98.42 119.54 86.03 117.06 79.84 116.31 72.1 116.31 63.15 117.99 55.22 114.58 48.21"/>
    <polygon class="cls-2" points="117.99 55.22 122.63 44.69 126.97 37.8 133.32 32.77 146.17 39.27 156.23 63.12 155.3 67.3 151.59 67.3 144.62 62.96 140.13 56.15 140.44 82.16 138.34 90.83 134.4 96.09 131 95.32 117.37 108.79 140.13 128.45 138.34 129.85 141.37 133.56 137.5 137.28 135.33 135.42 134.09 140.07 129.14 142.39 123.56 142.39 123.56 140.22 130.07 137.43 129.6 135.27 107.69 119.01 84.7 147.34 82.22 145.33 78.2 148.43 76.5 146.57 77.89 145.49 74.02 145.02 68.29 138.3 69.84 136.75 78.51 140.38 75.57 136.66 107.13 98.42 119.54 86.03 117.06 79.84 116.31 72.1 116.31 63.15 117.99 55.22"/>
    <polyline class="cls-3" points="132.08 29.98 135.64 29.36 136.72 23.01 135.18 18.68 129.76 14.34 124.65 14.96 120.93 18.83 119.54 23.01"/>
    <polygon class="cls-5" points="76.7 113.92 82.84 109.97 98.66 87.26 107.13 98.42 102.12 104.49 83.31 118.79 59 139.69 57.61 143.1 52.81 147.13 49.09 148.43 47.23 146.35 50.33 142.79 52.03 141.4 52.34 138.61 54.51 137.06 56.83 136.91 76.7 113.92"/>
    <polygon class="cls-5" points="119.54 23.01 119.54 28.16 121.24 32.77 125.73 34.32 125.73 39.77 126.97 37.8 133.32 32.77 132.08 29.98 134.56 27.3 134.56 23.79 133.01 24.1 131.92 26.11 131 20.28 127.05 20.85 124.03 22.71 119.54 23.01"/>
    <polygon class="cls-5" points="111.47 20.28 114.2 22.14 115.82 26.12 116.31 31.08 115.2 34.43 112.96 36.05 109.58 35.2 107.13 34.56 111.47 20.28"/>
    <polygon class="cls-5" points="105.12 34.08 105.12 41.55 102.12 44.55 102.12 50.93 106.25 50.93 120.32 68.01 132.9 46.24 134.02 48.3 138.34 44.18 132.9 37.8 129.33 37.8 128.34 39.21 128.76 40.48 130.67 43.58 119.76 60.13 112.85 48.58 112.76 45.85 110.3 42.39 110.85 34.61 105.12 34.08"/>
    <polygon class="cls-3" points="111.47 16.8 111.47 28 108.9 39.77 96.76 39.77 98.16 23.33 104.12 17.97 111.47 16.8"/>
  </g>
</svg>