<?xml version="1.0" encoding="utf-8"?>
<!-- Generator: Adobe Illustrator 28.1.0, SVG Export Plug-In . SVG Version: 6.00 Build 0)  -->
<svg version="1.1" id="Capa_1" xmlns="http://www.w3.org/2000/svg" xmlns:xlink="http://www.w3.org/1999/xlink" x="0px" y="0px"
	 viewBox="0 0 203.5 162.8" style="enable-background:new 0 0 203.5 162.8;" xml:space="preserve">
<style type="text/css">
	.st0{fill:#33915C;}
	.st1{fill:#601313;}
	.st2{fill:#FDC300;}
	.st3{fill:#7E6A25;}
</style>
<rect class="st0" width="203.5" height="162.8"/>
<g>
	<polygon class="st1" points="87.5,93.4 115.9,93.4 122.9,164 80.5,164 	"/>
	<polygon class="st1" points="95.7,56.8 101.7,54.8 107.8,56.8 107.8,94.8 95.7,94.8 	"/>
	<polygon class="st2" points="0,151.8 29.5,141.1 56,126.2 75.8,107.3 80.4,100.7 84.9,57.4 84.9,41 91,41 89.4,33.3 91,33.3 
		94,42.3 97.2,72.9 95.6,91.1 91.9,107.6 84.6,126.1 75.7,141.8 61.1,164 0,164 	"/>
	<polygon class="st3" points="80.4,100.7 85.5,89.6 88.2,86.3 88.2,90 96.7,78.8 97.2,72.9 95.8,59.4 91,41 84.9,41 84.9,57.4 	"/>
	<polygon class="st3" points="75.7,141.8 95.3,109.4 100.8,97.7 101.7,93.4 99.2,75.4 97.2,61.8 94.8,49.2 97.2,72.9 96.7,78.8 
		95.6,91.1 91.9,107.6 84.6,126.1 	"/>
	<polygon class="st2" points="203.5,151.8 173.9,141.1 147.5,126.2 127.7,107.3 123.1,100.7 118.5,57.4 118.5,41 112.4,41 
		114.1,33.3 112.4,33.3 109.4,42.3 106.2,72.9 107.8,91.1 111.6,107.6 118.9,126.1 127.8,141.8 142.3,164 203.5,164 	"/>
	<polygon class="st2" points="123.1,100.7 118,89.6 115.3,86.3 115.3,90 106.8,78.8 106.2,72.9 107.7,59.4 112.4,41 118.5,41 
		118.5,57.4 	"/>
	<polygon class="st3" points="127.8,141.8 108.2,109.4 102.7,97.7 101.7,93.4 104.3,75.4 106.2,61.8 108.7,49.2 106.2,72.9 
		106.8,78.8 107.8,91.1 111.6,107.6 118.9,126.1 	"/>
	<polygon class="st2" points="105.3,56 102.2,46.5 102.2,36.6 100.3,36.6 100.3,46.5 97.2,56.3 101.7,54.8 	"/>
</g>
</svg>
