<?xml version="1.0" encoding="UTF-8"?>
<svg id="Capa_1" data-name="Capa 1" xmlns="http://www.w3.org/2000/svg" viewBox="0 0 203.46 162.77">
  <defs>
    <style>
      .cls-1 {
        fill: #f39d96;
      }

      .cls-1, .cls-2, .cls-3, .cls-4, .cls-5, .cls-6, .cls-7, .cls-8, .cls-9, .cls-10 {
        stroke-width: 0px;
      }

      .cls-2 {
        fill: #601313;
      }

      .cls-3 {
        fill: #33915c;
      }

      .cls-4 {
        fill: #2c80c3;
      }

      .cls-5 {
        fill: #1b4c2f;
      }

      .cls-6 {
        fill: #ab5243;
      }

      .cls-7 {
        fill: #7e6a25;
      }

      .cls-8 {
        fill: #e6332a;
      }

      .cls-9 {
        fill: #fdc300;
      }

      .cls-10 {
        fill: #004259;
      }
    </style>
  </defs>
  <rect class="cls-1" width="203.46" height="162.77"/>
  <g>
    <polygon class="cls-6" points="184.82 72.73 165.22 68.47 160.98 71.78 155.33 69.41 142.15 76.05 113.89 62.78 101.65 67.99 92.71 65.62 0 104.01 0 142.87 203.46 142.87 203.46 66.02 184.82 72.73"/>
    <g>
      <polygon class="cls-4" points="59.85 100.91 59.48 98.46 57.69 97.52 55.34 97.52 54.34 96.01 54.77 94.6 46.3 90.56 37.83 94.6 38.26 96.01 37.27 97.52 34.92 97.52 33.13 98.46 32.75 100.91 29.7 100.91 29.7 142.87 46.3 142.87 62.91 142.87 62.91 100.91 59.85 100.91"/>
      <polygon class="cls-8" points="128.51 103.96 128.1 101.69 126.13 100.82 123.53 100.82 122.44 99.43 122.91 98.12 113.57 94.37 104.24 98.12 104.71 99.43 103.62 100.82 101.02 100.82 99.05 101.69 98.64 103.96 95.27 103.96 95.27 142.87 113.57 142.87 131.88 142.87 131.88 103.96 128.51 103.96"/>
      <polygon class="cls-3" points="194.4 100.91 194.02 98.46 192.23 97.52 189.88 97.52 188.89 96.01 189.32 94.6 180.85 90.56 172.38 94.6 172.81 96.01 171.81 97.52 169.46 97.52 167.67 98.46 167.3 100.91 164.24 100.91 164.24 142.87 180.85 142.87 197.45 142.87 197.45 100.91 194.4 100.91"/>
      <polygon class="cls-8" points="6.01 97.74 17.85 90.09 29.7 97.74 29.7 142.87 6.01 142.87 6.01 97.74"/>
      <g>
        <rect class="cls-2" x="10.7" y="101.45" width="4.3" height="6.23"/>
        <rect class="cls-2" x="20.71" y="101.45" width="4.3" height="6.23"/>
      </g>
      <g>
        <rect class="cls-10" x="34.15" y="104.19" width="4.3" height="6.23"/>
        <rect class="cls-10" x="44.15" y="104.19" width="4.3" height="6.23"/>
        <rect class="cls-10" x="54.16" y="104.19" width="4.3" height="6.23"/>
      </g>
      <g>
        <rect class="cls-10" x="34.15" y="115.49" width="4.3" height="6.23"/>
        <rect class="cls-10" x="44.15" y="115.49" width="4.3" height="6.23"/>
        <rect class="cls-10" x="54.16" y="115.49" width="4.3" height="6.23"/>
      </g>
      <g>
        <rect class="cls-10" x="34.15" y="126.79" width="4.3" height="6.23"/>
        <rect class="cls-10" x="44.15" y="126.79" width="4.3" height="6.23"/>
        <rect class="cls-10" x="54.16" y="126.79" width="4.3" height="6.23"/>
      </g>
      <g>
        <rect class="cls-2" x="10.7" y="111.52" width="4.3" height="6.23"/>
        <rect class="cls-2" x="20.71" y="111.52" width="4.3" height="6.23"/>
      </g>
      <g>
        <rect class="cls-2" x="10.7" y="121.59" width="4.3" height="6.23"/>
        <rect class="cls-2" x="20.71" y="121.59" width="4.3" height="6.23"/>
      </g>
      <g>
        <rect class="cls-2" x="10.7" y="131.65" width="4.3" height="6.23"/>
        <rect class="cls-2" x="20.71" y="131.65" width="4.3" height="6.23"/>
      </g>
      <polygon class="cls-9" points="62.91 101.96 71.58 98.02 80.25 101.96 80.25 142.87 62.91 142.87 62.91 101.96"/>
      <g>
        <rect class="cls-7" x="66.34" y="105.32" width="3.15" height="5.65"/>
        <rect class="cls-7" x="73.67" y="105.32" width="3.15" height="5.65"/>
      </g>
      <g>
        <rect class="cls-7" x="66.34" y="114.45" width="3.15" height="5.65"/>
        <rect class="cls-7" x="73.67" y="114.45" width="3.15" height="5.65"/>
      </g>
      <g>
        <rect class="cls-7" x="66.34" y="123.58" width="3.15" height="5.65"/>
        <rect class="cls-7" x="73.67" y="123.58" width="3.15" height="5.65"/>
      </g>
      <g>
        <rect class="cls-7" x="66.34" y="132.7" width="3.15" height="5.65"/>
        <rect class="cls-7" x="73.67" y="132.7" width="3.15" height="5.65"/>
      </g>
      <polygon class="cls-3" points="80.25 107.45 87.76 104.04 95.27 107.45 95.27 142.87 80.25 142.87 80.25 107.45"/>
      <g>
        <rect class="cls-5" x="83.23" y="110.36" width="2.72" height="4.89"/>
        <rect class="cls-5" x="89.57" y="110.36" width="2.72" height="4.89"/>
      </g>
      <g>
        <rect class="cls-5" x="83.23" y="118.26" width="2.72" height="4.89"/>
        <rect class="cls-5" x="89.57" y="118.26" width="2.72" height="4.89"/>
      </g>
      <g>
        <rect class="cls-5" x="83.23" y="126.17" width="2.72" height="4.89"/>
        <rect class="cls-5" x="89.57" y="126.17" width="2.72" height="4.89"/>
      </g>
      <g>
        <rect class="cls-5" x="83.23" y="134.07" width="2.72" height="4.89"/>
        <rect class="cls-5" x="89.57" y="134.07" width="2.72" height="4.89"/>
      </g>
      <polygon class="cls-4" points="131.88 101.96 140.55 98.02 149.22 101.96 149.22 142.87 131.88 142.87 131.88 101.96"/>
      <g>
        <rect class="cls-10" x="135.32" y="105.32" width="3.15" height="5.65"/>
        <rect class="cls-10" x="142.64" y="105.32" width="3.15" height="5.65"/>
      </g>
      <g>
        <rect class="cls-10" x="135.32" y="114.45" width="3.15" height="5.65"/>
        <rect class="cls-10" x="142.64" y="114.45" width="3.15" height="5.65"/>
      </g>
      <g>
        <rect class="cls-10" x="135.32" y="123.58" width="3.15" height="5.65"/>
        <rect class="cls-10" x="142.64" y="123.58" width="3.15" height="5.65"/>
      </g>
      <g>
        <rect class="cls-10" x="135.32" y="132.7" width="3.15" height="5.65"/>
        <rect class="cls-10" x="142.64" y="132.7" width="3.15" height="5.65"/>
      </g>
      <polygon class="cls-9" points="149.22 107.45 156.73 104.04 164.24 107.45 164.24 142.87 149.22 142.87 149.22 107.45"/>
      <g>
        <rect class="cls-7" x="152.2" y="110.36" width="2.72" height="4.89"/>
        <rect class="cls-7" x="158.54" y="110.36" width="2.72" height="4.89"/>
      </g>
      <g>
        <rect class="cls-7" x="152.2" y="118.26" width="2.72" height="4.89"/>
        <rect class="cls-7" x="158.54" y="118.26" width="2.72" height="4.89"/>
      </g>
      <g>
        <rect class="cls-7" x="152.2" y="126.17" width="2.72" height="4.89"/>
        <rect class="cls-7" x="158.54" y="126.17" width="2.72" height="4.89"/>
      </g>
      <g>
        <rect class="cls-7" x="152.2" y="134.07" width="2.72" height="4.89"/>
        <rect class="cls-7" x="158.54" y="134.07" width="2.72" height="4.89"/>
      </g>
      <rect class="cls-10" x="41.24" y="96.37" width="10.13" height="3.33"/>
      <g>
        <rect class="cls-5" x="168.69" y="104.19" width="4.3" height="6.23"/>
        <rect class="cls-5" x="178.7" y="104.19" width="4.3" height="6.23"/>
        <rect class="cls-5" x="188.7" y="104.19" width="4.3" height="6.23"/>
      </g>
      <g>
        <rect class="cls-5" x="168.69" y="115.49" width="4.3" height="6.23"/>
        <rect class="cls-5" x="178.7" y="115.49" width="4.3" height="6.23"/>
        <rect class="cls-5" x="188.7" y="115.49" width="4.3" height="6.23"/>
      </g>
      <g>
        <rect class="cls-5" x="168.69" y="126.79" width="4.3" height="6.23"/>
        <rect class="cls-5" x="178.7" y="126.79" width="4.3" height="6.23"/>
        <rect class="cls-5" x="188.7" y="126.79" width="4.3" height="6.23"/>
      </g>
      <rect class="cls-5" x="175.78" y="96.37" width="10.13" height="3.33"/>
      <g>
        <rect class="cls-2" x="98.6" y="107" width="3.75" height="5.78"/>
        <rect class="cls-2" x="107.33" y="107" width="3.75" height="5.78"/>
        <rect class="cls-2" x="116.07" y="107" width="3.75" height="5.78"/>
        <rect class="cls-2" x="124.8" y="107" width="3.75" height="5.78"/>
      </g>
      <g>
        <rect class="cls-2" x="98.6" y="117.48" width="3.75" height="5.78"/>
        <rect class="cls-2" x="107.33" y="117.48" width="3.75" height="5.78"/>
        <rect class="cls-2" x="116.07" y="117.48" width="3.75" height="5.78"/>
        <rect class="cls-2" x="124.8" y="117.48" width="3.75" height="5.78"/>
      </g>
      <g>
        <rect class="cls-2" x="98.6" y="127.96" width="3.75" height="5.78"/>
        <rect class="cls-2" x="107.33" y="127.96" width="3.75" height="5.78"/>
        <rect class="cls-2" x="116.07" y="127.96" width="3.75" height="5.78"/>
        <rect class="cls-2" x="124.8" y="127.96" width="3.75" height="5.78"/>
      </g>
      <rect class="cls-2" x="107.99" y="99.75" width="11.17" height="3.09"/>
    </g>
    <rect class="cls-10" y="142.87" width="203.46" height="19.9"/>
  </g>
</svg>