<?xml version="1.0" encoding="UTF-8"?>
<svg id="Capa_1" data-name="Capa 1" xmlns="http://www.w3.org/2000/svg" viewBox="0 0 203.46 162.77">
  <defs>
    <style>
      .cls-1 {
        fill: #601313;
      }

      .cls-1, .cls-2, .cls-3, .cls-4 {
        stroke-width: 0px;
      }

      .cls-2 {
        fill: #2c80c3;
      }

      .cls-3 {
        fill: #e6332a;
      }

      .cls-4 {
        fill: #004259;
      }
    </style>
  </defs>
  <rect class="cls-2" width="203.46" height="162.77"/>
  <g>
    <polygon class="cls-3" points="102.66 48.06 91.99 51.19 84.71 59.6 83.13 70.6 87.75 80.72 97.1 86.73 108.22 86.73 117.58 80.72 122.2 70.6 120.61 59.6 113.33 51.19 102.66 48.06"/>
    <g>
      <polygon class="cls-3" points="157.52 27.17 149.36 29.56 143.78 35.99 142.57 44.42 146.11 52.16 153.27 56.76 161.78 56.76 168.94 52.16 172.47 44.42 171.26 35.99 165.69 29.56 157.52 27.17"/>
      <polygon class="cls-3" points="47.8 27.17 39.64 29.56 34.06 35.99 32.85 44.42 36.39 52.16 43.55 56.76 52.06 56.76 59.22 52.16 62.75 44.42 61.54 35.99 55.97 29.56 47.8 27.17"/>
    </g>
    <polygon class="cls-3" points="102.66 12.55 95.83 14.55 91.17 19.93 90.16 26.97 93.12 33.45 99.1 37.29 106.22 37.29 112.21 33.45 115.16 26.97 114.15 19.93 109.49 14.55 102.66 12.55"/>
    <g>
      <polygon class="cls-3" points="148.45 90.76 141.62 92.77 136.96 98.15 135.95 105.19 138.9 111.66 144.89 115.51 152.01 115.51 157.99 111.66 160.95 105.19 159.94 98.15 155.28 92.77 148.45 90.76"/>
      <polygon class="cls-3" points="56.88 90.76 50.05 92.77 45.39 98.15 44.37 105.19 47.33 111.66 53.32 115.51 60.43 115.51 66.42 111.66 69.38 105.19 68.36 98.15 63.7 92.77 56.88 90.76"/>
    </g>
    <polygon class="cls-4" points="49.37 112.97 29.17 162.77 46.12 162.77 56.88 115.51 53.32 115.51 49.37 112.97"/>
    <polygon class="cls-4" points="147 115.51 159.2 162.77 174.22 162.77 155.32 113.38 152.01 115.51 147 115.51"/>
    <polygon class="cls-1" points="87.75 80.72 86.66 74.06 89.61 67.4 96.29 64.75 106.68 63.97 115.17 67.4 118.16 73.13 117.58 80.72 108.22 86.73 97.1 86.73 87.75 80.72"/>
    <polygon class="cls-1" points="94.4 26.44 95.84 24.22 99.93 22.04 106.2 22.04 110.27 24.24 110.83 26.55 110.83 31.24 106.89 35.2 102.04 35.2 98.22 35.2 95.15 33.15 93.74 31.02 94.4 26.44"/>
    <polygon class="cls-1" points="146.95 44.88 147.46 42.27 151.48 39.81 159.02 38.68 164.73 39.38 168.9 42.91 170.02 46.65 168.33 50.95 165.37 53.63 161.78 56.76 153.27 56.76 146.95 51.8 146.26 48.06 146.95 44.88"/>
    <polygon class="cls-1" points="136.89 107.26 139.42 103.84 144.92 102.36 150.06 101.66 155.57 102.5 159.02 105.11 159.02 108.01 156.48 111.11 154.64 113.82 152.01 115.51 144.89 115.51 138.9 111.66 136.89 107.26"/>
    <polygon class="cls-1" points="45.56 107.78 45.98 105.04 49.37 101.87 55.11 101.19 60.55 101.95 65.98 104.06 67 107.08 67.41 109.49 66.42 111.66 60.43 115.51 53.32 115.51 47.33 111.66 45.56 107.78"/>
    <polygon class="cls-1" points="58.44 44.49 55.44 40.36 48.93 38.15 42 38.15 37.6 39.76 35.32 43.31 35.74 47.2 38.02 51.34 41.4 53.87 45.72 55.31 50.11 55.9 53.39 55.9 59.22 52.16 59.22 48.75 58.44 44.49"/>
    <polygon class="cls-4" points="110.52 29.82 143.13 40.53 143.78 35.99 112.56 25.94 110.83 26.55 110.27 28.11 110.52 29.82"/>
    <polygon class="cls-4" points="92.53 25.94 94.4 26.44 95.15 28.56 94.3 30.27 62.17 40.36 61.54 35.99 92.53 25.94"/>
    <polygon class="cls-4" points="118.16 56.76 147.76 44.54 149.94 44.54 151.13 46.33 150.43 48.06 121.06 62.72 120.61 59.6 118.16 56.76"/>
    <polygon class="cls-4" points="54.48 48.5 53.79 46.03 54.98 43.95 57.26 43.95 86.66 57.34 84.71 59.6 84.26 62.72 54.48 48.5"/>
    <polygon class="cls-4" points="48.25 56.76 53.1 92.86 53.79 94.25 56.37 94.25 57.65 92.86 52.06 56.76 48.25 56.76"/>
    <polygon class="cls-4" points="87.75 80.72 63.99 95.54 63.99 97.72 65.18 99 67 99.4 94.32 84.94 87.75 80.72"/>
    <polygon class="cls-4" points="117.58 80.72 139.94 95.93 139.94 97.82 138.85 99.4 136.78 99.4 110.53 85.25 117.58 80.72"/>
    <polygon class="cls-4" points="139.14 106.93 140.53 106.93 141.92 108.21 141.92 109.9 116.11 130.32 115.17 124.4 139.14 106.93"/>
    <polygon class="cls-4" points="65.27 106.93 63.46 106.47 62.06 108.28 62.72 110.75 64.36 110.75 88.15 130.32 89.04 125 65.27 106.93"/>
    <polygon class="cls-4" points="153.27 56.76 147.46 93.55 148.45 94.95 150.74 94.95 157.52 56.76 153.27 56.76"/>
    <polygon class="cls-4" points="100.3 48.75 100.3 35.2 101.09 34.03 103 33.66 104.83 34.25 105.2 35.57 105.2 48.75 102.66 48.06 100.3 48.75"/>
    <polygon class="cls-4" points="96.47 80.72 108.25 80.72 118.65 146.33 120.73 146.33 118.75 150.2 120.73 162.77 82.61 162.77 84.68 149.6 82.61 146.24 85.48 146.24 96.47 80.72"/>
  </g>
</svg>