<?xml version="1.0" encoding="UTF-8"?>
<svg id="Capa_1" data-name="Capa 1" xmlns="http://www.w3.org/2000/svg" viewBox="0 0 203.46 162.77">
  <defs>
    <style>
      .cls-1 {
        fill: #f39d96;
      }

      .cls-1, .cls-2, .cls-3, .cls-4, .cls-5, .cls-6 {
        stroke-width: 0px;
      }

      .cls-2 {
        fill: #33915c;
      }

      .cls-3 {
        fill: #1b4c2f;
      }

      .cls-4 {
        fill: #ab5243;
      }

      .cls-5 {
        fill: #7e6a25;
      }

      .cls-6 {
        fill: #fdc300;
      }
    </style>
  </defs>
  <rect class="cls-2" width="203.46" height="162.77"/>
  <g>
    <polygon class="cls-3" points="201.32 127.84 191.55 121.14 189.46 122.57 185.27 118.27 176.9 123.85 174.11 121.85 167.6 124.97 165.98 119.7 160.63 118.27 151.21 121.38 144.59 118.27 137 122.57 129.4 118.27 122.79 121.38 113.36 118.27 108.02 119.7 106.39 124.97 99.88 121.85 97.09 123.85 88.72 118.27 84.53 122.57 82.44 121.14 72.68 127.84 49.44 113.84 38.73 108.69 26.41 113 16.88 117.79 8.28 116.59 0 119.94 0 162.77 137 162.77 203.46 162.77 203.46 126.54 201.32 127.84"/>
    <ellipse class="cls-6" cx="101.73" cy="35.78" rx="26.69" ry="26.79"/>
    <g>
      <polygon class="cls-1" points="86.59 137.39 88.02 94.28 85.47 91.4 86.43 82.3 82.93 77.99 84.36 59.47 73.7 55 62.09 55 54.93 45.42 41.96 44.78 37.91 40.37 44.75 40.23 48.25 38.4 53.82 41.11 72.75 40.6 79.75 37.76 94.54 36.16 95.34 24.83 96.45 20.04 99.47 17.32 101.73 17.32 103.99 17.32 107.01 20.04 108.13 24.83 108.92 36.16 123.72 37.76 130.72 40.6 149.65 41.11 155.21 38.4 158.71 40.23 165.55 40.37 161.5 44.78 148.53 45.42 141.37 55 129.76 55 119.1 59.47 120.53 77.99 117.03 82.3 117.99 91.4 115.44 94.28 116.88 137.39 86.59 137.39"/>
      <polygon class="cls-6" points="86.59 137.39 82.13 138.5 82.13 141.7 79.27 142.34 77.84 162.77 101.73 162.77 125.63 162.77 124.19 142.34 121.33 141.7 121.33 138.5 116.88 137.39 86.59 137.39"/>
      <polygon class="cls-4" points="54.93 45.42 74.9 47.3 81.56 45.42 89.42 46.36 93.08 51.86 93.08 61.94 91.27 75.85 93.08 79.73 91.53 84.22 90.47 88.71 93.08 93.72 91.27 137.39 86.59 137.39 88.02 94.28 85.47 91.4 86.43 82.3 82.93 77.99 84.36 59.47 73.7 55 62.09 55 54.93 45.42"/>
      <polygon class="cls-4" points="103.99 17.32 99.82 19 97.8 21.32 97.8 23.94 100.25 23.77 101.73 24.34 101.73 25.43 98.63 25.17 97.46 25.79 97.1 27.84 97.3 30.04 97.97 33.42 100.84 34.85 101.73 35.41 101.73 36.64 98.17 36.64 94.54 36.16 95.34 24.83 96.45 20.04 99.47 17.32 103.99 17.32"/>
      <polygon class="cls-5" points="91.27 137.39 86.15 139.58 86.15 143.62 82.49 144.77 81.56 162.77 77.84 162.77 79.27 142.34 82.13 141.7 82.13 138.5 86.59 137.39 91.27 137.39"/>
    </g>
  </g>
</svg>