<?xml version="1.0" encoding="UTF-8"?>
<svg id="Capa_1" data-name="Capa 1" xmlns="http://www.w3.org/2000/svg" viewBox="0 0 203.46 162.77">
  <defs>
    <style>
      .cls-1 {
        fill: #f39d96;
      }

      .cls-1, .cls-2, .cls-3, .cls-4, .cls-5 {
        stroke-width: 0px;
      }

      .cls-2 {
        fill: #33915c;
      }

      .cls-3 {
        fill: #1b4c2f;
      }

      .cls-4 {
        fill: #ab5243;
      }

      .cls-5 {
        fill: #fdc300;
      }
    </style>
  </defs>
  <rect class="cls-5" width="203.46" height="162.77"/>
  <g>
    <g>
      <polygon class="cls-1" points="90.46 86.64 77.68 67.47 49.86 46.24 45.73 46.24 43.05 51.6 57.69 74.48 81.62 89.29 90.46 86.64"/>
      <polygon class="cls-4" points="93.09 84.07 93.15 61.03 81.84 27.9 78.42 25.61 73.21 28.57 72.63 55.72 84.27 81.34 93.09 84.07"/>
      <polygon class="cls-1" points="113 86.64 125.78 67.47 153.61 46.24 157.73 46.24 160.41 51.6 145.78 74.48 121.85 89.29 113 86.64"/>
      <polygon class="cls-4" points="110.37 84.07 110.32 61.03 121.62 27.9 125.05 25.61 130.25 28.57 130.83 55.72 119.19 81.34 110.37 84.07"/>
      <polygon class="cls-1" points="106.18 75.63 110.32 52.97 105.06 18.36 102.1 15.5 96.45 17.49 91.07 44.11 97.99 71.39 106.18 75.63"/>
      <polygon class="cls-3" points="80.33 82.43 102.75 75.63 125.17 82.43 119.64 94.66 83.83 93.04 80.33 82.43"/>
    </g>
    <polygon class="cls-2" points="101.73 50.07 92.54 57.86 91.97 67.38 84.47 69.97 81.87 75.74 87.35 74.01 92.54 78.91 91.97 84.97 85.04 86.7 78.12 81.2 69.18 76.9 53.89 75.74 43.89 77.76 29.66 81.2 19.85 77.18 13.51 69.97 15.53 95.07 22.45 112.37 33.7 127.37 43.89 136.32 62.88 140.64 78.12 139.2 89.95 136.32 101.73 147.28 113.52 136.32 125.34 139.2 140.59 140.64 159.57 136.32 169.76 127.37 181.01 112.37 187.94 95.07 189.96 69.97 183.61 77.18 173.8 81.2 159.57 77.76 149.57 75.74 134.29 76.9 125.34 81.2 118.42 86.7 111.5 84.97 110.92 78.91 116.11 74.01 121.59 75.74 119 69.97 111.5 67.38 110.92 57.86 101.73 50.07"/>
    <g>
      <polygon class="cls-3" points="83.83 121.6 83.83 109.2 76.33 98.67 62.81 96.51 40.85 96.51 43.83 105.45 53.83 114.97 67.67 121.6 83.83 121.6"/>
      <polygon class="cls-3" points="119.64 121.6 119.64 109.2 127.14 98.67 140.65 96.51 162.62 96.51 159.63 105.45 149.64 114.97 135.79 121.6 119.64 121.6"/>
    </g>
    <g>
      <polygon class="cls-3" points="101.73 62.31 95.19 65.46 93.58 72.54 98.1 78.21 105.36 78.21 109.89 72.54 108.27 65.46 101.73 62.31"/>
      <polygon class="cls-3" points="101.73 83.92 97.31 86.04 96.22 90.83 99.28 94.66 104.18 94.66 107.24 90.83 106.15 86.04 101.73 83.92"/>
      <polygon class="cls-3" points="101.71 127.04 97.31 137.76 101.71 143.33 106.11 137.76 101.71 127.04"/>
    </g>
  </g>
</svg>