<?xml version="1.0" encoding="utf-8"?>
<!-- Generator: Adobe Illustrator 28.1.0, SVG Export Plug-In . SVG Version: 6.00 Build 0)  -->
<svg version="1.1" id="Capa_1" xmlns="http://www.w3.org/2000/svg" xmlns:xlink="http://www.w3.org/1999/xlink" x="0px" y="0px"
	 viewBox="0 0 203.5 162.8" style="enable-background:new 0 0 203.5 162.8;" xml:space="preserve">
<style type="text/css">
	.st0{fill:#F39D96;}
	.st1{fill:#F8F5E0;}
	.st2{fill:#2C80C3;}
	.st3{fill:#004259;}
</style>
<rect class="st0" width="203.5" height="162.8"/>
<g>
	<circle class="st1" cx="140.6" cy="62" r="26.9"/>
	<polygon class="st2" points="12.4,151.1 203.5,151.1 203.5,8.1 193.5,16.9 185.2,34 176.9,51.1 166.4,62.2 150.7,74.9 135.5,84 
		117.6,91.5 98.5,98.7 78.5,102 51,104.7 25,105.8 0,103.1 0,151.1 	"/>
	<polygon class="st1" points="152.9,151.1 146.7,146.9 145.3,144.8 143.3,142.7 139.8,141.7 135.9,141.7 131.3,138.6 128.2,138.6 
		123.6,140.8 121.4,143.6 117.9,141.1 111.8,141.1 110.3,136 106,132.3 101.7,131.5 98.7,132.6 96,134.1 93.4,131.5 90.6,131.5 
		90.6,126.2 88.1,121.5 84.2,118.7 79.5,117.8 75.1,117.8 72.3,114.2 72.3,108.2 71.2,104.4 68.9,101.4 65.9,98.6 64.8,96.9 
		63.3,92.7 60.1,87.6 54.6,83.7 49.2,81.8 43.7,81.8 35.6,85.2 30.1,91 27.9,96.7 27.9,102.9 29.2,107.8 25.6,107.8 22.8,109.8 
		20.5,113.4 17.3,114 12.1,116.5 9.1,119.8 7.2,125.1 7.2,129.6 8.7,132.3 6,131.7 4,133.8 3,136.8 0,136.8 0,151.1 	"/>
	<polygon class="st3" points="0,151.1 52.1,151.1 203.5,151.1 203.5,162.8 0,162.8 	"/>
	<polygon class="st3" points="48,145.9 52.8,145.9 52.8,140.2 55.6,140.2 55.6,135.6 61.8,135.6 61.8,138.6 63.2,138.6 63.2,140 
		86.4,140 86.4,142.3 87.2,142.3 87.2,148.7 86.4,148.7 86.4,151.1 52.1,151.1 	"/>
	<polygon class="st3" points="141.6,80.3 140.6,134.7 137.8,82.7 	"/>
	<polygon class="st3" points="150.7,74.9 150.7,106.7 148.4,76.3 	"/>
	<polygon class="st3" points="98.5,98.7 97.2,130.1 95.1,99.2 	"/>
	<polygon class="st3" points="176.9,51.1 178.8,110.3 174.1,54.1 	"/>
	<polygon class="st3" points="177.4,151.1 176.5,124.1 175.4,151.1 	"/>
	<polygon class="st3" points="162.3,151.1 162.3,112.3 160.6,151.1 	"/>
</g>
</svg>
