<?xml version="1.0" encoding="utf-8"?>
<!-- Generator: Adobe Illustrator 28.1.0, SVG Export Plug-In . SVG Version: 6.00 Build 0)  -->
<svg version="1.1" id="Capa_1" xmlns="http://www.w3.org/2000/svg" xmlns:xlink="http://www.w3.org/1999/xlink" x="0px" y="0px"
	 viewBox="0 0 203.5 162.8" style="enable-background:new 0 0 203.5 162.8;" xml:space="preserve">
<style type="text/css">
	.st0{fill:#2C80C3;}
	.st1{fill:#F8F5E0;}
	.st2{fill:#004259;}
	.st3{fill:#F39D96;}
</style>
<rect class="st0" width="203.5" height="162.8"/>
<g>
	<ellipse class="st1" cx="101.7" cy="74.4" rx="26.4" ry="26.5"/>
	<polygon class="st2" points="195,114.8 195,130.7 193.9,130.7 193.9,120.9 188.3,120.9 188.3,110 176.5,110 176.5,128 165.6,128 
		165.6,139.1 156.9,139.1 156.9,118.5 147.8,118.5 147.8,114.8 139.9,114.8 139.9,130.7 138.9,130.7 138.9,120.9 133.7,120.9 
		133.7,110 122.7,110 122.7,128 116.9,128 116.9,114.4 109.7,114.4 109.7,125.3 104.4,125.3 104.4,118.5 98.8,118.5 98.8,114.8 
		90.2,114.8 90.2,130.7 82.1,130.7 82.1,120.9 76.9,120.9 76.9,110 65.9,110 65.9,117.2 61.3,117.2 61.3,114.4 54,114.4 54,125.3 
		48.5,125.3 48.5,138.5 43.2,138.5 43.2,114.8 34.5,114.8 34.5,130.7 26.5,130.7 26.5,120.9 21.3,120.9 21.3,110 10.3,110 
		10.3,117.2 3.6,117.1 3.6,127.9 0,127.9 0,162.8 55.6,162.8 61.3,162.8 96,162.8 116.9,162.8 147.8,162.8 203.5,162.8 203.5,114.8 
			"/>
	<polyline class="st3" points="101.7,6.7 101.5,23.1 100.8,23.4 100.8,28.9 100.2,29.1 100.2,42.4 98.5,44.8 99.5,46.3 99.5,66.4 
		98.4,66.4 98.4,70.1 95.9,71.2 95.9,73 93.5,75.5 94.1,79.2 95.3,79.9 94.1,81.9 94.8,83.7 98.4,84.9 98.4,119.3 94.8,162.8 
		108.7,162.8 105.1,119.3 105.1,84.9 108.7,83.7 109.4,81.9 108.2,79.9 109.4,79.2 110,75.5 107.5,73 107.5,71.2 105.1,70.1 
		105.1,66.4 104,66.4 104,46.3 104.9,44.8 103.3,42.4 103.3,29.1 102.6,28.9 102.6,23.4 102,23.1 101.7,6.7 	"/>
</g>
</svg>
