<?xml version="1.0" encoding="utf-8"?>
<!-- Generator: Adobe Illustrator 28.1.0, SVG Export Plug-In . SVG Version: 6.00 Build 0)  -->
<svg version="1.1" id="Capa_1" xmlns="http://www.w3.org/2000/svg" xmlns:xlink="http://www.w3.org/1999/xlink" x="0px" y="0px"
	 viewBox="0 0 203.5 162.8" style="enable-background:new 0 0 203.5 162.8;" xml:space="preserve">
<style type="text/css">
	.st0{fill:#E6332A;}
	.st1{fill:#F8F5E0;}
	.st2{fill:#601313;}
	.st3{fill:#FDC300;}
	.st4{fill:#7E6A25;}
</style>
<rect class="st0" width="203.5" height="162.8"/>
<g>
	<circle class="st1" cx="71.3" cy="100.5" r="41.7"/>
	<polygon class="st2" points="-0.4,139.5 55.1,129.6 72.4,123.8 112.3,139.1 135.5,135.4 158.7,122.9 178.7,118.4 203.5,121.5 
		203.5,162.8 0,162.8 	"/>
	<g>
		<polygon class="st3" points="26.6,162.8 40.3,131.9 45.2,109.8 51.4,97 56.7,94.7 62.4,99.6 64.2,112 60.7,131 64.2,162.8 
			48.3,162.8 		"/>
		<polygon class="st3" points="76.6,162.8 88.9,125.7 88.9,113.7 92.2,100 96.6,91.7 101.4,55.2 102.8,42.3 105.6,38 109.7,38 
			111.8,40.8 113.3,51.6 113.3,64.2 114.3,82.7 117.4,74.8 118.4,50.8 119.7,34.9 123.1,30.5 127.7,30.5 130,38.5 131.1,32.6 
			135.2,30.5 138.8,30.5 142.9,44.9 145.7,44.2 148.8,46 152.4,53.9 161.9,76.8 169.4,104.1 179.4,143.7 181.5,162.8 		"/>
		<polygon class="st4" points="37.4,162.8 45.4,134.7 47.4,119 51,104.3 55.4,97 56.7,94.7 62.4,99.6 64.2,112 60.7,131 64.2,162.8 
					"/>
		<polygon class="st4" points="84.7,138.4 94.3,130.6 106.3,126.5 117.7,121.3 120.8,121.3 123.9,114.4 126.9,111.3 134.6,111 
			145.2,114.1 153.2,121.3 154.6,126.7 154.6,130.6 152.4,138.4 145.7,145.5 135.2,162.8 76.6,162.8 		"/>
		<polygon class="st4" points="114.3,82.7 112.3,91.8 110.4,101.7 110.4,112 112.4,117.4 102.4,125.9 98.4,122.8 97.4,109.8 
			98.8,101.6 101.4,83.3 103.5,69.6 104.5,56 105.9,45.9 107.1,38 109.7,38 111.8,40.8 113.3,51.6 		"/>
		<polygon class="st4" points="132.2,91.1 132.2,102.3 127.8,105.9 124.9,112.7 120.7,112.7 120.7,106.4 120.7,88.5 124.2,71.5 
			124.5,69.7 123,65 122.3,58.8 123.8,49.7 124,47.5 123.3,37 123.1,30.5 127.7,30.5 130,38.5 129.7,45.4 132.2,53.4 134.4,72.9 		
			"/>
		<polygon class="st4" points="147.8,96.6 143.3,100.5 139.6,109.8 139.6,102.4 140.4,92.7 141.6,89.4 139.6,80.3 140.5,66.4 
			136.5,56.7 137.6,49.9 133.6,41.4 132.7,36.3 135.2,30.5 138.8,30.5 142.9,44.9 140.3,47.3 140.3,51.3 141.4,58.1 143.8,64.5 
			146.6,81.9 146.6,85.7 		"/>
		<polygon class="st4" points="145.7,44.2 143.5,47 144.6,50.1 148.7,65 148.7,70.1 151.8,79.1 154.6,81.9 154.6,85.9 160.1,104.3 
			161.6,115.8 160.1,122.8 158.4,128.8 157.9,143.8 157.1,162.8 181.5,162.8 179.4,143.7 169.4,104.1 161.9,76.8 152.4,53.9 
			148.8,46 		"/>
	</g>
</g>
</svg>
