<?xml version="1.0" encoding="UTF-8"?>
<svg id="Capa_1" data-name="Capa 1" xmlns="http://www.w3.org/2000/svg" viewBox="0 0 203.46 162.77">
  <defs>
    <style>
      .cls-1 {
        fill: #f39d96;
      }

      .cls-1, .cls-2, .cls-3, .cls-4 {
        stroke-width: 0px;
      }

      .cls-2 {
        fill: #f8f5e0;
      }

      .cls-3 {
        fill: #33915c;
      }

      .cls-4 {
        fill: #1b4c2f;
      }
    </style>
  </defs>
  <rect class="cls-1" width="203.46" height="162.77"/>
  <g>
    <polygon class="cls-4" points="-.4 139.54 55.08 129.62 72.42 123.82 112.34 139.05 135.47 135.41 158.73 122.89 178.72 118.41 203.46 121.49 203.46 162.77 0 162.77 -.4 139.54"/>
    <circle class="cls-2" cx="76.68" cy="50.58" r="30.8"/>
    <g>
      <polygon class="cls-3" points="85.94 141.87 88.18 122.63 87.06 104.33 81.83 93.31 83.69 88.83 85.43 88.83 84.66 73.97 86.34 71.92 81.47 65.98 81.47 58.14 79.11 54.34 75.23 53.27 64.73 53.27 62.49 55.63 62.49 73.14 64.8 76.1 64.88 87.9 59.86 91.17 57.35 95.28 57.35 115.53 60.31 120.7 60.31 141.48 85.94 141.87"/>
      <polygon class="cls-3" points="119.75 147.5 121.86 129.41 120.81 112.19 115.89 101.83 117.65 97.61 119.28 97.61 118.56 83.64 120.14 81.71 115.56 76.12 115.56 68.75 113.34 65.17 109.69 64.17 99.81 64.17 97.71 66.39 97.71 82.85 99.88 85.64 99.95 96.74 95.23 99.82 92.86 103.68 92.86 122.73 95.66 127.59 95.66 147.14 119.75 147.5"/>
      <polygon class="cls-3" points="147.55 143.53 149.2 129.37 148.37 115.9 144.52 107.79 145.9 104.49 147.18 104.49 146.61 93.56 147.85 92.05 144.26 87.68 144.26 81.91 142.53 79.1 139.67 78.32 131.94 78.32 130.29 80.06 130.29 92.94 131.99 95.13 132.05 103.81 128.35 106.22 126.5 109.24 126.5 124.15 128.69 127.95 128.69 143.25 147.55 143.53"/>
      <polygon class="cls-3" points="167.63 129.62 168.68 120.63 168.16 112.08 165.72 106.94 166.59 104.85 167.4 104.85 167.04 97.91 167.82 96.95 165.55 94.18 165.55 90.52 164.45 88.74 162.64 88.24 157.73 88.24 156.69 89.34 156.69 97.52 157.77 98.9 157.8 104.41 155.46 105.94 154.28 107.86 154.28 117.31 155.67 119.73 155.67 129.43 167.63 129.62"/>
      <polygon class="cls-4" points="183.18 124.71 183.94 118.19 183.56 111.99 181.79 108.26 182.43 106.74 183.01 106.74 182.75 101.7 183.32 101.01 181.67 99 181.67 96.34 180.87 95.05 179.56 94.69 176 94.69 175.24 95.49 175.24 101.42 176.02 102.43 176.05 106.42 174.35 107.53 173.5 108.93 173.5 115.79 174.5 117.54 174.5 124.58 183.18 124.71"/>
      <g>
        <polygon class="cls-4" points="75.99 71.23 75.46 73.52 76.53 75.11 79.27 75.57 82.54 74.73 84.66 73.97 86.34 71.92 81.47 65.98 81.47 58.14 80.1 57.53 79.87 59.13 78.2 59.21 77.82 61.11 79.57 66.06 80.18 66.89 84.14 71.08 83.15 72.3 78.35 72.37 77.36 71.38 75.99 71.23"/>
        <polygon class="cls-4" points="68.99 53.27 67.09 54.87 67.09 56.92 68.99 58.45 72.11 58.14 77.59 57.91 76.91 59.05 74.17 59.05 74.17 60.5 74.93 62.18 76.98 65.14 77.59 67.27 77.21 69.33 75.92 69.94 75.46 68.95 75 66.55 71.2 61.6 69.14 60.96 66.56 61.03 65.64 62.78 69.07 67.66 70.82 72.98 71.62 78.39 70.51 82.88 71.27 85.46 75.16 87.44 78.81 88.13 82.77 88.13 85.43 88.83 83.69 88.83 82.83 90.9 80.9 90.9 77.97 92.62 61.61 93.38 59.4 96.96 59.4 112.41 63.74 120.32 64.27 124.97 66.86 127.48 66.25 117.13 62.49 110.96 62.49 97.57 63.51 97.57 64.8 100.84 67.47 104.26 70.97 106.4 73.79 107 73.41 108.75 72.42 110.05 72.42 123.82 73.86 127.48 77.29 130.75 78.81 132.12 78.05 132.88 69.52 130.83 70.36 141.63 60.31 141.48 60.31 120.7 57.35 115.53 57.35 95.28 59.86 91.17 64.88 87.9 64.8 76.1 62.49 73.14 62.49 55.63 64.73 53.27 68.99 53.27"/>
        <rect class="cls-4" x="76.68" y="78.04" width="8.25" height="1.11"/>
        <polygon class="cls-4" points="110.4 81.06 109.9 83.21 110.9 84.71 113.48 85.14 116.56 84.36 118.56 83.64 120.14 81.71 115.56 76.12 115.56 68.75 114.27 68.18 114.05 69.68 112.48 69.75 112.12 71.54 113.77 76.19 114.34 76.98 118.06 80.92 117.13 82.06 112.62 82.14 111.69 81.21 110.4 81.06"/>
        <polygon class="cls-4" points="103.82 64.17 102.03 65.67 102.03 67.6 103.82 69.04 106.75 68.75 111.91 68.53 111.26 69.61 108.68 69.61 108.68 70.97 109.4 72.54 111.33 75.34 111.91 77.34 111.55 79.27 110.33 79.85 109.9 78.91 109.47 76.66 105.89 72.01 103.96 71.4 101.53 71.47 100.67 73.12 103.89 77.7 105.53 82.71 106.29 87.79 105.25 92.01 105.96 94.45 109.62 96.31 113.05 96.95 116.77 96.95 119.28 97.61 117.65 97.61 116.84 99.56 115.02 99.56 112.26 101.18 96.87 101.89 94.8 105.26 94.8 119.79 98.88 127.23 99.38 131.6 101.81 133.96 101.24 124.23 97.71 118.43 97.71 105.83 98.66 105.83 99.88 108.91 102.38 112.13 105.68 114.13 108.33 114.71 107.97 116.35 107.04 117.57 107.04 130.53 108.4 133.96 111.62 137.04 113.05 138.33 112.34 139.05 104.32 137.11 105.11 147.28 95.66 147.14 95.66 127.59 92.86 122.73 92.86 103.68 95.23 99.82 99.95 96.74 99.88 85.64 97.71 82.85 97.71 66.39 99.81 64.17 103.82 64.17"/>
        <rect class="cls-4" x="111.05" y="87.46" width="7.76" height="1.04"/>
        <polygon class="cls-4" points="140.23 91.54 139.84 93.22 140.62 94.4 142.64 94.73 145.05 94.12 146.61 93.56 147.85 92.05 144.26 87.68 144.26 81.91 143.25 81.46 143.09 82.63 141.85 82.69 141.57 84.09 142.86 87.73 143.31 88.35 146.22 91.43 145.49 92.33 141.97 92.38 141.24 91.65 140.23 91.54"/>
        <polygon class="cls-4" points="135.07 78.32 133.67 79.5 133.67 81.01 135.07 82.13 137.37 81.91 141.41 81.74 140.9 82.58 138.88 82.58 138.88 83.64 139.44 84.87 140.96 87.06 141.41 88.63 141.13 90.14 140.17 90.59 139.84 89.86 139.5 88.1 136.7 84.45 135.19 83.98 133.28 84.03 132.61 85.32 135.13 88.91 136.42 92.83 137.01 96.81 136.2 100.11 136.76 102.02 139.61 103.47 142.3 103.98 145.21 103.98 147.18 104.49 145.9 104.49 145.26 106.01 143.84 106.01 141.69 107.28 129.64 107.84 128.02 110.48 128.02 121.85 131.21 127.67 131.6 131.09 133.51 132.94 133.06 125.32 130.29 120.78 130.29 110.93 131.04 110.93 131.99 113.33 133.95 115.85 136.53 117.42 138.6 117.87 138.32 119.16 137.6 120.11 137.6 130.25 138.66 132.94 141.18 135.35 142.3 136.36 141.74 136.92 135.47 135.41 136.08 143.36 128.69 143.25 128.69 127.95 126.5 124.15 126.5 109.24 128.35 106.22 132.05 103.81 131.99 95.13 130.29 92.94 130.29 80.06 131.94 78.32 135.07 78.32"/>
        <rect class="cls-4" x="140.73" y="96.55" width="6.07" height=".82"/>
        <polygon class="cls-4" points="162.99 96.63 162.74 97.7 163.24 98.44 164.52 98.65 166.05 98.26 167.04 97.91 167.82 96.95 165.55 94.18 165.55 90.52 164.91 90.23 164.8 90.98 164.02 91.01 163.84 91.9 164.66 94.21 164.95 94.6 166.79 96.56 166.33 97.13 164.09 97.16 163.63 96.7 162.99 96.63"/>
        <polygon class="cls-4" points="159.72 88.24 158.83 88.99 158.83 89.95 159.72 90.66 161.18 90.52 163.74 90.41 163.42 90.94 162.14 90.94 162.14 91.62 162.49 92.4 163.45 93.79 163.74 94.78 163.56 95.74 162.96 96.02 162.74 95.56 162.53 94.44 160.75 92.13 159.79 91.83 158.58 91.87 158.16 92.68 159.76 94.96 160.57 97.45 160.95 99.97 160.43 102.07 160.79 103.28 162.6 104.2 164.31 104.52 166.15 104.52 167.4 104.85 166.59 104.85 166.18 105.81 165.28 105.81 163.91 106.62 156.27 106.97 155.24 108.64 155.24 115.86 157.27 119.55 157.52 121.72 158.73 122.89 158.44 118.06 156.69 115.18 156.69 108.93 157.16 108.93 157.77 110.45 159.01 112.05 160.65 113.05 161.96 113.33 161.78 114.15 161.32 114.76 161.32 121.19 162 122.89 163.6 124.42 164.31 125.06 163.95 125.42 159.97 124.46 160.36 129.51 155.67 129.43 155.67 119.73 154.28 117.31 154.28 107.86 155.46 105.94 157.8 104.41 157.77 98.9 156.69 97.52 156.69 89.34 157.73 88.24 159.72 88.24"/>
        <rect class="cls-4" x="163.31" y="99.81" width="3.85" height=".52"/>
      </g>
      <polygon class="cls-3" points="62.49 144.83 59.89 129.76 51.33 124.73 47.8 111.53 50.4 110.22 45.75 88.64 38.68 78.04 29.01 78.97 20.82 82.88 19.52 86.41 19.52 91.06 21.01 94.22 19.52 97.57 25.47 131.25 27.33 131.25 26.03 134.78 26.59 144.83 62.49 144.83"/>
      <polygon class="cls-4" points="34.4 89.76 42.03 88.83 36.45 82.88 29.94 82.88 23.24 85.11 19.52 88.83 19.52 91.06 21.01 94.22 19.52 97.57 25.47 131.25 27.33 131.25 26.03 134.78 26.59 144.83 35.89 144.83 35.33 141.48 42.03 132.92 49.47 126.22 48.36 124.36 45.01 127.9 39.43 129.57 34.5 129.2 32.54 115.81 34.5 113.85 40.56 112.64 40.37 110.96 31.47 112.15 32.2 111.54 36.5 110.9 36.22 109.92 30.28 110.78 26.99 113.16 26.08 112.15 27.54 110.05 32.29 107.3 37.23 106.09 38.05 103.37 36.82 101.35 34.5 101.12 28.27 101.45 25.98 101.64 26.26 99.44 27.36 96.24 27.54 90.48 29.09 88.02 31.01 87.1 33.02 87.83 34.4 89.76"/>
    </g>
  </g>
</svg>