<?xml version="1.0" encoding="UTF-8"?>
<svg id="Capa_1" data-name="Capa 1" xmlns="http://www.w3.org/2000/svg" viewBox="0 0 203.46 162.77">
  <defs>
    <style>
      .cls-1 {
        fill: #f39d96;
      }

      .cls-1, .cls-2, .cls-3, .cls-4 {
        stroke-width: 0px;
      }

      .cls-2 {
        fill: #2c80c3;
      }

      .cls-3 {
        fill: #e6332a;
      }

      .cls-4 {
        fill: #fdc300;
      }
    </style>
  </defs>
  <rect class="cls-1" width="203.46" height="162.77"/>
  <g>
    <polygon class="cls-3" points="56.96 75.9 40.87 63.64 28.98 56.62 21.06 56.62 15.02 61.67 13.51 70.72 16.34 81.14 22.94 91.5 36.34 101.86 46.53 106.16 67.86 111.11 86.35 114.13 104.66 115.26 115.04 118.28 134.74 121.68 151.46 121.68 168.44 116.77 182.6 108.28 189.96 97.8 189.01 86.58 180.71 76.95 166.35 72.42 154.1 74.51 142.4 79.97 137.35 82.76 56.96 75.9"/>
    <polygon class="cls-2" points="61.2 54.49 63.66 50.24 82.28 43.71 100.26 41.09 116.6 44.04 130.81 51.22 133.59 54.49 120.68 50.41 106.96 47.79 88.17 47.79 72.81 51.06 61.2 54.49"/>
    <polygon class="cls-4" points="58.75 63.64 61.2 54.49 72.81 51.06 88.17 47.79 106.96 47.79 120.68 50.41 133.59 54.49 134.74 63.64 129.02 60.54 121.17 58.58 110.88 57.11 107.77 56.78 93.07 56.62 90.13 57.11 77.54 58.41 68.07 59.56 58.75 63.64"/>
    <polygon class="cls-3" points="136.53 74.43 130.81 70.51 122.64 68.22 111.04 66.26 108.1 66.26 93.72 66.26 89.8 66.26 76.73 67.08 67.25 68.71 57.61 71.65 58.75 63.64 68.07 59.56 77.54 58.41 90.13 57.11 93.07 56.62 107.77 56.78 110.88 57.11 121.17 58.58 129.02 60.54 134.74 63.64 136.53 74.43"/>
    <polygon class="cls-4" points="56.96 75.9 57.61 71.65 67.25 68.71 76.73 67.08 89.8 66.26 93.72 66.26 108.1 66.26 111.04 66.26 122.64 68.22 130.81 70.51 136.53 74.43 137.35 82.76 131.96 79.66 123.95 77.7 111.86 75.74 108.59 75.41 93.07 75.57 89.64 75.57 75.58 76.55 66.92 77.86 61.2 79.17 56.96 75.9"/>
    <polygon class="cls-3" points="137.35 92 137.35 82.76 131.96 79.66 123.95 77.7 111.86 75.74 108.59 75.41 93.07 75.57 89.64 75.57 75.58 76.55 66.92 77.86 61.2 79.17 66.92 83.71 72.64 87.34 75.09 86.85 89.8 85.7 92.9 85.54 108.43 85.21 111.86 85.21 124.77 86.36 132.61 88.48 137.35 92"/>
    <polygon class="cls-2" points="139.31 97.8 131.47 93.87 112.35 90.61 92.9 90.61 78.85 92 72.64 87.34 75.09 86.85 89.8 85.7 92.9 85.54 108.43 85.21 111.86 85.21 124.77 86.36 132.61 88.48 137.35 92 139.31 97.8"/>
    <polygon class="cls-4" points="142.38 98.63 146.3 99.53 147.35 100.96 144.87 101.26 141.02 101.26 132.89 97.8 121.28 96.59 107.11 94.41 97.15 94.41 84.05 95.01 93.1 100.96 95.66 100.51 99.28 99.61 107.79 100.96 113.97 101.26 118.64 101.79 129.19 103.6 138.31 105.86 147.35 106.16 154.29 105.26 156.47 101.94 152.03 98.85 146.15 98.17 142.38 98.63"/>
    <polygon class="cls-2" points="140.57 97.04 145.92 95.91 155.27 95.38 164.16 97.8 166.35 102.54 163.71 107.29 158.36 110.23 150.52 111.96 142.53 111.96 131.68 111.36 120.26 107.97 107.87 107.97 97.15 103.07 104.1 102.69 111.26 104.28 119.02 104.43 125.35 106.16 135.67 107.97 144.57 108.87 154.36 108.12 160.02 105.56 160.69 101.34 156.47 97.8 150.14 97.19 140.57 97.04"/>
    <polygon class="cls-2" points="137.65 92.89 144.19 89.43 154.51 86.27 163.78 85.21 171.62 86.87 177.27 90.71 179.76 97.19 178.33 102.85 172.53 109.7 177.12 107.74 183 102.02 184.28 95.01 178.33 85.21 170.42 81.82 161.97 81.14 153.46 82.76 144.34 86.72 137.35 90.26 137.35 92 137.65 92.89"/>
    <polygon class="cls-4" points="137.35 86.42 143.59 82.35 150.75 79.11 157.83 76.85 165.22 75.87 171.7 75.87 177.35 78.28 181.72 81.14 184.28 84.53 183.45 85.66 181.49 83.1 176.37 80.01 170.26 78.05 164.91 77.9 157.75 78.81 150.75 81.14 144.11 84.38 137.35 88.68 137.35 86.42"/>
    <polygon class="cls-4" points="138.02 93.97 145.47 91.5 155.28 89.3 166.35 90.44 173.63 94.41 174.56 99.78 172.76 106.16 167.49 110.72 161.42 112.59 166.76 108.99 169.89 104.85 169.49 99.85 167.29 96.31 163.36 93.97 155.15 93.44 144.94 94.41 138.73 96.09 138.02 93.97"/>
    <polygon class="cls-4" points="16.47 64.93 17.99 61.37 19.85 61.37 21.54 59.77 21.54 61.71 24.08 58.84 24.67 61.88 26.45 59.68 27.21 62.39 29.41 60.53 30 63.23 32.03 61.88 32.03 64.17 35.08 64 35.67 67.55 39.65 66.7 40.49 71.36 44.98 71.36 45.65 74.51 49.63 74.51 50.81 78.38 54.54 78.38 55.47 82.27 59.36 82.27 61.2 86.58 65.36 85.82 67.39 90.14 72.13 90.14 74.75 95.21 80.59 95.38 82.03 100.28 87.61 100.28 90.24 104.69 95.57 104.69 98.61 109.17 103.86 108.83 106.56 111.62 113.16 111.62 116.12 115.18 121.71 114.08 123.57 116.7 125.68 117.29 130.42 115.43 132.45 118.31 133.8 118.31 137.35 115.94 139.98 118.31 141.59 118.31 144.72 116.7 146.41 118.31 148.61 118.31 152.75 115.77 155.54 117.54 156.81 117.54 160.82 115.01 162.56 116.44 165.86 113.23 168.49 114.58 170.85 111.96 173.56 112.59 174.56 111.96 175.76 109.7 176.69 110.44 176.69 111.33 172.87 113.28 168.54 115.24 162.6 117.2 156.95 118.31 148.63 118.87 139.76 118.87 133.62 118.87 131.75 118.87 125.24 118.03 122.58 117.2 114.83 115.52 105.98 112.31 103.15 112.31 92.48 107.49 82.7 102.88 69.01 94.41 57.61 86.18 44.84 77.59 36.46 71.51 28.56 66.26 24.58 64.53 19.97 64.39 15.22 67.39 16.47 64.93"/>
    <polygon class="cls-2" points="49 92 46.32 92.75 45.83 94.79 50.61 98.73 61.6 102.04 75.26 105 81.74 105.56 84.98 107.54 78.07 107.54 66.81 105.85 48.22 101.06 38.72 95.99 37.03 92 38.72 89.58 42.52 88.85 46.74 90.07 49 92"/>
    <polygon class="cls-4" points="36.67 87.05 33.5 88.24 32.73 92 35.69 95.85 42.02 100.5 49.49 103.17 60.05 105.92 71.6 108.38 83.64 109.51 91.17 110 93.92 111.48 91.1 111.96 78.5 110.85 63.32 108.59 54.06 106.55 42.24 102.4 34.84 97.33 30.2 93.38 27.73 89.15 28.08 86.2 30.76 85.21 34.28 85.85 36.67 87.05"/>
    <polygon class="cls-4" points="94.48 110.63 78.71 101.97 68.29 96.41 52.59 86.27 43.01 79.72 32.8 72.82 24.98 68.6 19.63 68.25 16.39 70.92 16.04 76.56 18.08 82.76 23.79 91.06 31.96 97.47 39.14 102.33 46.53 106.16 39.14 101.41 32.66 96.9 25.55 91.2 22.17 86.76 19.63 82.76 20.13 78.81 23.01 76.91 29.42 79.23 47.38 87.33 56.67 92.4 58.85 93.74 59.7 93.17 74.91 101.48 89.76 108.94 94.48 110.63"/>
    <polygon class="cls-2" points="24.7 80.64 22.24 81.84 21.68 84.3 22.17 86.76 25.55 91.2 30.94 95.52 26.31 90 24.42 85.21 26.6 83.1 29.84 83.39 34.84 84.86 39.28 86.62 31.04 81.7 24.7 80.64"/>
    <polygon class="cls-3" points="69.4 52.07 68.07 59.56 77.54 58.41 78.63 49.82 72.81 51.06 69.4 52.07"/>
    <polygon class="cls-4" points="67.25 68.71 76.73 67.08 77.54 58.41 68.07 59.56 67.25 68.71"/>
    <polygon class="cls-3" points="75.58 76.55 76.73 67.08 67.25 68.71 66.92 77.86 75.58 76.55"/>
    <polygon class="cls-4" points="75.09 86.85 75.58 76.55 66.92 77.86 66.92 83.71 72.64 87.34 75.09 86.85"/>
    <polygon class="cls-3" points="90.23 47.79 90.13 57.11 93.07 56.62 93.07 47.79 90.23 47.79"/>
    <polygon class="cls-4" points="89.8 66.26 93.72 66.26 93.07 56.62 90.13 57.11 89.8 66.26"/>
    <polygon class="cls-2" points="93.07 75.57 93.72 66.26 89.8 66.26 89.64 75.57 93.07 75.57"/>
    <polygon class="cls-4" points="92.9 85.54 93.07 75.57 89.64 75.57 89.8 85.7 92.9 85.54"/>
    <polygon class="cls-4" points="108.43 85.21 111.86 85.21 111.86 75.74 108.59 75.41 108.43 85.21"/>
    <polygon class="cls-2" points="111.04 66.26 111.86 75.74 108.59 75.41 108.1 66.26 111.04 66.26"/>
    <polygon class="cls-4" points="107.77 56.78 110.88 57.11 111.04 66.26 108.1 66.26 107.77 56.78"/>
    <polygon class="cls-3" points="108.1 48.01 111.04 48.57 110.88 57.11 107.77 56.78 108.1 48.01"/>
    <polygon class="cls-3" points="120.68 50.41 121.17 58.58 129.02 60.54 127.48 52.56 120.68 50.41"/>
    <polygon class="cls-4" points="122.64 68.22 121.17 58.58 129.02 60.54 130.81 70.51 122.64 68.22"/>
    <polygon class="cls-3" points="123.95 77.7 131.96 79.66 130.81 70.51 122.64 68.22 123.95 77.7"/>
    <polygon class="cls-4" points="124.77 86.36 123.95 77.7 131.96 79.66 132.61 88.48 124.77 86.36"/>
    <polygon class="cls-3" points="100.4 47.79 93.72 52.45 100.05 56.69 107.19 52.56 100.4 47.79"/>
    <polygon class="cls-4" points="100.74 66.26 107.19 62.02 100.68 56.62 94.77 61.44 100.74 66.26"/>
    <polygon class="cls-3" points="100.74 66.26 107.19 70.18 100.98 75.49 94.48 70.92 100.74 66.26"/>
    <polygon class="cls-4" points="100.98 85.37 107.77 80.64 100.98 75.49 93.92 79.99 100.98 85.37"/>
  </g>
</svg>