<?xml version="1.0" encoding="utf-8"?>
<!-- Generator: Adobe Illustrator 28.1.0, SVG Export Plug-In . SVG Version: 6.00 Build 0)  -->
<svg version="1.1" id="Capa_1" xmlns="http://www.w3.org/2000/svg" xmlns:xlink="http://www.w3.org/1999/xlink" x="0px" y="0px"
	 viewBox="0 0 203.5 162.8" style="enable-background:new 0 0 203.5 162.8;" xml:space="preserve">
<style type="text/css">
	.st0{fill:#2C80C3;}
	.st1{fill:#FDC300;}
	.st2{fill:#7E6A25;}
	.st3{fill:#004259;}
	.st4{fill:#1B4C2F;}
	.st5{fill:#33915C;}
	.st6{fill:#E6332A;}
	.st7{fill:#601313;}
</style>
<rect class="st0" width="203.5" height="162.8"/>
<g>
	<g>
		<path class="st1" d="M91.8,69L88,64.6l-1.5-6.2l1.5-7.5l4.7-5.9l7.6-2.8l7.3-1.1l6.8-5l2.6-7.5l-1.2-7.8l-4.8-6.2l-6.9-2.7
			c-0.8-0.1-1.6-0.1-2.3-0.1c-16.8,0-30.5,13.6-30.5,30.5c0,15.9,12.3,29,27.9,30.3l-2.6-0.9L91.8,69L91.8,69z"/>
		<path class="st2" d="M104.1,11.8l6.9,2.7l4.8,6.2l1.2,7.8l-2.6,7.5l-6.8,5l-7.3,1.1l-7.6,2.8L88,50.8l-1.5,7.5l1.5,6.2l3.8,4.5
			l4.8,2.6l2.6,0.9c0.8,0.1,1.7,0.1,2.6,0.1c16.8,0,30.4-13.6,30.4-30.5S119.8,13,104.1,11.8L104.1,11.8z"/>
		<polygon class="st2" points="103.3,22.2 100.2,22.2 97.8,24 96.8,26.9 97.8,29.8 100.2,31.6 103.3,31.6 105.8,29.8 106.7,26.9 
			105.8,24 		"/>
		<polygon class="st1" points="103.3,52.8 100.2,52.8 97.8,54.6 96.8,57.5 97.8,60.4 100.2,62.2 103.3,62.2 105.8,60.4 106.7,57.5 
			105.8,54.6 		"/>
	</g>
	<g>
		<rect y="141.9" class="st3" width="203.5" height="20.9"/>
		<g>
			<polygon class="st4" points="19.5,79.3 28.4,92.8 37.9,100.5 43.1,102.4 42.5,95.2 36.5,86 			"/>
			<polygon class="st4" points="11.5,109.4 24.6,119.9 35.2,127.6 35.2,115.1 32.5,114.9 			"/>
			<polygon class="st5" points="182.9,74.3 164.7,77.2 150.8,74.9 145.4,63.5 127,66.4 101.8,67.4 76.5,66.4 58.1,63.5 52.8,74.9 
				38.8,77.2 20.6,74.3 17.3,78.5 36.5,86 62,89 84.2,90.9 101.8,90.9 119.4,90.9 141.6,89 167,86 186.2,78.5 			"/>
			<polygon class="st5" points="185.4,106.1 174.4,106.1 160.2,104.6 135.8,106.1 101.8,106.1 67.7,106.1 43.3,104.6 29.1,106.1 
				18.1,106.1 8.4,105.3 9.5,108.9 32.5,114.9 55.3,116.7 77.4,117.5 101.8,117.5 126.2,117.5 148.3,116.7 171.1,114.9 194,108.9 
				195.1,105.3 			"/>
			<polygon class="st4" points="184,79.3 175.1,92.8 165.6,100.5 160.4,102.4 161.1,95.2 167,86 			"/>
			<polygon class="st6" points="119.4,90.9 101.8,90.9 84.2,90.9 36.5,86 42.5,95.2 43.3,104.6 67.7,106.1 101.8,106.1 135.8,106.1 
				160.2,104.6 161.1,95.2 167,86 			"/>
			<polygon class="st6" points="148.3,116.7 126.2,117.5 101.8,117.5 77.4,117.5 55.3,116.7 35.2,115.1 35.2,144.9 101.8,144.9 
				168.3,144.9 168.3,115.1 			"/>
			<rect x="94.9" y="125.8" class="st7" width="13.7" height="19.1"/>
			<g>
				<rect x="43.5" y="127.6" class="st7" width="13.7" height="17.3"/>
				<rect x="146.3" y="127.6" class="st7" width="13.7" height="17.3"/>
			</g>
			<g>
				<rect x="46.6" y="98.6" class="st7" width="8.5" height="3.9"/>
				<rect x="59.3" y="98.6" class="st7" width="8.5" height="3.9"/>
				<rect x="72.1" y="98.6" class="st7" width="8.5" height="3.9"/>
				<rect x="84.8" y="98.6" class="st7" width="8.5" height="3.9"/>
				<rect x="97.5" y="98.6" class="st7" width="8.5" height="3.9"/>
				<rect x="110.2" y="98.6" class="st7" width="8.5" height="3.9"/>
				<rect x="123" y="98.6" class="st7" width="8.5" height="3.9"/>
				<rect x="135.7" y="98.6" class="st7" width="8.5" height="3.9"/>
				<rect x="148.5" y="98.6" class="st7" width="8.5" height="3.9"/>
			</g>
			<polygon class="st4" points="192.1,109.4 178.9,119.9 168.3,127.6 168.3,115.1 171.1,114.9 			"/>
		</g>
	</g>
</g>
</svg>
