<?xml version="1.0" encoding="utf-8"?>
<!-- Generator: Adobe Illustrator 28.1.0, SVG Export Plug-In . SVG Version: 6.00 Build 0)  -->
<svg version="1.1" id="Capa_1" xmlns="http://www.w3.org/2000/svg" xmlns:xlink="http://www.w3.org/1999/xlink" x="0px" y="0px"
	 viewBox="0 0 203.5 162.8" style="enable-background:new 0 0 203.5 162.8;" xml:space="preserve">
<style type="text/css">
	.st0{fill:#F39D96;}
	.st1{fill:#E6332A;}
	.st2{fill:#601313;}
	.st3{fill:#FDC300;}
	.st4{fill:#7E6A25;}
</style>
<rect class="st0" width="203.5" height="162.8"/>
<g>
	<polygon class="st1" points="148.7,68.2 142,58.2 130.9,48.1 118.5,42.7 101.8,42.7 85,42.7 72.6,48.1 61.5,58.2 54.8,68.2 
		51.7,79.8 51.7,94 55.8,104.1 62.8,113.5 73.2,122.3 84.6,127.6 101.8,127.6 118.9,127.6 130.3,122.3 140.8,113.5 147.7,104.1 
		151.9,94 151.9,79.8 	"/>
	<polygon class="st2" points="106.7,112.1 85.1,105.9 68.7,95.8 52,78.3 52,78.3 51.7,79.8 51.7,94 55.8,104.1 62.8,113.5 
		73.2,122.3 84.6,127.6 101.8,127.6 118.9,127.6 130.3,122.3 140.8,113.5 141.7,112.2 125.6,113.2 	"/>
	<polygon class="st3" points="115.8,127.6 112.2,127.6 126.2,116.2 135,97.9 135,75.3 125.7,53.9 112.2,42.7 115.7,42.7 127.5,52.5 
		127.7,52.8 137.2,74.8 137.2,98.5 128.1,117.6 	"/>
	<polygon class="st3" points="107.9,127.6 105.3,127.6 109.2,120.7 113.3,103.2 115.2,81.1 112.9,59.8 105.4,42.7 107.8,42.7 
		115.1,59.2 115.1,59.4 117.5,81.1 117.5,81.2 115.6,103.6 111.4,121.5 	"/>
	<polygon class="st3" points="87.4,127.6 90.9,127.6 76.9,116.2 68.2,97.9 68.2,75.3 77.5,53.9 90.9,42.7 87.4,42.7 75.6,52.5 
		75.5,52.8 65.9,74.8 65.9,98.5 75.1,117.6 	"/>
	<polygon class="st3" points="95.2,127.6 97.8,127.6 93.9,120.7 89.8,103.2 87.9,81.1 90.3,59.8 97.8,42.7 95.3,42.7 88.1,59.2 
		88,59.4 85.7,81.1 85.7,81.2 87.6,103.6 91.8,121.5 	"/>
	<rect x="85" y="31.2" class="st3" width="33.5" height="11.4"/>
	<rect x="84.6" y="127.6" class="st3" width="34.4" height="11.4"/>
	<rect x="100" class="st3" width="3.6" height="31.2"/>
	<polygon class="st4" points="116.8,139 118.5,146.8 115.2,140.8 115.2,147.2 113,141.5 113,148 111.4,141.4 111.4,148 109.6,140.5 
		109.6,148.8 107.2,140.8 106.9,148.8 105.3,141.1 104.6,148.8 102.4,140.9 101.8,148.8 100.9,140.7 99.5,148.8 98.7,141 97,148.8 
		96.7,140.6 94.6,148.3 94.6,140.1 91.7,148.3 91.7,140.2 89.7,147.9 89.7,140.2 87.1,147.1 87.6,140.8 85.7,145.9 86.6,139 	"/>
</g>
</svg>
