<?xml version="1.0" encoding="utf-8"?>
<!-- Generator: Adobe Illustrator 28.1.0, SVG Export Plug-In . SVG Version: 6.00 Build 0)  -->
<svg version="1.1" id="Capa_1" xmlns="http://www.w3.org/2000/svg" xmlns:xlink="http://www.w3.org/1999/xlink" x="0px" y="0px"
	 viewBox="0 0 203.5 162.8" style="enable-background:new 0 0 203.5 162.8;" xml:space="preserve">
<style type="text/css">
	.st0{fill:#FDC300;}
	.st1{fill:#E6332A;}
	.st2{fill:#1B4C2F;}
	.st3{fill:#601313;}
	.st4{fill:#33915C;}
</style>
<rect class="st0" width="203.5" height="162.8"/>
<g>
	<polygon class="st1" points="172.8,60.5 164.3,60.5 155.1,64.6 146.8,74.7 142.7,86.8 140.6,101.2 142.7,117 146.6,128.8 
		154.4,137.9 164.2,142.3 173.7,139.5 182.2,130.9 188.2,118.5 190.9,104.7 190.9,88.9 187,77.1 181.1,66.3 	"/>
	<polygon class="st2" points="101.9,44.8 93.4,44.8 84.2,49 75.9,59.1 71.7,71.2 69.6,85.6 71.7,101.3 75.7,113.1 83.5,122.3 
		93.2,126.7 102.7,123.9 111.2,115.3 117.3,102.9 119.9,89.1 119.9,73.3 116.1,61.5 110.2,50.7 	"/>
	<polygon class="st1" points="80,30.6 98.7,64.8 102.1,107.9 183.7,85.3 178.4,24.7 	"/>
	<polygon class="st3" points="80,30.6 37.2,42.1 54.3,66.3 58.6,102 102.1,107.9 98.7,64.8 	"/>
	<polygon class="st1" points="82.6,102.7 0,127.9 0,119.5 82.6,96.3 	"/>
	<polygon class="st2" points="82.6,96.3 75.1,95.3 0,115.4 0,119.5 	"/>
	<polygon class="st4" points="170.8,69 172.6,89.8 185.2,94 175.1,106.3 179.5,126.2 167.6,117.7 159.4,133.4 157.6,112.6 
		145,108.4 155.1,96.1 150.7,76.2 162.6,84.7 	"/>
	<polygon class="st0" points="159.9,68.2 167.9,85.1 179.9,78.3 175.1,97.5 185.1,111.3 172.4,113.6 170.2,134.2 162.3,117.3 
		150.3,124.1 155,104.9 145.1,91.1 157.8,88.8 	"/>
	<polygon class="st3" points="164.3,60.5 154.1,62.7 145,72.9 139.4,86.1 137.5,101.2 139,117.5 144.2,130.9 153.6,140.2 
		164.2,142.3 154.4,137.9 146.6,128.8 142.7,117 140.6,101.2 142.7,86.8 146.8,74.7 155.1,64.6 	"/>
	<polygon class="st4" points="85.4,40.5 179.5,31.7 179.8,35.5 87.8,44.9 	"/>
	<polygon class="st2" points="97.4,62.5 52.9,64.4 54.3,66.3 54.6,69 98.9,67.3 98.7,64.8 	"/>
	<polygon class="st4" points="180.6,49.6 97.4,62.5 98.7,64.8 98.9,67.3 181,53.7 	"/>
	<polygon class="st4" points="174.3,97.3 178.9,98.4 177,101.1 177.3,104 178.9,105.5 174.3,106.3 171.7,108.6 168.3,109.6 
		164.7,105.9 164.7,98.9 166.4,95 169.7,93.2 173.4,95.8 	"/>
	<polygon class="st2" points="178.9,98.4 180.9,100.4 180.9,103.4 178.9,105.5 177.3,104 177,101.1 	"/>
	<polygon class="st0" points="141.1,82.1 134.2,86.8 123.4,89.2 118.9,82.1 121.3,75.5 126.6,73.1 130,76.6 131.9,81.2 137.5,79.7 
		137.5,75.2 135.3,69.3 127.4,67.3 123.7,69.3 119.9,73.3 116.3,81.8 119.9,89.1 122.9,92.1 134.2,89.5 139.4,86.1 	"/>
	<polygon class="st0" points="119.9,48.8 118.1,52.4 115.1,55.7 108.7,57.5 103,58.6 100.2,55.4 98.9,52.2 100.1,48.4 104.1,46.3 
		108.6,47.7 108.7,50.6 107.7,53.3 104.9,52.4 104.9,49.7 102.1,49.7 102.1,53.6 103.4,56.6 109.4,56 113.9,53.9 117.2,49.7 
		118.6,46.9 122.4,45.3 126.8,46.3 129.7,50.7 127.7,54.2 124.7,54.8 121.6,53 121.8,50.7 124.2,51 125.7,51.9 127.4,51 124.7,48.3 
		121.6,47.7 	"/>
	<polygon class="st0" points="163.9,42.5 162.1,46.2 159.1,49.5 152.7,51.3 147,52.3 144.2,49.2 142.9,46 144.1,42.2 148.1,40 
		152.6,41.4 152.7,44.3 151.7,47 148.9,46.2 148.9,43.4 146.1,43.4 146.1,47.3 147.4,50.3 153.4,49.8 157.9,47.6 161.2,43.4 
		162.6,40.7 166.4,39 170.8,40.1 173.7,44.5 171.7,47.9 168.7,48.5 165.6,46.7 165.8,44.5 168.2,44.8 169.7,45.7 171.4,44.8 
		168.7,42 165.6,41.4 	"/>
	<polygon class="st2" points="85.4,40.5 43.2,50.6 45.6,54.1 87.8,44.9 	"/>
	<polygon class="st2" points="137.5,45.7 134.7,45.7 133.3,47.3 133.3,51.9 136.8,52.3 139.2,50.7 139.2,48.1 	"/>
</g>
</svg>
