<?xml version="1.0" encoding="UTF-8"?>
<svg id="Capa_1" data-name="Capa 1" xmlns="http://www.w3.org/2000/svg" viewBox="0 0 203.46 162.77">
  <defs>
    <style>
      .cls-1 {
        fill: #f8f5e0;
      }

      .cls-1, .cls-2, .cls-3, .cls-4, .cls-5, .cls-6 {
        stroke-width: 0px;
      }

      .cls-2 {
        fill: #601313;
      }

      .cls-3 {
        fill: #ab5243;
      }

      .cls-4 {
        fill: #7e6a25;
      }

      .cls-5 {
        fill: #e6332a;
      }

      .cls-6 {
        fill: #fdc300;
      }
    </style>
  </defs>
  <rect class="cls-6" x="0" width="203.46" height="162.77"/>
  <g>
    <circle class="cls-1" cx="116.43" cy="56.7" r="30.11"/>
    <polygon class="cls-4" points="191.95 136.44 203.46 136.44 203.46 162.77 0 162.77 0 133.5 11.55 132.33 191.95 136.44"/>
    <g>
      <polygon class="cls-2" points="17.9 95.53 75.31 85.12 79.39 85.93 84.57 83.6 89.91 80.67 103.35 76.9 106.09 68.66 110.12 75.61 123.52 78.85 133.61 82.54 144.13 85.68 146.41 87.42 146.84 138.18 145.11 138.18 128.08 140.89 122.83 142.42 101.4 142.42 98.22 141.03 72.59 137.95 59.96 136.79 52.05 136.25 37.19 134.06 31.37 133.38 25.41 133.15 19.86 132.97 14.31 132.92 11.56 132.33 17.9 95.53"/>
      <g>
        <polygon class="cls-3" points="16.89 101.1 16.69 99.61 106.82 87.65 106.93 87.67 117.79 89.26 147.01 95.98 146.67 97.45 117.48 90.74 106.81 89.18 16.89 101.1"/>
        <polygon class="cls-3" points="16.3 105.84 16.2 104.34 115.18 97.75 115.26 97.76 146.66 102.58 146.43 104.07 115.11 99.26 16.3 105.84"/>
        <polygon class="cls-3" points="146.69 112.14 110.92 104.94 15.5 110.47 15.41 108.96 111.03 103.43 146.99 110.66 146.69 112.14"/>
        <polygon class="cls-3" points="146.45 117.42 110.25 112.91 14.79 114.43 14.76 112.92 110.33 111.4 110.39 111.41 146.64 115.92 146.45 117.42"/>
        <polygon class="cls-3" points="146.47 123.51 112.45 120.13 13.95 119.19 13.96 117.68 112.53 118.62 146.62 122 146.47 123.51"/>
        <polygon class="cls-3" points="146.81 129.59 105.48 128.1 12.97 124.75 13.02 123.25 105.53 126.6 146.87 128.08 146.81 129.59"/>
        <polygon class="cls-3" points="112.47 136.08 112.44 136.08 11.51 129.68 11.61 128.18 112.5 134.57 146.83 133.87 146.86 135.38 112.47 136.08"/>
      </g>
      <polygon class="cls-5" points="101.4 142.42 102.33 113.06 109.13 71.39 112.51 56.7 114.89 56.7 117.67 71.78 122.83 112.86 122.83 142.42 113.3 144.01 101.4 142.42"/>
      <polygon class="cls-5" points="87.71 141.03 87.71 132.5 96.63 70.4 99.02 65.24 101.4 69.8 98.22 141.03 93.46 141.41 87.71 141.03"/>
      <polygon class="cls-5" points="77.63 139.7 77.63 131.87 85.82 74.88 88 70.14 90.19 74.33 87.28 139.7 82.91 140.04 77.63 139.7"/>
      <polygon class="cls-5" points="63.59 137.95 63.59 130.65 71.23 77.5 73.27 73.08 75.31 76.99 72.59 137.95 68.52 138.27 63.59 137.95"/>
      <polygon class="cls-5" points="45.45 135.61 46.44 129.89 52.54 88.77 54.31 82.7 56.82 77.75 58.64 88.77 52.05 136.25 49.59 136.3 45.45 135.61"/>
      <polygon class="cls-5" points="53.36 136.16 54.35 128.93 60.45 87.81 64.26 76.9 66.55 87.81 59.96 136.79 57.89 136.96 53.36 136.16"/>
      <polygon class="cls-5" points="50.71 89.77 48.92 80.67 45.45 90.88 38.43 134.75 41.19 135.58 45.45 135.61 50.71 89.77"/>
      <polygon class="cls-5" points="42.43 91.43 41.19 82.46 37.74 92.39 31.95 134.2 33.6 134.89 37.19 134.06 42.43 91.43"/>
      <polygon class="cls-5" points="37.91 90.96 36.1 83.6 34.64 86.99 33.59 93.36 26.11 132.8 28.39 134.08 31.37 133.38 37.91 90.96"/>
      <polygon class="cls-5" points="31.95 93.76 30.67 85.12 28.33 90.32 27.28 95.34 20.68 133.03 22.9 133.5 25.41 133.15 31.95 93.76"/>
      <polygon class="cls-5" points="27.28 93.3 25.64 85.93 23.31 91.19 21.79 98.32 15.07 132.39 17.11 133.5 19.86 132.97 27.28 93.3"/>
      <polygon class="cls-5" points="21.17 84.47 18.4 92.65 11.56 132.33 14.31 132.92 15.07 132.39 22.02 95.11 21.17 84.47"/>
      <polygon class="cls-5" points="123.52 78.85 126.67 67.57 128.51 70.14 131.98 83.29 134.48 91 137.08 140.04 132.74 141.41 128.08 140.89 127.97 97.72 125.91 80.58 123.52 78.85"/>
      <polygon class="cls-5" points="133.61 82.54 136.54 70.14 138.71 75.27 141.42 85.36 143.15 93.16 145.11 138.18 142.18 140.04 137.08 140.04 137.08 84.16 133.61 82.54"/>
      <polygon class="cls-5" points="144.13 85.68 146.73 74.73 150.75 85.68 152.05 92.62 154.65 112.36 154.11 137.42 151.29 138.83 146.84 138.18 146.41 87.42 144.13 85.68"/>
      <polygon class="cls-2" points="161.24 34.14 169.82 106.78 170.75 138.83 154.11 137.42 154.65 112.36 150.75 85.68 151.73 71.25 155.46 47.38 161.24 34.14"/>
      <polygon class="cls-5" points="180.82 136.96 178.03 100.36 167.77 46.82 161.24 34.14 169.82 106.78 170.75 138.83 180.82 136.96"/>
      <polygon class="cls-2" points="178.18 89.78 183.41 103.52 184.99 136.97 180.82 136.96 178.03 100.36 176.48 92.3 178.18 89.78"/>
      <polygon class="cls-5" points="183.23 89.78 187.81 103.52 190.28 111.51 191.95 136.44 184.99 136.97 183.41 103.52 180.74 96.51 183.23 89.78"/>
      <polygon class="cls-3" points="114.04 142.42 115.15 98.5 112.51 56.7 109.13 71.39 102.33 113.06 101.4 142.42 113.3 144.01 114.04 142.42"/>
      <g>
        <polygon class="cls-2" points="112.49 119.38 109.61 120.13 112.67 120.96 112.49 119.38"/>
        <polygon class="cls-2" points="113.17 111.4 110.29 112.16 113.35 112.98 113.17 111.4"/>
        <polygon class="cls-2" points="113.86 103.43 110.98 104.18 114.04 105.01 113.86 103.43"/>
        <polygon class="cls-2" points="112.81 95.92 109.93 96.68 112.99 97.5 112.81 95.92"/>
        <polygon class="cls-2" points="111.64 88.42 108.76 89.17 111.82 90 111.64 88.42"/>
        <polygon class="cls-2" points="112.49 127.35 109.61 128.1 112.67 128.93 112.49 127.35"/>
        <polygon class="cls-2" points="112.49 135.32 109.61 136.08 112.67 136.9 112.49 135.32"/>
        <polygon class="cls-2" points="106.64 119.38 103.76 120.13 106.82 120.96 106.64 119.38"/>
        <polygon class="cls-2" points="107.32 111.4 104.44 112.16 107.5 112.98 107.32 111.4"/>
        <polygon class="cls-2" points="108.01 103.43 105.13 104.18 108.19 105.01 108.01 103.43"/>
        <polygon class="cls-2" points="108.84 95.92 105.96 96.68 109.03 97.5 108.84 95.92"/>
        <polygon class="cls-2" points="105.51 127.35 102.63 128.1 105.69 128.93 105.51 127.35"/>
        <polygon class="cls-2" points="105.51 135.32 102.63 136.08 105.69 136.9 105.51 135.32"/>
        <polygon class="cls-3" points="116.43 82.88 119.93 82.88 119.93 83.75 116.43 84.26 116.43 82.88"/>
        <polygon class="cls-3" points="117.62 90 121.13 90 121.13 90.87 117.62 91.38 117.62 90"/>
        <polygon class="cls-3" points="118.06 97.12 121.57 97.12 121.57 97.99 118.06 98.5 118.06 97.12"/>
        <polygon class="cls-3" points="118.38 104.32 121.88 104.32 121.88 105.19 118.38 105.71 118.38 104.32"/>
        <polygon class="cls-3" points="118.75 112.98 122.26 112.98 122.26 113.86 118.75 114.37 118.75 112.98"/>
        <polygon class="cls-3" points="118.51 120.26 122.02 120.26 122.02 121.14 118.51 121.65 118.51 120.26"/>
        <polygon class="cls-3" points="118.75 127.45 122.26 127.45 122.26 128.32 118.75 128.83 118.75 127.45"/>
        <polygon class="cls-3" points="118.51 134.63 122.02 134.63 122.02 135.51 118.51 136.02 118.51 134.63"/>
      </g>
    </g>
  </g>
</svg>