<?xml version="1.0" encoding="utf-8"?>
<!-- Generator: Adobe Illustrator 28.1.0, SVG Export Plug-In . SVG Version: 6.00 Build 0)  -->
<svg version="1.1" id="Capa_1" xmlns="http://www.w3.org/2000/svg" xmlns:xlink="http://www.w3.org/1999/xlink" x="0px" y="0px"
	 viewBox="0 0 203.5 162.8" style="enable-background:new 0 0 203.5 162.8;" xml:space="preserve">
<style type="text/css">
	.st0{fill:#2C80C3;}
	.st1{fill:#33915C;}
	.st2{fill:#FDC300;}
	.st3{fill:#E6332A;}
	.st4{fill:#7E6A25;}
</style>
<g>
	<rect class="st0" width="203.5" height="162.8"/>
	<g>
		<polygon class="st1" points="121.2,40.9 116.1,35.5 110.8,32.3 108.8,31.6 108.7,37.6 108.1,39.5 106.9,40 106.6,43.5 105.3,47.7 
			102.8,50.6 101.7,50.6 100.7,50.6 98.1,47.7 96.8,43.5 96.5,40 95.4,39.5 94.8,37.6 94.6,31.6 92.7,32.3 87.3,35.5 82.2,40.9 
			79.3,48.5 88.4,54.5 95.2,54.9 98.9,52.9 101.7,54.2 104.6,52.9 108.3,54.9 115,54.5 124.2,48.5 		"/>
		<polygon class="st2" points="99,99 99,109.1 85.3,132.5 82.1,131.9 80.2,129 84.7,117.8 86.3,111.6 89.6,106.7 89.2,102 
			90.7,102.8 93.5,102.8 97.2,91.2 97.2,99.2 		"/>
		<polygon class="st1" points="80.2,129 76.8,125.7 75.2,128.2 75.6,132.5 79,134.6 83.6,136.2 87.9,136.2 90.2,134 91.3,132.5 
			87.8,131 85.3,132.5 82.1,131.9 		"/>
		<polygon class="st2" points="78.2,134.1 78.8,136.8 77.8,142.3 81,142.8 83.3,142 82.6,137.1 83,136 79,134.6 		"/>
		<polygon class="st3" points="71,63.8 50.5,71.4 44.7,71.4 43.7,72.6 44,74 44.8,76.2 45.8,77.5 52,74.4 75.2,69.8 72.2,67.6 		"/>
		<polygon class="st2" points="48.5,71.4 46.8,67.2 49.1,67.2 51.3,64.6 52.9,66.1 54.5,69.2 55.6,73.7 55.1,77.5 52.7,80.6 
			49.9,78.5 49,79.3 49.3,75.8 52,74.4 50.5,71.4 		"/>
		<polygon class="st1" points="44.7,70.2 43.7,61.2 35.7,65.3 43.4,71.4 48.2,78.4 49.1,77.5 		"/>
		<polygon class="st1" points="81.1,126.8 86.7,130.1 88.6,126.8 82.5,123.3 		"/>
		<polygon class="st1" points="83.6,120.4 90.3,123.9 92.4,120.4 84.8,117.2 84.7,117.8 		"/>
		<polygon class="st1" points="85.6,114.3 93.7,118.2 95.1,115.7 86.3,111.6 		"/>
		<polygon class="st1" points="88,109.1 96.9,112.6 99,109.1 89.6,106.7 		"/>
		<polygon class="st2" points="113.2,18.7 110.1,13.1 112.8,10 107.2,12.3 109,18.6 107.9,21.8 101.7,26.8 95.6,21.8 94.5,18.6 
			96.2,12.3 90.7,10 93.4,13.1 90.2,18.7 90.2,22.5 95.1,28.5 94.6,31.6 94.8,37.6 95.9,36.4 95.9,31.7 98,29.9 101.7,32 
			105.4,29.9 107.5,31.7 107.5,36.4 108.7,37.6 108.8,31.6 108.3,28.5 113.2,22.5 		"/>
		<polygon class="st3" points="107.5,36.4 107.5,31.7 105.4,29.9 101.7,32 98,29.9 95.9,31.7 95.9,36.4 94.8,37.6 95.4,39.5 
			96.5,40 96.8,43.5 98.1,47.7 100.7,50.6 101.7,50.6 102.8,50.6 105.3,47.7 106.6,43.5 106.9,40 108.1,39.5 108.7,37.6 		"/>
		<polygon class="st2" points="120,51.2 115,54.5 108.3,54.9 104.6,52.9 101.7,54.2 98.9,52.9 95.2,54.9 88.4,54.5 83.5,51.2 
			70,60.7 72.2,67.6 82.2,74.9 93.3,78.1 101.7,79.3 110.2,78.1 121.3,74.9 131.2,67.6 133.4,60.7 		"/>
		<polygon class="st3" points="131.1,80.3 127.5,74.9 121.3,74.9 110.2,78.1 101.7,79.3 93.3,78.1 82.2,74.9 75.9,74.9 72.4,80.3 
			69.6,83.3 71.1,89.7 72.9,96.2 77.3,102.2 83.2,102.2 86.6,100.7 90.7,102.8 93.5,102.8 97.2,91.2 97.2,99.2 99.9,98.9 
			101.7,102.3 103.6,98.9 106.3,99.2 106.3,91.2 110,102.8 112.8,102.8 116.8,100.7 120.2,102.2 126.2,102.2 130.6,96.2 132.3,89.7 
			133.9,83.3 		"/>
		<polygon class="st2" points="104.5,99 104.5,109.1 118.2,132.5 121.4,131.9 123.3,129 118.8,117.8 117.2,111.6 113.9,106.7 
			114.3,102 112.8,102.8 110,102.8 106.3,91.2 106.3,99.2 		"/>
		<polygon class="st1" points="123.3,129 126.7,125.7 128.2,128.2 127.8,132.5 124.5,134.6 119.8,136.2 115.6,136.2 113.2,134 
			112.1,132.5 115.7,131 118.2,132.5 121.4,131.9 		"/>
		<polygon class="st2" points="125.3,134.1 124.7,136.8 125.6,142.3 122.5,142.8 120.2,142 120.8,137.1 120.5,136 124.5,134.6 		"/>
		<polygon class="st3" points="132.4,63.8 152.9,71.4 158.8,71.4 159.8,72.6 159.4,74 158.7,76.2 157.7,77.5 151.4,74.4 128.3,69.8 
			131.2,67.6 		"/>
		<polygon class="st2" points="154.9,71.4 156.7,67.2 154.4,67.2 152.2,64.6 150.5,66.1 149,69.2 147.9,73.7 148.3,77.5 150.8,80.6 
			153.6,78.5 154.5,79.3 154.2,75.8 151.4,74.4 152.9,71.4 		"/>
		<polygon class="st1" points="158.8,70.2 159.8,61.2 167.8,65.3 160.1,71.4 155.2,78.4 154.3,77.5 		"/>
		<polygon class="st1" points="122.4,126.8 116.8,130.1 114.9,126.8 121,123.3 		"/>
		<polygon class="st1" points="119.8,120.4 113.1,123.9 111.1,120.4 118.6,117.2 118.8,117.8 		"/>
		<polygon class="st1" points="117.9,114.3 109.8,118.2 108.4,115.7 117.2,111.6 		"/>
		<polygon class="st1" points="115.4,109.1 106.6,112.6 104.5,109.1 113.9,106.7 		"/>
		<polygon class="st4" points="95.2,54.9 82.2,74.9 93.3,78.1 101.7,79.3 110.2,78.1 121.3,74.9 108.3,54.9 104.6,52.9 101.7,54.2 
			98.9,52.9 		"/>
	</g>
</g>
</svg>
