<?xml version="1.0" encoding="UTF-8"?>
<svg id="Capa_1" data-name="Capa 1" xmlns="http://www.w3.org/2000/svg" viewBox="0 0 203.46 162.77">
  <defs>
    <style>
      .cls-1 {
        fill: #f39d96;
      }

      .cls-1, .cls-2, .cls-3, .cls-4, .cls-5 {
        stroke-width: 0px;
      }

      .cls-2 {
        fill: #f8f5e0;
      }

      .cls-3 {
        fill: #33915c;
      }

      .cls-4 {
        fill: #2c80c3;
      }

      .cls-5 {
        fill: #ab5243;
      }
    </style>
  </defs>
  <rect class="cls-4" width="203.46" height="162.77"/>
  <g>
    <polygon class="cls-5" points="57.22 108.5 53.86 93 55.54 78.78 55.54 70.04 52.81 66.48 47.54 66.48 43.96 68.59 42.89 73.19 42.89 82.96 38.52 93.66 36.99 97.94 52.81 111.12 57.22 108.5"/>
    <polygon class="cls-5" points="98.7 75.88 101.14 55.41 99.92 53.02 95.69 51.02 90.1 51.02 83.74 55.58 82.84 57.69 90.1 57.72 87.81 64.98 87.96 73.86 84.79 85.11 86.38 87.74 98.7 75.88"/>
    <polygon class="cls-3" points="0 78.66 0 89.23 30.31 87.12 71.9 73.37 103.26 56.83 125.11 69.85 144.85 73.03 161.06 81.83 163.57 90.95 164.58 90.95 162.8 82.04 166.35 83.49 174.8 87.04 179.8 93 180.2 91.87 175.53 85.99 162.56 79.71 156.52 73.91 160.87 74.55 168.36 72.94 168.04 71.73 160.95 73.26 154.67 72.3 146.37 67.39 127.21 65.21 110.46 54.1 117.38 50.39 125.68 50.39 137.03 53.85 140.58 53.53 146.94 59.98 147.82 59.73 141.54 52.97 149.03 51.36 156.76 51.2 156.44 50.39 149.52 49.99 141.3 52 136.95 52.49 126.48 49.34 120.44 49.34 131.54 44.25 144.63 40.58 163.65 37.83 173.05 35.34 172.37 34.23 164.07 36.55 147.14 36.49 151.91 30.99 150.38 30.19 144.94 36.49 135.41 38.01 119.74 43.26 92.19 56.83 69.19 66.64 26.6 77.25 0 78.66"/>
    <polygon class="cls-3" points="163.65 89.69 161.39 97.63 162.52 103.46 169.42 108.54 171.34 100.69 170 94.09 163.65 89.69"/>
    <polygon class="cls-3" points="166.32 73.05 173.94 76.55 179.88 75.83 185.78 68.22 178.22 65.14 171.49 66.03 166.32 73.05"/>
    <polygon class="cls-3" points="153.61 50.49 159.75 56.2 165.62 57.37 173.6 51.98 167.38 46.7 160.71 45.44 153.61 50.49"/>
    <polygon class="cls-3" points="169.61 35.14 180.75 37.26 188.28 34.29 193.41 22.1 182.48 20.53 173.98 23.99 169.61 35.14"/>
    <polygon class="cls-3" points="149.94 31.89 158.4 29.94 162.5 25.33 161.54 14.6 153.42 16.89 148.84 22.17 149.94 31.89"/>
    <polygon class="cls-3" points="146.29 58.96 146.91 63.27 148.98 65.57 154.21 65.73 153.41 61.58 151.04 58.99 146.29 58.96"/>
    <polygon class="cls-3" points="177.96 90.5 180.5 97.22 184.58 100.31 192.85 99.09 190.09 92.66 185.42 89.2 177.96 90.5"/>
    <polygon class="cls-1" points="36.83 74.7 31.51 70.85 24.36 72.78 19.1 76.55 17.66 93 24.34 118.5 35.76 138.53 49.65 147.67 65.46 149.07 80.05 145.74 90.1 139.94 98.68 130.62 105.53 117.44 112.21 111.47 117.3 107.95 122.22 100.4 122.22 92.14 121.35 85.63 115.9 80.01 110.8 77.55 100.61 75.44 93.76 77.02 88.84 79.84 84.79 85.11 82.84 96.53 81.81 101.1 78.99 97.58 75.66 84.05 75.83 70.85 77.71 63.01 75.13 60.33 71.79 60.33 66.34 63.32 62.62 68.28 62.42 76.51 62.48 93 63.18 108.13 54.74 108.66 47.19 104.7 39.98 96.88 36.64 89.5 35.59 82.47 35.41 77.2 36.83 74.7"/>
    <g>
      <polygon class="cls-2" points="90.1 54.48 92.46 54.48 90.88 62.84 89.56 58.31 90.1 54.48"/>
      <polygon class="cls-2" points="87.94 54.48 85.92 57.46 85.34 61.21 86.02 64.67 87.94 60.33 90.1 57.72 89.56 55.83 87.94 54.48"/>
      <polygon class="cls-2" points="85.34 55.44 82.84 57.69 82.36 60.33 82.36 65.06 83.85 64 85.34 59.75 86.61 56.45 85.34 55.44"/>
      <polygon class="cls-2" points="50.35 78.51 52.47 71.3 48.91 71.3 48.91 73.03 50.35 78.51"/>
      <polygon class="cls-2" points="45.93 79.28 48.91 73.03 48.91 71.3 45.93 71.3 45.26 74.19 45.93 79.28"/>
      <polygon class="cls-2" points="41.7 76.59 42.89 73.19 43.96 71.3 45.93 71.3 45.26 74.19 42.66 79.67 41.7 76.59"/>
    </g>
    <polygon class="cls-2" points="105.27 83.98 109.69 84.52 114.48 84.25 118.63 85.97 120.34 90.48 120.34 98.69 117 105.45 110.24 109.51 101.93 110.42 94.36 108.25 87.72 102.84 84.49 97.51 85.34 88.4 87.72 83.08 91.99 79.67 96.7 79.28 101.14 81.36 105.27 83.98"/>
    <polygon class="cls-5" points="119.33 100.73 117.34 93.94 113.4 91.26 109.25 91.26 107.29 94.29 108.55 97.95 112.49 101.95 117 105.45 119.33 100.73"/>
    <polygon class="cls-5" points="85.2 89.93 88.86 87.33 91.99 85.43 95.96 86.06 99.06 88.17 98.56 91.26 95.19 93.3 89.84 93.3 84.65 95.77 85.2 89.93"/>
    <polygon class="cls-5" points="99.51 94.47 104.17 95.77 105.42 98.76 102.91 100.02 99.51 99.66 97.27 97.24 97.27 94.85 99.51 94.47"/>
  </g>
</svg>