<?xml version="1.0" encoding="UTF-8"?>
<svg id="Capa_1" data-name="Capa 1" xmlns="http://www.w3.org/2000/svg" viewBox="0 0 203.46 162.77">
  <defs>
    <style>
      .cls-1 {
        fill: #f8f5e0;
      }

      .cls-1, .cls-2, .cls-3, .cls-4 {
        stroke-width: 0px;
      }

      .cls-2 {
        fill: #7e6a25;
      }

      .cls-3 {
        fill: #e6332a;
      }

      .cls-4 {
        fill: #fdc300;
      }
    </style>
  </defs>
  <rect class="cls-3" width="203.46" height="162.77"/>
  <g>
    <circle class="cls-1" cx="76.2" cy="47.55" r="32.48"/>
    <g>
      <polygon class="cls-4" points="140.71 112.65 139.64 116.95 139.64 108.77 137.7 106.84 139.2 103.57 138.99 95.42 138.34 92.41 137.7 95.42 136.63 95.42 136.63 77.61 137.59 73.96 137 73.96 137 66.44 136.25 65.74 137.27 64.99 136.03 64.99 135.5 60.32 134.8 63.32 134.26 62.63 134.26 60.32 133.4 58.01 132.6 54.52 131.9 58.28 131.31 58.71 131.09 52.37 130.56 54.52 129.75 48.88 129.27 51.61 123.06 15.07 117.21 55.08 116.76 53.96 116.31 55.97 115.94 53.43 115.04 60.07 114.52 58.13 114.07 61.64 114.07 72.52 114.07 98.84 113.58 98.56 113.2 93.87 112.46 97.55 111.35 97 108.65 92.71 108.65 90.4 108.17 87.39 107.69 90.24 107.69 91.83 101.73 84.84 95.77 91.83 95.77 90.24 95.29 87.39 94.82 90.4 94.82 92.71 92.12 97 91 97.55 90.27 93.87 89.88 98.56 89.39 98.84 89.39 72.52 89.39 61.64 88.94 58.13 88.42 60.07 87.53 53.43 87.15 55.97 86.71 53.96 86.26 55.08 80.4 15.07 74.2 51.61 73.71 48.88 72.91 54.52 72.37 52.37 72.16 58.71 71.57 58.28 70.87 54.52 70.06 58.01 69.2 60.32 69.2 62.63 68.67 63.32 67.97 60.32 67.43 64.99 66.19 64.99 67.22 65.74 66.46 66.44 66.46 73.96 65.87 73.96 66.84 77.61 66.84 95.42 65.76 95.42 65.12 92.41 64.48 95.42 64.26 103.57 65.76 106.84 63.83 108.77 63.83 116.95 62.75 112.65 59.1 130.5 59.1 162.77 80.4 162.77 101.73 162.77 123.06 162.77 144.37 162.77 144.37 130.5 140.71 112.65"/>
      <g>
        <rect class="cls-2" x="91.75" y="108.34" width="5.62" height="14.55"/>
        <rect class="cls-2" x="98.92" y="108.34" width="5.62" height="14.55"/>
        <rect class="cls-2" x="106.1" y="108.34" width="5.62" height="14.55"/>
      </g>
      <rect class="cls-2" x="75.17" y="80.03" width="5.11" height="18.24"/>
      <rect class="cls-2" x="122.9" y="80.03" width="5.11" height="18.24"/>
      <polygon class="cls-2" points="113.95 125.05 112.18 129.57 112.18 143.82 101.73 131.93 91.28 143.82 91.28 129.57 89.51 125.05 87.94 129.37 87.94 162.77 101.73 162.77 115.53 162.77 115.53 129.37 113.95 125.05"/>
      <polygon class="cls-2" points="80.4 15.07 74.2 51.61 73.71 48.88 72.91 54.52 72.37 52.37 72.16 58.71 71.57 58.28 70.87 54.52 70.06 58.01 69.2 60.32 69.2 62.63 68.67 63.32 67.97 60.32 67.43 64.99 66.19 64.99 67.22 65.74 66.46 66.44 66.46 73.96 65.87 73.96 66.84 77.61 66.84 95.42 65.76 95.42 65.12 92.41 64.48 95.42 64.26 103.57 65.76 106.84 63.83 108.77 63.83 116.95 62.75 112.65 59.1 130.5 59.1 162.77 71 162.77 71 119.27 70.86 109.55 73.6 106.67 69.75 101.6 69.75 68.59 71.41 62.43 75.37 62.36 80.4 15.07"/>
      <rect class="cls-2" x="68.28" y="72.52" width="21.11" height="3.2"/>
      <polygon class="cls-2" points="114.07 75.72 137.12 75.72 137.59 73.96 137 73.96 137 72.52 114.07 72.52 114.07 75.72"/>
      <rect class="cls-4" x="96.69" y="153.86" width="10.08" height="8.91"/>
      <polygon class="cls-2" points="66.82 105.98 138.09 105.98 139.2 103.57 139.17 102.53 66.82 102.53 66.82 105.98"/>
      <rect class="cls-2" x="75.17" y="109.63" width="1.72" height="10.02"/>
      <rect class="cls-2" x="78.68" y="109.63" width="1.72" height="10.02"/>
      <rect class="cls-2" x="76.79" y="128.93" width="2.16" height="2.16"/>
      <rect class="cls-2" x="76.79" y="134.5" width="2.16" height="2.16"/>
      <rect class="cls-2" x="76.79" y="142.17" width="2.16" height="2.16"/>
      <rect class="cls-2" x="76.79" y="147.73" width="2.16" height="2.16"/>
      <rect class="cls-2" x="76.11" y="157.26" width="3.52" height="5.51"/>
      <rect class="cls-2" x="122.84" y="109.63" width="1.72" height="10.02"/>
      <rect class="cls-2" x="126.35" y="109.63" width="1.72" height="10.02"/>
      <rect class="cls-2" x="124.46" y="128.93" width="2.16" height="2.16"/>
      <rect class="cls-2" x="124.46" y="134.5" width="2.16" height="2.16"/>
      <rect class="cls-2" x="124.46" y="142.17" width="2.16" height="2.16"/>
      <rect class="cls-2" x="124.46" y="147.73" width="2.16" height="2.16"/>
      <rect class="cls-2" x="123.78" y="157.26" width="3.52" height="5.51"/>
    </g>
  </g>
</svg>