<?xml version="1.0" encoding="UTF-8"?>
<svg id="Capa_1" data-name="Capa 1" xmlns="http://www.w3.org/2000/svg" viewBox="0 0 203.46 162.77">
  <defs>
    <style>
      .cls-1 {
        fill: #f39d96;
      }

      .cls-1, .cls-2, .cls-3, .cls-4, .cls-5, .cls-6, .cls-7 {
        stroke-width: 0px;
      }

      .cls-2 {
        fill: #33915c;
      }

      .cls-3 {
        fill: #2c80c3;
      }

      .cls-4 {
        fill: #ab5243;
      }

      .cls-5 {
        fill: #e6332a;
      }

      .cls-6 {
        fill: #fdc300;
      }

      .cls-7 {
        fill: #004259;
      }
    </style>
  </defs>
  <rect class="cls-2" width="203.46" height="162.77"/>
  <g>
    <polygon class="cls-3" points="131.3 99.86 131.87 91.89 131.3 83.16 128.73 76.72 137.65 73.23 145.03 66.78 150.67 55.64 149.2 51.61 146.78 52.82 142.62 52.41 132.87 45.7 69.31 33.21 60.85 34.02 54 33.21 56.42 35.9 54.69 41.67 52.79 46.64 54 54.03 60.04 60.74 69.84 66.54 64.74 74.43 59.77 83.97 63.16 99.86 69.98 103.3 128.73 103.3 131.3 99.86"/>
    <polygon class="cls-1" points="99.14 162.77 112.79 162.77 111.69 157.44 111.69 148.18 116.24 142.85 119.85 136.89 122.83 127.94 123.93 120.73 124.71 117.12 128 116.02 128.63 113.67 128.16 111.63 130.51 108.8 132.87 105.67 132.87 102.37 131.3 99.86 127.85 99.86 125.81 101.43 125.34 95.78 124.4 88.88 118.9 80.07 112.47 76.64 102.28 75.54 99.14 75.54 95.32 75.54 92.18 75.54 81.98 76.64 75.55 80.07 70.06 88.88 69.12 95.78 68.65 101.43 66.61 99.86 63.16 99.86 61.59 102.37 61.59 105.67 63.94 108.8 66.29 111.63 65.82 113.67 66.45 116.02 69.75 117.12 70.53 120.73 71.63 127.94 74.61 136.89 78.22 142.85 82.77 148.18 82.77 157.44 81.67 162.77 95.32 162.77 99.14 162.77"/>
    <polygon class="cls-4" points="102.2 150.97 108.65 149.62 111.69 148.18 111.69 157.44 112.79 162.77 104.35 159.29 102.2 152.85 98.44 152.98 92.13 152.58 85.96 151.1 82.77 148.18 87.7 149.89 93.61 150.83 102.2 150.97"/>
    <polygon class="cls-7" points="61.59 100.48 59.1 95.78 57.89 89.87 56.95 76.85 58.57 63.29 60.04 60.74 69.84 66.54 64.74 74.43 59.77 83.97 63.16 99.86 61.59 102.37 61.59 100.48"/>
    <polygon class="cls-7" points="77.26 61.9 73.78 60.74 69.21 57.71 65.67 57.11 63.76 58.09 64.25 60.49 67.41 63.86 73.16 66.53 78.03 67.29 82.05 67.02 81.78 63.92 79.01 63.15 77.26 61.9"/>
    <polygon class="cls-7" points="131.87 91.89 134.67 85.12 135.18 78.07 135.18 74.19 128.73 76.72 131.3 83.16 131.87 91.89"/>
    <polygon class="cls-7" points="112.39 61.57 116.81 64.39 121.98 66.55 126.58 66.55 129.69 65.33 130.34 64.06 127.57 62.28 125.22 62.32 124.61 63.83 121.88 64.49 116.86 63.08 112.39 61.57"/>
    <polygon class="cls-2" points="129.45 54.1 132.87 57.11 135.87 59.64 128.69 62.24 127.57 62.28 125.22 62.32 109.5 58.57 99.9 67.38 97.73 72.38 95.23 74.55 91.54 76.65 87.2 77.58 81.35 77.58 75.24 76.33 79.91 74.62 84.18 71.33 88.06 66.2 90.03 64.69 81.78 63.92 79.01 63.15 77.26 61.9 73.16 58.9 69.19 56.47 72.54 55.02 129.45 54.1"/>
    <polygon class="cls-6" points="121.37 58.64 126.66 56.54 129.45 54.1 131.96 50.35 130.34 45.21 128.73 43.05 131.96 40.45 127.16 39.21 127.28 33.21 126.66 31.29 124.19 31.29 123.2 32.53 121.37 29.44 119.74 32.66 117.51 30.18 117.51 26.84 115.41 24.61 111.57 23.99 109.96 22.51 108.35 24.24 106.5 22.51 104.58 21.37 102.81 22.33 102.09 23.05 100.79 21.37 99.12 20.89 97.44 21.56 95.91 23.14 94.13 21.08 92.17 19.26 90.2 19.26 88.19 21.51 86.8 22.61 83.11 23.57 79.61 23.19 76.64 24.48 74.68 28.12 72.33 29.08 71.08 28.7 70.61 31 68.4 34.64 64.62 34.31 61.31 34.93 59.49 37.56 59.1 43.36 60.69 48.78 65.67 53.14 70.89 55.34 76.79 55.87 82.05 57.99 86.82 63.26 100.11 65.07 105.38 60.74 109.5 58.57 121.37 58.64"/>
    <polygon class="cls-5" points="85.27 35.04 85.87 29.17 87.77 26.4 90.7 25.28 93.6 29.34 95.11 34.26 97.23 35.64 98.82 35.21 99.25 32.1 101.73 28.73 103.91 29.25 105.29 32.79 107.62 34.09 110.21 33.21 111.85 34.17 111.85 38.31 109.83 41.17 110.3 44.36 112.39 43.41 116.51 40.56 119.19 37.19 123.33 34.82 124.88 36.07 125.31 38.57 124.45 41.25 118.93 45.31 118.24 48.84 119.44 50.74 124.88 48.41 128.73 46 130.34 45.21 132.87 45.7 132.87 48.07 131.96 50.35 128.73 52.9 123.93 52.9 120.31 52.9 118.32 54.1 117.29 57.11 120.65 58.63 123.85 59.55 125.4 60.74 125.22 62.32 124.61 63.83 121.88 64.49 116.86 63.08 112.39 61.57 109.61 61.57 107.71 63.52 108.14 66.55 108.22 69.13 106.76 69.99 104.08 68.87 101.73 67.83 100.63 69.99 99.94 73.44 98.04 73.44 97.23 71.02 97.23 67.29 95.53 65.07 91.14 69.56 90.03 64.69 85.27 67.83 83.28 68.26 82.05 67.02 81.78 63.92 81.3 60.74 80 58.51 77.76 57.11 74.05 51.43 71.89 43.15 71.89 36.42 75.34 32.45 79.14 32.36 82.79 35.86 84.83 36.26 85.27 35.04"/>
    <polygon class="cls-6" points="90.7 44.87 92.26 38.57 93.72 36.07 96.4 36.07 98.73 37.88 98.73 40.9 102.53 38.57 104.08 39.26 106.67 46.17 110.04 47.29 111.85 49.45 110.99 51.61 106.58 52.99 109 57.11 109.5 58.57 107.19 58.57 103.3 57.11 100.46 56.18 100.46 58.57 101.28 61.57 99.68 64.06 96.4 63.69 94.16 62.2 92.43 62.91 89.06 63 86.39 61.57 85.53 59.29 84.23 57.65 80.52 55.92 77.33 51.86 75.34 48.84 75.34 42.54 77.76 38.31 80.87 36.76 85.96 38.66 90.7 44.87"/>
    <polygon class="cls-6" points="122.83 114.76 123.77 113.04 128.63 113.67 132.87 115.39 137.57 119.78 139.77 126.84 138.67 133.12 136.95 136.57 131.3 140.34 126.28 142.22 120.47 142.22 117.69 140.45 119.01 138.27 121.73 139.55 126.59 138.92 133.5 135.16 135.53 131.87 136.48 126.84 134.44 120.73 131.14 117.43 128 116.02 122.83 114.76"/>
    <polygon class="cls-6" points="71.63 114.76 70.69 113.04 65.82 113.67 61.59 115.39 56.88 119.78 54.69 126.84 55.78 133.12 57.51 136.57 63.16 140.34 68.18 142.22 73.98 142.22 76.77 140.45 75.45 138.27 72.73 139.55 67.86 138.92 60.96 135.16 58.92 131.87 57.98 126.84 60.02 120.73 63.31 117.43 66.45 116.02 71.63 114.76"/>
    <polygon class="cls-4" points="99.14 75.54 106.62 77.58 114.96 81.39 119.87 89.2 119.87 98.56 117.69 100.85 118.88 110.37 121.87 114.04 120.87 119.56 119.55 124.08 116.58 137.25 111.69 148.18 116.24 142.85 119.85 136.89 122.83 127.94 123.93 120.73 124.71 117.12 128 116.02 128.63 113.67 128.16 111.63 132.87 105.67 132.87 102.37 131.3 99.86 127.85 99.86 125.81 101.43 125.34 95.78 124.4 88.88 118.9 80.07 112.47 76.64 102.28 75.54 99.14 75.54"/>
  </g>
</svg>