<?xml version="1.0" encoding="utf-8"?>
<!-- Generator: Adobe Illustrator 28.1.0, SVG Export Plug-In . SVG Version: 6.00 Build 0)  -->
<svg version="1.1" id="Capa_1" xmlns="http://www.w3.org/2000/svg" xmlns:xlink="http://www.w3.org/1999/xlink" x="0px" y="0px"
	 viewBox="0 0 203.5 162.8" style="enable-background:new 0 0 203.5 162.8;" xml:space="preserve">
<style type="text/css">
	.st0{fill:#FDC300;}
	.st1{fill:#E6332A;}
	.st2{fill:#601313;}
	.st3{fill:#2C80C3;}
	.st4{fill:#004259;}
</style>
<rect class="st0" width="203.5" height="162.8"/>
<g>
	<polygon class="st1" points="45.1,145.3 34.9,126.8 40,105.7 40,89.8 51.2,82.8 163.8,120.1 171.1,131.6 174.4,148.2 174.4,151.7 
		47,151.7 	"/>
	<polygon class="st2" points="64.2,151.7 56.9,117.2 68.1,108.6 78,108.6 107,121.4 127.7,151.7 	"/>
	<polygon class="st3" points="89.6,18 89.6,27 92.8,36.2 98.6,35.1 103.2,31.8 103.9,28.7 96.7,24.6 	"/>
	<polygon class="st4" points="89.6,18 89.6,14.6 94.5,12 96.7,13.5 99.5,11.1 103.9,11.1 108.6,13.9 109.6,18 108.6,19.7 
		109.6,20.9 109.6,23.3 111.4,24.4 110.7,28.3 112.9,29.5 112.9,31.5 115.5,32.2 116.8,38.8 102.5,41.7 98.6,35.1 103.2,31.8 
		103.9,28.7 96.7,24.6 	"/>
	<path class="st3" d="M116.8,38.8l-14.3,2.9l-6.9,1.9l-3.6,4.3l-1.8,8.2L89,65.4l-6,16.2l4.3-0.9l3,0.3l5.5-1.1l21.5,0.1l1.1-30.4
		l0.7-7.9l1-2L116.8,38.8L116.8,38.8z M97.2,76.2l-3.8,0.6h-2L96.7,61l2.1,2.7h1.8l7.5,13.1L97.2,76.2L97.2,76.2z"/>
	<polygon class="st4" points="120.2,39.7 123.1,39.7 127.2,42.2 128.8,51 128.8,69.4 127.7,77.2 131.6,79.2 134.8,84.6 134.8,89.7 
		132.7,93.9 125.4,98.4 118.7,96 107.5,90.3 100.4,87.5 90.7,85.8 85.2,87 83.7,89.5 84.5,84.9 88.3,80.8 90.4,81 95.9,79.9 
		117.4,80 118.1,61 118.5,49.6 119.2,41.7 	"/>
	<polygon class="st4" points="83,81.6 78.5,82.8 76.3,87.3 77,91.3 79.7,93.4 84.2,94.4 83.7,89.5 84.5,84.9 88.3,80.8 87.3,80.7 	
		"/>
	<polygon class="st3" points="137.8,106.2 125.4,98.4 118.7,96 107.5,90.3 100.4,87.5 90.7,85.8 85.2,87 83.7,89.5 84.2,94.4 
		89,97.5 99.8,100.5 107,102.1 113.9,103.6 	"/>
	<polygon class="st4" points="125.4,98.4 136.9,99.1 146.3,101 150.2,104.9 150.2,107.9 149.7,109.3 153,110.1 159.4,113.1 
		163.4,118.4 163.4,125.3 159.4,132.1 158.8,127.7 153.6,120.3 147.3,116.6 139.1,111.9 116.6,103.8 137.8,106.2 	"/>
	<polygon class="st3" points="0,146.8 7.8,149.9 19.1,145.1 34.9,149.9 47.3,145.1 61.5,149.9 74.6,145.1 87.5,149.9 100.8,145.1 
		114.9,149.9 127.7,145.1 142.4,149.9 155.3,145.1 170.1,149.9 184,144.1 194.6,149.9 203.5,147 203.5,162.8 0,162.8 	"/>
</g>
</svg>
