<?xml version="1.0" encoding="UTF-8"?>
<svg id="Capa_1" data-name="Capa 1" xmlns="http://www.w3.org/2000/svg" viewBox="0 0 203.46 162.77">
  <defs>
    <style>
      .cls-1 {
        fill: #f39d96;
      }

      .cls-1, .cls-2, .cls-3, .cls-4, .cls-5, .cls-6 {
        stroke-width: 0px;
      }

      .cls-2 {
        fill: #601313;
      }

      .cls-3 {
        fill: #2c80c3;
      }

      .cls-4 {
        fill: #ab5243;
      }

      .cls-5 {
        fill: #e6332a;
      }

      .cls-6 {
        fill: #004259;
      }
    </style>
  </defs>
  <rect class="cls-3" width="203.46" height="162.77"/>
  <g>
    <rect class="cls-6" x="0" y="125.45" width="203.46" height="37.32"/>
    <polygon class="cls-1" points="78.2 73.26 74.37 76 69.58 74.63 67.45 67.49 65.24 60.12 60.82 43.69 54.11 37.3 43.69 35.47 36.45 38.94 33.3 45.51 34.76 54.46 39.32 58.11 45.21 60.12 48.64 65.05 54.11 81.66 59.04 90.79 65.97 98.09 60.5 101.56 58.31 109.41 58.67 120.73 58.67 124.2 57.58 127.48 61.95 129.13 71.27 129.13 76.93 127.12 78.2 122.19 78.2 113.79 79.12 110.32 81.86 111.24 81.86 118.36 82.77 130.04 81.13 134.42 85.87 135.88 96.46 135.88 102.3 133.87 103.76 128.58 103.76 117.08 103.76 114.16 112.95 115.25 118.92 115.07 118 118.72 117.82 126.21 124.57 127.12 135.53 126.21 138.45 123.1 139.18 114.16 142.65 112.51 142.65 130.77 147.03 131.86 155.97 132.05 160.36 131.32 162.91 126.94 162.91 119.63 160.72 106.12 165.83 100.65 167.66 96.45 155.61 101.01 136.62 103.57 119.65 103.02 107.23 100.46 96.64 93.89 88.43 84.58 78.2 73.26"/>
    <polygon class="cls-5" points="72.18 64.14 67.45 67.49 68.59 71.29 70.9 69.61 76.56 70.53 78.2 73.26 88.43 84.58 96.64 93.89 107.23 100.46 119.65 103.02 136.62 103.57 155.61 101.01 167.66 96.45 170.17 93.74 167.66 87.57 161.59 83.85 159.03 72.83 151.51 64.14 145.94 52.66 142.93 49.96 129.84 48.45 122.92 44.69 114.65 41.23 106.67 43.49 96.59 49.35 89.07 50.41 84.55 54.92 79.14 62.14 72.18 64.14"/>
    <polygon class="cls-4" points="68.99 99.79 68.99 102.62 74.79 107.48 79.12 110.32 81.86 111.24 84.17 105.99 75.87 103.23 68.99 99.79"/>
    <polygon class="cls-4" points="103.76 114.16 107.17 108.22 111.42 107.27 115.89 102.25 119.65 103.02 136.62 103.57 155.61 101.01 167.66 96.45 165.83 100.65 160.72 106.12 158.9 103.23 156.27 101.41 149.19 102.42 145.41 105.72 142.65 112.51 139.18 114.16 132.05 114.63 118.92 115.07 112.95 115.25 103.76 114.16"/>
    <g>
      <polygon class="cls-2" points="134.5 90.69 114.07 88.84 98.59 80.06 92.71 72.17 84.61 65.61 77.53 62.6 80.08 60.88 86.08 62.95 95.01 70.23 100.62 77.77 114.99 85.91 134.48 87.67 152.2 85.81 161.25 82.38 163.22 84.85 152.7 88.77 134.5 90.69"/>
      <polygon class="cls-2" points="118.02 69.7 101.75 61.61 95 49.58 97.9 48.62 103.92 59.34 117.88 66.27 128.79 59.63 142.87 66.33 150.86 62.79 152.54 65.32 142.83 69.64 128.97 63.03 118.02 69.7"/>
      <polygon class="cls-2" points="130.38 61.44 127.38 61.22 128.4 47.66 131.34 48.62 130.38 61.44"/>
      <rect class="cls-2" x="91.34" y="64.3" width="13.96" height="3" transform="translate(-15.46 98.2) rotate(-49.69)"/>
      <rect class="cls-2" x="118.02" y="67.86" width="3" height="20.23" transform="translate(-10.66 19.51) rotate(-8.94)"/>
      <rect class="cls-2" x="142.59" y="67.91" width="3" height="20.21" transform="translate(-8.46 18.21) rotate(-7.03)"/>
      <polygon class="cls-2" points="158.84 99.79 151.29 88.09 153.81 86.47 161.71 98.7 158.84 99.79"/>
      <polygon class="cls-2" points="135.1 103.52 133 89.4 135.97 88.96 138.11 103.37 136.62 103.57 135.1 103.52"/>
      <polygon class="cls-2" points="112.19 101.49 109.25 100.88 113.08 86.98 115.97 87.77 112.19 101.49"/>
      <polygon class="cls-2" points="91.82 88.43 89.82 86.15 98.57 77.83 100.64 80 91.82 88.43"/>
      <polygon class="cls-2" points="77.34 71.82 74.45 70.18 84.48 63.06 86.21 65.5 77.34 71.82"/>
    </g>
    <polygon class="cls-2" points="68.59 71.29 70.9 69.61 76.56 70.53 78.2 73.26 74.37 76 69.58 74.63 68.59 71.29"/>
    <polygon class="cls-6" points="13.09 129.41 11.2 122.92 6.93 108.3 15.73 122.37 6.93 99.24 17.49 114.33 12.21 88.04 17.49 105.05 20.23 115.25 19.69 100.58 22.54 119.17 23.9 108.72 24.58 123.78 28.65 105.85 29.73 107.9 26.88 127.44 13.09 129.41"/>
    <polygon class="cls-6" points="194.29 137.94 195.06 131.23 196.79 116.09 190.5 131.45 195.25 107.17 187.4 123.82 188.16 97.02 185.84 114.68 184.85 125.2 182.91 110.64 183.24 129.44 180.14 119.38 182.02 134.33 174.97 117.35 174.25 119.56 180.36 138.34 194.29 137.94"/>
    <polygon class="cls-6" points="174.25 132.15 173.35 115.25 176.17 125.45 176.17 115.25 178.08 123.7 178.08 107.47 180.14 119.38 181.33 102.44 183.22 128.01 174.25 132.15"/>
  </g>
</svg>