<?xml version="1.0" encoding="utf-8"?>
<!-- Generator: Adobe Illustrator 28.1.0, SVG Export Plug-In . SVG Version: 6.00 Build 0)  -->
<svg version="1.1" id="Capa_1" xmlns="http://www.w3.org/2000/svg" xmlns:xlink="http://www.w3.org/1999/xlink" x="0px" y="0px"
	 viewBox="0 0 203.5 162.8" style="enable-background:new 0 0 203.5 162.8;" xml:space="preserve">
<style type="text/css">
	.st0{fill:#E6332A;}
	.st1{fill:#601313;}
	.st2{fill:#7E6A25;}
	.st3{fill:#FDC300;}
</style>
<rect class="st0" width="203.5" height="162.8"/>
<g>
	<rect y="139.5" class="st1" width="203.5" height="23.2"/>
	<g>
		<polygon class="st2" points="53.9,104.9 58,105.6 58,107.3 59.8,107.6 59.8,124.6 67.7,125.1 64.7,146.2 46.9,145.7 44.4,145.2 
			41.8,143.3 49.1,114.3 		"/>
		<polygon class="st2" points="145.1,148.8 178.7,141.5 177.2,129 172.7,127.9 172.1,127.9 171.9,126 168.6,125.3 166.8,125.3 
			163.7,111.4 162.3,110.6 161.9,110.6 161.9,109.5 160.9,109.1 160.2,109.1 157,109.3 157,111.1 155.4,111.1 155.4,123.8 
			149.2,122.4 149.1,119.5 145.7,118.4 135,51.8 118.1,32.3 119.7,102 		"/>
		<polygon class="st2" points="105.6,34.1 103.7,31.9 102.8,28 103.4,23.6 105.9,20.1 108.9,18.5 112.9,18.2 116.5,19.7 118.6,22.1 
			119.9,25.3 120,28.1 119.5,30.7 118.8,32.4 118.5,32.8 114.1,34.9 		"/>
		<polygon class="st3" points="145.1,148.8 143.2,120.6 138.2,120.6 138.2,116.5 133.7,116.5 131.6,92.9 130.3,92.9 130.3,90.9 
			124.7,91.8 124.7,93.9 121.9,94.4 121.1,99 118.1,32.3 114.2,33.8 114.2,32.7 113.3,33.1 113.3,30.9 103.3,35 103.3,37.2 
			100.1,38.7 100.1,39.5 86.3,45.4 71.7,122.2 70.4,122.2 65.1,124.7 65.6,124.7 63.7,127.8 65.4,127.9 66.4,130.4 62.2,130.4 
			63.6,133.6 57.7,133.6 57.7,137.2 51.5,137.2 51.3,140.9 47.2,140.9 46.9,145.7 		"/>
		<polygon class="st3" points="53.9,104.9 53.9,106.4 53.3,106.4 50.8,123.6 49.2,123.6 48.9,126.9 47.2,126.9 44.4,145.2 
			24.7,144.4 27.8,128.1 35.7,127.6 36.2,124.6 44,124.1 48.6,106.9 50.9,106.9 51.3,105 		"/>
		<polygon class="st3" points="160.9,109.1 161.1,110.6 162.3,110.6 164.8,125.3 168.6,125.3 168.6,127.9 172.7,127.9 172.9,130.3 
			171.7,130.3 171.7,139.5 171.4,139.5 168.9,136.5 166.2,136.5 163.8,133.7 161.1,133.7 159,131.4 158.6,128.3 160.9,128.3 
			160.1,125.3 162.1,125.3 159.7,110.7 160.4,110.7 160.2,109.1 		"/>
		<polygon class="st2" points="105.5,57.9 103.2,94.5 89.4,97 93.5,61.7 		"/>
	</g>
</g>
</svg>
