<?xml version="1.0" encoding="UTF-8"?>
<svg id="Capa_1" data-name="Capa 1" xmlns="http://www.w3.org/2000/svg" viewBox="0 0 203.46 162.77">
  <defs>
    <style>
      .cls-1 {
        fill: #f8f5e0;
      }

      .cls-1, .cls-2, .cls-3, .cls-4 {
        stroke-width: 0px;
      }

      .cls-2 {
        fill: #601313;
      }

      .cls-3 {
        fill: #e6332a;
      }

      .cls-4 {
        fill: #fdc300;
      }
    </style>
  </defs>
  <rect class="cls-4" width="203.46" height="162.77"/>
  <g>
    <ellipse class="cls-1" cx="100.23" cy="85.11" rx="39.79" ry="39.93"/>
    <polygon class="cls-2" points="9.63 162.77 12.32 139.52 13.67 128.37 13.67 96.83 16.88 95.49 20.3 97.01 22.3 98.7 31.57 97.85 36.7 104.95 46.26 105.62 46.26 136.88 48.11 139.75 49.97 138.06 51.25 133.16 52.53 108.32 54.53 106.97 55.67 108.32 56.67 112.21 58.09 112.04 58.81 108.32 61.52 105.11 62.37 106.8 61.8 144.65 64.37 147.86 67.65 149.04 70.5 146.5 72.07 131.21 73.35 116.1 73.35 104.44 78.35 102.75 86.48 102.92 86.48 119.81 88.76 125.22 88.76 143.8 91.04 148.7 95.6 153.43 100.45 152.42 107.15 146.17 107.15 135.69 112 129.13 112 109.85 116.12 106.97 120.13 106.8 123.56 103.59 127.69 103.09 129.26 100.38 130.97 101.06 130.4 111.87 132.11 114.91 132.11 147.52 136.11 162.77 9.63 162.77"/>
    <polygon class="cls-3" points="203.46 162.77 199.14 131.08 196.97 115.88 196.97 72.89 191.81 71.06 186.3 73.13 183.09 75.43 168.18 74.28 159.92 83.95 144.55 84.87 144.55 127.47 141.56 131.39 138.58 129.09 136.52 122.41 134.45 88.56 131.24 86.72 129.4 88.56 127.8 93.85 125.5 93.62 124.36 88.56 120 84.18 118.62 86.49 119.54 138.07 115.41 142.44 110.13 144.05 105.54 140.6 103.02 119.76 100.95 99.15 100.95 83.26 92.92 80.96 79.84 81.19 79.84 104.22 76.17 111.59 76.17 136.91 72.5 143.59 65.16 150.04 57.36 148.66 46.58 140.14 46.58 125.86 38.78 116.91 38.78 90.63 32.15 86.72 25.7 86.49 20.19 82.11 13.54 81.42 11.01 77.74 8.26 78.66 9.18 93.39 6.42 97.54 6.42 141.98 0 162.77 203.46 162.77"/>
  </g>
</svg>