<?xml version="1.0" encoding="utf-8"?>
<!-- Generator: Adobe Illustrator 28.1.0, SVG Export Plug-In . SVG Version: 6.00 Build 0)  -->
<svg version="1.1" id="Capa_1" xmlns="http://www.w3.org/2000/svg" xmlns:xlink="http://www.w3.org/1999/xlink" x="0px" y="0px"
	 viewBox="0 0 203.5 162.8" style="enable-background:new 0 0 203.5 162.8;" xml:space="preserve">
<style type="text/css">
	.st0{fill:#2C80C3;}
	.st1{fill:#F8F5E0;}
	.st2{fill:#004259;}
	.st3{fill:#E6332A;}
</style>
<rect class="st0" width="203.5" height="162.8"/>
<g>
	<ellipse class="st1" cx="100.1" cy="43" rx="26.4" ry="26.5"/>
	<polygon class="st2" points="195,82.4 195,109 193.9,109 193.9,92.7 188.3,92.7 188.3,74.4 176.5,74.4 176.5,104.5 165.6,104.5 
		165.6,123.2 156.9,123.2 156.9,88.6 147.8,88.6 147.8,82.4 139.9,82.4 139.9,109 138.9,109 138.9,92.7 133.7,92.7 133.7,74.4 
		122.7,74.4 122.7,104.5 116.9,104.5 116.9,81.8 109.7,81.8 109.7,99.9 104.4,99.9 104.4,88.6 98.8,88.6 98.8,82.4 90.2,82.4 
		90.2,109 82.1,109 82.1,92.7 76.9,92.7 76.9,74.4 65.9,74.4 65.9,86.5 61.3,86.4 61.3,81.8 54,81.8 54,99.9 48.5,99.9 48.5,122.1 
		43.2,122.1 43.2,82.4 34.5,82.4 34.5,109 26.5,109 26.5,92.7 21.3,92.7 21.3,74.4 10.3,74.4 10.3,86.5 3.6,86.3 3.6,104.3 0,104.3 
		0,162.8 55.6,162.8 61.3,162.8 96,162.8 116.9,162.8 147.8,162.8 203.5,162.8 203.5,82.4 	"/>
	<polygon class="st3" points="78.4,162.8 84.1,142.7 81.3,142.7 84.1,118.8 81.3,118.8 87.2,105 82.8,98.9 84.4,85.6 87.2,82.5 
		80.9,64.9 84.4,60.5 80.1,37.5 76,28.5 76.6,22.4 73.7,21.2 73.7,18.5 77.5,18.5 77.2,15.9 75.6,13.8 76,11.1 80.4,9.3 81.2,6.2 
		83.6,9.5 83.8,12.6 82.6,15.4 82.6,17.5 84.8,17.5 84.8,20.2 83,22.4 82.2,26.5 83.4,27.3 82.8,31.8 88.4,53.5 95.5,58.8 
		95.5,56.8 93.1,53.7 93.9,49.8 93.1,48.2 88.4,48.2 93.3,46.6 93.3,45.4 87.4,44.9 94.1,44.2 95.2,42.8 90.3,37.5 96.6,41.9 
		99.5,41.1 99.8,34.4 101.2,41.3 103.5,41.8 109.5,37.2 105.2,42.6 106.3,43.8 115,42.1 107.2,45.4 107.6,46.7 115.9,47.4 
		107.6,48.2 107.1,50.9 107.3,52.4 106.7,53.2 107.7,57.6 105.8,60.8 104.8,61.1 104.9,63.5 111,66.5 115.2,74.5 129.8,81.1 
		127.6,83.9 125.2,83.9 124.4,85.3 125.3,86.8 124.6,90.3 125,92.2 124,93.5 124.9,96 119.7,102.2 113.7,103.3 114.9,114.3 
		122.3,162.8 	"/>
</g>
</svg>
