<?xml version="1.0" encoding="utf-8"?>
<!-- Generator: Adobe Illustrator 28.1.0, SVG Export Plug-In . SVG Version: 6.00 Build 0)  -->
<svg version="1.1" id="Capa_1" xmlns="http://www.w3.org/2000/svg" xmlns:xlink="http://www.w3.org/1999/xlink" x="0px" y="0px"
	 viewBox="0 0 203.5 162.8" style="enable-background:new 0 0 203.5 162.8;" xml:space="preserve">
<style type="text/css">
	.st0{fill:#F39D96;}
	.st1{fill:#FDC300;}
	.st2{fill:#004259;}
	.st3{fill:#2C80C3;}
</style>
<g>
	<rect class="st0" width="203.5" height="162.8"/>
	<g>
		<polygon class="st1" points="87,83.8 116.4,83.8 116.4,109.6 101.7,124.2 87,109.6 		"/>
		<polygon class="st2" points="155.6,68.7 149.5,49.4 141.3,31.1 132.7,19.3 121.9,13 112.9,10.2 101.7,8.3 90.6,10.2 81.6,13 
			70.7,19.3 62.1,31.1 54,49.4 47.9,68.7 44.9,86.3 55.6,94.5 61.9,106 61.9,124.4 63.9,136.6 66.9,145 73.2,152.4 81.4,154.5 
			85.4,152.4 87,147.7 87,83.8 101.7,83.8 116.4,83.8 116.4,147.7 118,152.4 122.1,154.5 130.2,152.4 136.6,145 139.5,136.6 
			141.6,124.4 141.6,106 147.9,94.5 158.6,86.3 		"/>
		<polygon class="st3" points="132.7,19.3 121.9,13 112.9,10.2 101.7,8.3 90.6,10.2 81.6,13 70.7,19.3 68.8,22 78.4,46.1 80.1,40.1 
			83.6,36.2 92.2,33.9 101.7,33.1 111.3,33.9 119.8,36.2 123.3,40.1 125,46.1 134.7,22 		"/>
		<polygon class="st1" points="127.9,50 125.7,50 124.5,50.9 125,46.1 123.3,40.1 119.8,36.2 111.3,33.9 101.7,33.1 92.2,33.9 
			83.6,36.2 80.1,40.1 78.4,46.1 78.9,50.9 77.8,50 75.6,50 73.9,51.8 73.9,54.9 75.1,63 76.7,69.6 78.4,71.1 80.4,69.6 82.1,75.7 
			85.2,81.4 89.7,86.4 96.8,89 101.7,89.6 106.7,89 113.7,86.4 118.2,81.4 121.4,75.7 123.1,69.6 125,71.1 126.7,69.6 128.4,63 
			129.6,54.9 129.6,51.8 		"/>
		<polygon class="st2" points="101.7,89.6 95.5,88.1 96.5,128.1 98.6,134.4 101.7,135.1 104.8,134.4 106.9,128.1 108,88.1 		"/>
	</g>
</g>
</svg>
