<?xml version="1.0" encoding="utf-8"?>
<!-- Generator: Adobe Illustrator 28.1.0, SVG Export Plug-In . SVG Version: 6.00 Build 0)  -->
<svg version="1.1" id="Capa_1" xmlns="http://www.w3.org/2000/svg" xmlns:xlink="http://www.w3.org/1999/xlink" x="0px" y="0px"
	 viewBox="0 0 203.5 162.8" style="enable-background:new 0 0 203.5 162.8;" xml:space="preserve">
<style type="text/css">
	.st0{fill:#F39D96;}
	.st1{fill:#FDC300;}
	.st2{fill:#33915C;}
	.st3{fill:#1B4C2F;}
	.st4{fill:#F8F5E0;}
</style>
<rect class="st0" width="203.5" height="162.8"/>
<g>
	<circle class="st1" cx="157.7" cy="57.4" r="26.1"/>
	<g>
		<polygon class="st2" points="16.7,97.8 62.6,73.7 65.6,69 94.3,51.8 100,49.9 108.9,51.2 118.8,49.9 160.4,73.8 203.5,107.4 
			203.5,145.4 184.2,138.7 165.7,126.5 143.9,124.7 111.9,124.7 89.4,115.9 62.6,116.3 52.7,115.6 		"/>
		<polygon class="st3" points="16.7,87.8 0,78.2 0,162.8 203.5,162.8 203.5,135.4 184.2,128.7 165.7,116.5 143.9,114.7 111.9,114.7 
			89.4,105.9 52.7,105.6 		"/>
		<polygon class="st3" points="94.3,51.8 100,49.9 108.9,51.2 118.8,49.9 123.2,52.4 116.5,55.6 108.8,55.6 99.4,54.7 		"/>
	</g>
	<polygon class="st4" points="109.7,46.4 110.8,44.4 110.2,41 110.8,38.4 109.7,35.5 107.2,34.9 109,32 108.4,27.6 106.7,25.2 
		105.2,25.2 105.2,22.1 103.1,19.8 99.3,19.1 97.8,19.1 97.2,17.2 95.1,16.6 93,16.6 92.1,17.6 91.6,15.4 89.6,13.5 86.7,12.9 
		84.5,14 83.3,12 80.6,10.4 77.4,10 75.2,11.2 72.5,13.8 71.5,11.4 67.3,10 65,10.4 63,11.4 61.4,10 59.3,8.9 56.2,9.3 54.9,11.5 
		53.1,9.4 49.6,8.3 46.8,9.3 45.2,11.3 43.9,9.3 41.3,8.8 38.8,9.3 36.8,10.8 36.8,11.7 34.5,11.3 31.5,11.9 29.5,14.4 29.5,17.4 
		31.2,19.9 29.5,21.3 28.4,23.6 28.4,25.4 26.5,25.1 23.8,26 22.1,28.5 21.2,30.7 22.1,34.2 24.3,36 28.4,35.9 28.4,38.5 30.4,40.5 
		34.2,40.6 33.7,43.1 35.9,45 38.2,45.6 40.1,45.3 40.1,48.1 42.3,49.5 45.4,50 47.3,49.1 49.5,50 52.3,49.4 53.8,48.1 55.4,51.4 
		58.8,51.4 61.4,50 62.7,47.6 64.5,48.2 67.6,47.3 69.2,44.3 71.1,45.1 74.1,44.4 75.6,41.6 77.2,42.4 80.3,42 80.9,40.9 81.6,43 
		84.4,43.6 85.5,45.7 87.6,47.3 90.4,47.5 92,49.4 95.1,50.9 97.6,51.4 100.4,52.2 102.1,53.7 105.2,55.3 108.8,55.6 110.8,55.6 
		113.2,55.6 116.5,55.6 116.5,53.4 115,51.8 111.4,50.6 110.8,48.2 	"/>
</g>
</svg>
