<?xml version="1.0" encoding="utf-8"?>
<!-- Generator: Adobe Illustrator 28.1.0, SVG Export Plug-In . SVG Version: 6.00 Build 0)  -->
<svg version="1.1" id="Capa_1" xmlns="http://www.w3.org/2000/svg" xmlns:xlink="http://www.w3.org/1999/xlink" x="0px" y="0px"
	 viewBox="0 0 203.5 162.8" style="enable-background:new 0 0 203.5 162.8;" xml:space="preserve">
<style type="text/css">
	.st0{fill:#33915C;}
	.st1{fill:#E6332A;}
	.st2{fill:#601313;}
	.st3{fill:#1B4C2F;}
	.st4{fill:#FDC300;}
</style>
<rect class="st0" width="203.5" height="162.8"/>
<g>
	<polygon class="st1" points="65.1,107.3 69,99.9 78.7,94.1 91,89.9 103.7,88.1 116.2,88.1 129.6,92.3 140,99.4 145.1,109.1 
		145.1,117 139.5,126.2 131.2,133.4 121,135.7 111.8,131.8 101.8,121.1 93.4,114.4 85.2,109.1 79,109.4 72.7,111.9 	"/>
	<polygon class="st2" points="54.3,48.8 77.1,89 75.9,89.8 77.8,94.7 78.7,94.1 84.9,92 80.9,86.5 79.7,87.2 55.2,47.9 	"/>
	<polygon class="st2" points="92.8,89.7 91.4,83.4 92.8,83.1 82.4,12.8 83.9,12.4 96.4,82.2 97.5,82 98.9,88.8 	"/>
	<polygon class="st2" points="105.1,88.1 106,81.4 107.6,81.4 115.3,37.8 116.7,37.8 111.4,81.5 112.6,81.7 112.2,88.1 	"/>
	<polygon class="st2" points="118.5,88.8 121.6,82.3 122.7,82.9 142.1,43.4 143.3,43.8 126.4,84 127.3,84.5 125,90.8 	"/>
	<polygon class="st2" points="45.6,147.2 50.4,144 51.7,141.8 61,119.8 59.8,117.6 61,113.5 67.5,116.5 66.2,118.9 63.6,120.4 
		53.6,142.9 53.1,145.2 53.2,150.9 51,148.6 49,147.8 	"/>
	<polygon class="st3" points="48.1,150.9 50.3,152 52.7,152 53.2,150.9 51,148.6 49,147.8 45.6,147.2 44.9,148.5 46.3,150 	"/>
	<polygon class="st4" points="78.7,84 74.6,86.5 76,88.8 80,86.4 	"/>
	<polygon class="st4" points="96.8,79.6 91.6,80.6 92.1,83 97.5,82 	"/>
	<polygon class="st4" points="94.2,65.8 89.5,66.5 90,69.5 94.9,68.7 	"/>
	<polygon class="st4" points="84.9,40.6 85.3,42.9 90.7,42.2 90.1,39.6 	"/>
	<polygon class="st4" points="81.1,11.3 81.5,13.5 84.9,12.9 84.4,10.7 	"/>
	<polygon class="st4" points="114.6,36 114.3,37.8 117.2,38.3 117.5,36.8 	"/>
	<polygon class="st4" points="109.1,65 108.8,67.1 114.1,68.2 114.5,65.5 	"/>
	<polygon class="st4" points="107.2,78.6 106.8,80.9 112.6,81.7 113,79.1 	"/>
	<polygon class="st4" points="128.7,67.7 127.7,69.9 132.3,72.3 133.6,70 	"/>
	<polygon class="st4" points="123,80.2 122.1,82 127.3,83.9 128.1,81.7 	"/>
	<polygon class="st4" points="141.6,42 140.9,43.4 143.8,44.7 144.7,43.4 	"/>
	<polygon class="st4" points="57.8,122.9 57,125.4 61.7,127.6 62.8,125 	"/>
	<polygon class="st4" points="65.1,107.3 58.8,111.9 59.9,113.2 65.1,108.7 61,113.5 62.2,114.1 66.2,109.6 63.7,114.7 64.8,115.3 
		67.8,110.1 66.3,115.9 67.5,116.5 69.2,111.4 68.1,117.6 69.3,117.8 70.9,112.3 70.6,118.3 72.1,118.3 72.7,111.9 	"/>
	<polygon class="st4" points="158.5,60.8 154.6,60.1 157.9,59.1 157.4,58.5 153.6,60.2 149.2,59.2 146.8,56.3 144.3,50.9 
		142.2,46.9 140.4,46.5 138.6,46.7 134.1,48.2 128.2,47.5 122.8,46 118.8,43.7 116.6,40.4 114.9,39.7 110.9,40.3 106.5,39 
		101.5,36.6 97.3,32.9 92.3,28 88.5,22.7 85.1,17.2 82.9,17.2 81.4,19.4 77.6,26.4 72.9,31.1 66.9,32.8 62.3,30.1 60.3,26.5 
		60.7,21.8 60,21.8 59.9,26 59,21.8 58.3,22.1 59.5,26.1 57.5,22.4 56.9,22.8 58.9,26.2 56,24.3 55.9,25 59.5,26.9 61.6,30.8 
		66.7,33.8 73.3,32 78.3,27 82.2,19.9 83.4,18.1 84.6,18.1 87.7,23.2 91.6,28.6 96.6,33.6 100.9,37.4 106.1,39.8 110.8,41.2 
		114.8,40.7 116,41.2 118.2,44.4 122.5,46.9 128,48.4 134.2,49.1 138.7,47.6 140.4,47.4 141.5,47.7 143.4,51.3 146,56.8 148.7,60.1 
		153.4,61.1 156.9,64.3 157.4,63.8 154.2,61.1 158,63 158.2,62.3 154.3,60.7 158.4,61.4 	"/>
	<path class="st3" d="M143.2,120.1l-5.9-5.2l1-5.6l-0.7-8.1l5.5,4.2l-1.8-3.5l-3.9-3l-0.1-1.4l-2-1.4l0.2,1.9l-9-3.4l-0.4-3.5
		l-2-0.6l0.4,3.6l-8.8-1.9l1.4-3.9l-0.9-0.3h-1l-1.4,3.9h-8.9l2.2-3.9h-2.2l-2.2,4l-9.6,0.6l0.6-3.2l-2,0.3L91.1,93l-7.6,2.7
		l-0.2-3.2l-1.8,0.6l0.2,3.2l-5.3,2.2L76,95.7l-1.8,1.1l0.3,2.7l-4.4,2.9L69,99.9l-1.1,2.1l0.8,1.7l-2.9,4l1.4,0.9l2.2-3.1l0.4,0.9
		l-1.5,3l1.4,0.9l1.2-2.4l3.2,3.5l1.8-0.8l-3.7-4.1l3.3-1.5l1.5,5.2l1.8-0.7l-0.5-1.5l4.7-1.3l1,2.6l2.4,0.8l-1.5-3.8l5.4-0.5
		l0.2,3.4v0.9l-3.4,0.4l1.9,1.2l1.5,0.1v0.9l1.9,1.2l0-1.7l5.7,2.4l0.3,3.9l2,1.6l-0.3-3.9l7.7,7l1.1,5.7l2.4,2.6l-1-5.1l2.7,3.5
		l6.1,2.6l-1.7,1.8l1.8,0.8l1.7-1.8l3.5,1.6l2.6-0.6l-5.3-2.4l1.9-4.8l8,2.4l-0.1,0.2l-1.8,4.1l1.1-0.3l1.7-1.4l0.8-1.7l0.1-0.4
		l1.4,0.1l1.7-1.5l-2.7-0.3l2-7.2l0.7-4.2l5.4,4.7L143.2,120.1L143.2,120.1z M135.6,99.9l0.8,9.4l-0.8,4.4l-8.3-6l-0.4-8.8l-0.3-2.4
		L135.6,99.9L135.6,99.9z M125.6,112.7l-2.3,10.5l-0.5,1.4l-12.9-11.2l1.9-6.6l0.9-4l12.8,5.8L125.6,112.7L125.6,112.7z M92.1,102.7
		l0.2-2.8h7.4l-0.7,2.2l-0.4,2.9l-6.3-0.9L92.1,102.7L92.1,102.7z M100.8,102.7l0.8-2.5l9.3,1.9l-0.9,4.1l-1.7,5.8l-7.9-6.2
		L100.8,102.7L100.8,102.7z M124.6,95.9L125,99l0.3,7.7l-12.3-5.6l0.9-3.9l1.2-3.3C115.1,93.8,124.6,95.9,124.6,95.9z M113.1,93.7
		l-1.1,2.9l0,0.1l-0.8,3.9l-9.1-1.9l1.1-3.6l0.7-1.3L113.1,93.7L113.1,93.7z M101.8,93.8l-0.3,0.5l-1.3,4.1h-7.8l0.2-3l0.2-1
		L101.8,93.8z M90.7,94.9l0,0.2l-0.2,3.4l-6.7,1l-0.1-2.1L90.7,94.9z M81.8,98.1l0.1,1.9l-4.9,2.5l-0.2-0.5l-0.2-1.6L81.8,98.1z
		 M71.4,105.1l-0.5-1.1l3.9-2.6l0.1,1l0.3,1C75.2,103.3,71.4,105.1,71.4,105.1z M77.4,104.1l4.7-2.4l0.6,3.2l-4.7,1.3L77.4,104.1
		L77.4,104.1z M84.6,104.6l-0.6-3.5l6.4-1l-0.2,2.6l0.1,1.4C90.3,104.1,84.6,104.6,84.6,104.6z M92.6,110.4v-1.3l-0.2-3.3l6,0.9
		l-0.4,2.8l0.2,3.3L92.6,110.4L92.6,110.4z M99.8,109.6l0.3-1.9l7.8,6.1v7.1l-7.8-7.1C100.1,113.9,99.8,109.6,99.8,109.6z
		 M109.8,122.8v-7.4l12.4,10.8l-1.9,4.9l-6.1-2.5L109.8,122.8z M132.4,127.8l-7.9-2.3l0.7-1.7l2.4-10.9l-0.1-3.1l8,5.7l-0.9,5.1
		L132.4,127.8L132.4,127.8z"/>
</g>
</svg>
