<?xml version="1.0" encoding="utf-8"?>
<!-- Generator: Adobe Illustrator 28.1.0, SVG Export Plug-In . SVG Version: 6.00 Build 0)  -->
<svg version="1.1" id="Capa_1" xmlns="http://www.w3.org/2000/svg" xmlns:xlink="http://www.w3.org/1999/xlink" x="0px" y="0px"
	 viewBox="0 0 203.5 162.8" style="enable-background:new 0 0 203.5 162.8;" xml:space="preserve">
<style type="text/css">
	.st0{fill:#FDC300;}
	.st1{fill:#F8F5E0;}
	.st2{fill:#7E6A25;}
	.st3{fill:#E6332A;}
</style>
<rect class="st0" width="203.5" height="162.8"/>
<g>
	<ellipse class="st1" cx="45.7" cy="47.2" rx="26.6" ry="26.7"/>
	<polygon class="st2" points="199.4,134.5 195,134.3 191.2,135.9 189.6,138.7 186.7,137.8 184.9,131.7 181.2,127 176.2,124.4 
		171,123.2 165.8,124.4 160.8,127 157.1,131.7 155.3,137.8 152.4,138.7 150.7,135.9 146.9,134.3 142.6,134.5 138.4,137.1 135.7,141 
		134.9,144.7 133,145.6 130.7,144.4 126.9,145.6 123.6,147.2 122.1,150.3 122.1,152.1 120,153.2 117.7,155.7 116.1,153.9 
		113.2,153.7 111.1,155.7 109.8,153.6 107.2,153.9 107.2,152.3 104.7,150.9 101.7,152.3 100,155.7 97.4,155.7 96.5,154 94.6,153.5 
		92.1,154.7 90.8,156.3 88.1,154.6 88.1,152 85.8,149.2 82.8,147.8 79.4,148.4 78.6,148.6 76.8,148.1 76.2,144.4 74.8,142.2 
		72.7,140.6 68.7,138.8 64.6,139.3 62.3,141.5 61.8,138.3 59.8,134.9 57.2,131.7 51.2,128.2 43.8,128.1 40.2,130.2 37.6,133.4 
		35.1,132.7 32.5,133.3 29.9,132.7 27.4,133.4 24.8,130.2 21.1,128.1 13.8,128.2 7.8,131.7 5.2,134.9 3.2,138.3 2.7,141.5 
		0.3,139.3 0,139.2 0,162.8 32.5,162.8 171,162.8 203.5,162.8 203.5,137 	"/>
	<g>
		<polygon class="st3" points="40.4,97.4 40.1,108.4 43.6,117.1 38.3,129.6 33,133.6 30.4,154.8 34.7,160.1 34.7,162.8 42.6,162.8 
			42.7,160.6 41.3,157.6 37.6,155.6 36.6,151.9 40.1,139.7 50.3,133.7 50,138.7 52.3,140.6 58.6,151.3 58.3,154.2 62.9,158.6 
			63.3,161.3 71,162.8 71.3,161.3 70.8,158.6 66.8,155.1 60.2,140.9 60.5,136.1 71.6,120.3 75.9,123.3 80.3,127.6 83.6,130.3 
			85.3,129.9 86.2,127.9 84.9,125.1 90.4,125.1 101.8,131 111.7,130.9 116,137.3 116.4,142 119.1,145.5 120.6,152.6 119.1,154.9 
			121.1,157.5 121.8,162.8 130.1,162.8 126.7,157.8 124.7,144.6 124.7,139.2 123.4,137 123.6,132.4 126.3,135.4 134.4,133.7 
			140.1,137.6 136.1,139.6 131.9,139.9 132.9,147.9 137.7,145 144.6,141.3 146,137.4 141.9,130 147,130 147.6,136.1 151.2,141.2 
			155.5,142.6 160.9,141.6 162.2,129.1 168.2,120.8 168.3,110 170.5,108 167.8,101 165.4,101 159.8,98.3 156.2,89.5 141.2,77.8 
			129.8,68.3 118.3,69.6 87,81 76.5,83.3 52,83.3 47,85.7 40.6,85.7 31.3,87.8 25.5,91.7 23.8,95.8 23.8,101.8 25.3,109.7 
			24.4,112.8 19.7,116.7 18.1,122.4 18.1,127.7 20.1,132.4 22.7,125.6 27.3,117.6 27.7,113 26.7,99 28.3,92.7 34.7,89.7 43.3,89.7 
					"/>
		<g>
			<polygon class="st1" points="167.8,101 175.1,98.4 180.8,99.7 185.4,104.1 185.4,112.6 179.9,118.1 174.8,119.6 178.8,115.5 
				179.4,109 175.8,106.4 170.5,108 			"/>
			<polygon class="st1" points="151.6,103.5 152.3,110.6 147.9,112.6 144.3,116.7 145.6,121.3 149.7,123.3 157.3,123.3 152.6,126.7 
				144.9,126.7 138.7,122.7 136.1,115.1 138.9,108 144.9,104.4 			"/>
		</g>
	</g>
</g>
</svg>
