<?xml version="1.0" encoding="utf-8"?>
<!-- Generator: Adobe Illustrator 28.1.0, SVG Export Plug-In . SVG Version: 6.00 Build 0)  -->
<svg version="1.1" id="Capa_1" xmlns="http://www.w3.org/2000/svg" xmlns:xlink="http://www.w3.org/1999/xlink" x="0px" y="0px"
	 viewBox="0 0 203.5 162.8" style="enable-background:new 0 0 203.5 162.8;" xml:space="preserve">
<style type="text/css">
	.st0{fill:#E6332A;}
	.st1{fill:#F8F5E0;}
	.st2{fill:#7E6A25;}
	.st3{fill:#FDC300;}
	.st4{fill:#601313;}
</style>
<rect class="st0" width="203.5" height="162.8"/>
<g>
	<ellipse class="st1" cx="55.7" cy="97.7" rx="26.6" ry="26.7"/>
	<g>
		<polygon class="st2" points="203.5,139.9 137,137.5 126.8,138.7 117.2,135.1 85.8,132.7 65.2,132.7 38.2,134.8 0,137.5 0,162.8 
			203.5,162.8 		"/>
		<g>
			<polygon class="st3" points="126.5,144.7 126.5,96.5 134.7,92.4 147.7,89.9 160.3,89.9 170.6,93.4 174.4,94.9 174.4,138.9 
				135.4,140.6 			"/>
			<polygon class="st2" points="149.4,69.8 174.4,92.8 176.2,94.9 174.4,96.3 126.5,96.5 124.6,94.9 			"/>
			<g>
				<path class="st4" d="M172.1,128.8l-29.9-40.2l11.2-11.5l33.7,41.4L172.1,128.8z M144,88.7l28.4,38.2l12.6-8.7l-31.7-39L144,88.7
					L144,88.7z"/>
				
					<rect x="159.7" y="81.3" transform="matrix(0.7874 -0.6165 0.6165 0.7874 -31.2655 121.4188)" class="st4" width="1.4" height="49.5"/>
				
					<rect x="160.1" y="70.5" transform="matrix(0.7864 -0.6177 0.6177 0.7864 -27.4419 120.675)" class="st4" width="1.4" height="59"/>
				
					<rect x="165.8" y="75.4" transform="matrix(0.7753 -0.6316 0.6316 0.7753 -26.3138 127.8644)" class="st4" width="1.4" height="51"/>
				
					<rect x="166.7" y="117" transform="matrix(0.7791 -0.6269 0.6269 0.7791 -35.1614 135.6604)" class="st4" width="16.4" height="1.4"/>
				
					<rect x="162.8" y="111.9" transform="matrix(0.7688 -0.6394 0.6394 0.7688 -32.4695 135.3043)" class="st4" width="16.1" height="1.4"/>
				
					<rect x="158.9" y="106.6" transform="matrix(0.7561 -0.6545 0.6545 0.7561 -29.559 135.3893)" class="st4" width="15.9" height="1.4"/>
				
					<rect x="155.2" y="101.7" transform="matrix(0.7698 -0.6382 0.6382 0.7698 -27.8419 127.5975)" class="st4" width="15.6" height="1.4"/>
				
					<rect x="151.3" y="96.5" transform="matrix(0.7336 -0.6796 0.6796 0.7336 -23.6975 133.8947)" class="st4" width="15.4" height="1.4"/>
				
					<rect x="148" y="92.1" transform="matrix(0.7644 -0.6448 0.6448 0.7644 -23.1927 122.1731)" class="st4" width="15.1" height="1.4"/>
				
					<rect x="144.3" y="87.1" transform="matrix(0.7688 -0.6394 0.6394 0.7688 -21.1061 117.3002)" class="st4" width="14.8" height="1.4"/>
			</g>
			<g>
				<path class="st4" d="M157,78.2l-11.4-11.3l41.7-33.3l10.2,15.1L157,78.2L157,78.2z M147.7,67l9.4,9.3l38.4-28L187,35.7L147.7,67
					L147.7,67z"/>
				
					<rect x="149.9" y="59.5" transform="matrix(0.7931 -0.609 0.609 0.7931 -0.5352 118.8003)" class="st4" width="49.5" height="1.4"/>
				
					<rect x="139.2" y="59" transform="matrix(0.7922 -0.6103 0.6103 0.7922 -1.3789 115.3305)" class="st4" width="58.8" height="1.4"/>
				
					<rect x="144" y="53.3" transform="matrix(0.7813 -0.6242 0.6242 0.7813 3.3724 117.6338)" class="st4" width="51" height="1.4"/>
				
					<rect x="185.7" y="37.5" transform="matrix(0.7852 -0.6192 0.6192 0.7852 11.7096 125.2834)" class="st4" width="1.4" height="16.4"/>
				
					<rect x="180.5" y="41.6" transform="matrix(0.7746 -0.6324 0.6324 0.7746 9.4021 125.8188)" class="st4" width="1.4" height="16.2"/>
				
					<rect x="175.3" y="45.8" transform="matrix(0.7621 -0.6475 0.6475 0.7621 7.0931 126.7341)" class="st4" width="1.4" height="15.9"/>
				
					<rect x="170.3" y="49.8" transform="matrix(0.7755 -0.6314 0.6314 0.7755 2.0509 120.8757)" class="st4" width="1.4" height="15.6"/>
				
					<rect x="165" y="53.9" transform="matrix(0.7395 -0.6731 0.6731 0.7395 1.7465 127.5885)" class="st4" width="1.4" height="15.4"/>
				
					<rect x="160.6" y="57.4" transform="matrix(0.7703 -0.6377 0.6377 0.7703 -4.3164 117.8003)" class="st4" width="1.4" height="15.1"/>
				
					<rect x="155.6" y="61.3" transform="matrix(0.7748 -0.6322 0.6322 0.7748 -8.2241 114.3012)" class="st4" width="1.4" height="14.8"/>
			</g>
			<g>
				<path class="st4" d="M129.8,75.4l-23-31.8l12.8-8.8l24.6,33.4L129.8,75.4z M108.8,44l21.5,29.6l11.8-5.8l-22.8-31
					C119.3,36.8,108.8,44,108.8,44z"/>
				
					<rect x="121.4" y="38" transform="matrix(0.8125 -0.583 0.583 0.8125 -10.4761 81.9449)" class="st4" width="1.4" height="38.4"/>
				
					<rect x="126.2" y="35.3" transform="matrix(0.8075 -0.5899 0.5899 0.8075 -9.1705 85.8469)" class="st4" width="1.4" height="43.4"/>
				
					<rect x="128.1" y="33.6" transform="matrix(0.8128 -0.5825 0.5825 0.8128 -6.9427 85.0264)" class="st4" width="1.4" height="39.5"/>
				
					<rect x="109.4" y="43.1" transform="matrix(0.8728 -0.4882 0.4882 0.8728 -6.5482 62.4517)" class="st4" width="14.2" height="1.4"/>
				
					<rect x="112" y="46.7" transform="matrix(0.878 -0.4787 0.4787 0.878 -8.1427 62.8082)" class="st4" width="14.3" height="1.4"/>
				
					<rect x="114.4" y="50" transform="matrix(0.8874 -0.461 0.461 0.8874 -9.6806 61.7379)" class="st4" width="14.4" height="1.4"/>
				
					<rect x="117.4" y="54.2" transform="matrix(0.8787 -0.4775 0.4775 0.8787 -11.0782 66.1573)" class="st4" width="14.4" height="1.4"/>
				
					<rect x="120.3" y="58.1" transform="matrix(0.8771 -0.4804 0.4804 0.8771 -12.5678 68.4525)" class="st4" width="14.4" height="1.4"/>
				
					<rect x="123" y="61.7" transform="matrix(0.8589 -0.5122 0.5122 0.8589 -13.6177 75.4758)" class="st4" width="14.4" height="1.4"/>
				
					<rect x="126.2" y="66.2" transform="matrix(0.8895 -0.4569 0.4569 0.8895 -15.8344 68.3566)" class="st4" width="14.5" height="1.4"/>
			</g>
			<g>
				<path class="st4" d="M101,125L91.8,114l0.6-0.4l41.1-32.8l7.3,7.1L101,125L101,125z M93.8,114.2l7.3,8.7l37.6-35.1l-5.3-5.2
					L93.8,114.2L93.8,114.2z"/>
				
					<rect x="88.8" y="99.1" transform="matrix(0.7682 -0.6402 0.6402 0.7682 -37.2693 96.6636)" class="st4" width="52.2" height="1.4"/>
				
					<rect x="89.4" y="98.1" transform="matrix(0.7544 -0.6565 0.6565 0.7544 -35.5624 102.8752)" class="st4" width="60.7" height="1.6"/>
				
					<rect x="92.4" y="103.4" transform="matrix(0.7487 -0.6629 0.6629 0.7487 -39.1422 104.8713)" class="st4" width="52.7" height="1.4"/>
				
					<rect x="101.7" y="108.1" transform="matrix(0.7502 -0.6612 0.6612 0.7502 -49.9776 96.2553)" class="st4" width="1.4" height="12.3"/>
				
					<rect x="106.5" y="104.2" transform="matrix(0.7789 -0.6271 0.6271 0.7789 -45.3789 91.5807)" class="st4" width="1.4" height="11.8"/>
				
					<rect x="111.5" y="100.2" transform="matrix(0.7644 -0.6448 0.6448 0.7644 -41.8201 97.2819)" class="st4" width="1.4" height="11.3"/>
				
					<rect x="116.2" y="96.3" transform="matrix(0.7606 -0.6492 0.6492 0.7606 -38.0492 100.2687)" class="st4" width="1.4" height="10.8"/>
				
					<rect x="121.1" y="92.3" transform="matrix(0.7202 -0.6938 0.6938 0.7202 -33.5446 111.8043)" class="st4" width="1.4" height="10.3"/>
				
					<rect x="125.7" y="88.6" transform="matrix(0.7402 -0.6724 0.6724 0.7402 -30.0336 109.3034)" class="st4" width="1.4" height="9.8"/>
				
					<rect x="130.8" y="84.5" transform="matrix(0.7173 -0.6968 0.6968 0.7173 -24.8926 116.806)" class="st4" width="1.4" height="9.2"/>
			</g>
			<polygon class="st4" points="143.1,73.5 141.4,72.8 139,74.2 139.7,76.1 141.1,78.2 143.1,80.8 145.2,81.2 146.9,79.8 			"/>
		</g>
		<g>
			<polygon class="st3" points="65.3,133.6 65.3,110.4 69.7,108.2 76.7,106.9 83.6,106.9 89.1,108.8 91.1,109.6 91.1,133.3 
				70.1,134.2 			"/>
			<polygon class="st2" points="77.6,96 91.1,108.4 92.1,109.6 91.1,110.3 65.3,110.4 64.3,109.6 			"/>
			<g>
				<path class="st4" d="M89.9,127.9l-16.1-21.7l6-6.2L98,122.3C98,122.3,89.9,127.9,89.9,127.9z M74.7,106.2l15.3,20.6l6.8-4.7
					l-17.1-21.1L74.7,106.2L74.7,106.2z"/>
				
					<rect x="83.2" y="102.2" transform="matrix(0.7874 -0.6165 0.6165 0.7874 -53.4798 76.1027)" class="st4" width="0.8" height="26.7"/>
				
					<rect x="83.4" y="96.4" transform="matrix(0.7864 -0.6177 0.6177 0.7864 -51.4925 75.7467)" class="st4" width="0.8" height="31.8"/>
				
					<rect x="86.5" y="99" transform="matrix(0.7753 -0.6316 0.6316 0.7753 -51.7305 80.2299)" class="st4" width="0.8" height="27.5"/>
				
					<rect x="87" y="121.5" transform="matrix(0.7793 -0.6266 0.6266 0.7793 -56.1935 84.1824)" class="st4" width="8.9" height="0.8"/>
				
					<rect x="84.9" y="118.7" transform="matrix(0.7686 -0.6397 0.6397 0.7686 -55.532 84.6535)" class="st4" width="8.7" height="0.8"/>
				
					<rect x="82.8" y="115.9" transform="matrix(0.7559 -0.6547 0.6547 0.7559 -54.8907 85.4051)" class="st4" width="8.6" height="0.8"/>
				
					<rect x="80.8" y="113.2" transform="matrix(0.7695 -0.6386 0.6386 0.7695 -52.9677 80.4582)" class="st4" width="8.4" height="0.8"/>
				
					<rect x="78.6" y="110.4" transform="matrix(0.7333 -0.68 0.68 0.7333 -53.2582 85.8485)" class="st4" width="8.3" height="0.8"/>
				
					<rect x="76.9" y="108.1" transform="matrix(0.7641 -0.6451 0.6451 0.7641 -50.8558 77.8107)" class="st4" width="8.1" height="0.8"/>
				
					<rect x="74.9" y="105.4" transform="matrix(0.7691 -0.6392 0.6392 0.7691 -49.3815 74.8485)" class="st4" width="8" height="0.8"/>
			</g>
			<g>
				<path class="st4" d="M81.8,100.6l-6.2-6.1l22.5-18l5.5,8.1L81.8,100.6L81.8,100.6z M76.7,94.5l5.1,5.1l20.8-15.1L98,77.6
					L76.7,94.5z"/>
				
					<rect x="77.9" y="90.5" transform="matrix(0.7931 -0.609 0.609 0.7931 -36.4409 74.3705)" class="st4" width="26.7" height="0.8"/>
				
					<rect x="72.2" y="90.2" transform="matrix(0.7921 -0.6104 0.6104 0.7921 -36.9783 72.5727)" class="st4" width="31.8" height="0.8"/>
				
					<rect x="74.8" y="87.1" transform="matrix(0.7811 -0.6244 0.6244 0.7811 -35.2504 74.4253)" class="st4" width="27.5" height="0.8"/>
				
					<rect x="97.3" y="78.6" transform="matrix(0.7852 -0.6192 0.6192 0.7852 -30.4582 78.3025)" class="st4" width="0.8" height="8.9"/>
				
					<rect x="94.5" y="80.8" transform="matrix(0.7746 -0.6324 0.6324 0.7746 -32.5 79.1758)" class="st4" width="0.8" height="8.7"/>
				
					<rect x="91.6" y="83.1" transform="matrix(0.7621 -0.6475 0.6475 0.7621 -34.6615 80.3531)" class="st4" width="0.8" height="8.6"/>
				
					<rect x="88.9" y="85.2" transform="matrix(0.7755 -0.6314 0.6314 0.7755 -36.4036 76.4521)" class="st4" width="0.8" height="8.4"/>
				
					<rect x="86.1" y="87.4" transform="matrix(0.7395 -0.6731 0.6731 0.7395 -39.1167 82.0505)" class="st4" width="0.8" height="8.3"/>
				
					<rect x="83.7" y="89.3" transform="matrix(0.7703 -0.6377 0.6377 0.7703 -40.2218 75.0773)" class="st4" width="0.8" height="8.1"/>
				<rect x="81" y="91.4" transform="matrix(0.7748 -0.6322 0.6322 0.7748 -42.0013 72.9403)" class="st4" width="0.8" height="8"/>
			</g>
			<g>
				<path class="st4" d="M67.1,99L54.7,81.9l6.9-4.8l13.3,18L67.1,99z M55.7,82.1l11.6,16l6.4-3.2L61.4,78.2
					C61.4,78.2,55.7,82.1,55.7,82.1z"/>
				
					<rect x="62.6" y="78.9" transform="matrix(0.8125 -0.583 0.583 0.8125 -40.2303 53.4272)" class="st4" width="0.8" height="20.7"/>
				
					<rect x="65.1" y="77.4" transform="matrix(0.8075 -0.5899 0.5899 0.8075 -39.9465 55.798)" class="st4" width="0.8" height="23.4"/>
				
					<rect x="66.2" y="76.5" transform="matrix(0.8128 -0.5825 0.5825 0.8128 -38.2966 55.0712)" class="st4" width="0.8" height="21.3"/>
				<rect x="56" y="81.6" transform="matrix(0.873 -0.4877 0.4877 0.873 -32.3767 39.6177)" class="st4" width="7.7" height="0.8"/>
				
					<rect x="57.5" y="83.5" transform="matrix(0.8781 -0.4785 0.4785 0.8781 -32.6797 39.5746)" class="st4" width="7.7" height="0.8"/>
				
					<rect x="58.7" y="85.3" transform="matrix(0.8874 -0.461 0.461 0.8874 -32.4598 38.5115)" class="st4" width="7.8" height="0.8"/>
				
					<rect x="60.4" y="87.6" transform="matrix(0.8787 -0.4775 0.4775 0.8787 -34.2005 41.3651)" class="st4" width="7.8" height="0.8"/>
				
					<rect x="61.9" y="89.7" transform="matrix(0.877 -0.4805 0.4805 0.877 -35.1826 42.7062)" class="st4" width="7.8" height="0.8"/>
				
					<rect x="63.4" y="91.7" transform="matrix(0.8589 -0.5122 0.5122 0.8589 -37.6607 47.4403)" class="st4" width="7.8" height="0.8"/>
				
					<rect x="65.1" y="94.1" transform="matrix(0.8892 -0.4576 0.4576 0.8892 -35.5756 42.0509)" class="st4" width="7.8" height="0.8"/>
			</g>
			<g>
				<path class="st4" d="M51.5,125.8l-5-5.9l22.5-18l3.9,3.8C73,105.8,51.5,125.8,51.5,125.8z M47.6,120l4,4.7l20.3-18.9l-2.9-2.8
					C69,102.9,47.6,120,47.6,120z"/>
				
					<rect x="44.9" y="111.8" transform="matrix(0.7684 -0.64 0.64 0.7684 -58.156 63.7499)" class="st4" width="28.2" height="0.8"/>
				
					<rect x="45.2" y="111.3" transform="matrix(0.754 -0.6568 0.6568 0.754 -58.2477 67.9599)" class="st4" width="32.7" height="0.9"/>
				
					<rect x="46.9" y="114.1" transform="matrix(0.749 -0.6626 0.6626 0.749 -60.5364 69.2388)" class="st4" width="28.4" height="0.8"/>
				
					<rect x="51.9" y="116.7" transform="matrix(0.7502 -0.6612 0.6612 0.7502 -66.3033 64.5526)" class="st4" width="0.8" height="6.6"/>
				
					<rect x="54.5" y="114.6" transform="matrix(0.7789 -0.6271 0.6271 0.7789 -61.7422 60.4623)" class="st4" width="0.8" height="6.4"/>
				
					<rect x="57.2" y="112.4" transform="matrix(0.7644 -0.6448 0.6448 0.7644 -60.8986 64.322)" class="st4" width="0.8" height="6.1"/>
				
					<rect x="59.8" y="110.3" transform="matrix(0.7606 -0.6492 0.6492 0.7606 -59.1333 66.1461)" class="st4" width="0.8" height="5.8"/>
				
					<rect x="62.4" y="108.2" transform="matrix(0.7202 -0.6938 0.6938 0.7202 -59.4283 74.5993)" class="st4" width="0.8" height="5.6"/>
				
					<rect x="64.9" y="106.2" transform="matrix(0.7402 -0.6724 0.6724 0.7402 -56.2211 72.1481)" class="st4" width="0.8" height="5.3"/>
				
					<rect x="67.6" y="103.9" transform="matrix(0.7173 -0.6968 0.6968 0.7173 -54.9311 77.4487)" class="st4" width="0.8" height="5"/>
			</g>
			<polygon class="st4" points="74.2,98 73.3,97.6 72.1,98.4 72.4,99.4 73.2,100.6 74.2,102 75.4,102.2 76.3,101.4 			"/>
		</g>
		<g>
			<polygon class="st3" points="22.6,135.9 22.6,119.1 25.7,117.6 30.5,116.7 35.3,116.7 39.1,118 40.5,118.6 40.5,134.9 26,135.6 
							"/>
			<polygon class="st2" points="31.2,109.2 40.5,117.8 41.2,118.6 40.5,119.1 22.6,119.1 21.9,118.6 			"/>
			<g>
				<path class="st4" d="M39.7,131.2l-0.1-0.2l-11-14.8l4.2-4.3l12.5,15.4L39.7,131.2z M29.2,116.2l10.6,14.3l4.7-3.3l-11.9-14.6
					L29.2,116.2L29.2,116.2z"/>
				
					<rect x="35" y="113.5" transform="matrix(0.7874 -0.6165 0.6165 0.7874 -68.1371 47.8453)" class="st4" width="0.5" height="18.5"/>
				
					<rect x="35.2" y="109.4" transform="matrix(0.7864 -0.6177 0.6177 0.7864 -66.8297 47.6194)" class="st4" width="0.5" height="22"/>
				
					<rect x="37.3" y="111.3" transform="matrix(0.7753 -0.6316 0.6316 0.7753 -67.8398 50.8822)" class="st4" width="0.5" height="19"/>
				
					<rect x="37.7" y="126.8" transform="matrix(0.7793 -0.6266 0.6266 0.7793 -70.6274 53.5515)" class="st4" width="6.1" height="0.5"/>
				
					<rect x="36.2" y="124.9" transform="matrix(0.7686 -0.6397 0.6397 0.7686 -70.9747 54.044)" class="st4" width="6" height="0.5"/>
				
					<rect x="34.7" y="122.9" transform="matrix(0.7559 -0.6547 0.6547 0.7559 -71.4538 54.7662)" class="st4" width="5.9" height="0.5"/>
				
					<rect x="33.4" y="121.1" transform="matrix(0.7695 -0.6386 0.6386 0.7695 -69.1293 51.1289)" class="st4" width="5.8" height="0.5"/>
				
					<rect x="31.9" y="119.1" transform="matrix(0.7333 -0.68 0.68 0.7333 -71.9153 55.4717)" class="st4" width="5.7" height="0.5"/>
				
					<rect x="30.7" y="117.5" transform="matrix(0.7641 -0.6451 0.6451 0.7641 -68.0648 49.3837)" class="st4" width="5.6" height="0.5"/>
				
					<rect x="29.3" y="115.6" transform="matrix(0.7691 -0.6392 0.6392 0.7691 -66.68 47.2525)" class="st4" width="5.5" height="0.5"/>
			</g>
			<g>
				<path class="st4" d="M34,112.3l-4.2-4.2l15.6-12.4l3.8,5.6L34,112.3z M30.5,108.1l3.5,3.5l14.4-10.5l-3.2-4.8L30.5,108.1
					L30.5,108.1z"/>
				
					<rect x="31.4" y="105.3" transform="matrix(0.7931 -0.609 0.609 0.7931 -55.9038 46.5745)" class="st4" width="18.5" height="0.5"/>
				
					<rect x="27.4" y="105.1" transform="matrix(0.7921 -0.6104 0.6104 0.7921 -56.3613 45.3424)" class="st4" width="22" height="0.5"/>
				
					<rect x="29.2" y="103" transform="matrix(0.7811 -0.6244 0.6244 0.7811 -56.0063 46.7798)" class="st4" width="19" height="0.5"/>
				
					<rect x="44.7" y="97.1" transform="matrix(0.7852 -0.6192 0.6192 0.7852 -52.3788 49.3935)" class="st4" width="0.5" height="6.1"/>
				
					<rect x="42.8" y="98.7" transform="matrix(0.7746 -0.6324 0.6324 0.7746 -54.5881 50.1592)" class="st4" width="0.5" height="6"/>
				
					<rect x="40.9" y="100.2" transform="matrix(0.7621 -0.6475 0.6475 0.7621 -57.0115 51.1702)" class="st4" width="0.5" height="5.9"/>
				
					<rect x="39" y="101.7" transform="matrix(0.7755 -0.6314 0.6314 0.7755 -57.2258 48.2597)" class="st4" width="0.5" height="5.8"/>
				
					<rect x="37" y="103.2" transform="matrix(0.7395 -0.6731 0.6731 0.7395 -61.7005 52.7364)" class="st4" width="0.5" height="5.7"/>
				
					<rect x="35.4" y="104.5" transform="matrix(0.7703 -0.6377 0.6377 0.7703 -60.2602 47.3893)" class="st4" width="0.5" height="5.6"/>
				
					<rect x="33.5" y="106" transform="matrix(0.7748 -0.6322 0.6322 0.7748 -61.1434 45.8433)" class="st4" width="0.5" height="5.5"/>
			</g>
			<g>
				<path class="st4" d="M23.9,111.2l-8.6-11.8l4.8-3.3l9.2,12.5L23.9,111.2L23.9,111.2z M16,99.5l8,11.1l4.4-2.2l-8.5-11.6
					C19.9,96.8,16,99.5,16,99.5z"/>
				
					<rect x="20.8" y="97.3" transform="matrix(0.8125 -0.583 0.583 0.8125 -56.9771 31.8478)" class="st4" width="0.5" height="14.3"/>
				
					<rect x="22.5" y="96.3" transform="matrix(0.8075 -0.5899 0.5899 0.8075 -57.1856 33.5448)" class="st4" width="0.5" height="16.2"/>
				
					<rect x="23.2" y="95.6" transform="matrix(0.8128 -0.5825 0.5825 0.8128 -55.6122 32.9787)" class="st4" width="0.5" height="14.7"/>
				
					<rect x="16.2" y="99.2" transform="matrix(0.873 -0.4877 0.4877 0.873 -46.1079 21.8504)" class="st4" width="5.3" height="0.5"/>
				
					<rect x="17.2" y="100.5" transform="matrix(0.8781 -0.4785 0.4785 0.8781 -45.8099 21.8082)" class="st4" width="5.3" height="0.5"/>
				
					<rect x="18.1" y="101.8" transform="matrix(0.8874 -0.461 0.461 0.8874 -44.6994 21.07)" class="st4" width="5.4" height="0.5"/>
				
					<rect x="19.3" y="103.3" transform="matrix(0.8787 -0.4775 0.4775 0.8787 -46.8009 23.0496)" class="st4" width="5.4" height="0.5"/>
				
					<rect x="20.3" y="104.8" transform="matrix(0.877 -0.4805 0.4805 0.877 -47.6476 23.9785)" class="st4" width="5.4" height="0.5"/>
				
					<rect x="21.3" y="106.2" transform="matrix(0.8589 -0.5122 0.5122 0.8589 -51.1214 27.3135)" class="st4" width="5.4" height="0.5"/>
				
					<rect x="22.5" y="107.8" transform="matrix(0.8892 -0.4576 0.4576 0.8892 -46.6636 23.5235)" class="st4" width="5.4" height="0.5"/>
			</g>
			<g>
				<path class="st4" d="M13.1,129.7l-3.4-4.1l15.5-12.4l2.7,2.6L13.1,129.7L13.1,129.7z M10.4,125.7l2.8,3.3l14-13.1l-2-2
					L10.4,125.7L10.4,125.7z"/>
				
					<rect x="8.6" y="120.1" transform="matrix(0.7684 -0.64 0.64 0.7684 -72.8013 39.5882)" class="st4" width="19.5" height="0.5"/>
				
					<rect x="8.8" y="119.7" transform="matrix(0.754 -0.6568 0.6568 0.754 -73.9071 42.7311)" class="st4" width="22.6" height="0.6"/>
				
					<rect x="9.9" y="121.7" transform="matrix(0.749 -0.6626 0.6626 0.749 -75.8527 43.7095)" class="st4" width="19.7" height="0.5"/>
				
					<rect x="13.4" y="123.5" transform="matrix(0.7502 -0.6612 0.6612 0.7502 -79.7471 40.4424)" class="st4" width="0.5" height="4.6"/>
				
					<rect x="15.2" y="122" transform="matrix(0.7789 -0.6271 0.6271 0.7789 -74.4956 37.1471)" class="st4" width="0.5" height="4.4"/>
				
					<rect x="17" y="120.5" transform="matrix(0.7644 -0.6448 0.6448 0.7644 -74.9898 40.0461)" class="st4" width="0.5" height="4.2"/>
				
					<rect x="18.8" y="119.1" transform="matrix(0.7606 -0.6492 0.6492 0.7606 -74.0446 41.3614)" class="st4" width="0.5" height="4"/>
				
					<rect x="20.6" y="117.6" transform="matrix(0.7202 -0.6938 0.6938 0.7202 -77.0616 47.9352)" class="st4" width="0.5" height="3.8"/>
				
					<rect x="22.4" y="116.2" transform="matrix(0.7402 -0.6724 0.6724 0.7402 -73.4766 45.8654)" class="st4" width="0.5" height="3.7"/>
				
					<rect x="24.2" y="114.6" transform="matrix(0.7173 -0.6968 0.6968 0.7173 -74.1499 49.9755)" class="st4" width="0.5" height="3.4"/>
			</g>
			<polygon class="st4" points="28.8,110.5 28.2,110.3 27.3,110.8 27.6,111.5 28.1,112.3 28.8,113.3 29.6,113.4 30.3,112.9 			"/>
		</g>
	</g>
</g>
</svg>
