<?xml version="1.0" encoding="utf-8"?>
<!-- Generator: Adobe Illustrator 28.1.0, SVG Export Plug-In . SVG Version: 6.00 Build 0)  -->
<svg version="1.1" id="Capa_1" xmlns="http://www.w3.org/2000/svg" xmlns:xlink="http://www.w3.org/1999/xlink" x="0px" y="0px"
	 viewBox="0 0 203.5 162.8" style="enable-background:new 0 0 203.5 162.8;" xml:space="preserve">
<style type="text/css">
	.st0{fill:#2C80C3;}
	.st1{fill:#F8F5E0;}
	.st2{fill:#004259;}
	.st3{fill:#E6332A;}
	.st4{fill:#FDC300;}
</style>
<rect class="st0" width="203.5" height="162.8"/>
<g>
	<ellipse class="st1" cx="101.7" cy="32" rx="26.6" ry="26.6"/>
	<polygon class="st2" points="199.4,134.5 195,134.3 191.2,135.9 189.6,138.7 186.7,137.8 184.9,131.7 181.2,127 176.2,124.4 
		171,123.2 165.8,124.4 160.8,127 157.1,131.7 155.3,137.8 152.4,138.7 150.7,135.9 146.9,134.3 142.6,134.5 138.4,137.1 135.7,141 
		134.9,144.7 133,145.6 130.7,144.4 126.9,145.6 123.6,147.2 122.1,150.3 122.1,152.1 120,153.2 117.7,155.7 116.1,153.9 
		113.2,153.7 111.1,155.7 109.8,153.6 107.2,153.9 107.2,152.3 104.7,150.9 101.7,152.3 100,155.7 97.4,155.7 96.5,154 94.6,153.5 
		92.1,154.7 90.8,156.3 88.1,154.6 88.1,152 85.8,149.2 82.8,147.8 79.4,148.4 78.6,148.6 76.8,148.1 76.2,144.4 74.8,142.2 
		72.7,140.6 68.7,138.8 64.6,139.3 62.3,141.5 61.8,138.3 59.8,134.9 57.2,131.7 51.2,128.2 43.8,128.1 40.2,130.2 37.6,133.4 
		35.1,132.7 32.5,133.3 29.9,132.7 27.4,133.4 24.8,130.2 21.1,128.1 13.8,128.2 7.8,131.7 5.2,134.9 3.2,138.3 2.7,141.5 
		0.3,139.3 0,139.2 0,162.8 32.5,162.8 171,162.8 203.5,162.8 203.5,137 	"/>
	<g>
		<path class="st3" d="M101.7,9.7c0,0.3-0.1,0.6-0.1,0.6l-2.2,14.9h-4.2v7.5h2.3l-1.5,33.3l-4.3,26.1h-3.9l0,5.1h3.9l-8.9,28.7h-3.5
			v8.9l-13.7,28h18.3l3.3-7.2l5.9-5l8.5-1.9l0.1,0l0.1,0l8.5,1.9l5.9,5l3.3,7.2h18.3l-13.7-28v-8.9h-3.5l-8.9-28.7h3.9l0-5.1h-3.9
			l-4.3-26.1l-1.5-33.3h2.3v-7.5h-4.2l-2.2-14.9L101.7,9.7L101.7,9.7z"/>
		<polygon class="st4" points="101.7,110.6 98.3,110.6 95.9,128.1 101.7,128.1 107.6,128.1 105.2,110.6 		"/>
	</g>
</g>
</svg>
