<?xml version="1.0" encoding="utf-8"?>
<!-- Generator: Adobe Illustrator 28.1.0, SVG Export Plug-In . SVG Version: 6.00 Build 0)  -->
<svg version="1.1" id="Capa_1" xmlns="http://www.w3.org/2000/svg" xmlns:xlink="http://www.w3.org/1999/xlink" x="0px" y="0px"
	 viewBox="0 0 203.5 163.6" style="enable-background:new 0 0 203.5 163.6;" xml:space="preserve">
<style type="text/css">
	.st0{fill:#33915C;}
	.st1{fill:#F8F5E0;}
	.st2{fill:#1B4C2F;}
	.st3{fill:#F39D96;}
	.st4{fill:#AB5243;}
</style>
<rect class="st0" width="203.5" height="163.6"/>
<g>
	<ellipse class="st1" cx="166.7" cy="46.9" rx="26.6" ry="26.7"/>
	<polygon class="st2" points="199.4,135.3 195,135.1 191.2,136.7 189.6,139.5 186.7,138.6 184.9,132.5 181.2,127.8 176.2,125.2 
		171,124 165.8,125.2 160.8,127.8 157.1,132.5 155.3,138.6 152.4,139.5 150.7,136.7 146.9,135.1 142.6,135.3 138.4,137.9 
		135.7,141.8 134.9,145.5 133,146.4 130.7,145.2 126.9,146.4 123.6,148 122.1,151.1 122.1,152.9 120,154 117.7,156.5 116.1,154.6 
		113.2,154.5 111.1,156.5 109.8,154.4 107.2,154.6 107.2,153.1 104.7,151.7 101.7,153.1 100,156.5 97.4,156.5 96.5,154.8 
		94.6,154.3 92.1,155.5 90.8,157.1 88.1,155.4 88.1,152.8 85.8,150 82.8,148.6 79.4,149.2 78.6,149.4 76.8,148.9 76.2,145.2 
		74.8,143 72.7,141.4 68.7,139.6 64.6,140.1 62.3,142.2 61.8,139.1 59.8,135.7 57.2,132.5 51.2,129 43.8,128.9 40.2,130.9 
		37.6,134.2 35.1,133.5 32.5,134.1 29.9,133.5 27.4,134.2 24.8,130.9 21.1,128.9 13.8,129 7.8,132.5 5.2,135.7 3.2,139.1 2.7,142.2 
		0.3,140.1 0,140 0,163.6 32.5,163.6 171,163.6 203.5,163.6 203.5,137.8 	"/>
	<g>
		<polygon class="st3" points="163.7,156.6 163.7,105 165.7,102.6 165.7,100.6 162.7,100.6 162.7,69.4 167.8,61.6 167.8,60 
			169.5,60 169.5,56.1 162.7,56.1 162.7,53.8 161.5,53.8 161.5,46.3 164.8,41 161.9,41 161.9,37.7 101.7,37.7 41.5,37.7 41.5,41 
			38.7,41 42,46.3 42,53.8 40.7,53.8 40.7,56.1 34,56.1 34,60 35.7,60 35.7,61.6 40.7,69.4 40.7,100.6 37.7,100.6 37.7,102.6 
			39.7,105 39.7,156.6 33.4,163.6 60.5,163.6 61.7,163.6 88.8,163.6 82.5,156.6 82.5,105 84.5,102.6 84.5,100.6 81.5,100.6 
			82.2,97.3 84.5,93.4 86.6,89.8 92.6,85.2 101.7,82.4 110.9,85.2 116.9,89.8 119,93.4 121.3,97.3 121.9,100.6 118.9,100.6 
			118.9,102.6 120.9,105 120.9,156.6 114.6,163.6 141.7,163.6 142.9,163.6 170,163.6 		"/>
		<rect x="42" y="46.3" class="st4" width="119.5" height="7.5"/>
		<rect x="128.7" y="80.2" class="st4" width="28.8" height="15.7"/>
		<rect x="45.9" y="80.2" class="st4" width="28.8" height="15.7"/>
		<rect x="49.5" y="111.5" class="st4" width="21.7" height="38.8"/>
		<rect x="132.3" y="111.5" class="st4" width="21.7" height="38.8"/>
	</g>
</g>
</svg>
