<?xml version="1.0" encoding="UTF-8"?>
<svg id="Capa_1" data-name="Capa 1" xmlns="http://www.w3.org/2000/svg" viewBox="0 0 203.46 162.77">
  <defs>
    <style>
      .cls-1 {
        fill: #f39d96;
      }

      .cls-1, .cls-2, .cls-3, .cls-4 {
        stroke-width: 0px;
      }

      .cls-2 {
        fill: #2c80c3;
      }

      .cls-3 {
        fill: #ab5243;
      }

      .cls-4 {
        fill: #fdc300;
      }
    </style>
  </defs>
  <rect class="cls-1" width="203.46" height="162.77"/>
  <g>
    <ellipse class="cls-4" cx="121.53" cy="110.54" rx="24.07" ry="24.16"/>
    <polyline class="cls-3" points="12.29 118.16 25.07 119.32 39.23 114.7 57.53 110.54 73.43 115.51 107.94 129.03 122.44 122.56 125.55 123.94 131.76 119.78 144.19 125.17 148.34 123.25 158.01 126.25 160.42 121.17 168.36 119.78 182.36 122.79 192.19 119.78 203.46 123.94 203.46 162.77 0 162.77 0 121.4"/>
    <g>
      <path class="cls-2" d="M169.73,154.45v-12.42h-5.37v-6.89h-5.55l2.27-28.98-2.27-28.98h5.55v-6.46h5.37v-12.42H33.73v12.42h5.37v6.46h5.55l-2.27,28.98,2.27,28.98h-5.55v6.89h-5.37v12.42h-5.14v8.32h146.28v-8.32h-5.14ZM91.51,135.14l2.27-28.98-2.27-28.98h5.55v-6.46h9.35v6.46h5.55l-2.27,28.98,2.27,28.98h-5.55v6.89h-9.35v-6.89h-5.55ZM145.6,77.19l-2.27,28.98,2.27,28.98h-5.55v6.89h-9.35v-6.89h-5.55l2.27-28.98-2.27-28.98h5.55v-6.46h9.35v6.46h5.55ZM57.86,135.14l2.27-28.98-2.27-28.98h5.55v-6.46h9.35v6.46h5.55l-2.27,28.98,2.27,28.98h-5.55v6.89h-9.35v-6.89h-5.55Z"/>
      <polygon class="cls-2" points="36.3 44.35 101.73 21.61 167.16 44.35 167.16 49.98 36.3 49.98 36.3 44.35"/>
      <rect class="cls-4" x="28.59" y="49.98" width="146.28" height="8.32"/>
    </g>
  </g>
</svg>