<?xml version="1.0" encoding="UTF-8"?>
<svg id="Capa_1" data-name="Capa 1" xmlns="http://www.w3.org/2000/svg" viewBox="0 0 203.46 162.77">
  <defs>
    <style>
      .cls-1 {
        fill: #f39d96;
      }

      .cls-1, .cls-2, .cls-3, .cls-4 {
        stroke-width: 0px;
      }

      .cls-2 {
        fill: #f8f5e0;
      }

      .cls-3 {
        fill: #33915c;
      }

      .cls-4 {
        fill: #1b4c2f;
      }
    </style>
  </defs>
  <rect class="cls-3" width="203.46" height="162.77"/>
  <g>
    <ellipse class="cls-2" cx="135.42" cy="60.3" rx="30.84" ry="30.96"/>
    <polyline class="cls-4" points="12.29 118.16 25.07 119.32 39.23 114.7 57.53 110.54 73.43 115.51 107.94 129.03 122.44 122.56 125.55 123.94 131.76 119.78 144.19 125.17 148.34 123.25 158.01 126.25 160.42 121.17 168.36 119.78 182.36 122.79 192.19 119.78 203.46 123.94 203.46 162.77 0 162.77 0 121.4"/>
    <polygon class="cls-1" points="77.27 145.43 88.87 141.57 115.11 141.57 127.14 141.57 134.45 145.43 135.42 151.37 129.89 155.1 117.28 155.79 99.23 155.79 83.9 155.79 77.27 152.72 77.27 145.43"/>
    <path class="cls-1" d="M142.55,29.75h-7.46l-5.03,2.95-1.91,3.12-13.89-9.03-5.84-2.08-13.01-1.39-12.74-2.26h-11.98l-3.47-3.99-4.69-2.26-5.9-.87-5.9,1.74-3.82,3.3-2.6-1.21-2.43,9.89,2.39,1.19-.13,1.93,2.08,5.55,4.34,4.17,6.25,3.12,7.29-.69,5.55-3.82,2.78-5.21.17-3.99h11.28l6.94,3.82,6.07,1.04,5.03,1.39-9.03,11.63-6.42,13.71-4.51,10.41-1.04,6.25,2.08,6.94,12.39,12.15,6.53,4.37,7.29,4.65.87,3.12-7.98,4.17-2.78,4.69-6.6,7.46-7.29,2.78v2.95l3.47,4.86-1.91,7.46.17,2.26-1.21,1.56,1.91,1.21,5.21-2.6.35-5.9,2.08-4.34v-4.17l14.58-9.03,3.82,16.14-1.21,6.07,11.63,3.82,6.94-1.39-3.12-4.17-3.12-.52-5.38-6.42.52-20.31,14.93-24.82,1.91-12.84v-8.68l1.91-4.51v-6.77l-3.82-6.25-.17-2.26,3.99-1.04,5.9-3.3,2.78-4.86v-5.73l-5.03-5.21ZM128.14,85.99l-2.08,3.12-1.56,6.76-2.89,5.77-3.33-9.75-9.86-13.71v-3.3s2.89-4.34,2.89-4.34l6.07-3.47,10.76-1.21-1.04,7.12,1.04,13.02Z"/>
  </g>
</svg>