<?xml version="1.0" encoding="utf-8"?>
<!-- Generator: Adobe Illustrator 28.1.0, SVG Export Plug-In . SVG Version: 6.00 Build 0)  -->
<svg version="1.1" id="Capa_1" xmlns="http://www.w3.org/2000/svg" xmlns:xlink="http://www.w3.org/1999/xlink" x="0px" y="0px"
	 viewBox="0 0 203.5 162.8" style="enable-background:new 0 0 203.5 162.8;" xml:space="preserve">
<style type="text/css">
	.st0{fill:#33915C;}
	.st1{fill:#1B4C2F;}
	.st2{fill:#F8F5E0;}
	.st3{fill:#7E6A25;}
	.st4{fill:#FDC300;}
</style>
<rect class="st0" width="203.5" height="162.8"/>
<g>
	<rect y="145.4" class="st1" width="203.5" height="17.4"/>
	<circle class="st2" cx="135.4" cy="63" r="27.1"/>
	<g>
		<polygon class="st3" points="77.8,46.9 91.6,48.3 115.6,51.2 115.6,48 114.4,48 114.4,38.5 114.4,34.8 113.3,32.7 112.1,31.8 
			112.1,30.3 109.6,29.3 105.5,28.8 105.2,25.6 104.4,22.4 102.1,22.4 101.7,18.7 100.3,16.2 98.8,15.4 96.7,14.3 93.7,12.8 
			93.4,10.5 89.1,8.7 84.9,9.4 82.1,9.4 79.8,10 77.8,10 76.9,14 75.4,14.6 75.4,17.7 73.6,19.5 72.3,22.8 72.3,27.6 72.3,29.8 
			77.8,25.6 		"/>
		<polygon class="st4" points="77.8,25.6 112.1,30.3 112.1,31.8 113.3,32.7 114.4,34.8 114.4,48 115.6,48 115.6,51.2 77.8,46.9 		
			"/>
		<polygon class="st3" points="104.3,49.8 158.7,143.4 166.5,143.4 163.5,138.7 157.3,120.1 113.4,51.9 110.7,50.6 		"/>
		<polygon class="st3" points="35.2,151.9 38.1,138.9 41.3,138.9 44.1,122.1 47.9,122.1 50.2,107 53.2,107 55.2,93.8 58,93.8 
			60.3,83 63.4,83 64.8,72.9 66.9,72.9 68.7,62.4 71.7,62.4 73.1,53.3 75.6,53.3 76.4,46.9 77.8,46.9 77.8,25.6 70.4,31.3 
			69.9,48.1 68.7,48.7 68.8,50.5 67.3,51.4 67.3,55 65.2,56.5 62.1,64.8 59.5,67 59.4,68.5 56.9,72.2 57,76 48.3,89.1 45.2,89.1 
			43.8,94.2 44.9,94.2 42.3,98.5 39.9,98.5 36.3,106 33.5,106 30.5,114.1 27.4,114.1 22.5,126.9 20.4,126.9 16,139 14.2,139 
			9.7,151.9 		"/>
		<polygon class="st3" points="93.3,35.9 93.3,44.5 98.8,45.4 98.8,36.9 		"/>
		<polygon class="st4" points="115.6,51.2 119.3,51.8 123.5,60.9 126.5,61.1 130.2,70.9 132.4,70.9 138.2,80.5 140.5,80.5 
			145.5,89.9 147.8,89.9 170,121.4 175,121.4 182.5,133.3 185.9,133.3 193.8,148 171.6,149 171,138.7 163.5,138.7 108.1,50.3 		"/>
		<polygon class="st4" points="104.3,49.8 91.6,48.3 143.9,144 133.4,144 137,154.1 179.8,152.3 174.5,144.3 171.6,145.4 171,138.7 
			163.5,138.7 166.5,143.4 158.7,143.4 		"/>
		<polygon class="st4" points="133.4,144 91.6,48.3 77.8,46.9 76.4,46.9 75.6,53.3 73.1,53.3 71.7,62.4 68.7,62.4 66.9,72.9 
			64.8,72.9 63.4,83 60.3,83 58,93.8 55.2,93.8 53.2,107 50.2,107 47.9,122.1 44.1,122.1 41.3,138.9 38.1,138.9 35.2,151.9 
			112.1,151.9 137,154.1 		"/>
		<polygon class="st3" points="143.9,144 91.6,48.3 130.8,153.5 137,154.1 133.4,144 		"/>
		<polygon class="st3" points="112.1,151.9 105.9,151.9 105.9,137.8 104.4,136.8 104.4,121.2 100.9,120.2 100.8,107.8 98.1,107.8 
			98.4,95.3 96,95.3 95.7,84 94.1,84 94.3,73.7 95.7,84 97.4,84 98.4,95.3 100.1,95.3 100.8,107.8 102.7,107.8 104.4,121.2 
			106.2,121.2 108.5,137.1 110.1,137.1 		"/>
	</g>
</g>
</svg>
