<?xml version="1.0" encoding="utf-8"?>
<!-- Generator: Adobe Illustrator 28.1.0, SVG Export Plug-In . SVG Version: 6.00 Build 0)  -->
<svg version="1.1" id="Capa_1" xmlns="http://www.w3.org/2000/svg" xmlns:xlink="http://www.w3.org/1999/xlink" x="0px" y="0px"
	 viewBox="0 0 203.5 162.8" style="enable-background:new 0 0 203.5 162.8;" xml:space="preserve">
<style type="text/css">
	.st0{fill:#33915C;}
	.st1{fill:#F39D96;}
	.st2{fill:#AB5243;}
</style>
<g>
	<rect class="st0" width="203.5" height="162.8"/>
	<g>
		<polygon class="st1" points="62.1,34.7 108.4,39.9 146.4,39.9 165.4,45.9 180.9,58.3 182.4,63.7 185.5,64.4 185.5,67.2 
			183.7,73.1 193.1,92.8 191.4,94.6 191.7,100 182.9,100.8 176.6,103.1 167.3,100.3 158.6,88.8 151.8,91.3 156.9,99.2 162.2,121.7 
			165.5,123.7 145.9,123.7 142.3,108.4 126.9,94.8 97.3,103 79.4,103.5 53.9,94.3 55.6,98.5 41.6,120 50.7,128.1 29,128.1 
			21.7,115.1 24.5,102 15.8,90.2 13.4,75.4 15.8,65.7 12.5,71.1 11.6,78.2 10.4,75.5 10.4,69.1 16,57.5 25,49.3 53.8,35.8 		"/>
		<polygon class="st2" points="115.9,97.8 109.9,124.8 132.9,124.8 127.8,119.7 126.2,115.1 135.2,102.1 126.9,94.8 		"/>
		<polygon class="st2" points="47,124.8 62.3,124.8 56.6,118.2 54.6,118.2 53,112.3 62.3,97.3 53.9,94.3 55.6,98.5 41.6,120 		"/>
		<polygon class="st2" points="53.9,94.3 52,82.8 53.9,71.9 56.1,87.4 67.4,97.2 79.9,100.5 95.6,100.5 117.2,96.1 119.9,96.7 
			97.3,103 79.4,103.5 		"/>
		<polygon class="st2" points="126.9,94.8 132.4,87.7 140.3,86.7 128.3,96 		"/>
		<polygon class="st2" points="154,90.2 150.2,81.4 151.2,73.7 154,66.5 150.2,71.9 148.2,81.4 150,87.7 145.8,83.4 143.3,71.9 
			142.3,78.3 144.3,84.6 151.8,91.3 		"/>
		<polygon class="st2" points="166.9,60.8 164,62.7 160.9,58.3 159.9,54 163.4,56.2 		"/>
		<polygon class="st2" points="178.7,56.5 180.1,52.4 182.4,57.3 181.3,59.9 180.9,58.3 		"/>
		<polygon class="st2" points="176.6,103.1 168.8,97.4 168.8,92.6 172,87.7 172.7,81.4 169.9,87.7 166.9,92.3 166.9,97.9 
			170.5,101.3 		"/>
		<polygon class="st2" points="184.4,94.3 181.6,92.3 182.4,90.2 184.4,92.3 		"/>
		<polygon class="st2" points="189.9,92.7 190.6,90.8 191.7,91.3 191.3,92.7 		"/>
	</g>
</g>
</svg>
