<?xml version="1.0" encoding="utf-8"?>
<!-- Generator: Adobe Illustrator 28.1.0, SVG Export Plug-In . SVG Version: 6.00 Build 0)  -->
<svg version="1.1" id="Capa_1" xmlns="http://www.w3.org/2000/svg" xmlns:xlink="http://www.w3.org/1999/xlink" x="0px" y="0px"
	 viewBox="0 0 203.5 162.8" style="enable-background:new 0 0 203.5 162.8;" xml:space="preserve">
<style type="text/css">
	.st0{fill:#FDC300;}
	.st1{fill:#601313;}
	.st2{fill:#E6332A;}
	.st3{fill:#F39D96;}
</style>
<rect class="st0" width="203.5" height="162.8"/>
<g>
	<polygon class="st1" points="69.3,115.3 71.3,127.8 81.1,144.6 86.6,144.6 89.3,148.6 94.3,148.6 98.6,153.2 108.1,153.2 
		110.9,150.4 120.2,149.4 127.2,143.9 135.2,132.4 136.7,116.8 135.7,112.1 130.9,109 129.2,103 125.4,98 122.7,93.8 117.9,89.7 
		110.9,85.5 105.4,86.5 98.6,94.5 85.1,105 	"/>
	<polygon class="st2" points="69.6,111.9 71.7,124.4 81.4,141.2 86.9,141.2 89.7,145.2 94.7,145.2 99,149.8 108.5,149.8 111.3,147 
		120.5,146 127.6,140.5 135.6,128.9 137.1,113.4 136.1,108.6 131.3,105.6 129.6,99.6 125.8,94.6 123,90.3 118.3,86.3 111.3,82.1 
		105.7,83.1 99,91.1 85.4,101.5 	"/>
	<polygon class="st1" points="128.8,48.1 134.3,49.2 139.8,42.7 148.9,41 159.6,45.1 163.1,47.5 166.2,49.2 164.7,54.5 169.2,62 
		172.9,71.6 171.9,75.4 168.9,82.3 165.9,88.3 162.4,88.3 163.9,94.4 158.4,99.9 148.4,102.6 138.1,102.6 128.8,98.1 125.8,97.6 
		123,93.4 118.3,89.4 111.3,85.1 111.3,79.3 115.8,67 115.8,56.5 	"/>
	<polygon class="st2" points="128.8,45.1 134.3,46.2 139.8,39.7 148.9,37.9 159.6,42.1 163.1,44.5 166.2,46.2 164.7,51.5 169.2,59 
		172.9,68.5 171.9,72.4 168.9,79.3 165.9,85.3 162.4,85.3 163.9,91.3 158.4,96.8 148.4,99.6 138.1,99.6 128.8,95.1 125.8,94.6 
		123,90.3 118.3,86.3 111.3,82.1 111.3,76.3 115.8,64 115.8,53.5 	"/>
	<polygon class="st1" points="113.2,77.8 117.7,65.5 117.7,55 137.5,42.2 140.7,30.2 132.5,23.7 124.4,14.9 116.2,12.6 113.2,15.9 
		113.2,11.1 106.1,11.1 98.9,16.6 94.3,17.6 86.1,25.2 83.3,38.5 86.6,46 87.6,56.2 102.9,71 103.6,76.3 107.6,80.8 	"/>
	<polygon class="st2" points="111.3,76.3 115.8,64 115.8,53.5 135.6,40.7 138.8,28.7 130.6,22.1 122.5,13.4 114.3,11.1 111.3,14.4 
		111.3,9.6 104.2,9.6 97,15.1 92.5,16.1 84.2,23.6 81.4,36.9 84.7,44.5 85.7,54.7 101,69.5 101.7,74.8 105.7,79.3 	"/>
	<polygon class="st1" points="54.2,72.8 33.2,103 41.2,113 41.5,122.8 43.7,125.1 47.5,125.1 57.8,131.1 64.5,131.1 68.3,124.1 
		71.2,120.6 72.3,112.3 88.1,101.9 101.6,91.5 96.6,82.4 71.2,79.7 65,74.4 58.3,75.9 	"/>
	<polygon class="st2" points="51.5,72.4 30.5,102.6 38.6,112.7 38.8,122.4 41,124.7 44.8,124.7 55.1,130.7 61.9,130.7 65.6,123.7 
		68.5,120.2 69.6,111.9 85.4,101.5 99,91.1 94,82.1 68.5,79.3 62.4,74 55.6,75.5 	"/>
	<polygon class="st1" points="84.5,34.7 72.7,36.5 67.4,35.6 57.4,38.5 53.9,47.2 46.1,49.5 39.8,68 43.3,72.1 51.4,72.1 57.9,77.1 
		64.7,75.6 70.8,80.8 84.5,82.6 96.2,83.6 108,80.8 104,76.3 103.3,71 88,56.2 87,46 83.7,38.5 	"/>
	<polygon class="st2" points="82.2,33.2 70.4,34.9 65.1,34.1 55.1,36.9 51.6,45.7 43.8,48 37.5,66.5 41.1,70.5 49.1,70.5 55.6,75.5 
		62.4,74 68.5,79.3 82.2,81.1 94,82.1 105.7,79.3 101.7,74.8 101,69.5 85.7,54.7 84.7,44.5 81.4,36.9 	"/>
	<polygon class="st1" points="104.4,74.6 103.4,69.4 99,60.6 104.4,69.7 106.4,76.3 105.7,61.8 108.4,75.5 111.3,64.4 109.7,75.6 
		114.4,66.2 111.3,76.3 116.8,68.8 113.5,76.3 121.2,70.4 125.5,70.3 121.1,71.8 114.7,77.7 125.5,76.4 114.3,81.2 119.4,82.9 
		114.1,82.9 110.1,83.3 114.2,85.7 108.3,83.9 114.1,88.7 110.8,88.7 111.3,94 106.9,85.8 106.9,90.3 108.4,94.8 107.9,99.6 
		107.1,96.1 105.7,91.4 104.2,97.3 103.4,90.9 101.1,102.1 101.3,92.3 96.4,99.6 99,91.1 93.2,101 95.9,91.7 87.2,95.7 91.9,90.7 
		84.9,92.4 89,88.6 94.7,88.3 93.1,87.5 83.6,89.3 90.1,85.7 81.4,83.9 90.9,83.2 82.3,77.6 92.3,81.3 86.6,77.6 89.9,77.7 
		83.6,71.1 87.7,72.4 92.6,77.1 89.8,69.4 95.1,76.7 99,76.9 97.1,71.8 93.4,66.5 99,72.4 100.8,76.3 99,68.3 102.8,76 101.3,68.1 	
		"/>
	<polygon class="st3" points="99.6,76.5 105,80.5 107.5,82.4 106.2,85.8 103.5,86.8 98.8,84.8 94.7,79 86.8,66.8 77.4,50.7 
		78.6,49.8 79.9,51.3 93.7,70.3 	"/>
	<polygon class="st0" points="75.1,49.2 72,49.2 70.4,51.9 72,54.6 75.1,54.6 76.6,51.9 	"/>
	<polygon class="st0" points="72,43 69.7,43 68.5,45 69.7,47 72,47 73.2,45 	"/>
	<polygon class="st0" points="67.3,48.5 65,48.5 63.8,50.5 65,52.5 67.3,52.5 68.5,50.5 	"/>
</g>
</svg>
