<?xml version="1.0" encoding="utf-8"?>
<!-- Generator: Adobe Illustrator 28.1.0, SVG Export Plug-In . SVG Version: 6.00 Build 0)  -->
<svg version="1.1" id="Capa_1" xmlns="http://www.w3.org/2000/svg" xmlns:xlink="http://www.w3.org/1999/xlink" x="0px" y="0px"
	 viewBox="0 0 203.5 162.8" style="enable-background:new 0 0 203.5 162.8;" xml:space="preserve">
<style type="text/css">
	.st0{fill:#F39D96;}
	.st1{fill:#33915C;}
	.st2{fill:#E6332A;}
	.st3{fill:#601313;}
	.st4{fill:#2C80C3;}
	.st5{fill:#FDC300;}
</style>
<rect class="st0" width="203.5" height="162.8"/>
<g>
	<polygon class="st1" points="115.8,77.1 111.6,75 103.5,72.4 76.9,64.5 59.5,64.5 59.5,67.3 77.1,67.4 104.9,76.1 131.1,86.3 
		132.8,83.8 	"/>
	<polygon class="st2" points="132.8,16.6 130.8,12.8 124.9,11.2 116.6,12.6 106.3,23.2 107.8,23.2 102.4,29.7 103.8,29.7 97,38.2 
		93.1,44.9 92.4,48.9 87,55.4 87,57 81.3,63.8 83.1,65.1 78.7,72 79.8,73.3 73.3,78 70.7,82.2 70.7,84.4 75.2,81.9 72.7,87 
		73.7,88.9 77.2,87.8 86.5,81.5 84.6,92 85.5,95.6 88.7,85.5 91.2,84.5 74.4,151.5 77.7,149.3 80.6,139.5 78.8,151.5 83.8,147.3 
		90.4,115.3 88.7,140 89.6,142.7 94.7,125.6 102.9,87 103.5,71.6 105.8,67.8 106.6,72.2 108.6,73.6 108.5,71.6 111.3,72 111.9,70 
		113.3,69 113.4,60.9 116.7,57 117,59.1 122,53.3 122.5,54.5 124,52.1 124.4,35 123,33 121.5,25.6 	"/>
	<polygon class="st3" points="131.6,17.5 132.8,18.4 132.8,22.5 131.6,26.4 127.3,30.1 128.1,27.5 128,24.9 126.8,22.4 126.1,22 
		126.1,23.8 127.2,26 124.8,26.3 122.5,26.2 121.5,25.6 	"/>
	<polygon class="st3" points="108.6,73.6 110.8,73.6 108.6,75.9 110.2,78.1 109.7,76.4 113.4,73.6 115.8,77.1 115.5,78.1 
		114.2,78.1 115.3,78.9 116.5,78.6 117.1,76.6 114.8,72.8 113.7,72 111.3,72 108.5,71.6 	"/>
	<polygon class="st4" points="113,58.9 100.5,69.3 90,77.2 82.6,81.4 83.4,78.9 80.4,81.4 81.7,76 78.9,78.4 80.9,74.1 84.7,69.4 
		86.3,66.1 87.9,63.1 88,62.3 86.5,62.4 86.8,59.7 88.9,56.2 91.2,54.3 91.8,52.6 93.4,50.9 95.9,50.9 108.3,53.3 111.7,55.2 	"/>
	<polygon class="st5" points="122.6,24.7 120.3,24.7 121.5,21.2 120.3,18.9 120.3,15.5 123,14 126.5,14 128.6,15.9 128.6,18.5 
		128.6,20 	"/>
	<polygon class="st1" points="95.6,46.4 93.8,49.7 93.4,50.9 93.4,53 94,54.9 95.6,55.1 98,54.1 96.4,56.8 96.1,59.6 97.5,60.4 
		100,60 103.8,58.4 109.3,55.2 108.9,57.1 108.5,59 109.3,59.8 111,59.8 113,58.9 115.8,56.2 118.4,52.3 118,48.7 105.3,41.7 
		99.2,43 	"/>
	<polygon class="st5" points="109.4,32.8 114.6,32.8 119.6,36.2 120.9,44 120.9,49.5 118.8,53.2 115.8,56.2 117.2,53.2 117.7,51.2 
		115.2,51.9 112.8,53.3 112.1,52.6 112.7,50.1 113.1,48.3 110.9,49.6 108.7,51.1 106.6,51.3 105.2,49.9 105.2,47.8 106.9,43.6 
		104.1,46.3 99.7,49.6 97.1,50 95.6,48.7 95.6,45.9 96.8,42.9 100,37.9 104.5,34.8 	"/>
</g>
</svg>
