<?xml version="1.0" encoding="utf-8"?>
<!-- Generator: Adobe Illustrator 28.1.0, SVG Export Plug-In . SVG Version: 6.00 Build 0)  -->
<svg version="1.1" id="Capa_1" xmlns="http://www.w3.org/2000/svg" xmlns:xlink="http://www.w3.org/1999/xlink" x="0px" y="0px"
	 viewBox="0 0 203.5 162.8" style="enable-background:new 0 0 203.5 162.8;" xml:space="preserve">
<style type="text/css">
	.st0{fill:#FDC300;}
	.st1{fill:#E6332A;}
	.st2{fill:#33915C;}
	.st3{fill:#1B4C2F;}
</style>
<rect class="st0" width="203.5" height="162.8"/>
<g>
	<ellipse class="st1" cx="166.8" cy="53.4" rx="25.3" ry="25.4"/>
	<polygon class="st2" points="145.4,110.3 148.1,105.2 146.5,97.1 136.9,90.8 127.3,97.1 125.7,105.2 128.4,110.3 122.9,110.3 
		122.9,103.9 128.5,89.5 126.2,77.2 110.1,64.3 101.7,53 93.3,64.3 77.2,77.2 75,89.5 80.5,103.9 80.5,110.3 75.1,110.3 77.8,105.2 
		76.2,97.1 66.6,90.8 56.9,97.1 55.3,105.2 58,110.3 41.3,110.3 41.3,162.8 101.7,162.8 162.1,162.8 162.1,110.3 	"/>
	<polygon class="st2" points="28.4,87.7 25.4,92.8 23.6,162.8 28.4,162.8 33.1,162.8 31.4,92.8 	"/>
	<polygon class="st2" points="8.7,68.2 4.9,74.7 2.7,162.8 8.7,162.8 14.7,162.8 12.4,74.7 	"/>
	<polygon class="st2" points="175.1,87.7 178.1,92.8 179.8,162.8 175.1,162.8 170.3,162.8 172.1,92.8 	"/>
	<polygon class="st2" points="194.8,68.2 198.6,74.7 200.8,162.8 194.8,162.8 188.8,162.8 191,74.7 	"/>
	<g>
		<g>
			<polygon class="st3" points="69.9,125.2 65.1,128.4 65.1,139.1 69.9,139.1 74.7,139.1 74.7,128.4 			"/>
			<polygon class="st3" points="51.2,125.2 46.4,128.4 46.4,139.1 51.2,139.1 55.9,139.1 55.9,128.4 			"/>
			<polygon class="st3" points="69.9,143.8 65.1,146.9 65.1,157.7 69.9,157.7 74.7,157.7 74.7,146.9 			"/>
			<polygon class="st3" points="51.2,143.8 46.4,146.9 46.4,157.7 51.2,157.7 55.9,157.7 55.9,146.9 			"/>
		</g>
		<g>
			<polygon class="st3" points="133.6,125.2 138.4,128.4 138.4,139.1 133.6,139.1 128.8,139.1 128.8,128.4 			"/>
			<polygon class="st3" points="152.3,125.2 157.1,128.4 157.1,139.1 152.3,139.1 147.5,139.1 147.5,128.4 			"/>
			<polygon class="st3" points="133.6,143.8 138.4,146.9 138.4,157.7 133.6,157.7 128.8,157.7 128.8,146.9 			"/>
			<polygon class="st3" points="152.3,143.8 157.1,146.9 157.1,157.7 152.3,157.7 147.5,157.7 147.5,146.9 			"/>
		</g>
		<polygon class="st3" points="110.5,128.8 101.7,124.2 93,128.8 88.8,134.8 88.8,162.8 101.7,162.8 114.6,162.8 114.6,134.8 		"/>
	</g>
	<polygon class="st3" points="101.7,53 99.8,68.2 91.9,74 84,80.6 84,93.3 88.8,101.2 79.5,101.2 75,89.5 77.2,77.2 93.3,64.3 	"/>
	<polygon class="st3" points="80.5,110.3 88.8,110.3 88.8,105.8 90.8,103.9 122.9,103.9 124,101.2 79.5,101.2 80.5,103.9 	"/>
	<polygon class="st3" points="66.6,90.8 62.9,96.2 59.6,100.2 59.1,105.2 64.2,108.2 76.6,107.4 75.1,110.3 58,110.3 55.3,105.2 
		56.9,97.1 	"/>
	<polygon class="st3" points="136.9,90.8 133.2,96.2 130,100.2 129.5,105.2 134.5,108.2 147,107.4 145.4,110.3 128.4,110.3 
		125.7,105.2 127.3,97.1 	"/>
	<polygon class="st3" points="2.7,162.8 6.4,162.8 5.9,74.7 8.7,68.2 4.9,74.7 	"/>
	<polygon class="st3" points="23.6,162.8 26,162.8 26.8,92.9 28.4,87.7 25.4,92.8 	"/>
	<polygon class="st3" points="170.3,162.8 172.9,162.8 173.5,92.9 175.1,87.7 172.1,92.8 	"/>
	<polygon class="st3" points="188.8,162.8 192.6,162.8 193.1,74.9 194.8,68.2 191,74.7 	"/>
</g>
</svg>
