<?xml version="1.0" encoding="utf-8"?>
<!-- Generator: Adobe Illustrator 28.1.0, SVG Export Plug-In . SVG Version: 6.00 Build 0)  -->
<svg version="1.1" id="Capa_1" xmlns="http://www.w3.org/2000/svg" xmlns:xlink="http://www.w3.org/1999/xlink" x="0px" y="0px"
	 viewBox="0 0 203.5 162.8" style="enable-background:new 0 0 203.5 162.8;" xml:space="preserve">
<style type="text/css">
	.st0{fill:#2C80C3;}
	.st1{fill:#E6332A;}
	.st2{fill:#FDC300;}
	.st3{fill:#33915C;}
</style>
<rect class="st0" width="203.5" height="162.8"/>
<g>
	<polygon class="st1" points="179.9,53.5 172.9,38.5 156.1,32.9 144,25.4 134.1,25.9 125.9,31.5 123.8,37 106.2,32.3 81.8,33.1 
		52.2,43.2 42.5,56.5 31.3,81.1 28.7,98.7 35.7,81.2 39,88.2 29,110.2 20.2,133.2 42.5,135.4 41.1,127.8 49.6,104.7 52.2,124.3 
		53.5,135.4 73,135.4 68.6,126.2 70.3,103.2 77.2,100.7 99.9,104.7 117.3,100.2 117.3,119.9 114.8,135.4 133.8,135.4 131.6,128.4 
		133.8,103.2 148.8,123 148.8,135.4 162.3,137.3 167.2,133.5 151.7,90.7 151.7,77.1 158.9,72.6 167.8,77.1 172.9,87.3 172.9,100.2 
		170,110.2 170,119.6 172.9,126.2 175.1,124.3 178,126.2 174.8,117.9 178,106.2 182.1,92.2 183.4,73.1 	"/>
	<polygon class="st2" points="181.6,63.4 177.5,63.4 175,55.9 170.6,53.6 170.6,47.5 166.5,46.1 164.2,40.6 156.4,40.6 150.1,40.6 
		144.6,33.4 148,28 156.1,32.9 172.9,38.5 179.9,53.5 	"/>
	<polygon class="st2" points="115.2,34.7 117.7,42.9 117.7,55 115.2,63.4 113.4,71.5 115.6,81.4 117.7,92.3 111.9,95.8 98.9,97.2 
		81.3,97.2 68.9,99.8 61.1,99.8 58,91.7 55.3,81.4 53.9,63.4 52.2,43.2 81.8,33.1 106.2,32.3 	"/>
	<polygon class="st3" points="106.2,32.3 108.8,42.3 108.8,54.5 104.4,70.9 108.8,89.1 97.8,90.6 80.8,90.6 66,93.5 63,79.9 
		60.2,40.5 81.8,33.1 	"/>
	<polygon class="st2" points="94,32.7 96.6,41.2 96.6,54.2 94,67.1 94,72.1 96.6,80.2 90.3,81.4 81.9,81.4 74.1,82.7 72.4,74.7 
		72.4,64.6 71.5,53.6 70.1,37.1 81.8,33.1 	"/>
	<polygon class="st1" points="76.9,38.3 78.1,40.5 80.4,41.8 78.1,43 76.9,45.2 75.7,43 73.4,41.8 75.7,40.5 	"/>
	<polygon class="st3" points="78.4,50 79.7,52.2 81.9,53.5 79.7,54.7 78.4,56.9 77.2,54.7 75,53.5 77.2,52.2 	"/>
	<polygon class="st1" points="79.2,62.5 80.4,64.7 82.7,65.9 80.4,67.2 79.2,69.4 78,67.2 75.7,65.9 78,64.7 	"/>
	<polygon class="st3" points="88.5,36.8 89.7,39 91.9,40.2 89.7,41.5 88.5,43.7 87.2,41.5 85,40.2 87.2,39 	"/>
	<polygon class="st1" points="90,50 91.2,52.2 93.5,53.5 91.2,54.7 90,56.9 88.8,54.7 86.5,53.5 88.8,52.2 	"/>
	<polygon class="st3" points="88.5,62.5 89.7,64.7 91.9,65.9 89.7,67.2 88.5,69.4 87.2,67.2 85,65.9 87.2,64.7 	"/>
	<polygon class="st3" points="84.6,71.8 85.8,74.1 88.1,75.3 85.8,76.5 84.6,78.8 83.4,76.5 81.1,75.3 83.4,74.1 	"/>
	<polygon class="st1" points="97.6,90.6 100.4,92.9 99.3,97.2 96.2,94.1 	"/>
	<polygon class="st1" points="77.5,91.4 80.7,93.7 79.4,97.7 76.4,94.9 	"/>
	<polygon class="st1" points="61.5,57.7 57.5,59.9 53.4,57.7 57.5,55.5 	"/>
	<polygon class="st1" points="62.7,75.3 58.9,77.5 54.9,75.3 58.9,73.1 	"/>
	<polygon class="st1" points="66,93.1 61.9,95.3 58.5,93.2 61.9,90.9 	"/>
	<polygon class="st1" points="117.3,48.5 113.2,50.7 109.2,48.5 113.2,46.3 	"/>
	<polygon class="st1" points="113.9,66.1 110,68.3 106,66.1 110,63.9 	"/>
	<g>
		<polygon class="st3" points="60.8,48.9 56.7,51.1 52.7,48.9 56.7,46.7 		"/>
		<polygon class="st3" points="107.2,89.3 110.3,92.1 109.1,96.1 106,93.3 		"/>
		<polygon class="st3" points="87.7,90.7 90.6,92.9 89.4,97.2 86.3,94.2 		"/>
		<polygon class="st3" points="67.7,93.3 70.8,96.1 69.6,100 66.6,97.3 		"/>
		<polygon class="st3" points="62.1,66.5 58.2,68.7 54.2,66.5 58.2,64.3 		"/>
		<polygon class="st3" points="64,84.1 59.6,86.3 56,84.2 59.6,81.9 		"/>
		<polygon class="st3" points="116.6,39.7 112.5,41.9 108.4,39.7 112.5,37.5 		"/>
		<polygon class="st3" points="116.3,57.3 112.4,59.5 108.4,57.3 112.4,55.1 		"/>
		<polygon class="st3" points="113.6,74.9 109.2,77.1 105.7,74.9 109.2,72.7 		"/>
	</g>
	<polygon class="st1" points="115.6,83.9 111.5,86.1 108.2,84 111.5,81.7 	"/>
	<polygon class="st3" points="151.3,30 148.5,33.8 151.8,37.8 164.5,37.8 166.7,38.6 168.6,43.9 172.6,45.3 172.6,51.8 176.8,53.6 
		178.7,60.8 181.2,60.8 179.9,53.5 172.9,38.5 156.1,32.9 	"/>
</g>
</svg>
