<?xml version="1.0" encoding="utf-8"?>
<!-- Generator: Adobe Illustrator 28.1.0, SVG Export Plug-In . SVG Version: 6.00 Build 0)  -->
<svg version="1.1" id="Capa_1" xmlns="http://www.w3.org/2000/svg" xmlns:xlink="http://www.w3.org/1999/xlink" x="0px" y="0px"
	 viewBox="0 0 203.5 162.8" style="enable-background:new 0 0 203.5 162.8;" xml:space="preserve">
<style type="text/css">
	.st0{fill:#33915C;}
	.st1{fill:#E8E4BD;}
	.st2{fill:#1B4C2F;}
	.st3{fill:#F39D96;}
</style>
<rect class="st0" width="203.5" height="162.8"/>
<g>
	<circle class="st1" cx="101.8" cy="50.2" r="30.5"/>
	<polygon class="st2" points="74.7,60.2 91.2,55.1 99.3,55.1 109.8,51.5 203.5,95.4 203.5,162.8 0,162.8 0,102.2 6.8,96.8 	"/>
	<polygon class="st3" points="171.7,132.1 173.3,130.6 173.9,131.9 175.9,130.6 175.9,126 174.4,126 177.2,123.4 175.9,121.7 
		175.7,119.1 173.9,118.2 173.9,120.3 171.8,122 171.8,122.9 170.1,122.9 170.1,120.9 168.8,120.8 170.1,118.9 171.7,118.7 
		171.3,116.5 169.3,115.9 168.8,116.9 167.6,115.9 165.2,115.9 168,111.6 167.6,110.3 165.2,110.3 165.2,107.1 167.2,105.4 
		168.1,106.4 167.7,103.2 165.8,103.2 165.2,101.4 164.2,101.4 164.2,100.3 165.3,100.3 164.9,98.8 163.1,98.8 162.5,97.2 
		160.4,97.2 162.5,95.4 161.1,87.7 157.9,84.6 154.5,84.3 152,86 152,88.8 153.4,87.7 154.4,88.7 154.5,91.1 150.9,94.3 150.9,96.2 
		149.4,96.2 149.4,97.2 150.5,97.3 150.3,98.3 148.8,99.4 147.5,98 149.3,91.5 145.1,91.5 145.1,88.5 146.6,87.1 147.9,87.2 
		147.9,88.3 149.6,88.1 150.7,86.1 149.8,83.9 151.4,83.2 151.4,80.9 150.5,80.9 150.5,79.5 151.9,79.5 152.7,78.3 152.6,75.4 
		153.4,74.7 154.4,75.7 154.6,73.6 153.3,71.3 151.9,70.6 153.8,68.7 153.1,64.7 149.9,62.3 146.7,62.9 146.4,65.1 148.3,64.4 
		148.7,65.9 147.2,68.1 145.5,69.4 143.7,72.2 142.6,71.8 144.2,68.3 143.3,66.5 142.6,64.5 144.4,65 144.6,62.3 147.8,61.3 
		147.6,58 148.2,55.8 148.1,52.3 145.9,51 147.2,49.9 147.1,46.1 145.4,44.6 143.3,44.6 142,47 143.7,46.4 144.4,47.3 143.3,48.5 
		142,49.7 141,51.1 140.6,52.6 139.3,52.6 139.3,50.8 140.2,48.9 139.3,48.6 138.1,48.5 138.6,45.9 139.7,44.6 141.2,45.2 
		142.8,43.1 144,38.6 143.3,34.9 141.5,32.3 139.5,31.6 140,33.3 138.9,34.2 138.5,32.3 138.5,30.5 136.3,29.4 136.3,26.9 
		135.1,24.2 133.9,24.2 133.9,25.5 133.4,26.6 132.8,28.1 131.2,28.2 131.2,26.1 132.3,24.6 132.5,21.4 128.7,19.6 127.2,17.6 
		125.4,14.1 123.8,11.2 123.8,132.1 123.8,133.1 123.8,158.1 79.7,158.1 79.7,133.1 79.7,132.1 79.7,11.2 78.1,14.1 76.3,17.6 
		74.8,19.6 71,21.4 71.2,24.6 72.3,26.1 72.3,28.2 70.7,28.1 70.1,26.6 69.6,25.5 69.6,24.2 68.3,24.2 67.2,26.9 67.2,29.4 65,30.5 
		65,32.3 64.6,34.2 63.5,33.3 64,31.6 62,32.3 60.2,34.9 59.5,38.6 60.7,43.1 62.3,45.2 63.8,44.6 64.9,45.9 65.4,48.5 64.2,48.6 
		63.3,48.9 64.2,50.8 64.2,52.6 62.9,52.6 62.5,51.1 61.5,49.7 60.2,48.5 59.1,47.3 59.8,46.4 61.5,47 60.2,44.6 58.1,44.6 
		56.4,46.1 56.3,49.9 57.6,51 55.4,52.3 55.2,55.8 55.9,58 55.7,61.3 58.9,62.3 59,65 60.8,64.5 60.2,66.5 59.3,68.3 60.8,71.8 
		59.8,72.2 58,69.4 56.3,68.1 54.8,65.9 55.2,64.4 57.2,65.1 56.8,62.9 53.7,62.3 50.4,64.7 49.7,68.7 51.6,70.6 50.2,71.3 
		48.9,73.6 49.1,75.7 50.1,74.7 50.9,75.4 50.8,78.3 51.6,79.5 53,79.5 53,80.9 52.1,80.9 52.1,83.2 53.7,83.9 52.8,86.1 53.8,88.1 
		55.6,88.3 55.6,87.2 56.9,87.1 58.4,88.5 58.4,91.5 54.2,91.5 56,98 54.7,99.4 53.2,98.3 53,97.3 54.1,97.2 54.1,96.2 52.6,96.2 
		52.6,94.3 49,91.1 49.1,88.7 50.1,87.7 51.5,88.8 51.5,86 49,84.3 45.6,84.6 42.4,87.7 41,95.4 43.1,97.2 41,97.2 40.3,98.8 
		38.6,98.8 38.2,100.3 39.3,100.3 39.3,101.4 38.3,101.4 37.7,103.2 35.8,103.2 35.4,106.4 36.3,105.4 38.3,107.1 38.3,110.3 
		35.9,110.3 35.5,111.6 38.3,115.9 35.9,115.9 34.7,116.9 34.2,115.9 32.2,116.5 31.8,118.7 33.4,118.9 34.7,120.8 33.4,120.9 
		33.4,122.9 31.7,122.9 31.7,122 29.6,120.3 29.6,118.2 27.8,119.1 27.6,121.7 26.3,123.4 29.1,126 27.6,126 27.6,130.6 29.6,131.9 
		30.2,130.6 31.8,132.1 0,132.1 0,162.8 79.7,162.8 123.8,162.8 203.5,162.8 203.5,132.1 	"/>
</g>
</svg>
