<?xml version="1.0" encoding="utf-8"?>
<!-- Generator: Adobe Illustrator 28.1.0, SVG Export Plug-In . SVG Version: 6.00 Build 0)  -->
<svg version="1.1" id="Capa_1" xmlns="http://www.w3.org/2000/svg" xmlns:xlink="http://www.w3.org/1999/xlink" x="0px" y="0px"
	 viewBox="0 0 203.5 162.8" style="enable-background:new 0 0 203.5 162.8;" xml:space="preserve">
<style type="text/css">
	.st0{fill:#FDC300;}
	.st1{fill:#F39D96;}
	.st2{fill:#E6332A;}
	.st3{fill:#601313;}
</style>
<rect class="st0" width="203.5" height="162.8"/>
<g>
	<polygon class="st1" points="31.3,17.5 30.6,23.2 31.8,29.6 31.8,35.4 34.3,40.2 38.1,42 43.2,42.5 45.2,41.2 48.6,38.1 49.8,34.5 
		52.4,30 55.9,31.8 57.5,32.5 59,32.5 61.8,30.9 63.7,27.9 64.2,25.3 64.2,21.6 61.8,19.5 60.2,18.7 58.2,18.8 57.2,19.2 52.6,17 
		49.6,15.1 45.4,15.1 41,17.1 37.6,15.2 34.3,14.9 32.2,16.4 	"/>
	<polygon class="st1" points="0.1,105.1 0.1,94.9 29,101.8 43.7,105.2 49.1,106.6 62,109.1 91.1,115.7 110.2,119.9 116.1,120.9 
		154.6,129.6 203.5,141.4 203.5,151.4 103.6,129.4 80.4,134.6 79.9,130.4 91.8,126.8 31.7,112.3 	"/>
	<polygon class="st2" points="31.3,17.5 31.3,13.5 35.8,9.1 41.3,7.9 43.6,7.1 45.9,6.3 46.4,7.4 51.4,8.1 56.6,11.4 60.9,16 
		61.8,18.8 61.8,19.5 60.2,18.7 58.2,18.8 57.2,19.2 57.8,20.5 57.6,21.8 58.1,22.5 57.2,25.6 57.4,26.5 56.3,29.6 56.5,30.6 
		55.9,31.8 57.5,32.5 59,32.5 61.8,30.9 63.7,27.9 64.2,25.3 89,22 111.2,19.6 124.8,19.6 147.4,23.2 159.9,30 163.7,35.9 
		172.8,44.8 176.7,60.4 175.8,80 172.6,100.2 166.7,124.8 159.4,146.3 151.7,155.2 142.1,156.5 132.6,154 125.7,149.9 123.9,144.9 
		127.8,140.4 132.6,141.3 138.1,144.9 144.6,145.9 149.9,140.8 158.5,120.2 164.2,98.4 168.2,81.6 168.7,67.7 165.3,58 163.9,54.5 
		160.5,60.9 154.9,68.2 146.6,76.3 135.8,83.8 141.5,92.5 144.9,103.4 145.6,112.7 147.6,115.6 147.4,121.6 144,125.6 137.3,127 
		129.4,129.1 125.1,132.7 124.3,131.6 126.9,128.9 131.6,126 126.3,127.3 121.6,130.5 120.2,129.3 121,128.3 119.1,128.3 
		118.2,127.2 119.4,124.7 124.7,122.3 133.1,121.6 138.7,119.7 142.1,117.4 137.4,108.5 128.5,97.3 123.1,92.2 119.9,108.5 
		118.6,116.7 116.1,120.9 112.1,123.3 105.1,125.3 104.6,123.6 110.2,119.9 91.1,115.7 93,114.4 100.7,114.9 108.5,113.4 
		112.7,110.8 112.7,94.1 111.1,78.5 114.2,72.5 123.2,62.4 127.2,54 96.9,62.1 83,63 73.2,60.9 77.6,72.6 83.7,79.7 80.6,81.6 
		82.5,84.8 78.5,88.4 72.7,98.8 68.5,105.5 62,109.1 59,108.6 57,110.6 54.7,113.4 53,113 52.1,111.5 54.8,107.8 49.1,106.6 
		50.4,104.3 55.1,104.1 61.2,102.4 67.9,96.1 69.3,88.6 40,107.6 31.3,108.3 31.7,112.3 33.9,112.5 34.1,114.8 28.7,113.7 
		27.5,115.1 24.1,112.2 22,110.2 22.7,105.2 24.5,102.3 38.3,100.8 52,88.5 59.7,76.5 50.7,58 48.1,50.4 48.9,47.6 45.4,43.8 
		43.2,42.5 45.2,41.2 48.6,38.1 49.8,34.5 52.4,30 53.9,22.3 52.6,17 49.6,15.1 45.4,15.1 41,17.1 37.6,15.2 34.3,14.9 32.2,16.4 	
		"/>
	<polygon class="st3" points="59,32.5 57,37.5 52.5,41.1 51,41.1 46.1,42.1 45.2,41.2 47,41.4 50.8,40.4 52.8,40.1 55.1,36.5 
		52.1,39.4 54.3,34.4 55.9,31.8 57.5,32.5 	"/>
	<polygon class="st3" points="51.4,8.1 49.5,8.6 53.6,10.5 57,16 54.8,14.5 56.3,17.3 57.2,19.2 58.2,18.8 60.2,18.7 61.8,19.5 
		61.8,18.8 60.9,16 56.6,11.4 	"/>
	<polygon class="st3" points="40,107.6 66.2,88.3 65,85.3 68,85.3 64.2,79.7 67.2,79.7 61.8,45 69.2,53.2 67.6,58.8 68.2,73.8 
		72.8,83.2 69.9,83.3 71.6,86.5 69.3,88.6 	"/>
	<polygon class="st3" points="68.5,105.5 73.3,91.3 78.1,86.5 78.1,83 76.5,80.6 79.2,80.8 74.9,75.4 78.3,76.3 67.6,58.8 
		69.2,53.2 76.7,57.6 81.3,58.9 79.3,56 96.7,58.9 109.6,55.3 106.8,52.7 120.6,53.7 139.5,49.5 135.7,59.3 123.3,77.5 123.6,75 
		121.4,76.3 126.8,68.4 128.6,64.2 125.1,67.2 129.4,56.6 124.7,59.3 127.2,54 96.9,62.1 83,63 73.2,60.9 77.6,72.6 83.7,79.7 
		80.6,81.6 82.5,84.8 78.5,88.4 72.7,98.8 	"/>
	<polygon class="st3" points="124.8,19.6 143.2,24.5 156.4,35.1 153.4,34.6 159.6,43.8 159,57.8 153,65.6 153.8,60.4 141.5,75.1 
		132.1,82.8 136.8,89 138.6,96.7 136.1,95.5 141.7,103.8 145,117.2 144.9,121.2 146.5,119.9 146.1,123.2 147.4,121.6 147.6,115.6 
		145.6,112.7 144.9,103.4 141.5,92.5 135.8,83.8 146.6,76.3 154.9,68.2 160.5,60.9 163.9,54.5 166.2,46 163.7,35.9 159.9,30 
		147.4,23.2 	"/>
	<polygon class="st3" points="123.1,92.2 120.4,87.3 119.8,83.2 123.3,77.5 119.1,82.9 119.6,87.9 	"/>
</g>
</svg>
