<?xml version="1.0" encoding="utf-8"?>
<!-- Generator: Adobe Illustrator 28.1.0, SVG Export Plug-In . SVG Version: 6.00 Build 0)  -->
<svg version="1.1" id="Capa_1" xmlns="http://www.w3.org/2000/svg" xmlns:xlink="http://www.w3.org/1999/xlink" x="0px" y="0px"
	 viewBox="0 0 203.5 162.8" style="enable-background:new 0 0 203.5 162.8;" xml:space="preserve">
<style type="text/css">
	.st0{fill:#E6332A;}
	.st1{fill:#FDC300;}
	.st2{fill:#004259;}
	.st3{fill:#1B4C2F;}
	.st4{fill:#2C80C3;}
	.st5{fill:#33915C;}
</style>
<rect class="st0" width="203.5" height="162.8"/>
<g>
	<circle class="st1" cx="101.8" cy="97.3" r="35.3"/>
	<g>
		<polygon class="st2" points="115.2,132.6 110.8,117.8 109.3,112.7 108,110.7 101.8,105.8 95.5,110.7 94.2,112.7 92.7,117.8 
			88.3,132.6 79.6,162.2 85.3,162.2 93.1,133.4 94.4,130.9 98.8,126.8 101.8,125.9 104.7,126.8 109.1,130.9 110.4,133.4 
			118.2,162.2 123.9,162.2 		"/>
		<polygon class="st3" points="85.9,94.1 83.2,115.8 86.7,112.7 89.9,107.4 92.1,101.8 93.1,94.1 93.6,87.5 91.5,92.8 		"/>
		<polygon class="st4" points="93.6,87.5 94.9,88 94.7,96.1 94.2,103 93.8,107.9 92.5,116.5 89.6,125.8 85.4,138.3 77.6,162.8 
			0,162.8 41.7,139.8 59,130.1 70.9,123.1 78.6,118.6 83.2,115.8 86.7,112.7 89.9,107.4 92.1,101.8 93.1,94.1 		"/>
		<polygon class="st5" points="94.9,89.1 101.8,89.8 101.8,105.8 95.5,110.7 94.2,112.7 92.7,117.8 88.3,132.6 79.6,162.2 
			77.6,162.8 85.4,138.3 89.6,125.8 92.5,116.5 93.8,107.9 94.2,103 94.7,96.1 		"/>
		<polygon class="st4" points="87.9,142.5 85.2,147.3 80.7,162.2 83.6,162.2 87.9,147.6 		"/>
		<polygon class="st5" points="117.6,94.1 120.4,115.8 116.8,112.7 113.6,107.4 111.5,101.8 110.4,94.1 110,87.5 112,92.8 		"/>
		<polygon class="st4" points="110,87.5 108.6,88 108.9,96.1 109.3,103 109.7,107.9 111,116.5 113.9,125.8 118.1,138.3 126,162.8 
			203.5,162.8 161.9,139.8 144.5,130.1 132.6,123.1 124.9,118.6 120.4,115.8 116.8,112.7 113.6,107.4 111.5,101.8 110.4,94.1 		"/>
		<polygon class="st3" points="108.6,89.1 101.8,89.8 101.8,105.8 108,110.7 109.3,112.7 110.8,117.8 115.2,132.6 123.9,162.2 
			126,162.8 118.1,138.3 113.9,125.8 111,116.5 109.7,107.9 109.3,103 108.9,96.1 		"/>
		<polygon class="st4" points="115.6,142.5 118.4,147.3 122.8,162.2 119.9,162.2 115.6,147.6 		"/>
	</g>
</g>
</svg>
