<?xml version="1.0" encoding="utf-8"?>
<!-- Generator: Adobe Illustrator 28.1.0, SVG Export Plug-In . SVG Version: 6.00 Build 0)  -->
<svg version="1.1" id="Capa_1" xmlns="http://www.w3.org/2000/svg" xmlns:xlink="http://www.w3.org/1999/xlink" x="0px" y="0px"
	 viewBox="0 0 203.5 162.8" style="enable-background:new 0 0 203.5 162.8;" xml:space="preserve">
<style type="text/css">
	.st0{fill:#FDC300;}
	.st1{fill:#33915C;}
</style>
<rect class="st0" width="203.5" height="162.8"/>
<path class="st1" d="M151.5,76.1l-7.6-6.6l-9.9-0.9l-9.5,2.5l-6.8,1l6.8-6.3l8.1-5.6l5.8-8.1v-10l-4.2-6.8l-7.3-3.5l-9.1,0.6
	l-6.2,3.3l-3.9-4.6l-6.6-4.4l-8.9-1l-8.7,4.8l-4.1,10.4l2.5,9.8l8.5,15.5l-0.3,0.4l-7.8-4.8L74.5,56L65,53.2l-9.5,3.3l-5,6.2
	l-0.9,8.1l3.5,8.4l5.1,4.8l-3.1,5.2L53,96.7l2,8.7l7.4,6.6l11.2,0.4l8.5-5.6l11.2-13.7l3.8-5l0-0.1l0.4,0.2l-5,12.6l-6.8,11.5
	l-10,11.3l-6.6,4.5l1.3,8.9l8.9-7.3l11.8-15.2l6-12.2l3.4-12.2l2.1,6.2l5.3,16.8l5.8,8.3l10.5,3.7l9.3-3.4l5.1-7.4l0.9-7.9l-1-5.9
	l6.5-2.5l6.4-6.5l2.2-7.8L151.5,76.1L151.5,76.1z M99.3,80.5l-0.4,0.9l0.1-1L99.3,80.5L99.3,80.5z"/>
</svg>
