<?xml version="1.0" encoding="UTF-8"?>
<svg id="Capa_1" data-name="Capa 1" xmlns="http://www.w3.org/2000/svg" viewBox="0 0 203.46 162.77">
  <defs>
    <style>
      .cls-1 {
        fill: #33915c;
      }

      .cls-1, .cls-2, .cls-3, .cls-4, .cls-5 {
        stroke-width: 0px;
      }

      .cls-2 {
        fill: #2c80c3;
      }

      .cls-3 {
        fill: #1b4c2f;
      }

      .cls-4 {
        fill: #fdc300;
      }

      .cls-5 {
        fill: #004259;
      }
    </style>
  </defs>
  <rect class="cls-2" width="203.46" height="162.77"/>
  <g>
    <polygon class="cls-5" points="0 136.65 38.02 128.14 84.59 122.61 143.11 122.61 182.76 129.63 203.46 136.65 203.46 162.77 0 162.77 0 136.65"/>
    <g>
      <polygon class="cls-4" points="154.3 43.25 153.22 39.12 148.87 39.12 148.87 35.85 140.53 35.85 140.53 32.59 129.29 29.69 117.5 28.74 116.59 30.6 107.35 29.51 97.92 30.05 96.7 28.74 85.27 29.74 74.4 32.78 74.8 35.66 62.81 36 62.81 39.89 52.33 40.88 51.64 43.72 57.12 49.65 100.77 57.25 147.46 48.78 154.3 43.25"/>
      <polygon class="cls-1" points="112.07 140.03 85.26 140.03 66.15 134.43 47.04 119.03 35.31 91.36 38.77 68.26 49.04 53.43 41.05 49.44 40.77 43.16 43.9 40.88 61.01 47.16 83.26 50.86 110.64 51.15 131.18 49.15 149.43 44.87 161.41 40.88 165.12 40.88 166.54 46.87 156.27 55.14 164.26 66.55 168.16 88.23 163.97 106.19 154.85 120.17 139.45 132.15 112.07 140.03"/>
      <polygon class="cls-3" points="68.14 58.56 49.04 53.43 41.05 49.44 40.77 43.16 43.9 40.88 61.01 47.16 83.26 50.86 105.95 51.62 131.18 49.15 149.43 44.87 161.41 40.88 165.12 40.88 166.54 46.87 156.27 55.14 135.45 60.28 101.73 62.27 68.14 58.56"/>
    </g>
  </g>
</svg>