<?xml version="1.0" encoding="utf-8"?>
<!-- Generator: Adobe Illustrator 28.1.0, SVG Export Plug-In . SVG Version: 6.00 Build 0)  -->
<svg version="1.1" id="Capa_1" xmlns="http://www.w3.org/2000/svg" xmlns:xlink="http://www.w3.org/1999/xlink" x="0px" y="0px"
	 viewBox="0 0 203.5 162.8" style="enable-background:new 0 0 203.5 162.8;" xml:space="preserve">
<style type="text/css">
	.st0{fill:#F39D96;}
	.st1{fill:#F8F5E0;}
	.st2{fill:#AB5243;}
	.st3{fill:#1B4C2F;}
	.st4{fill:#33915C;}
</style>
<rect class="st0" width="203.5" height="162.8"/>
<g>
	<ellipse class="st1" cx="128.3" cy="60.3" rx="26.6" ry="26.6"/>
	<polygon class="st2" points="199.4,134.5 195,134.3 191.2,135.9 189.6,138.7 186.7,137.8 184.9,131.7 181.2,127 176.2,124.4 
		171,123.2 165.8,124.4 160.8,127 157.1,131.7 155.3,137.8 152.4,138.7 150.7,135.9 146.9,134.3 142.6,134.5 138.4,137.1 135.7,141 
		134.9,144.7 133,145.6 130.7,144.4 126.9,145.6 123.6,147.2 122.1,150.3 122.1,152.1 120,153.2 117.7,155.7 116.1,153.9 
		113.2,153.7 111.1,155.7 109.8,153.6 107.2,153.9 107.2,152.3 104.7,150.9 101.7,152.3 100,155.7 97.4,155.7 96.5,154 94.6,153.5 
		92.1,154.7 90.8,156.3 88.1,154.6 88.1,152 85.8,149.2 82.8,147.8 79.4,148.4 78.6,148.6 76.8,148.1 76.2,144.4 74.8,142.2 
		72.7,140.6 68.7,138.8 64.6,139.3 62.3,141.5 61.8,138.3 59.8,134.9 57.2,131.7 51.2,128.2 43.8,128.1 40.2,130.2 37.6,133.4 
		35.1,132.7 32.5,133.3 29.9,132.7 27.4,133.4 24.8,130.2 21.1,128.1 13.8,128.2 7.8,131.7 5.2,134.9 3.2,138.3 2.7,141.5 
		0.3,139.3 0,139.2 0,162.8 32.5,162.8 171,162.8 203.5,162.8 203.5,137 	"/>
	<g>
		<polygon class="st3" points="173.4,125.5 177.2,129.9 179.8,135.5 180.6,142.2 179.8,146.9 178,151.6 175.3,155.5 171.1,159.2 
			167.1,161.3 164,162.1 160.6,162.8 155.9,162.5 152.3,161.5 148.2,159.7 145.3,157.7 142.6,155 140.1,151.4 138.8,148.1 
			137.8,144.1 137.8,141.1 140.3,131.6 164.4,122.6 		"/>
		<polygon class="st3" points="167.5,131 170.1,133.7 172,137.3 172.5,141.5 172.2,144.5 171.1,147.5 169.3,149.9 166.7,152.3 
			164.1,153.6 162.2,154.1 160.1,154.5 157.1,154.4 154.8,153.7 152.2,152.6 150.4,151.3 148.7,149.6 147.1,147.3 146.3,145.2 
			145.9,142.7 145.9,140.8 146.9,134.8 160.8,128.1 164.2,129.1 		"/>
		<polygon class="st3" points="58.8,125.5 62.6,129.9 65.2,135.5 66,142.2 65.2,146.9 63.4,151.6 60.6,155.5 56.5,159.2 52.4,161.3 
			49.4,162.1 46,162.8 41.3,162.5 37.7,161.5 33.6,159.7 30.7,157.7 28,155 25.5,151.4 24.1,148.1 23.2,144.1 23.2,141.1 
			25.7,131.6 49.8,122.6 		"/>
		<polygon class="st3" points="52.9,131 55.5,133.7 57.3,137.3 57.9,141.5 57.6,144.5 56.5,147.5 54.7,149.9 52.1,152.3 49.5,153.6 
			47.6,154.1 45.5,154.5 42.5,154.4 40.2,153.7 37.6,152.6 35.8,151.3 34.1,149.6 32.5,147.3 31.7,145.2 31.3,142.7 31.3,140.8 
			32.2,134.8 46.2,128.1 49.6,129.1 		"/>
		<polygon class="st4" points="105.5,142.8 120.8,142.8 128.7,138.4 130.5,141.1 138.8,141.1 146,138.8 163.2,127.7 177.8,124.5 
			179.8,122.8 178.2,118.9 172.6,112.4 164.5,108.9 156,108 150.6,109.9 131.7,70.7 128.9,69.8 131.6,68.4 138.8,71.2 138.8,55.9 
			134,55.9 130,61.2 121.9,63.6 120.8,66.1 111.3,69.2 111.8,71.1 121.1,68.4 114.6,73.3 115.8,74.8 122.2,70.1 124.4,71.4 
			125.6,75.8 126.2,82.9 132.4,101 131.6,108.9 121.7,131.7 120,132.2 105.5,132.2 88.2,132.2 81.8,125.6 78.8,117.8 82.2,108.9 
			87.8,102.1 97.7,94.2 94.1,92.7 40.6,92.7 38.3,102.1 30.2,106.5 14.9,128.1 16.4,135.4 22.6,139.9 54,139.6 68.2,142.8 		"/>
		<polygon class="st3" points="96,84 96,91.7 74.8,99.4 36.3,103.2 38.5,93.6 36.3,84 40.8,82.8 54.4,84 		"/>
	</g>
</g>
</svg>
