<?xml version="1.0" encoding="utf-8"?>
<!-- Generator: Adobe Illustrator 28.1.0, SVG Export Plug-In . SVG Version: 6.00 Build 0)  -->
<svg version="1.1" id="Capa_1" xmlns="http://www.w3.org/2000/svg" xmlns:xlink="http://www.w3.org/1999/xlink" x="0px" y="0px"
	 viewBox="0 0 203.5 162.8" style="enable-background:new 0 0 203.5 162.8;" xml:space="preserve">
<style type="text/css">
	.st0{fill:#33915C;}
	.st1{fill:#1B4C2F;}
	.st2{fill:#FDC300;}
	.st3{fill:#F39D96;}
	.st4{fill:#601313;}
	.st5{fill:#AB5243;}
</style>
<rect class="st0" width="203.5" height="162.8"/>
<g>
	<polygon class="st1" points="19.4,140.4 0,141.4 0,162.8 203.5,162.8 203.5,139 187.4,138.9 	"/>
	<circle class="st2" cx="134.4" cy="64.9" r="31.1"/>
	<polygon class="st3" points="188.3,93.9 185.4,90.6 180.2,88.1 167.2,85.2 156.2,83.1 143.3,81.6 134.7,80.8 133.9,84.8 
		131.8,85.2 131.8,86.6 128.1,86.1 125.7,89.1 150.5,120.3 157,132.4 159.4,142.1 164.3,142.1 174.3,141.1 183.1,139.9 187.4,138.9 
			"/>
	<g>
		<polygon class="st4" points="151.3,115.9 151.3,107.7 152.1,104.8 153.5,104.2 155.3,104.2 156.3,105.2 156.7,108.3 156.7,116 		
			"/>
		<polygon class="st4" points="159.5,118.7 164,118.7 164,107.9 163.4,105.8 162.2,104.8 161.1,104.8 159.9,106.2 159.6,108 		"/>
		<polygon class="st4" points="159.3,102.6 163.7,103 163.7,97.6 163.1,96.5 162,96.1 160.9,96.1 159.7,96.7 159.4,97.6 		"/>
		<polygon class="st4" points="173.2,103.8 176.9,104.1 176.9,99.8 176.4,99 175.4,98.6 174.6,98.6 173.5,99.1 173.3,99.9 		"/>
		<polygon class="st4" points="166.8,118.7 171,118.3 171,107.9 170.4,105.8 169.3,104.8 168.3,104.8 167.1,106.2 166.8,108 		"/>
		<polygon class="st4" points="172.8,118.4 176.1,118.4 176.1,108.3 175.7,106.4 174.8,105.5 174,105.5 173.1,106.7 172.9,108.4 		
			"/>
		<polygon class="st4" points="177.8,118.3 180.6,118.3 180.6,108.9 180.2,107.1 179.5,106.3 178.8,106.3 178,107.4 177.8,109 		"/>
		<polygon class="st4" points="182,118.7 183.8,118.7 183.8,110.3 183.5,108.7 183.1,107.9 182.6,107.9 182.1,108.9 182,110.4 		"/>
		<polygon class="st4" points="184.8,118.7 186.1,118.7 186.1,110.6 185.9,109 185.6,108.3 185.2,108.3 184.9,109.3 184.8,110.7 		
			"/>
		<polygon class="st4" points="159.6,134.1 159.6,129.3 160.3,127.9 161.1,127.3 162.2,127.3 163.1,128 164,129.1 164,141.5 
			160.9,140.9 160.5,136.7 		"/>
		<polygon class="st4" points="171.1,140.7 166.6,140.3 166.6,141 166.1,141 166.1,130.2 166.6,128.8 167.2,127.7 168,127.3 
			169.2,127.3 170.3,128.2 170.7,129.1 171,130 		"/>
		<polygon class="st4" points="173.2,140 175.7,140.4 176.1,139.2 176.1,128.7 175.6,128.1 174.9,127.9 174,128.5 173.5,129.6 
			173.2,130.5 		"/>
		<polygon class="st4" points="178,139.4 178.2,129.5 178.4,128.4 178.7,127.9 179.4,128.3 179.8,129.3 179.9,130.6 179.9,139.4 		
			"/>
		<polygon class="st4" points="182,139.1 183.8,139.1 183.8,129.4 183.4,128.3 183.2,127.8 182.6,127.8 182.1,128.4 182,129.1 
			181.9,129.8 		"/>
		<polygon class="st4" points="184.8,139 184.8,129 185,128.2 185.2,127.8 185.6,127.8 185.9,128.1 186,128.8 186,138.8 		"/>
	</g>
	<polygon class="st5" points="146.4,89.1 122.8,89.2 120.9,97.7 130.8,145.9 145.6,145 151.8,144.8 161.1,144 160.5,136.7 
		158.5,131.3 158.9,124.2 159.9,122.5 159.1,118.8 158.8,116.1 150.5,115.9 147.8,100.8 146.4,99.6 147.7,98.5 147.1,95.6 
		147.7,93.6 	"/>
	<polygon class="st4" points="146.8,144.2 146.8,132.3 147.8,129.3 149.8,128.1 151.5,128.1 153.1,129.1 154.3,131.3 154.3,143.6 	
		"/>
	<polygon class="st4" points="132.9,115.2 132.9,105.1 134.2,102.4 136.6,100.7 138.9,100.7 141,101.7 142.7,105.1 142.7,116 
		139.3,116 139.3,115.2 	"/>
	<polygon class="st4" points="146,92.9 122.8,92.4 122.8,93.4 145.3,93.9 	"/>
	<polygon class="st4" points="142.7,120.9 142.2,122 157.6,122 158.5,120.9 	"/>
	<polygon class="st5" points="85,135.3 84.8,132.2 85.8,132.2 85.7,128 85.2,126.7 85.3,125.4 74.9,125.7 71.6,125.3 71.4,124 
		68,124 68,121.5 75.2,120.5 74.3,119.6 74.4,118.8 85.3,118.3 85.2,99.9 83.7,99.9 83.5,99.5 84.9,98.9 84.8,98.3 82.6,98.1 
		83.4,97.4 83.3,96.8 73.2,96.8 73.3,95.9 72.1,95.9 70.4,94.6 70.5,93.5 71.2,92.9 75.1,92.7 76.5,91.4 78.1,89.1 77.8,88.5 
		73.8,88.5 74.1,87.8 73.7,87.3 69.5,87.3 68.5,71.2 71.2,71.6 71.3,68.3 74.9,67.8 74.6,63.5 67.2,63.5 67.9,62.1 65.1,62.5 
		66.3,61.1 68.9,60.3 68.4,59.2 68.7,58.3 68.1,58 55.2,60.3 54.2,59.9 57.9,57.8 58.5,43.1 56.2,42.8 56.1,41.5 57.3,41.5 
		57.2,40.7 53.6,40.7 53.9,39.8 62.5,36.8 88.3,32.5 86.9,26.3 84.4,26.3 74.8,28.1 63.7,30.8 54.2,34.1 44.5,38.1 34,43.7 26,49.3 
		27.6,52.2 27.1,55 26.3,56 24.8,56.2 24.3,57.6 21.5,56.7 20.5,57.5 19.5,61.2 19.1,66.2 20.1,69.1 20.1,71 19.3,74.1 20.4,75.3 
		20.4,81.4 18.7,84.4 18.7,87.1 19.5,89 19.5,101.6 18.7,101.8 17.5,103.5 18.8,105.1 19,121.3 17.9,121.4 17.9,122.7 19.4,122.8 
		19.4,140.4 27.1,142.1 41.3,144.2 62,146.4 86.6,147.6 86.3,135.3 	"/>
	<polygon class="st3" points="139.9,127.7 141.5,119.2 139.3,119.2 139.3,115.2 128.7,115.2 122.8,96.1 124,91.1 124,89.2 
		122.8,89.2 122.8,84.8 111.9,84.8 105.9,60 105.9,54.4 100.5,54.4 89.2,26.3 86.9,26.3 88.3,32.5 62.5,36.8 53.9,39.8 53.6,40.7 
		57.2,40.7 57.3,41.5 56.1,41.5 56.2,42.8 58.5,43.1 57.9,57.8 54.2,59.9 55.2,60.3 68.1,58 68.7,58.3 68.4,59.2 68.9,60.3 
		66.3,61.1 65.1,62.5 67.9,62.1 67.2,63.5 74.6,63.5 74.9,67.8 71.3,68.3 71.2,71.6 68.5,71.2 69.5,87.3 73.7,87.3 74.1,87.8 
		73.8,88.5 77.8,88.5 78.1,89.1 76.5,91.4 75.1,92.7 71.2,92.9 70.5,93.5 70.4,94.6 72.1,95.9 73.3,95.9 73.2,96.8 83.3,96.8 
		83.4,97.4 82.6,98.1 84.8,98.3 84.9,98.9 83.5,99.5 83.7,99.9 85.2,99.9 85.3,118.3 74.4,118.8 74.3,119.6 75.2,120.5 68,121.5 
		68,124 71.4,124 71.6,125.3 74.9,125.7 85.3,125.4 85.2,126.7 85.7,128 85.8,132.2 84.8,132.2 85,135.3 86.3,135.3 86.6,147.6 
		99.6,148.3 118.9,148.3 146.4,147.5 	"/>
	<g>
		<polygon class="st4" points="126.2,120.1 138,120.1 138,121.3 136,121.3 135.9,122.4 77.7,121.9 19.4,122.8 18.4,122.3 21,121.1 
			71.8,120.1 106.1,120.1 		"/>
		<polygon class="st4" points="120.5,89.1 78.2,90.4 67,91.8 31.6,96.9 22.5,99.9 19.5,101.6 18.7,101.8 17.5,103.5 18.8,105.1 
			19.2,103.7 24.8,100.8 32.3,98.6 61.6,94.3 78.6,92.3 117.1,91 118.9,90.5 		"/>
		<polygon class="st4" points="104.4,60 85,61.2 65.1,64.1 57,65.6 40.5,70.3 31.2,74 23.4,78.9 20.3,82.2 18.7,84.4 18.7,87.1 
			20.1,85 24,80.4 32.7,75.3 42.5,71.6 58.5,67.2 69.7,64.9 87.4,62.4 103.8,61.3 		"/>
		<polygon class="st4" points="86,27.8 86.2,29.2 50.9,37.6 39,43.5 28.4,50.6 27.4,50 38,42.6 50,36.6 		"/>
		<polygon class="st4" points="100.5,146.4 100.5,132.9 99.2,130.1 96.7,128.1 94.2,128.1 91.6,129.5 90.3,132.9 90.3,146.4 
			92,145.6 99.3,145.9 		"/>
		<polygon class="st4" points="76.2,145.9 79.9,144.5 85.4,145.9 85.4,135.3 85.2,132.2 83.9,129.3 81.5,127.6 80.4,127.6 78.2,129 
			76.6,131.2 76.2,132.5 		"/>
		<polygon class="st4" points="63.5,144.9 70.5,143.9 70.9,145.6 71.5,145.6 71.5,131.9 69.8,128.9 68,128.1 66.3,128.1 64.8,129.3 
			63.5,132.4 		"/>
		<polygon class="st4" points="52.5,144.6 58.7,143.1 59,144.6 59.5,144.6 59.5,131.7 58,128.9 56.4,128.4 55,128.5 53.7,129.7 
			52.5,132.7 		"/>
		<polygon class="st4" points="35.2,142.9 40.4,141.4 40.7,142.9 41.1,142.9 41.1,130.6 39.8,128 38.5,127.5 37.2,127.6 36.1,128.8 
			35.2,131.6 		"/>
		<polygon class="st4" points="43.1,143.1 48.3,141.7 48.6,143.2 49,143.1 49,130.9 47.7,128.3 46.4,127.7 45.2,127.8 44.1,129 
			43.1,131.9 		"/>
		<polygon class="st4" points="29.9,141.7 32.4,141.3 33.2,141.7 33.5,141.7 33.5,130.6 32.7,128.2 31.9,127.7 31.2,127.8 
			30.5,128.9 29.9,131.5 		"/>
		<polygon class="st4" points="23.4,140.5 25.9,140.2 26.8,140.6 27,140.5 27,130.6 26.2,128.6 25.4,128.1 24.7,128.2 24,129.2 
			23.4,131.4 		"/>
		<polygon class="st4" points="85.3,115.5 76.5,115.5 76.5,103.4 77.9,100.4 79.9,99.1 82,99.1 83.9,100.5 85.2,103.5 		"/>
		<polygon class="st4" points="100.5,115.8 91.3,115.8 91.3,103.1 92.8,100 94.8,98.6 97,98.6 99.1,100 100.5,103.2 		"/>
		<polygon class="st4" points="116.8,115.8 106.8,115.8 106.8,103.1 108.5,100 110.7,98.6 113.1,98.6 115.2,100 116.8,103.2 		"/>
		<polygon class="st4" points="71.6,115.8 63.3,115.8 63.3,104.3 64.7,101.5 66.5,100.2 68.5,100.2 70.3,101.5 71.6,104.4 		"/>
		<polygon class="st4" points="59.4,115.7 52.4,116.1 52.4,105 53.5,102.3 55.1,101.1 56.8,101.1 58.3,102.4 59.4,105.1 		"/>
		<polygon class="st4" points="49,116.1 43.5,116.5 43.5,105.8 44.4,103.2 45.6,102 46.9,102 48.1,103.2 48.9,105.9 		"/>
		<polygon class="st4" points="40.4,116.7 36,117 36,106.7 36.7,104.1 37.7,102.9 38.8,102.9 39.7,104.2 40.4,106.8 		"/>
		<polygon class="st4" points="30,117.5 30,106.9 30.4,105.6 31.3,104 32.4,104 33.1,105.1 33.5,106.5 33.5,117 		"/>
		<polygon class="st4" points="25.8,117.5 25.8,107.7 26,106.3 26.7,105.1 27.5,105.1 28.1,105.8 28.2,107.4 28.2,117.1 		"/>
		<polygon class="st4" points="22.8,117.9 22.8,108.6 22.8,107 23.3,106.1 23.6,106.1 24,106.8 24,108.3 24,117.6 		"/>
		<polygon class="st4" points="20.8,117.9 20.8,109.5 20.8,108 21.1,107.2 21.3,107.2 21.6,107.8 21.6,109.2 21.6,117.6 		"/>
		<polygon class="st4" points="85.7,86.2 76.5,86.6 76.5,74.9 78,72.1 80,70.8 82.3,70.8 84.3,72.2 85.7,75.1 		"/>
		<polygon class="st4" points="100.5,85.3 90.8,85.7 90.8,73.5 92.4,70.5 94.5,69.2 96.9,69.2 99,70.6 100.4,73.6 		"/>
		<polygon class="st4" points="72,87.3 63.7,87.7 63.7,76.2 65.1,73.4 66.9,72.1 68.9,72.1 70.7,73.4 72,76.3 		"/>
		<polygon class="st4" points="60.2,88.4 53.2,89.2 53.2,78.1 54.3,75.4 55.9,74.2 57.6,74.2 59.1,75.5 60.2,78.2 		"/>
		<polygon class="st4" points="49.8,90 44.3,90.4 44.3,79.7 45.2,77.1 46.4,75.9 47.7,75.9 48.9,77.1 49.7,79.8 		"/>
		<polygon class="st4" points="41.2,91.3 36.8,92.2 36.8,82.3 37.5,79.8 38.5,78.5 39.6,78.3 40.5,79.4 41.2,81.8 		"/>
		<polygon class="st4" points="34.5,92.8 30.7,94.1 30.7,84.5 31.3,82.1 32.2,80.8 33.1,80.7 33.9,81.7 34.5,84 		"/>
		<polygon class="st4" points="28.9,94.6 26.4,96.2 26.4,87.3 26.8,85 27.3,83.9 28.4,83.3 28.9,84.7 28.9,86.8 		"/>
		<polygon class="st4" points="25,95.6 23.4,97.1 23.4,89.2 23.7,87.2 24,86.2 24.6,85.7 25,86.9 25,88.8 		"/>
		<polygon class="st4" points="22.3,97.3 21.2,98.8 21.2,91.1 21.4,89.2 21.6,88.2 22,87.7 22.3,88.9 22.3,90.7 		"/>
		<polygon class="st4" points="121.6,147.3 121.6,132.8 123.2,129.4 125.2,128.1 128.4,128.1 130.4,129.7 131.6,132.4 131.6,147.3 
			129.8,145.5 126.2,145 123.4,145.4 		"/>
		<polygon class="st4" points="116.1,147.3 116.1,132.7 114.7,129.5 112.7,128.1 110,128.1 107.8,129.2 106,132.2 106,147.3 		"/>
	</g>
	<rect x="152.6" y="85.7" class="st4" width="2.9" height="6.7"/>
	<rect x="164" y="87.1" class="st4" width="2.1" height="4.7"/>
	<rect x="173.2" y="89" class="st4" width="1.4" height="8.1"/>
	<rect x="182.9" y="93.1" class="st4" width="1.9" height="4"/>
</g>
</svg>
