<?xml version="1.0" encoding="utf-8"?>
<!-- Generator: Adobe Illustrator 28.1.0, SVG Export Plug-In . SVG Version: 6.00 Build 0)  -->
<svg version="1.1" id="Capa_1" xmlns="http://www.w3.org/2000/svg" xmlns:xlink="http://www.w3.org/1999/xlink" x="0px" y="0px"
	 viewBox="0 0 203.5 162.8" style="enable-background:new 0 0 203.5 162.8;" xml:space="preserve">
<style type="text/css">
	.st0{fill:#E6332A;}
	.st1{fill:#FDC300;}
	.st2{fill:#33915C;}
	.st3{fill:#1B4C2F;}
</style>
<rect class="st0" width="203.5" height="162.8"/>
<g>
	<polygon class="st1" points="78.6,15.7 70.5,15.7 76.2,23.4 78.1,32.1 76.9,42.2 78.6,50.6 84.2,58 91.8,63 101.6,65.5 113.3,71.4 
		119.4,76.8 118.3,72.1 124.7,76.8 120.3,70.1 110.3,65.4 101.6,64 104.2,62.6 103.2,59.4 94.5,54.8 87.5,49.4 86,39.4 87.1,30.3 
		85.3,24.3 87.9,21.5 87.1,19.1 84.3,17.9 81.5,18 	"/>
	<polygon class="st2" points="78.6,15.7 83.8,15.7 89.7,17.9 92.1,21.8 92.1,27.7 92.9,31.7 100.6,27.2 108.9,24.4 117.1,23.7 
		118.5,21.8 132.7,18.5 143.3,18.3 148.9,20.2 147.6,22.3 142.7,24.1 143.6,25.3 138.1,29 138.9,30.8 133.2,33 134.2,33.9 
		129.8,35.4 130.7,36 125.6,37.5 124.7,39.2 122.2,39.2 122.1,40.6 119.6,40.6 119.4,41.6 116.7,41.6 115.6,42.8 114.4,42.8 
		114.7,43.9 111.2,44.3 111.6,45.2 107.5,44.9 107.6,45.9 103,45.2 103.6,47.2 115.7,59.9 122.9,69.6 128.6,78.7 132.2,83 
		135.6,92.6 139.9,111.5 137.8,125.4 129.9,136.3 117.1,145.7 98.4,150.5 81.8,152.3 65.8,150.9 56,145.6 56,144.2 61.3,144.2 
		66.5,146.6 77.3,148.9 90.3,148.6 105.6,145.4 118.8,140.3 127.6,133.9 134.7,124.1 136.3,111.1 133.4,93 129,83 124.7,78.5 
		127.3,84.4 130.2,93.5 130.5,110.3 126.4,122.5 117.9,130.6 104.9,136 90.2,136.4 75,131.3 67,124.6 60.5,116.7 57.4,108.2 
		57.3,101.8 60.2,104.2 62.9,113.2 64.3,117 70.5,125 77.2,128.4 90.2,133.3 104,133.3 114.8,128.3 122.4,121.9 127.1,110.5 
		127.1,93.9 123.7,84 119.4,76.8 118.3,72.1 124.7,76.8 120.3,70.1 110.3,65.4 101.6,64 104.2,62.6 103.2,59.4 94.5,54.8 87.5,49.4 
		86,39.4 87.1,30.3 85.3,24.3 87.9,21.5 87.1,19.1 84.3,17.9 81.5,18 	"/>
	<polygon class="st3" points="78.6,15.7 69.6,12.4 61.6,10.4 54.5,10.4 59.6,11.4 65.8,13.4 70.5,15.7 	"/>
</g>
</svg>
