<?xml version="1.0" encoding="utf-8"?>
<!-- Generator: Adobe Illustrator 28.1.0, SVG Export Plug-In . SVG Version: 6.00 Build 0)  -->
<svg version="1.1" id="Capa_1" xmlns="http://www.w3.org/2000/svg" xmlns:xlink="http://www.w3.org/1999/xlink" x="0px" y="0px"
	 viewBox="0 0 203.5 162.8" style="enable-background:new 0 0 203.5 162.8;" xml:space="preserve">
<style type="text/css">
	.st0{fill:#F39D96;}
	.st1{fill:#F8F5E0;}
	.st2{fill:#2C80C3;}
	.st3{fill:#80BE94;}
</style>
<rect class="st0" width="203.5" height="162.8"/>
<g>
	<ellipse class="st1" cx="93.5" cy="96.9" rx="38.8" ry="38.9"/>
	<polygon class="st2" points="0,162.8 36.7,145.6 53.9,135.2 68.1,122.6 73.5,121.4 74.9,124.7 80.2,118 79.6,127 87.6,119.8 
		92.1,122.2 92.1,129.4 98.5,122.8 102.8,120.7 111.1,123.7 106.9,114.6 111.1,114.6 117.3,117.7 137.4,132.5 142.8,132.5 
		158.4,143.2 179.7,154.6 203.5,162.8 	"/>
	<polygon class="st3" points="68.1,122.6 86.8,106.4 89.7,108.2 92.5,106.4 95.9,106.4 99.6,104.6 106,106.7 117.3,117.7 
		111.1,114.6 106.9,114.6 111.1,123.7 102.8,120.7 98.5,122.8 92.1,129.4 92.1,122.2 87.6,119.8 79.6,127 80.2,118 74.9,124.7 
		73.5,121.4 	"/>
</g>
</svg>
