<?xml version="1.0" encoding="utf-8"?>
<!-- Generator: Adobe Illustrator 28.1.0, SVG Export Plug-In . SVG Version: 6.00 Build 0)  -->
<svg version="1.1" id="Capa_1" xmlns="http://www.w3.org/2000/svg" xmlns:xlink="http://www.w3.org/1999/xlink" x="0px" y="0px"
	 viewBox="0 0 203.5 162.8" style="enable-background:new 0 0 203.5 162.8;" xml:space="preserve">
<style type="text/css">
	.st0{fill:#FDC300;}
	.st1{fill:#2C80C3;}
	.st2{fill:#004259;}
	.st3{fill:#F39D96;}
	.st4{fill:#AB5243;}
	.st5{fill:#F8F5E0;}
	.st6{fill:#33915C;}
	.st7{fill:none;}
</style>
<rect class="st0" width="203.5" height="162.8"/>
<g>
	<polygon class="st1" points="79.9,83.1 81.3,79 79.3,75.4 74.5,74 69.8,75.8 68.2,79.2 69.2,83.1 68.7,88.5 66.3,104.6 61.5,106.7 
		61.5,104.7 60.3,103.4 63.7,95.1 64.5,91.4 63.3,82.3 63.3,68.9 60.9,62.5 57.1,61.2 52.1,61.8 45.2,71.8 41.7,71.8 38.3,71.8 
		31.4,61.8 26.3,61.2 22.5,62.5 20.2,68.9 20.2,82.3 18.9,91.4 19.7,95.1 23.2,103.4 21.9,104.7 22.1,108.5 17.8,110.3 14.3,114.8 
		13.1,118.4 14,122.3 15.3,124.9 13.1,129 12.1,133.5 12.8,138.6 13.7,142.2 14.5,150.9 16.5,152.9 16.5,154 21.4,155.4 26.5,155.4 
		33.2,155.4 36.9,156.4 41.7,156.4 46.6,156.4 50.2,155.4 56.9,155.4 62,155.4 66.9,154 66.9,152.9 68.9,150.9 69.7,142.2 
		70.7,138.6 71.3,133.5 70.4,129 68.2,124.9 69.4,122.3 69.7,121.3 71.5,121.3 75.3,119.4 77.7,115.9 79.9,109.6 80.5,103.2 
		79.4,88.8 	"/>
	<polygon class="st2" points="21.4,155.4 19.9,148.3 17.1,135.5 20.5,127 19.3,119.2 22.3,113.6 27.6,110.5 30.2,104.8 26.1,96.1 
		23.7,87.7 25.5,75.4 26.4,62.8 31.4,61.8 26.3,61.2 22.5,62.5 20.2,68.9 20.2,82.3 18.9,91.4 19.7,95.1 23.2,103.4 21.9,104.7 
		22.1,108.5 17.8,110.3 14.3,114.8 13.1,118.4 14,122.3 15.3,124.9 13.1,129 12.1,133.5 12.8,138.6 13.7,142.2 14.5,150.9 
		16.5,152.9 16.5,154 	"/>
	<g>
		<polygon class="st3" points="35.3,72.4 29.6,72.4 25.5,75.4 22.3,78.8 22.3,69.9 23.9,64.2 26.4,62.8 30.7,65 		"/>
		<polygon class="st3" points="48.2,72.4 53.8,72.4 58,75.4 61.1,78.8 61.1,69.9 59.5,64.2 57,62.8 52.8,65 		"/>
	</g>
	<polygon class="st3" points="60.3,103.4 53.3,104.8 41.7,104.8 30.2,104.8 23.2,103.4 21.9,104.7 22.1,108.5 26.1,108.8 
		41.7,108.8 57.4,108.8 61.5,106.7 61.5,104.7 	"/>
	<polygon class="st4" points="30.2,104.8 28.4,108.8 26.1,108.8 22.1,108.5 21.9,104.7 23.2,103.4 	"/>
	<polygon class="st4" points="25.5,75.4 26.4,62.8 23.9,64.2 22.3,69.9 22.3,78.8 	"/>
	<polygon class="st2" points="57.4,108.8 65.3,107.9 68.8,105.6 70.4,95.8 71.4,82.5 70.9,78.8 74.5,74 69.8,75.8 68.2,79.2 
		69.2,83.1 66.3,104.6 61.5,106.7 	"/>
</g>
<g>
	<ellipse class="st1" cx="118.2" cy="65.9" rx="22.2" ry="21.4"/>
	<rect x="96" y="43.3" class="st1" width="44.4" height="22.6"/>
	<ellipse class="st5" cx="118.2" cy="43.3" rx="22.2" ry="21.4"/>
	<ellipse class="st3" cx="118.2" cy="43.3" rx="8.4" ry="8.1"/>
</g>
<g>
	<polygon class="st6" points="82.6,51.4 81.3,54.2 203.5,109.2 203.5,101.9 	"/>
</g>
<g>
	<polygon class="st7" points="203.5,0 0,0 0,162.8 148.6,162.8 136.9,17.2 140.1,16.9 156,162.8 203.5,162.8 	"/>
	<polygon class="st6" points="136.9,17.2 148.6,162.8 156,162.8 140.1,16.9 	"/>
</g>
</svg>
