<?xml version="1.0" encoding="utf-8"?>
<!-- Generator: Adobe Illustrator 28.1.0, SVG Export Plug-In . SVG Version: 6.00 Build 0)  -->
<svg version="1.1" id="Capa_1" xmlns="http://www.w3.org/2000/svg" xmlns:xlink="http://www.w3.org/1999/xlink" x="0px" y="0px"
	 viewBox="0 0 203.5 162.8" style="enable-background:new 0 0 203.5 162.8;" xml:space="preserve">
<style type="text/css">
	.st0{fill:#F39D96;}
	.st1{fill:#2C80C3;stroke:#004259;stroke-width:0.85;stroke-miterlimit:10;}
	.st2{fill:#80BE94;}
	.st3{fill:#004259;}
</style>
<rect class="st0" width="203.5" height="162.8"/>
<g>
	<g>
		<polygon class="st1" points="121.5,24.8 93.8,24.8 68.8,36.8 51.5,58.5 45.3,85.5 51.5,112.6 68.8,134.3 93.8,146.3 121.5,146.3 
			146.5,134.3 163.8,112.6 170,85.5 163.8,58.5 146.5,36.8 		"/>
		<g>
			<polygon class="st2" points="147.2,81.2 144.6,82.9 137.5,83.7 125.2,85 116.1,85.5 106.2,87.3 92.1,91.6 81.3,92.5 71.4,93.9 
				62.5,95.9 56.3,92.9 55.2,90.4 61,88.5 68.4,87.5 74.7,88.5 83.7,87.2 92.8,85 102.8,82.9 111.4,81.7 121.5,80.3 132,78.9 
				140.3,78.9 			"/>
			<polygon class="st2" points="132.8,62.3 128.6,65.9 120.7,66.2 111.4,68.5 104.2,71.9 97.6,74.1 93.1,75.9 87,77.1 80.8,77.1 
				71.9,78.9 65.7,77.6 59.1,75.9 58.2,73 61.7,71.4 69.6,70.6 76.8,69.1 85.6,68 92,67.1 97.6,65.3 102.8,62.9 111.4,60.7 
				117.3,59.3 125.2,59.3 			"/>
			<polygon class="st2" points="152.2,99.8 148.9,102.6 136.7,102.6 126.6,102.6 114.4,104.6 105.2,107 97.6,109.2 87.7,111.1 
				78.8,111.1 70.8,111.1 62.7,111.8 58.2,108.2 55.2,103.9 58.2,101.8 65.3,100.6 71.7,101.4 77.4,103.4 84.5,103.2 93.1,102.1 
				101.7,100.6 109.3,99.4 117.3,98.1 126.6,98.1 136.7,96.7 144.9,96.7 149.7,97.9 			"/>
			<polygon class="st2" points="143.1,115.9 141,118.1 136.2,118.1 125.9,117 117.3,117 109.5,118.1 98.4,119.4 90.8,120.3 
				82.5,121.2 74.7,121.2 70.1,121.2 67.1,117.2 69.1,115.9 73.3,116.9 78.4,117.6 83.7,116.9 92,116.7 100.3,115.9 107.6,114.4 
				117.3,113.5 124,113.5 133.6,113.5 			"/>
			<polygon class="st2" points="105.2,45.3 111.4,45.3 113.7,47.1 111.4,50.6 106.7,51.5 101.2,54.9 98.4,59.3 95.5,61.1 92.8,62.3 
				84.7,62.9 74.1,64.5 67.1,64.5 59.5,67.5 59.5,64.3 63,61.5 69.9,60.6 76.7,60.9 82.9,60.7 88.9,61.1 93.1,59.3 97.6,56.4 
				101.2,52.5 95.8,52 90.8,51.7 80.8,52.4 74.9,53.7 65.1,56.4 63.7,54.9 64.6,51 69.7,49.5 77,47.1 83.7,46 90.9,45.3 97.6,44.5 
				103.7,44.5 			"/>
		</g>
		<g>
			<polygon class="st3" points="97.6,146.4 92.3,139.9 89.9,130 90,121.9 92.3,111.2 97.1,99 105.5,86.8 114.4,72.6 124.5,60.3 
				130.7,49.5 135.8,39.9 135.8,32.1 137.6,32.1 137.6,40.3 132.2,50.3 125.8,61.3 115.7,73.6 106.9,87.7 98.6,99.8 93.9,111.8 
				91.6,122.2 91.6,129.8 93.9,139.1 99.3,145.8 			"/>
			<polygon class="st3" points="95.2,146.6 89.6,141.6 85.2,134.6 82.9,124.8 82.9,116.7 85.2,105.9 90,93.8 96.3,81.5 106.4,67.4 
				115.7,55 123.7,44.2 128.8,34.6 128.8,28.7 130.5,28.7 130.5,35 125.1,45.2 117.1,56 107.8,68.4 97.7,82.5 91.6,94.5 86.8,106.5 
				84.6,116.9 84.6,124.6 86.8,133.9 90.9,140.5 96.7,145.7 			"/>
			<polygon class="st3" points="89.7,144.6 84.8,141 81.2,135.8 77.7,129.3 75,119.6 75,111.4 77.1,100.8 81.6,89.3 88.6,75.9 
				98.6,61.3 108.7,48.9 116.6,38.9 121.8,29.3 122.4,25.5 124.1,25.7 123.4,29.8 118,39.9 110,49.9 100,62.4 90.1,76.8 83.2,90.1 
				78.7,101.3 76.7,111.7 76.7,119.3 79.3,128.7 82.7,134.9 86.1,139.9 90.4,143.8 			"/>
			<polygon class="st3" points="100.3,146.7 96.9,139.7 96.7,129.9 98,121.8 102.1,111.1 108.6,98.9 116.9,86.8 126.2,72.6 
				135.9,60.3 142.1,49.7 143,40.2 140.6,33.9 143,35.2 144.8,40 143.7,50.2 137.3,61.3 127.6,73.6 118.3,87.7 110,99.8 
				103.6,111.9 99.7,122.3 98.4,130 98.6,139.3 101.9,145.9 			"/>
			<polygon class="st3" points="102.3,146.4 101.9,139.5 103.5,129.7 103.5,129.6 106.9,121.8 111.8,111.1 119.6,98.9 128.4,86.8 
				138.5,72.6 146.4,60.4 149.6,49.9 147.3,40.4 145.3,36.2 148.2,38.4 148.9,39.9 151.4,49.9 148,61.1 139.9,73.6 129.8,87.8 
				121,99.9 113.3,111.9 108.5,122.5 105.1,130.2 103.6,139.6 104,146.3 			"/>
			<polygon class="st3" points="106,146.6 104.4,146 107,139.2 111.2,129.5 115.4,121.7 122.1,111 131.1,98.9 139.8,86.8 
				148.6,72.7 154.4,60.6 154.7,50 153.5,45.8 156.1,48.8 156.4,49.8 156.1,61 150.1,73.6 141.2,87.8 132.5,99.9 123.4,112 
				116.9,122.5 112.7,130.3 108.6,139.9 			"/>
			<polygon class="st3" points="109.2,146.8 107.7,145.9 114.1,135.4 121.1,124.8 126.3,118.5 134,108 140.8,98.9 150,86.8 
				157.9,72.8 159.8,65.5 160.2,59.1 160.1,53.8 161.8,55.8 161.9,59.1 161.5,65.9 159.5,73.5 151.4,87.8 142.2,99.9 135.4,109.1 
				127.6,119.5 122.4,125.8 115.6,136.3 			"/>
			<polygon class="st3" points="113.8,146.4 112.1,145.9 115.8,140.4 120.1,135.3 125.2,129.4 132,121.8 139.3,113.1 146.3,104.8 
				154.6,92.8 160.3,82.5 163.3,74.1 164,68.1 164,59.7 165.7,66.6 165.7,68.3 165,74.5 164.9,74.6 161.8,83.3 156,93.7 
				147.6,105.9 140.6,114.2 133.3,122.9 126.5,130.5 121.4,136.4 117.1,141.4 			"/>
			<polygon class="st3" points="119.2,146.6 117.6,146.1 118.3,143.6 122,139.3 126,135.2 130.8,129.9 138.2,123.1 143.2,117.1 
				150.3,109 156,101.1 161.2,92.8 164.9,83.7 167.3,74.2 168.2,77.7 166.5,84.2 162.7,93.7 157.4,102 151.6,110.1 144.5,118.2 
				139.4,124.3 131.9,131.2 127.3,136.4 123.2,140.5 119.8,144.5 			"/>
			<polygon class="st3" points="122.8,146 120.3,146.3 121.9,144.4 124.6,140.9 127.7,138.2 131.3,135.2 136.1,131 141.1,126 
				148.2,118.8 153.4,113.2 159.4,104.9 164.1,97.1 169.6,84.2 169.5,88.8 165.6,98 160.8,105.9 154.6,114.4 149.4,120 142.4,127.2 
				137.2,132.3 132.4,136.5 128.8,139.5 125.8,142.1 123.2,145.4 			"/>
			<polygon class="st3" points="132.2,141.6 126.2,143.8 135.5,137.1 140.3,133.5 144.6,129.9 150.4,124 154.9,118.3 160.4,112.5 
				165.3,104.7 165.1,108.2 161.7,113.6 156.2,119.4 151.7,125.2 145.8,131.2 141.4,134.9 136.5,138.5 			"/>
			<polygon class="st3" points="82.6,141.3 78.7,138.5 74.1,132.4 70.1,125 68.5,118.3 67.6,111.1 68.4,101.9 70.6,93.7 72.9,86.2 
				77.5,77.2 82.1,68.8 88.2,60.6 95.1,51.5 97.8,48.1 105.3,39.9 113.1,31.5 116,27.2 116.4,24.6 118.1,24.9 117.6,27.8 
				114.4,32.7 106.5,41.1 99,49.3 96.4,52.6 89.6,61.6 83.5,69.8 79,78 74.4,86.9 72.3,94.2 70.1,102.2 69.3,111.1 70.2,118 
				71.7,124.4 75.6,131.5 80,137.4 83.4,140.4 			"/>
			<polygon class="st3" points="77.7,138.9 71.3,133.3 66.6,126.4 62.8,118.3 61.7,110.2 61.7,102.9 62.9,91.4 66,82.6 69.4,74.8 
				73.8,67.3 79.5,58.7 85.9,50 92.5,42.1 100.6,34.7 106.1,28.7 110.2,24.8 112.5,25 107.3,29.9 101.8,35.9 93.7,43.3 87.2,51.1 
				80.9,59.7 75.2,68.3 70.9,75.6 67.6,83.2 64.5,91.8 63.3,103 63.3,110.2 64.4,117.8 68.1,125.6 72.7,132.3 78.5,138.1 			"/>
			<polygon class="st3" points="71.8,136 67.8,132.7 63.9,127.8 59.8,120.6 57.1,114.4 55.4,107.1 55.4,98.2 56.5,90.2 58.8,82.6 
				61.7,74.3 66,66 69.2,60.1 74.2,53.1 80.2,46.5 85.9,40 91.9,33.8 99.7,28.1 104.4,24.6 106.3,25 100.7,29.5 93,35.2 87.2,41.2 
				81.4,47.7 75.5,54.2 70.7,61 67.5,66.8 63.3,75 60.4,83.2 58.2,90.6 57.1,98.3 57.1,106.9 58.8,114 61.3,119.9 65.3,126.8 
				69.1,131.6 72.6,135.2 			"/>
			<polygon class="st3" points="58,121.4 55.5,117.6 52.3,109.6 51,100.7 51,100.6 51.5,91.4 52.8,82.7 55,75.5 58.8,67.1 
				62.3,61.1 66.8,53.5 73.1,45.8 79.7,39 85.4,33.4 91.2,28.9 96.4,24.6 98.1,25.4 92.3,30.3 86.5,34.7 80.9,40.2 74.4,47 
				68.1,54.5 63.7,61.9 60.2,67.9 56.6,76.2 54.5,83.1 53.2,91.7 52.7,100.6 54,109.1 57,116.9 59.1,120.8 			"/>
			<polygon class="st3" points="49.9,107 48.5,100.7 48.1,92 48.5,84.8 50.2,77.2 52.4,70.2 56.1,62.5 60.6,54.8 66.8,46.5 
				73.2,39.5 80.2,32.8 86.6,27.8 89.3,27.8 81.3,34.1 74.4,40.7 68.1,47.6 62,55.8 57.6,63.3 54,70.8 51.9,77.7 50.2,85.1 
				49.8,92.1 50.2,100.5 51,106.9 			"/>
			<polygon class="st3" points="47.4,90.4 46.3,90.4 45.7,84.9 47,77.2 49.3,69.7 50.6,65.3 54,57.5 57.4,52 62.8,45.6 68.2,39.3 
				72.2,35 74.7,34.8 69.5,40.5 64.2,46.7 58.8,53 55.5,58.4 52.1,65.9 51,70.2 48.7,77.7 47.4,85.1 			"/>
		</g>
		<polygon class="st3" points="93.8,146.3 74.1,130.5 62.6,111.1 56.3,85.5 64.3,59.3 74.1,44.5 90.8,32.1 105.2,24.8 93.8,24.8 
			68.8,36.8 51.5,58.5 45.3,85.5 51.5,112.6 68.8,134.3 		"/>
	</g>
	<polygon class="st3" points="10.7,162.8 10.7,141.1 24.4,141.1 36.9,138.7 47.8,135.9 62.5,131.6 74.9,131.9 86,134.3 97.7,139.5 
		105.2,141.1 118.4,138.6 130.4,132.9 138.8,131.6 148.6,131.6 165.8,131.6 182.7,131.6 192.8,133.7 187.1,162.8 	"/>
</g>
</svg>
