<?xml version="1.0" encoding="utf-8"?>
<!-- Generator: Adobe Illustrator 28.1.0, SVG Export Plug-In . SVG Version: 6.00 Build 0)  -->
<svg version="1.1" id="Capa_1" xmlns="http://www.w3.org/2000/svg" xmlns:xlink="http://www.w3.org/1999/xlink" x="0px" y="0px"
	 viewBox="0 0 203.5 162.8" style="enable-background:new 0 0 203.5 162.8;" xml:space="preserve">
<style type="text/css">
	.st0{fill:#E6332A;}
	.st1{fill:#FDC300;}
	.st2{fill:#7E6A25;}
	.st3{fill:#2C80C3;}
	.st4{fill:#F8F5E0;}
</style>
<rect class="st0" width="203.5" height="162.8"/>
<g>
	<polygon class="st1" points="105.7,17.4 97.1,17.4 89.7,21.7 85.4,29.1 85.4,37.7 89.7,45.1 97.1,49.4 105.7,49.4 113.1,45.1 
		117.4,37.7 117.4,29.1 113.1,21.7 	"/>
	<polygon class="st2" points="86.6,34.5 91.1,33.2 98.5,32.7 105.3,32.7 113.1,33.9 116.4,34.9 117.4,35.6 117.4,37.7 114.2,43.3 
		110.2,42.5 105.8,41.7 100.1,41.8 95.4,42 90.4,43 88.6,43.3 85.4,37.7 85.4,35 	"/>
	<polygon class="st3" points="93.3,85.3 87.4,60.9 74.4,33.4 81.8,41.8 78.1,31.5 89.7,45.1 86.2,31.5 94.9,45.9 96.2,30.1 
		101.4,45.9 107.1,30.1 107.9,45.9 116.2,31.6 114.1,46.7 124.1,31.5 121,41.8 128.5,33.4 115.4,61.6 110.7,85.3 	"/>
	<polygon class="st4" points="93.3,85.3 94.9,104.8 92.1,155.9 113.1,155.9 109.3,104.5 110.7,85.3 113.3,72 110.1,80.7 109.6,71.1 
		107.9,80.2 106.6,70.4 105.3,80.6 103.4,70 102.7,80.3 100.4,70 99.1,80.9 97.3,70.6 96.4,80.6 94.1,71.5 94.2,80.3 92.1,71 
		92.7,79.5 90.2,72.3 	"/>
	<rect x="75.2" y="155.9" class="st1" width="53.1" height="3.4"/>
	<rect x="47.5" y="159.3" class="st2" width="108.6" height="3.4"/>
	<polygon class="st4" points="100.6,17.4 101.4,8.2 102.3,17.4 	"/>
</g>
</svg>
