<?xml version="1.0" encoding="utf-8"?>
<!-- Generator: Adobe Illustrator 28.1.0, SVG Export Plug-In . SVG Version: 6.00 Build 0)  -->
<svg version="1.1" id="Capa_1" xmlns="http://www.w3.org/2000/svg" xmlns:xlink="http://www.w3.org/1999/xlink" x="0px" y="0px"
	 viewBox="0 0 203.5 162.8" style="enable-background:new 0 0 203.5 162.8;" xml:space="preserve">
<style type="text/css">
	.st0{fill:#E6332A;}
	.st1{fill:#1B4C2F;}
	.st2{fill:#33915C;}
</style>
<rect class="st0" width="203.5" height="162.8"/>
<g>
	<path class="st1" d="M162.7,116.6l-3.6-2.2l-3.9-1l5.1,0.3l-3-3.6l-6.2-2.7l-8.5-1.5L138,105h7l-3.8-2.5l-7-1l-7.4,1l-7.1,3.7
		l1.4-3.2l0.8-3.6l5.9-0.1l6.2-1.6l-4.5-2.3l6.1,1.1l6.8-0.6l-6.3-3l8.2,1.5l7.4,0.2l5.1-1.7l-2.6-0.7l-5.4-2.3l-3-0.9l5.6,0.2
		l-3.4-3.1l-7-2.2l-8.2-1l-5.6-0.6l8-0.3l-5-2.4l-7.3-0.1v-1.8l4.2-1.2l-3.2-2.2l4.6,1.1l5.4-0.5l-4.8-2l7.5,1l8.2-0.9l-7.6-3
		l3.6-0.2l-3.2-2.3l-5.9-2l-9.8-1.1l5.5-0.6l-7-1.8l-8.1,0.4l-7.3,4.2l-0.2-6.4l5.1,0.4l5.8,0.6l4.6,0.1l2.2-1l-2.3-1.2l4.2,0.6
		l3.9-0.7l-3.3-1.5l5.4,1l7-1l-6.1-2.3l3-0.2l-3.9-2.2l-4.9-1.8l-2.1,0.2l-1.7-1.7l-4.6-0.8l-4.8,0.4L107,51l-2.8,1.8l-0.1-5.7
		l5.1,0.6l4.3,0.2l4.6-0.7l-1.7-1.2l4.5,0.6l2.5-0.5l-3-1.4l4.7,1.1l5.2-1l-5.1-1.8l2.6-0.3l-3-2.2l-4.8-1.2l-4.9-0.2l3.3-0.9
		l-3.3-1l-3.1-0.8l-1.9-2.1l5.2,0.8l4.2-0.3l2-1.5l-4-0.5l-3.2-1.6l2.8-1.1l-4.7-0.7l-4.2-1.6l3.4-0.5l1.2-1.4l-6.6-1.4l-4.4-2
		l-4.4,2l-6.6,1.4l1.2,1.4l3.4,0.5l-4.2,1.6l-4.7,0.7l2.8,1.1L86,32.6l-4,0.5l2,1.5l4.2,0.3l5.2-0.8l-1.9,2.1L88.3,37L85,38l3.3,0.9
		L83.4,39l-4.8,1.2l-3,2.2l2.6,0.3l-5.1,1.8l5.2,1l4.7-1.1l-3,1.4l2.5,0.5l4.5-0.6L85.3,47l4.6,0.7l4.3-0.2l5.1-0.6l-0.1,5.7
		L96.5,51l-5.6-1.8l-4.8-0.4l-4.6,0.8l-1.7,1.7l-2.1-0.2l-4.9,1.8L69,55l3,0.2L66,57.6l7,1l5.4-1l-3.3,1.5l3.9,0.7l4.2-0.6l-2.3,1.2
		l2.2,1l4.6-0.1l5.8-0.6l5.1-0.4l-0.2,6.4l-7.3-4.2l-8.1-0.4l-7,1.8l5.5,0.6l-9.8,1.1l-5.9,2L62.8,70l3.6,0.2l-7.6,3l8.2,0.9l7.5-1
		l-4.8,2l5.4,0.5l4.6-1.1l-3.2,2.2l4.2,1.2v1.8l-7.3,0.1l-5,2.4l8,0.3l-5.6,0.6l-8.2,1l-7,2.2l-3.4,3.1l5.6-0.2l-3,0.9l-5.4,2.3
		l-2.6,0.7l5.1,1.7l7.4-0.2l8.2-1.5l-6.3,3l6.8,0.6l6.1-1.1l-4.5,2.3l6.2,1.6l5.9,0.1l0.8,3.6l1.4,3.2l-7.1-3.7l-7.4-1l-7,1
		l-3.8,2.5h7l-4.6,0.8l-8.5,1.5l-6.2,2.7l-3,3.6l5.1-0.3l-3.9,1l-3.6,2.2l-2.5,0.1l5,2.5l6.4-0.3l7.8-2.1l-6.3,3.6l5.7,0.7l6.6-1.3
		l-4.4,2.6l8,1.9l6.3-0.5l10.3-1.9l5.1,0.9l-1,6.2l-1.6,2.8l-6.3,5l-5.7,0.6l-3.4,0.8l6.1,1.6l6-0.2l5.9-2.2l-3.8,2.7l8.1-0.5l3.8,1
		h9.7l3.8-1l8.1,0.5l-3.8-2.7l5.9,2.2l6,0.2l6.1-1.6l-3.4-0.8l-5.7-0.6l-6.3-5l-1.6-2.8l-1-6.2l5.1-0.9l10.3,1.9l6.3,0.5l8-1.9
		l-4.4-2.6l6.6,1.3l5.7-0.7l-6.3-3.6l7.8,2.1l6.4,0.3l5-2.5L162.7,116.6L162.7,116.6z M89.8,102.4L89,106l-2.1-2l-1.7-5.3l4.6-0.9
		V102.4L89.8,102.4z M89.8,80.9L87,80l-3.5-0.6v-1.5l3.1-0.2l3.1-0.6L89.8,80.9L89.8,80.9z M97.1,106l-0.8,3.1l-1.1-2.4L94,97.4h3.4
		L97.1,106L97.1,106z M97.4,85.7l-4.3-3.6v-5.5l5.1-0.3C98.3,76.3,97.4,85.7,97.4,85.7z M99.8,40.3l-2.2-1.5l-3.3-1.3l3.2-0.8
		l2.2-0.6C99.8,36,99.8,40.3,99.8,40.3z M103.7,36l2.2,0.6l3.2,0.8l-3.3,1.3l-2.2,1.5C103.7,40.3,103.7,36,103.7,36z M108.3,106.7
		l-1.1,2.4l-0.8-3.1l-0.3-8.6h3.4L108.3,106.7L108.3,106.7z M110.4,82.1l-4.3,3.6l-0.8-9.3l5.1,0.3
		C110.4,76.6,110.4,82.1,110.4,82.1z M113.8,77.1l3.1,0.6l3.1,0.2v1.5l-3.5,0.6l-2.7,0.9L113.8,77.1L113.8,77.1z M116.6,104.1
		l-2.1,2l-0.8-3.6v-4.6l4.6,0.9L116.6,104.1L116.6,104.1z"/>
	<path class="st2" d="M165.7,116.6l-3.6-2.2l-3.9-1l5.1,0.3l-3-3.6l-6.2-2.7l-8.5-1.5L141,105h7l-3.8-2.5l-7-1l-7.4,1l-7.1,3.7
		l1.4-3.2l0.8-3.6l5.9-0.1l6.2-1.6l-4.5-2.3l6.1,1.1l6.8-0.6l-6.3-3l8.2,1.5l7.4,0.2l5.1-1.7l-2.6-0.7l-5.4-2.3l-3-0.9l5.6,0.2
		l-3.4-3.1l-7-2.2l-8.2-1l-5.6-0.6l8-0.3l-5-2.4l-7.3-0.1v-1.8l4.2-1.2l-3.2-2.2l4.6,1.1l5.4-0.5l-4.8-2l7.5,1l8.2-0.9l-7.6-3
		l3.6-0.2l-3.2-2.3l-5.9-2l-9.8-1.1l5.5-0.6l-7-1.8l-8.1,0.4l-7.3,4.2l-0.2-6.4l5.1,0.4l5.8,0.6l4.6,0.1l2.2-1l-2.3-1.2l4.2,0.6
		l3.9-0.7l-3.3-1.5l5.4,1l7-1l-6.1-2.3l3-0.2l-3.9-2.2l-4.9-1.8l-2.1,0.2l-1.7-1.7l-4.6-0.8l-4.8,0.4L110,51l-2.8,1.8l-0.1-5.7
		l5.1,0.6l4.3,0.2l4.6-0.7l-1.7-1.2l4.5,0.6l2.5-0.5l-3-1.4l4.7,1.1l5.2-1l-5.1-1.8l2.6-0.3l-3-2.2l-4.8-1.2l-4.9-0.2l3.3-0.9
		l-3.3-1l-3.1-0.8l-1.9-2.1l5.2,0.8l4.2-0.3l2-1.5l-4-0.5l-3.2-1.6l2.8-1.1l-4.7-0.7l-4.2-1.6l3.4-0.5l1.2-1.4l-6.6-1.4l-4.4-2
		l-4.4,2l-6.6,1.4l1.2,1.4l3.4,0.5l-4.2,1.6l-4.7,0.7l2.8,1.1L89,32.6l-4,0.5l2,1.5l4.2,0.3l5.2-0.8l-1.9,2.1L91.3,37L88,38l3.3,0.9
		L86.4,39l-4.8,1.2l-3,2.2l2.6,0.3l-5.1,1.8l5.2,1l4.7-1.1l-3,1.4l2.5,0.5l4.5-0.6L88.3,47l4.6,0.7l4.3-0.2l5.1-0.6l-0.1,5.7
		L99.5,51l-5.6-1.8l-4.8-0.4l-4.6,0.8l-1.7,1.7l-2.1-0.2l-4.9,1.8L72,55l3,0.2L69,57.6l7,1l5.4-1l-3.3,1.5l3.9,0.7l4.2-0.6l-2.3,1.2
		l2.2,1l4.6-0.1l5.8-0.6l5.1-0.4l-0.2,6.4l-7.3-4.2l-8.1-0.4l-7,1.8l5.5,0.6l-9.8,1.1l-5.9,2L65.8,70l3.6,0.2l-7.6,3l8.2,0.9l7.5-1
		l-4.8,2l5.4,0.5l4.6-1.1l-3.2,2.2l4.2,1.2v1.8l-7.3,0.1l-5,2.4l8,0.3l-5.6,0.6l-8.2,1l-7,2.2l-3.4,3.1l5.6-0.2l-3,0.9l-5.4,2.3
		l-2.6,0.7l5.1,1.7l7.4-0.2l8.2-1.5l-6.3,3l6.8,0.6l6.1-1.1l-4.5,2.3l6.2,1.6l5.9,0.1l0.8,3.6l1.4,3.2l-7.1-3.7l-7.4-1l-7,1
		l-3.8,2.5h7l-4.6,0.8l-8.5,1.5l-6.2,2.7l-3,3.6l5.1-0.3l-3.9,1l-3.6,2.2l-2.5,0.1l5,2.5l6.4-0.3l7.8-2.1l-6.3,3.6l5.7,0.7l6.6-1.3
		l-4.4,2.6l8,1.9l6.3-0.5l10.3-1.9l5.1,0.9l-1,6.2l-1.6,2.8l-6.3,5l-5.7,0.6l-3.4,0.8l6.1,1.6l6-0.2l5.9-2.2l-3.8,2.7l8.1-0.5l3.8,1
		h9.7l3.8-1l8.1,0.5l-3.8-2.7l5.9,2.2l6,0.2l6.1-1.6l-3.4-0.8l-5.7-0.6l-6.3-5l-1.6-2.8l-1-6.2l5.1-0.9l10.3,1.9l6.3,0.5l8-1.9
		l-4.4-2.6l6.6,1.3l5.7-0.7l-6.3-3.6l7.8,2.1l6.4,0.3l5-2.5L165.7,116.6L165.7,116.6z M92.8,102.4L92,106l-2.1-2l-1.7-5.3l4.6-0.9
		V102.4L92.8,102.4z M92.8,80.9L90,80l-3.5-0.6v-1.5l3.1-0.2l3.1-0.6L92.8,80.9L92.8,80.9z M100.1,106l-0.8,3.1l-1.1-2.4L97,97.4
		h3.4L100.1,106L100.1,106z M100.4,85.7l-4.3-3.6v-5.5l5.1-0.3C101.3,76.3,100.4,85.7,100.4,85.7z M102.8,40.3l-2.2-1.5l-3.3-1.3
		l3.2-0.8l2.2-0.6C102.8,36,102.8,40.3,102.8,40.3z M106.7,36l2.2,0.6l3.2,0.8l-3.3,1.3l-2.2,1.5C106.7,40.3,106.7,36,106.7,36z
		 M111.3,106.7l-1.1,2.4l-0.8-3.1l-0.3-8.6h3.4L111.3,106.7L111.3,106.7z M113.4,82.1l-4.3,3.6l-0.8-9.3l5.1,0.3
		C113.4,76.6,113.4,82.1,113.4,82.1z M116.8,77.1l3.1,0.6l3.1,0.2v1.5l-3.5,0.6l-2.7,0.9L116.8,77.1L116.8,77.1z M119.6,104.1
		l-2.1,2l-0.8-3.6v-4.6l4.6,0.9L119.6,104.1L119.6,104.1z"/>
</g>
</svg>
