<?xml version="1.0" encoding="utf-8"?>
<!-- Generator: Adobe Illustrator 28.1.0, SVG Export Plug-In . SVG Version: 6.00 Build 0)  -->
<svg version="1.1" id="Capa_1" xmlns="http://www.w3.org/2000/svg" xmlns:xlink="http://www.w3.org/1999/xlink" x="0px" y="0px"
	 viewBox="0 0 203.5 162.8" style="enable-background:new 0 0 203.5 162.8;" xml:space="preserve">
<style type="text/css">
	.st0{fill:#FDC300;}
	.st1{fill:#601313;}
	.st2{fill:#E6332A;}
</style>
<rect class="st0" width="203.5" height="162.8"/>
<g>
	<polygon class="st1" points="157.7,44.6 160.8,130.9 159.8,131.3 159.8,132.6 158.9,132.9 158.9,134.4 158.1,134.7 158.1,141.2 
		177,141.2 176.6,132.6 174.7,132.7 174.7,130.8 173.8,130.7 168.1,42.4 169.3,41.5 169.4,40.4 168.5,39.5 168.2,36.5 166.6,35.3 
		165.4,34.2 164,33.5 160.6,33.5 159.4,34.3 158.4,35.5 157.7,37 156.1,37.3 155.4,39 155.9,40 154.9,40.2 154.2,41.2 155,42 
		156.7,42.1 157.7,42.6 	"/>
	<polygon class="st2" points="160.8,130.9 164.4,129.7 170,129.7 165.4,44.9 162.6,44.2 160.3,44.2 157.8,45.9 	"/>
	<polygon class="st1" points="132,46.6 133.3,131.5 132.3,131.5 132.3,134.2 131.1,134.2 131.1,142.9 149,142.9 148.3,133.7 
		147,133.7 147,131.3 145.9,131.3 142.3,46.6 143.6,45.5 142.5,45.5 142.6,43.9 143.5,43.3 144.9,43 145.5,42.4 144.9,41.3 
		143.9,41.3 142.9,41.6 142.8,39.3 141.2,37.7 136.7,37.7 132.4,38.4 131.3,39.7 131.3,42.4 129.6,42.2 128.9,42.8 129.3,43.8 
		131.4,44.1 	"/>
	<polygon class="st2" points="133.3,131.5 137,130.5 142.8,130.5 138.9,46.9 137.1,45.7 133.3,45.7 132,46.6 	"/>
	<polygon class="st1" points="121.2,142.9 121.2,136.4 120.7,136.4 120.5,134.6 119.8,134.6 119.6,132.6 118.5,132.6 117.6,48.3 
		118.8,47.8 117.6,47.3 117.6,46 118.4,44.7 119.9,44.7 120.4,44 119.6,43.3 117.9,43.5 117.6,40.7 115.3,40 109.5,40.5 106.9,42.3 
		106.9,44.5 106,44.6 105.4,45.7 106.2,46.4 107.4,46.8 107.5,48.8 106.3,132.7 105.4,132.9 105.4,134.9 103.9,134.9 103.9,136.9 
		102.9,136.9 102.9,142.9 	"/>
	<polygon class="st2" points="107.5,48.8 108.6,47.5 111.2,47 113.7,47.9 113.9,48.8 115.9,131.5 111.3,131.5 106.3,132.7 	"/>
	<polygon class="st1" points="94.8,144.1 94.8,137.6 94.3,137.6 94.2,135.8 93.6,135.8 93.3,133.9 92.3,133.9 92.6,49.4 93.8,48.9 
		92.6,48.4 92.6,47.2 93.4,45.8 94.9,45.8 95.4,45.1 94.6,44.5 92.9,44.7 92.7,41.8 90.4,41.2 84.6,41.6 82,43.5 81.9,45.6 81,45.7 
		80.4,46.8 81.2,47.5 82.4,47.9 82.5,50 80.1,133.9 79.2,134.1 79.1,136.1 77.6,136.1 77.6,138.1 76.7,138.1 76.6,144.1 	"/>
	<polygon class="st2" points="82.5,50 83.6,48.6 86.1,48.1 88.7,49 88.9,50 89.7,132.7 85,132.7 80.1,133.9 	"/>
	<polygon class="st2" points="92.9,144.1 92.9,137.7 77.6,138.1 76.7,138.1 76.6,144.1 	"/>
	<polygon class="st1" points="69,52.5 66.5,134.7 67.2,135.1 67.1,137.1 70,139.4 70,144.8 50.3,144.8 50,138.8 50.9,138.8 
		50.7,136.9 53.4,136.7 53.6,135.5 54.8,135.4 54.8,133.7 55.6,133.6 60,52.2 60,51.1 58.8,50.7 58.2,50.7 58.2,49.4 57.5,49.4 
		57.6,48.3 59,48.3 59,46.8 59.7,45.1 63.8,44.1 67.9,43.9 70,45 70,47 71.8,47.8 71.5,48.5 69.9,49.1 69.8,50.1 70.4,50.6 
		69.9,51.6 69.2,52 	"/>
	<polygon class="st2" points="60,52.2 61.1,51.3 63.1,51.5 64.8,52.7 65.6,54.4 65.6,61.6 63.3,133.7 55.6,133.6 	"/>
	<polygon class="st2" points="66.2,144.8 66.2,138.1 50.9,138.8 50,138.8 50.3,144.8 	"/>
	<polygon class="st1" points="45.8,52.6 41.7,137.7 43,138.6 43,140.6 44.8,140.9 44.6,145.6 25.6,145.6 25.6,144.1 24.9,144.1 
		25.5,138.6 28.7,138.6 28.9,135.7 29.8,135 35.7,54.1 35.7,52.6 34.9,52.6 34.9,51.3 33.8,50.5 33.9,49.9 34.8,49.9 34.7,48.5 
		34,47.2 35,47.2 34.1,45.4 35.7,43.4 43.4,43.9 47.8,45.9 48.1,47.4 46.7,49 46.7,49.9 47.2,50.4 47,51.3 45.8,51.8 	"/>
	<polygon class="st2" points="35.7,54.1 37.4,53 39.5,53 40.7,54.4 40.7,59.2 36.5,134.8 29.8,135 	"/>
	<polygon class="st2" points="39.7,145.6 39.7,138.7 28.7,138.6 25.5,138.6 24.9,144.1 25.6,144.1 25.6,145.6 	"/>
	<polygon class="st1" points="28.4,22.1 172.3,8.3 173.1,26.3 170,27.6 170,34.7 167.8,37.7 38,48.1 35,47.2 31.1,37.7 33.3,37.2 
		28.4,27 	"/>
	<polygon class="st2" points="103.9,136.9 120.7,136.4 121.2,136.4 121.2,142.9 102.9,143.3 102.9,136.9 	"/>
	<polygon class="st2" points="131.1,136.4 148.4,135.7 149,142.9 131.1,142.9 	"/>
	<polygon class="st2" points="158.9,134.4 176.6,134.4 177,141.2 158.1,142.1 158.1,134.7 	"/>
	<polygon class="st1" points="17.2,160.2 13.1,160.2 13.1,162.8 187.8,162.8 187.5,156.3 184.6,156.3 	"/>
	<polygon class="st1" points="182.3,148.9 21.2,153.1 21.2,145.2 181.3,141 	"/>
	<polygon class="st2" points="182.3,148.9 184.3,148.9 184.6,156.3 17.2,160.2 17.2,153.1 21.2,153.1 	"/>
	<polygon class="st2" points="32.8,27.1 43.1,25.6 57.7,25.6 43.9,27.1 	"/>
	<polygon class="st2" points="65.6,24.1 79.3,22.4 98.6,22.4 80.4,24.1 	"/>
	<polygon class="st2" points="78.1,33.5 91.8,31.8 111.1,31.8 92.9,33.5 	"/>
	<polygon class="st2" points="119.3,29 139.2,26.7 167.6,26.7 140.9,29 	"/>
</g>
</svg>
