<?xml version="1.0" encoding="utf-8"?>
<!-- Generator: Adobe Illustrator 28.1.0, SVG Export Plug-In . SVG Version: 6.00 Build 0)  -->
<svg version="1.1" id="Capa_1" xmlns="http://www.w3.org/2000/svg" xmlns:xlink="http://www.w3.org/1999/xlink" x="0px" y="0px"
	 viewBox="0 0 203.5 162.8" style="enable-background:new 0 0 203.5 162.8;" xml:space="preserve">
<style type="text/css">
	.st0{fill:#E6332A;}
	.st1{fill:#601313;}
	.st2{fill:#004259;}
	.st3{fill:#2C80C3;}
</style>
<g>
	<rect class="st0" width="203.5" height="162.8"/>
	<g>
		<polygon class="st1" points="42.5,137.9 0,145 0,162.8 203.5,162.8 203.5,138.5 161,135 157,136.3 		"/>
		<polygon class="st1" points="83.6,129.7 43.1,134.2 42.5,137.9 42.5,141 110.2,153.9 161,135 161,129.2 		"/>
		<polygon class="st2" points="59.4,134.2 76.1,133.4 76.7,96.9 77.9,96.9 78.5,92.8 76.7,92.4 77.2,88.1 79.2,81.6 82.1,76.7 
			85.3,74.6 87.6,72.7 78.4,65.4 66.4,70.1 60.4,88.9 59.4,103.2 		"/>
		<polygon class="st3" points="126.6,109.9 125.4,91 124.9,88.3 124,87.6 121.4,85 121.4,69.9 126.3,65.4 134.5,66.8 144,78.1 
			144.6,93.6 146.2,126.5 144.6,133.1 128.9,131.5 126,130.7 		"/>
		<polygon class="st3" points="107.9,144.4 104.2,8.9 56.6,40 58.6,41.4 57.8,46.6 54.8,38.7 46.4,56.5 47.7,58.2 51.6,60.4 
			50.9,63.9 50.5,68.9 49,68.7 51.2,70.8 47.9,110.1 44.4,114.2 44.4,116.4 45.5,118.5 42.5,137.9 46.4,137.8 46.7,135.9 
			48.3,135.9 48.7,134 55.4,133.7 59.4,134.2 61.4,94.5 61.9,87 64.6,77.9 69.3,71 73.7,68.4 78.8,67.7 82.8,70.2 86,75.8 
			87.1,80.9 87.1,83.6 85,83.7 87,88.1 86.8,106.9 85.4,109.7 84.2,110.1 84.2,111.8 82,111.9 82.2,114.5 80.7,114.7 80.8,115.8 
			83.5,116.1 83.6,133.6 79.8,135.5 79.8,143.1 89.1,145.2 97.5,143.7 		"/>
		<polygon class="st2" points="107.9,144.4 117.5,142.9 125.6,144.4 133.5,142.1 132.8,134.2 129.1,134.2 128.2,115.8 130.8,115.2 
			130.8,114.2 129.3,114.2 129.3,112.5 128,112.5 127.9,109.9 125.9,109.9 125,107.6 123.2,72 126,68.2 130.6,67.8 135.1,71.3 
			139.2,79 141.1,88.9 141.1,89.9 142.2,95.5 143.4,114.1 144.6,133.1 146.3,133.6 148.6,132.6 150.5,132.9 153.8,132.4 
			155.1,133.3 155.1,134.4 157,134.7 157,136.3 161,135 161,129.2 157.5,128.9 156.5,115.7 158,115.3 158.6,114.2 157.1,114 
			157.1,112.3 155.9,112.2 155.1,110.8 150.6,74.6 151.1,73.6 150.6,71.3 151.4,70.3 152.6,69.8 152.4,68.8 150.6,68.7 150.6,66.5 
			151.4,65.4 150.4,64.6 149.9,61.3 151.4,60.2 153.1,59.5 153.8,58 153.7,56.1 147.7,40.6 143.7,48.4 142.5,47.7 142.2,43.2 
			144.3,42 126.6,27.1 126.5,24.6 127.8,21.8 123.2,24.6 104.2,8.9 		"/>
		<polygon class="st2" points="104.2,8.9 104.6,24 58.6,48 57.8,46.6 58.6,41.4 56.6,40 		"/>
		<polygon class="st3" points="104.6,24 115.3,31.3 114.7,29.1 118.7,24 120.4,24 121.4,23.1 104.2,8.9 		"/>
		<polygon class="st3" points="142.5,47.7 123.4,36.1 123.4,33.5 126.6,27.1 144.3,42 142.2,43.2 		"/>
	</g>
</g>
</svg>
