<?xml version="1.0" encoding="UTF-8"?>
<svg id="Capa_1" data-name="Capa 1" xmlns="http://www.w3.org/2000/svg" viewBox="0 0 203.46 162.77">
  <defs>
    <style>
      .cls-1 {
        fill: #f8f5e0;
      }

      .cls-1, .cls-2, .cls-3, .cls-4 {
        stroke-width: 0px;
      }

      .cls-2 {
        fill: #7e6a25;
      }

      .cls-3 {
        fill: #e6332a;
      }

      .cls-4 {
        fill: #fdc300;
      }
    </style>
  </defs>
  <rect class="cls-4" width="203.46" height="162.77"/>
  <g>
    <circle class="cls-1" cx="163.21" cy="54.12" r="28.75"/>
    <rect class="cls-2" y="147.72" width="203.46" height="15.05"/>
    <polygon class="cls-3" points="118.32 94.05 134.1 94.05 148.57 84.51 161.06 62.16 174.55 55.77 181.01 56.95 180.35 55.77 178.56 54.52 181.01 53.37 181.01 51.71 177.79 49.79 177.92 48.12 172.67 46.08 163.2 46.97 159.49 44.8 154.5 44.8 152.45 43.26 150.79 43.9 150.79 46.2 142.34 58.23 140.16 68.66 132.74 75 120.84 68.66 108.17 56.95 96.27 55.42 90.13 51.96 83.47 43.26 75.02 38.98 66.46 40.19 59.16 45.31 49.3 56.7 45.59 59.26 35.99 64.12 32.79 68.34 27.29 73.85 26.01 89.2 26.01 97.14 22.46 103.41 22.46 108.53 25.88 116.85 30.62 104.31 32.92 111.98 29.98 131.05 40.47 152.94 40.6 157.8 42.39 159.46 42.39 161.38 49.56 162.77 53.91 161.77 53.4 159.98 49.56 158.06 43.93 153.58 39.96 140.27 41.5 141.16 46.36 153.83 51.48 155.88 56.08 154.73 53.91 151.79 50.71 151.15 47.51 147.18 42.39 131.95 43.8 113.01 47 107.51 48.79 102 50.97 103.28 53.4 102.26 54.29 94.84 60.05 98.55 71.7 102.64 84.5 103.41 95.37 102.64 91.92 125.55 89.87 153.32 91.02 155.5 89.23 158.82 91.41 160.74 99.21 160.23 100.24 158.18 98.7 157.29 94.99 155.37 101.73 155.24 102.8 153.45 97.04 150.12 96.27 134.51 99.98 127.73 99.08 124.14 108.3 99.57 118.32 94.05"/>
  </g>
</svg>