<?xml version="1.0" encoding="utf-8"?>
<!-- Generator: Adobe Illustrator 28.1.0, SVG Export Plug-In . SVG Version: 6.00 Build 0)  -->
<svg version="1.1" id="Capa_1" xmlns="http://www.w3.org/2000/svg" xmlns:xlink="http://www.w3.org/1999/xlink" x="0px" y="0px"
	 viewBox="0 0 203.5 162.8" style="enable-background:new 0 0 203.5 162.8;" xml:space="preserve">
<style type="text/css">
	.st0{fill:#F39D96;}
	.st1{fill:#AB5243;}
	.st2{fill:#2C80C3;}
	.st3{fill:#004259;}
</style>
<g>
	<rect class="st0" width="203.5" height="162.8"/>
	<g>
		<rect x="33.1" class="st1" width="137.3" height="162.8"/>
		<polygon class="st2" points="101.7,23.3 98.8,23.3 89.1,27 81.2,31.7 73.6,38.9 67.3,48.2 62.8,57.9 61.6,68 61.6,81 64.3,88.3 
			64.3,91.1 61.1,91.1 61.1,94 58.9,94 58.9,162.8 101.7,162.8 		"/>
		<polygon class="st2" points="44,100.5 44,0 38.5,0 33.1,0 33.1,100.5 34.6,100.5 34.6,151.8 32.8,153.6 32.8,162.8 38.5,162.8 
			44.3,162.8 44.3,153.6 42.5,151.8 42.5,100.5 		"/>
		<polygon class="st2" points="101.7,23.3 104.7,23.3 114.4,27 122.2,31.7 129.9,38.9 136.2,48.2 140.7,57.9 141.8,68 141.8,81 
			139.1,88.3 139.1,91.1 142.4,91.1 142.4,94 144.6,94 144.6,162.8 101.7,162.8 		"/>
		<polygon class="st2" points="159.5,100.5 159.5,0 164.9,0 170.4,0 170.4,100.5 168.8,100.5 168.8,151.8 170.7,153.6 170.7,162.8 
			164.9,162.8 159.1,162.8 159.1,153.6 161,151.8 161,100.5 		"/>
		<polygon class="st0" points="101.7,0 44,0 44,94.8 48.7,88.3 46.4,70.4 48.7,50.4 56.8,32 68.4,19.5 83,10.7 96.2,6 101.7,6 
			107.3,6 120.5,10.7 135,19.5 146.7,32 154.7,50.4 157.1,70.4 154.7,88.3 159.5,94.8 159.5,0 		"/>
		<polygon class="st3" points="58.9,138.5 68.2,138.5 69.8,124.6 73.9,107.1 81.2,88.3 91.8,74.5 101.7,67.7 113.7,61.7 126.1,59.4 
			140.9,60.2 140.7,57.9 136.2,48.2 129.9,38.9 122.2,31.7 114.4,27 104.7,23.3 98.8,23.3 89.1,27 81.2,31.7 73.6,38.9 67.3,48.2 
			62.8,57.9 61.6,68 61.6,81 64.3,88.3 64.3,91.1 61.1,91.1 61.1,94 58.9,94 		"/>
		<rect x="100.8" y="61.5" class="st3" width="1.8" height="101.3"/>
	</g>
</g>
</svg>
