<?xml version="1.0" encoding="UTF-8"?>
<svg id="Capa_1" data-name="Capa 1" xmlns="http://www.w3.org/2000/svg" viewBox="0 0 203.46 162.77">
  <defs>
    <style>
      .cls-1 {
        fill: #f39d96;
      }

      .cls-1, .cls-2, .cls-3, .cls-4, .cls-5 {
        stroke-width: 0px;
      }

      .cls-2 {
        fill: #33915c;
      }

      .cls-3 {
        fill: #2c80c3;
      }

      .cls-4 {
        fill: #e6332a;
      }

      .cls-5 {
        fill: #fdc300;
      }
    </style>
  </defs>
  <rect class="cls-1" width="203.46" height="162.77"/>
  <g>
    <polygon class="cls-2" points="86.05 134.66 72.89 133.28 62.15 125.31 58.69 117.35 56.09 106.75 56.09 93.77 57.39 84.9 58.9 76.46 55.23 69.54 52.2 67.38 46.36 63.92 41.38 63.92 34.24 63.92 27.11 66.08 31.22 55.27 39.87 46.83 48.09 43.37 59.34 42.29 66.69 44.45 75.13 48.99 80.97 55.7 84.64 63.27 86.05 70.84 86.05 79.06 84.43 85.12 80.53 95.07 78.8 103.29 78.37 110.42 81.62 119.94 87.67 123.62 86.05 134.66"/>
    <polygon class="cls-5" points="135.48 76.68 135.48 70.84 129.64 72.14 120.77 70.84 113.63 64.57 112.55 60.24 132.23 51.37 133.96 45.53 139.37 42.29 148.02 41.42 156.24 44.02 162.95 51.59 166.19 62.19 167.92 73 167.92 79.06 161.87 83.6 155.16 84.9 149.75 84.9 141.53 81.01 135.48 76.68"/>
    <polygon class="cls-5" points="41.38 63.92 41.38 54.83 48.09 43.37 59.34 42.29 66.69 44.45 58.9 53.1 52.2 67.38 46.36 63.92 41.38 63.92"/>
    <polygon class="cls-5" points="55.23 69.54 63.88 60.67 70.37 57.65 80.97 55.7 84.64 63.27 86.05 70.84 77.94 70.84 66.69 72.79 58.9 76.46 55.23 69.54"/>
    <polygon class="cls-5" points="57.39 84.9 62.15 83.17 77.72 84.04 84.43 85.12 80.53 95.07 74.91 93.34 61.72 92.47 56.09 93.77 57.39 84.9"/>
    <polygon class="cls-5" points="56.09 106.75 63.45 104.15 70.64 102.85 78.8 103.29 78.37 110.42 71.88 110.42 58.69 117.35 56.09 106.75"/>
    <polygon class="cls-5" points="72.89 133.28 77.29 125.57 81.62 119.94 87.67 123.62 86.05 134.66 72.89 133.28"/>
    <polygon class="cls-3" points="135.48 76.68 135.48 82.3 143.48 88.47 153.21 91.17 161.65 91.17 167.92 84.9 167.92 79.06 161.87 83.6 155.16 84.9 149.75 84.9 141.53 81.01 135.48 76.68"/>
    <polygon class="cls-3" points="87.67 123.62 92.65 117.35 99.57 111.07 110.82 110.1 118.82 114.1 122.07 122.54 122.07 130.11 111.03 150.66 116.66 150.66 122.07 153.69 125.53 162.77 92.43 162.77 87.67 159.53 86.05 148.71 86.05 134.66 87.67 123.62"/>
    <polygon class="cls-5" points="132.23 125.78 132.23 131.62 121.63 150.23 126.93 150.23 132.23 152.39 135.48 158.01 136.34 162.77 125.53 162.77 122.07 153.69 116.66 150.66 111.03 150.66 122.07 130.11 122.07 127.3 132.23 125.78"/>
    <polygon class="cls-4" points="176.36 162.77 174.84 155.2 169.87 151.96 166.41 151.96 161.87 134.66 161.87 110.86 167.92 101.34 167.92 84.9 161.65 91.17 153.21 91.17 143.48 88.47 135.48 82.3 123.69 85.77 108.22 93.12 97.62 100.91 91.13 111.72 87.67 123.62 92.65 117.35 99.57 111.07 110.82 110.1 118.82 114.1 122.07 122.54 122.07 127.3 132.23 125.78 137.64 122.75 138.5 134.66 144.34 151.96 149.75 162.77 176.36 162.77"/>
    <polygon class="cls-2" points="149.75 162.77 166.41 162.77 166.41 158.23 163.6 153.04 158.08 153.04 153.86 136.44 152.56 110.1 149.75 106.53 143.48 106.53 139.15 112.37 137.64 122.75 138.5 134.66 144.34 151.96 149.75 162.77"/>
    <polygon class="cls-2" points="136.34 20.66 143.91 27.36 148.89 36.88 150.76 42.29 148.02 41.42 139.37 42.29 135.89 44.37 135.48 29.69 136.34 20.66"/>
    <polygon class="cls-2" points="164.27 20.23 167.53 30.28 167.92 39.84 166.54 48.61 163.41 53.1 162.95 51.59 156.24 44.02 150.76 42.29 149.6 38.95 152.15 33.73 157.08 26.73 164.27 20.23"/>
    <polygon class="cls-3" points="135.7 27.4 140.88 32.52 145.99 41.63 139.37 42.29 135.89 44.37 135.48 29.69 135.7 27.4"/>
    <polygon class="cls-3" points="153.3 43.09 155 38.07 160.12 30.62 162.45 27.4 163.12 36.67 163.12 43.63 160.71 49.06 156.24 44.02 153.3 43.09"/>
    <polygon class="cls-3" points="115.35 66.08 119.43 63.16 119.87 56.94 112.55 60.24 113.63 64.57 115.35 66.08"/>
    <polygon class="cls-1" points="100 116.03 106.49 114.76 114.38 118.43 116.21 128.71 111.03 141.54 101.41 149.85 95.92 149.85 92.11 143.65 92.11 130.69 95.78 121.81 100 116.03"/>
    <polygon class="cls-5" points="101.27 120.98 105.78 120.09 111.27 122.64 112.55 129.81 108.95 138.73 102.25 144.52 98.42 144.52 95.77 140.2 95.77 131.18 98.32 125 101.27 120.98"/>
    <polygon class="cls-2" points="102.53 125.93 105.07 125.43 108.16 126.87 108.88 130.9 106.85 135.92 103.08 139.18 100.93 139.18 99.44 136.75 99.44 131.67 100.88 128.19 102.53 125.93"/>
    <polygon class="cls-5" points="135.48 82.3 135.48 93.75 140.24 103.2 132.02 97.04 127.4 84.68 135.48 82.3"/>
    <polygon class="cls-5" points="124.4 85.56 125.53 98.08 129.18 105.89 120.33 98.51 116.64 89.12 123.69 85.77 124.4 85.56"/>
    <polygon class="cls-5" points="113.22 90.74 113.99 101.66 118.36 109.81 110.2 104.05 105.57 95.07 108.22 93.12 113.22 90.74"/>
    <polygon class="cls-5" points="102.03 97.67 102.58 104.92 104.43 110.65 99.57 111.07 97.39 107.31 96.1 103.44 97.62 100.91 102.03 97.67"/>
    <polygon class="cls-5" points="152.67 112.26 139.15 112.37 143.48 106.53 149.75 106.53 152.56 110.1 152.67 112.26"/>
    <polygon class="cls-5" points="138.35 117.85 152.95 117.85 153.24 123.76 137.71 123.76 137.64 122.75 138.35 117.85"/>
    <polygon class="cls-5" points="153.52 129.51 138.13 129.51 138.5 134.66 153.78 134.66 153.52 129.51"/>
    <polygon class="cls-5" points="140.55 140.72 154.95 140.72 156.42 146.52 142.51 146.52 140.55 140.72"/>
    <polygon class="cls-5" points="158.08 153.04 144.89 153.04 149.75 162.77 166.41 162.77 166.41 158.23 163.6 153.04 158.08 153.04"/>
    <polyline class="cls-3" points="161.87 123.39 153.22 123.39 152.93 117.42 161.87 117.42"/>
    <polygon class="cls-3" points="161.87 129.03 153.5 129.03 153.75 134.07 161.87 134.07 161.87 129.03"/>
    <polygon class="cls-3" points="154.77 140.01 163.27 140.01 164.69 145.41 156.14 145.41 154.77 140.01"/>
    <polygon class="cls-3" points="166.41 151.96 157.81 151.96 158.08 153.04 163.6 153.04 166.41 158.23 166.41 162.77 176.36 162.77 174.84 155.2 169.87 151.96 166.41 151.96"/>
  </g>
</svg>
