<?xml version="1.0" encoding="utf-8"?>
<!-- Generator: Adobe Illustrator 28.1.0, SVG Export Plug-In . SVG Version: 6.00 Build 0)  -->
<svg version="1.1" id="Capa_1" xmlns="http://www.w3.org/2000/svg" xmlns:xlink="http://www.w3.org/1999/xlink" x="0px" y="0px"
	 viewBox="0 0 203.5 162.8" style="enable-background:new 0 0 203.5 162.8;" xml:space="preserve">
<style type="text/css">
	.st0{fill:#2C80C3;}
	.st1{fill:#FDC300;}
	.st2{fill:#004259;}
	.st3{fill:#F39D96;}
	.st4{fill:#601313;}
	.st5{fill:#AB5243;}
</style>
<rect class="st0" width="203.5" height="162.8"/>
<g>
	<circle class="st1" cx="103.1" cy="59.9" r="35.8"/>
	<rect y="133.4" class="st2" width="203.5" height="29.4"/>
	<polygon class="st3" points="109.6,136.8 104.8,64.1 70.1,72.4 67.7,78.4 61.2,79.3 58.8,85.3 52.4,87 50.2,92.8 44,93.8 
		41.4,100.4 35.8,100.9 32.5,107.3 27.9,107.3 24.8,113.9 20,114.1 16.4,121.2 11.3,121.2 8.9,127.4 3.9,127.5 0,133.4 	"/>
	<polygon class="st4" points="96,66.2 37.1,134.5 48.5,134.9 51.5,129.4 53.1,126.2 56,126.2 57.8,121.8 58.9,119.1 61.5,119.1 
		64.1,113.5 65.1,110.8 68,110.8 70.1,105.4 70.6,102.8 74.4,102.3 77,96.9 77.2,94.6 80.8,94.1 81.9,89.4 82.4,87 85.8,86.6 
		87.9,81.6 87.8,79.9 91.2,79.5 92.8,74.1 93.7,72.2 95.7,71.9 96.2,67.5 	"/>
	<polygon class="st5" points="109.6,136.8 104.8,64.1 135.8,72.4 138.5,78.4 144.3,79.3 147.1,85.3 152.8,87 155.4,92.8 160.9,93.8 
		163.9,100.4 168.7,100.9 172.3,107.3 176.4,107.3 179.8,113.9 183.9,114.1 187.9,121.2 192.2,121.2 195.1,127.4 199.4,127.5 
		203.5,133.4 	"/>
	<g>
		<polygon class="st5" points="104.9,66.2 96.2,67.5 95.7,71.9 105.2,70.3 		"/>
		<polygon class="st5" points="105.3,72.2 92.8,74.1 91.2,79.5 105.7,76.8 		"/>
		<polygon class="st5" points="106.1,83.3 85.8,86.6 87.9,81.6 105.7,78.3 		"/>
		<polygon class="st5" points="106.2,85.3 81.9,89.4 80.8,94.1 106.6,90.3 		"/>
		<polygon class="st5" points="106.7,93.1 77,96.9 74.4,102.3 107.1,98.6 		"/>
		<polygon class="st5" points="107.3,101.4 70.1,105.4 68,110.8 107.7,107.6 		"/>
		<polygon class="st5" points="107.9,110.8 64.1,113.5 61.5,119.1 108.3,116.8 		"/>
		<polygon class="st5" points="108.5,119.6 57.8,121.8 56,126.2 108.9,125.2 		"/>
		<polygon class="st5" points="109.1,128.7 51.5,129.4 48.5,134.9 109.6,136.8 		"/>
		<polygon class="st5" points="92.6,67 32.7,134.4 19.3,134 77.7,70.6 		"/>
		<polygon class="st5" points="2.2,130.1 19.6,130.1 15.8,133.9 0,133.4 		"/>
		<polygon class="st5" points="71.5,74.1 67.7,78.4 69.4,74.1 		"/>
		<polygon class="st5" points="60.5,81.1 65.6,80.4 61.2,85 58.8,85.3 		"/>
		<polygon class="st5" points="52.1,87.7 59.5,86.8 54.8,92.3 50.2,92.8 		"/>
		<polygon class="st5" points="43.2,95.8 52.1,94.6 47.6,99.5 41.4,100.4 		"/>
		<polygon class="st5" points="32.5,107.3 40.6,106.8 45.8,101.4 35,102.6 		"/>
		<polygon class="st5" points="26.8,109.7 38.4,109.1 33.5,113.8 24.8,113.9 		"/>
		<polygon class="st5" points="31.6,116.1 27.3,121.1 16.4,121.2 18.7,116.6 		"/>
		<polygon class="st5" points="24.8,123.7 21.7,127.5 8.9,127.4 10.4,123.7 		"/>
		<polygon class="st4" points="104.9,66.2 112.7,67.5 113.6,71.9 105.2,70.3 		"/>
		<polygon class="st4" points="105.3,72.2 116.3,74.1 118.3,79.5 105.7,76.8 		"/>
		<polygon class="st4" points="106.1,83.3 123.8,86.6 121.4,81.6 105.7,78.3 		"/>
		<polygon class="st4" points="106.2,85.3 127.5,89.4 129.1,94.1 106.6,90.3 		"/>
		<polygon class="st4" points="106.7,93.1 132.7,96.9 135.5,102.3 107.1,98.6 		"/>
		<polygon class="st4" points="107.3,101.4 139.6,105.4 142,110.8 107.7,107.6 		"/>
		<polygon class="st4" points="107.9,110.8 145.7,113.5 148.6,119.1 108.3,116.8 		"/>
		<polygon class="st4" points="108.5,119.6 152.1,121.8 154.2,126.2 108.9,125.2 		"/>
		<polygon class="st4" points="109.1,128.7 158.4,129.4 161.7,134.9 109.6,136.8 		"/>
		<polygon class="st4" points="112.7,66.2 171.5,134.5 161.7,134.9 158.4,129.4 156.7,126.2 154.2,126.2 152.1,121.8 150.9,119.1 
			148.6,119.1 145.7,113.5 144.5,110.8 142,110.8 139.6,105.4 138.9,102.8 135.5,102.3 132.7,96.9 132.2,94.6 129.1,94.1 
			127.5,89.4 126.8,87 123.8,86.6 121.4,81.6 121.3,79.9 118.3,79.5 116.3,74.1 115.4,72.2 113.6,71.9 112.7,67.5 		"/>
		<polygon class="st4" points="115.7,67 175.3,134.4 186.8,134 129,70.6 		"/>
		<polygon class="st4" points="201.2,130.1 186.2,130.1 189.8,133.9 203.5,133.4 		"/>
		<polygon class="st4" points="134.8,74.1 138.5,78.4 136.6,74.1 		"/>
		<polygon class="st4" points="145.1,81.1 140.6,80.4 145,85 147.1,85.3 		"/>
		<polygon class="st4" points="153.1,87.7 146.6,86.8 151.3,92.3 155.4,92.8 		"/>
		<polygon class="st4" points="161.8,95.8 153.9,94.6 158.3,99.5 163.9,100.4 		"/>
		<polygon class="st4" points="172.3,107.3 165.3,106.8 160.2,101.4 169.7,102.6 		"/>
		<polygon class="st4" points="177.6,109.7 167.4,109.1 172.2,113.8 179.8,113.9 		"/>
		<polygon class="st4" points="174.1,116.1 178.4,121.1 187.9,121.2 185.4,116.6 		"/>
		<polygon class="st4" points="180.9,123.7 184,127.5 195.1,127.4 193.4,123.7 		"/>
		<polygon class="st5" points="79.3,70.2 79.3,57 105.7,49.6 105.7,64.3 104.8,64.1 		"/>
		<polygon class="st4" points="105.7,49.6 126.6,56.6 126.6,69.9 105.7,64.3 		"/>
		<polygon class="st4" points="89.6,63.9 94.1,63 94.1,66.7 89.6,67.7 		"/>
		<polygon class="st5" points="114.8,66.7 114.8,62.8 117,63.7 117,67.4 		"/>
	</g>
</g>
</svg>
