<?xml version="1.0" encoding="utf-8"?>
<!-- Generator: Adobe Illustrator 28.1.0, SVG Export Plug-In . SVG Version: 6.00 Build 0)  -->
<svg version="1.1" id="Capa_1" xmlns="http://www.w3.org/2000/svg" xmlns:xlink="http://www.w3.org/1999/xlink" x="0px" y="0px"
	 viewBox="0 0 203.5 162.8" style="enable-background:new 0 0 203.5 162.8;" xml:space="preserve">
<style type="text/css">
	.st0{fill:#F39D96;}
	.st1{fill:none;}
	.st2{fill:#2C80C3;}
	.st3{fill:#80BE94;}
	.st4{fill:#33915C;}
	.st5{fill:#E6332A;}
	.st6{fill:#FDC300;}
	.st7{fill:#004259;}
</style>
<rect class="st0" width="203.5" height="162.8"/>
<g>
	<polygon class="st1" points="0,0 0,63 32.8,29.8 43.5,29.8 63.4,10.6 83.4,33 92.3,32.7 109,55.1 109,55.1 110.1,56.6 141.5,71.2 
		150.2,69.3 166.7,79.5 166.7,79.5 178.3,86.6 184.4,79.9 187.8,82.9 203.5,68.8 203.5,0 	"/>
	<polygon class="st2" points="114.3,121.4 114.3,125.8 101.2,125.8 101.7,121.4 101.7,121.4 91.7,120.9 95,121.1 94.6,125.5 
		81.5,125.5 82.5,120.5 75.1,120.2 75.2,120.2 74.1,124.6 62.4,123.4 63.3,119.4 53.1,117.3 52.8,121.7 42.1,119.3 32.9,125.8 
		65.9,135.4 69.2,126.5 71.7,136.3 73.9,137.1 76.3,130.7 78.2,136.6 80.2,132.3 81.7,138.2 92,138.2 114.7,136.8 116.6,136.4 
		116.9,121.3 	"/>
	<polygon class="st2" points="144.6,119.7 145.7,124.2 142.4,124.4 142.3,126.1 141.2,131.2 146.8,130 150.3,129 152.7,121.5 
		153.7,123 152.9,119.2 	"/>
	<polygon class="st2" points="3,107.9 1.5,107.4 1.9,103.5 0,102.9 0,113.9 1.4,114.6 	"/>
	<polygon class="st2" points="174.8,116.3 166.7,117.6 167.1,121.7 159.1,122.9 160.3,126.3 166.7,125.8 174.7,124.3 183.1,125.3 
		185,118.8 175.6,120.4 	"/>
	<polygon class="st2" points="4.2,102.9 4.3,103 19.7,107.9 38.2,96.1 62.9,68.9 73.3,63.2 71.5,54.4 83.4,33 63.4,10.6 43.5,29.8 
		53,49.8 44.6,49.8 44.6,42.4 32.8,38 32.8,29.8 0,63 0,101.6 4.2,103 	"/>
	<polygon class="st2" points="189,117.8 189.2,118.1 191.3,113.2 188.3,113.9 	"/>
	<polygon class="st2" points="203.5,111.6 203.5,110.2 202.7,110.4 	"/>
	<polygon class="st2" points="200.1,118.1 201.1,110.8 198,111.6 	"/>
	<polygon class="st2" points="184.4,79.9 178.3,86.6 166.7,79.5 156.4,96 139.5,89.9 115.1,94.2 123.2,78.1 120,70.2 107.2,78.1 
		106.9,54.2 109,55.1 92.3,32.7 89.2,44.6 93.1,49.1 89.2,58 91.1,75.2 68.1,100.8 48,115.1 65.3,118.5 109,120.5 118.4,120 
		121.3,118.4 119.1,117.8 119.4,115.9 118.5,115.6 119.6,114.2 119.6,110.5 120.3,109.3 124,108.8 126,109.7 126.5,112.6 126,114.2 
		125.8,117.2 127.6,118.6 130.1,112.4 134.1,112.1 137.2,114.1 136,116.6 137.4,115.5 138.9,115.9 142.1,118.6 157,117.8 
		183.9,113.7 191.9,111.8 195.5,103.6 197.6,110.4 201.3,109.5 201.5,108.3 202.1,109.3 203.5,109 203.5,68.8 187.8,82.9 	"/>
	<polygon class="st2" points="155.7,126.3 156.7,123.2 154,123.6 	"/>
	<polygon class="st2" points="10.1,110.4 5.2,108.7 6.3,115.8 6.7,116.2 9.1,114.7 	"/>
	<polygon class="st2" points="13.8,111.7 11.2,110.8 11.6,113.1 18.4,108.8 14.1,107.4 	"/>
	<polygon class="st3" points="44.6,42.4 44.6,49.8 53,49.8 43.5,29.8 32.8,29.8 32.8,38 	"/>
	<polygon class="st3" points="9.1,114.7 6.7,116.2 8.4,117.9 	"/>
	<polygon class="st3" points="40.6,118.9 40.6,114.9 33.4,113.4 32.9,117.1 21.2,114 21.2,109.6 18.4,108.8 11.6,113.1 12.5,118.9 
		15.2,111.9 17.5,117.2 16.2,120.9 32.9,125.8 42.1,119.3 	"/>
	<polygon class="st3" points="73.3,63.2 62.9,68.9 38.2,96.1 19.7,107.9 33,112.1 48,115.1 68.1,100.8 91.1,75.2 89.2,58 93.1,49.1 
		89.2,44.6 92.3,32.7 83.4,33 71.5,54.4 	"/>
	<polygon class="st3" points="109,55.1 109,55.1 110.1,56.6 	"/>
	<polygon class="st3" points="166.7,79.5 150.2,69.3 166.7,79.5 	"/>
	<polygon class="st3" points="107.2,78.1 120,70.2 123.2,78.1 115.1,94.2 139.5,89.9 156.4,96 166.7,79.5 150.2,69.3 141.5,71.2 
		110.1,56.6 109,55.1 106.9,54.2 	"/>
	<polygon class="st4" points="132.6,146.3 134.6,146.3 134.6,147.1 132.6,147.2 132.7,149.3 141.2,150.3 141,151.2 132.7,150.2 
		133,158.5 134.5,162.3 133.2,162.8 203.5,162.8 203.5,142.2 132.5,142.2 	"/>
	<polygon class="st4" points="127.4,159.5 126.5,154 125.8,154 126.8,162.8 129,162.8 128.8,160.2 	"/>
	<polygon class="st4" points="118.2,149 116.5,149 116.5,147.5 109.8,147.2 108.9,147.9 109.2,149.8 108.4,149.8 108.2,148.1 
		107.5,146.9 106,147 105.3,147.1 105.3,145.6 106,145.6 107.2,145 109,145 110.5,146.3 116.5,146.3 116.5,142.2 0,142.2 0,162.8 
		120.7,162.8 120.2,157.5 	"/>
	<polygon class="st4" points="116.5,139.3 116.6,136.4 114.7,136.8 92,138.2 81.7,138.2 80.2,132.3 78.2,136.6 76.3,130.7 
		73.9,137.1 71.7,136.3 69.2,126.5 65.9,135.4 32.9,125.8 26.3,130.5 1.9,119.3 6.7,116.2 6.3,115.8 5.2,108.7 3,107.9 1.4,114.6 
		0,113.9 0,142.2 116.5,142.2 	"/>
	<polygon class="st4" points="195.5,103.6 191.9,111.8 197.6,110.4 	"/>
	<polygon class="st4" points="4.2,102.9 4.2,103 4.3,103 	"/>
	<polygon class="st4" points="201.5,108.3 201.3,109.5 202.1,109.3 	"/>
	<polygon class="st4" points="201.1,110.8 200.1,118.1 198,111.6 191.3,113.2 189.2,118.1 189,117.8 189.1,118.1 185,118.8 
		183.1,125.3 174.7,124.3 166.7,125.8 160.3,126.3 159.1,122.9 156.7,123.2 155.7,126.3 154,123.6 153.8,123.6 153.7,123 
		152.7,121.5 150.3,129 146.8,130 141.2,131.2 140.9,132.4 135.8,140.4 132.4,140.8 132.5,142.2 203.5,142.2 203.5,111.6 
		202.7,110.4 	"/>
	<polygon class="st4" points="10.1,110.4 9.1,114.7 11.6,113.1 11.2,110.8 	"/>
	<polygon class="st4" points="17.5,117.2 15.2,111.9 12.5,118.9 11.6,113.1 9.1,114.7 8.4,117.9 6.7,116.2 1.9,119.3 26.3,130.5 
		32.9,125.8 16.2,120.9 	"/>
	<polygon class="st5" points="1.9,103.5 1.5,107.4 3,107.9 3.9,104.2 	"/>
	<polygon class="st5" points="10.7,107.5 11.2,110.8 13.8,111.7 14.1,107.4 4.5,104.3 5.2,108.7 10.1,110.4 	"/>
	<polygon class="st5" points="10.7,107.5 10.1,110.4 11.2,110.8 	"/>
	<polygon class="st5" points="3.9,104.2 3,107.9 5.2,108.7 4.5,104.3 	"/>
	<polygon class="st4" points="32.9,117.1 33.4,113.4 32.7,113.3 21.2,109.6 21.2,114 	"/>
	<polygon class="st0" points="42.1,119.3 52.8,121.7 53.1,117.3 46.6,116.1 	"/>
	<polygon class="st0" points="42.1,119.3 46.6,116.1 40.6,114.9 40.6,118.9 	"/>
	<polygon class="st6" points="74.1,124.6 75.2,120.2 75.1,120.2 65.2,119.7 65.1,119.7 63.3,119.4 62.4,123.4 	"/>
	<polygon class="st5" points="94.6,125.5 95,121.1 91.7,120.9 82.5,120.5 81.5,125.5 	"/>
	<polygon class="st4" points="101.2,125.8 114.3,125.8 114.3,121.4 109,121.7 109,121.7 101.7,121.4 101.7,121.4 	"/>
	<polygon class="st0" points="142.4,124.4 145.7,124.2 144.6,119.7 142.5,119.8 	"/>
	<polygon class="st6" points="166.7,117.6 157.2,119 152.9,119.2 153.7,123 154,123.6 156.7,123.2 157.9,119.6 159.1,122.9 
		167.1,121.7 	"/>
	<polygon class="st6" points="153.8,123.6 154,123.6 153.7,123 	"/>
	<polygon class="st6" points="156.7,123.2 159.1,122.9 157.9,119.6 	"/>
	<polygon class="st5" points="184.1,115 174.8,116.3 175.6,120.4 185,118.8 186.3,114.4 	"/>
	<polygon class="st5" points="187.2,114.2 189,117.8 188.3,113.9 	"/>
	<polygon class="st5" points="186.3,114.4 185,118.8 189.1,118.1 189,117.8 187.2,114.2 	"/>
	<polygon class="st7" points="142.4,124.4 131.5,125 131.2,120.5 131.3,120.5 116.9,121.3 116.6,136.4 141.2,131.2 142.3,126.1 	"/>
	<polygon class="st7" points="138.9,115.9 137.4,115.5 136,116.6 137.2,114.1 134.1,112.1 130.1,112.4 127.6,118.6 125.8,117.2 
		126,114.2 126.5,112.6 126,109.7 124,108.8 120.3,109.3 119.6,110.5 119.6,114.2 118.5,115.6 119.4,115.9 119.1,117.8 121.3,118.4 
		118.4,120 142.1,118.6 	"/>
	<polygon class="st7" points="133,158.5 132.7,150.2 141,151.2 141.2,150.3 132.7,149.3 132.6,147.2 134.6,147.1 134.6,146.3 
		132.6,146.3 132.5,142.2 116.5,142.2 116.5,146.3 110.5,146.3 109,145 107.2,145 106,145.6 105.3,145.6 105.3,147.1 106,147 
		107.5,146.9 108.2,148.1 108.4,149.8 109.2,149.8 108.9,147.9 109.8,147.2 116.5,147.5 116.5,149 118.2,149 120.2,157.5 
		120.7,162.8 126.8,162.8 125.8,154 126.5,154 127.4,159.5 128.8,160.2 129,162.8 133.2,162.8 134.5,162.3 	"/>
	<polygon class="st7" points="116.5,139.3 116.5,142.2 132.5,142.2 132.4,140.8 135.8,140.4 140.9,132.4 141.2,131.2 116.6,136.4 	
		"/>
	<polygon class="st7" points="131.5,125 142.4,124.4 142.5,119.8 131.3,120.5 131.2,120.5 	"/>
	<polygon class="st7" points="53.2,117.1 53.1,117.3 63.3,119.4 63.3,119.4 75.1,120.2 82.5,120.5 82.5,120.5 91.7,120.9 
		101.7,121.4 114.3,120.5 114.3,121.4 116.9,121.3 116.9,120.8 118.4,120 109,120.5 65.3,118.5 48,115.1 46.8,115.9 	"/>
	<polygon class="st7" points="14.1,107.4 14.1,107.4 18.4,108.8 19.7,107.9 4.3,103 4.4,104 	"/>
	<polygon class="st7" points="142.5,119.7 144.6,119.7 144.6,119.7 152.9,119.2 152.9,119.2 157.2,119 166.7,117.3 166.7,117.6 
		174.8,116.3 174.8,116.3 186.4,114.3 186.7,113.2 187.2,114.1 188.3,113.9 188.3,113.9 191.3,113.2 191.9,111.8 183.9,113.7 
		157,117.8 142.1,118.6 142.6,119 	"/>
	<polygon class="st7" points="1.9,103.1 4,103.8 4.2,103 0,101.6 0,102.9 1.9,103.5 	"/>
	<polygon class="st7" points="201.1,110.8 201.3,109.5 197.6,110.4 198,111.6 	"/>
	<polygon class="st7" points="202.7,110.4 203.5,110.2 203.5,109 202.1,109.3 	"/>
	<polygon class="st7" points="19.7,107.9 18.4,108.8 21.2,109.6 21.2,109.6 33.5,112.9 33.4,113.4 40.6,114.9 40.6,114.9 
		46.8,115.9 48,115.1 33,112.1 	"/>
	<polygon class="st7" points="186.7,113.2 186.4,114.3 187.2,114.1 	"/>
	<polygon class="st7" points="202.7,110.4 202.1,109.3 201.3,109.5 201.1,110.8 	"/>
	<polygon class="st7" points="198,111.6 197.6,110.4 191.9,111.8 191.3,113.2 	"/>
	<polygon class="st7" points="4.3,103 4.2,103 4,103.8 4.4,104 	"/>
	<polygon class="st7" points="4.4,104 4.5,104.3 14.1,107.4 14.1,107.4 	"/>
	<polygon class="st7" points="4,103.8 1.9,103.1 1.9,103.5 3.9,104.2 	"/>
	<polygon class="st7" points="4.5,104.3 4.4,104 4,103.8 3.9,104.2 	"/>
	<polygon class="st7" points="33.4,113.4 33.5,112.9 21.2,109.6 21.2,109.6 32.7,113.3 	"/>
	<polygon class="st7" points="53.1,117.3 53.2,117.1 46.8,115.9 46.6,116.1 	"/>
	<polygon class="st7" points="46.8,115.9 40.6,114.9 40.6,114.9 46.6,116.1 	"/>
	<polygon class="st7" points="65.2,119.7 75.1,120.2 63.3,119.4 63.3,119.4 65.1,119.7 	"/>
	<polygon class="st7" points="82.5,120.5 82.5,120.5 91.7,120.9 	"/>
	<polygon class="st7" points="109,121.7 114.3,121.4 114.3,120.5 101.7,121.4 109,121.7 	"/>
	<polygon class="st7" points="144.6,119.7 144.6,119.7 142.5,119.7 142.5,119.8 	"/>
	<polygon class="st7" points="166.7,117.3 157.2,119 166.7,117.6 	"/>
	<polygon class="st7" points="152.9,119.2 152.9,119.2 157.2,119 	"/>
	<polygon class="st7" points="188.3,113.9 188.3,113.9 187.2,114.1 187.2,114.2 	"/>
	<polygon class="st7" points="186.3,114.4 186.4,114.3 174.8,116.3 174.8,116.3 184.1,115 	"/>
	<polygon class="st7" points="187.2,114.2 187.2,114.1 186.4,114.3 186.3,114.4 	"/>
	<polygon class="st7" points="116.9,121.3 131.3,120.5 132,119.7 142.5,119.7 142.6,119 142.1,118.6 118.4,120 116.9,120.8 	"/>
	<polygon class="st7" points="142.5,119.7 132,119.7 131.3,120.5 142.5,119.8 	"/>
</g>
</svg>
