<?xml version="1.0" encoding="utf-8"?>
<!-- Generator: Adobe Illustrator 28.1.0, SVG Export Plug-In . SVG Version: 6.00 Build 0)  -->
<svg version="1.1" id="Capa_1" xmlns="http://www.w3.org/2000/svg" xmlns:xlink="http://www.w3.org/1999/xlink" x="0px" y="0px"
	 viewBox="0 0 203.5 162.8" style="enable-background:new 0 0 203.5 162.8;" xml:space="preserve">
<style type="text/css">
	.st0{fill:#2C80C3;}
	.st1{fill:#FDC300;}
	.st2{fill:#004259;}
	.st3{fill:#33915C;}
	.st4{fill:#F39D96;}
	.st5{fill:#AB5243;}
</style>
<rect class="st0" width="203.5" height="162.8"/>
<g>
	<rect class="st0" width="203.5" height="162.8"/>
	<g>
		<circle class="st1" cx="155.2" cy="41.7" r="28.2"/>
		<polygon class="st2" points="9.7,118.1 13.9,97.2 22.2,84.7 25.3,73.8 31.6,67.8 60.5,53.9 92.4,47.8 101.3,46.4 106,44 130.1,43 
			136,41.7 149.4,47.4 163.4,54.2 169.9,63.2 171.3,70.2 174.1,74.3 173.6,76.9 200,119.6 		"/>
		<polygon class="st3" points="184.4,114.1 159.8,111.9 145.4,105.8 135.3,105.8 128.8,107.6 115.6,105.8 107.1,108.4 95.2,105.8 
			85.8,107.8 77.7,107.8 66.3,107.8 58.1,111.9 44.2,110.3 35.7,111.4 28.1,110.3 20.2,112.2 10.4,112.2 4.9,114.4 0,118.2 0,121.3 
			0,131.3 0,162.8 203.5,162.8 203.5,125.6 203.5,115.6 203.5,113.6 		"/>
		<g>
			<polygon class="st4" points="86.2,80.9 86.2,48.5 84.3,45.3 78.9,41.9 83.3,41.3 84.3,38.9 86.9,38.9 89.8,40.7 90.7,44.9 
				90.7,77.5 			"/>
			<polygon class="st5" points="145,89.5 153.7,80.9 163.3,75.9 166.4,78.9 164.8,89.5 147.9,102 138.9,110.6 130.2,113.7 
				123.5,115.9 106,114.2 99.1,111.9 90.7,112 84.8,104 83.3,90.2 86.2,80.9 90.7,77.5 98.1,75.9 114.8,77.4 130.9,84.9 			"/>
			<polygon class="st4" points="103.2,87.3 116.7,91.4 124.9,96 127.2,102.5 127.2,108.6 122.6,105.5 123.8,109.7 117.9,106.1 
				119,109.7 110.6,107.4 103.2,94.7 			"/>
			<polygon class="st4" points="128.5,152.9 135.8,150.9 134.9,140.3 131.4,129 130.3,123.2 126.4,114.9 132.1,113 132.9,119 
				135.4,121.7 135.4,127.6 141.3,152.5 137.8,155.1 133.9,157.3 135.3,153.6 131.1,155.6 132.3,153.3 			"/>
			<polygon class="st4" points="107.6,151.4 116.1,151.3 116.7,128.1 109.6,114.5 108.1,111.7 112,111.4 115.8,113 116.9,115.2 
				118.5,121.2 121.8,125.9 120.7,130.7 119,154.2 110.5,156.4 106.4,157.3 108.8,155.1 104.4,154.9 107.6,153.4 103.2,152.7 			"/>
		</g>
	</g>
</g>
</svg>
