<?xml version="1.0" encoding="utf-8"?>
<!-- Generator: Adobe Illustrator 28.1.0, SVG Export Plug-In . SVG Version: 6.00 Build 0)  -->
<svg version="1.1" id="Capa_1" xmlns="http://www.w3.org/2000/svg" xmlns:xlink="http://www.w3.org/1999/xlink" x="0px" y="0px"
	 viewBox="0 0 203.5 162.8" style="enable-background:new 0 0 203.5 162.8;" xml:space="preserve">
<style type="text/css">
	.st0{fill:#2C80C3;}
	.st1{fill:#E6332A;}
	.st2{fill:#FDC300;}
	.st3{fill:#601313;}
</style>
<g>
	<rect class="st0" width="203.5" height="162.8"/>
	<g>
		<polygon class="st1" points="123,22.4 101.7,11.9 80.4,22.4 69.3,43.1 69.3,81.7 81.7,119.7 101.7,150.9 121.8,119.7 134.1,81.7 
			134.1,43.1 		"/>
		<polygon class="st2" points="77.2,84 73.5,59.7 79,61.9 78.3,56.1 88.8,66.2 87.6,54.3 96.8,63.7 98.4,99.4 95,101.9 87.9,100.7 
			82.1,96.5 75.6,83.7 		"/>
		<polygon class="st1" points="96.7,96.4 93.2,89.9 85.9,85.8 80,84.8 78.5,84.8 80.5,90.6 85.5,96.4 90.9,98.6 94.2,98.6 		"/>
		<polygon class="st2" points="78.5,109.9 84.1,113.5 90.3,113.5 87.6,117.8 96.7,122.3 88.9,130.9 81.7,119.7 		"/>
		<polygon class="st2" points="82.8,88 96.7,96.4 92.6,97.6 87.6,95 		"/>
		<polygon class="st3" points="128.3,43.2 121.1,40.1 112.3,42.7 106.2,47.8 106.9,35.7 106.2,21.4 103.1,12.6 101.7,11.9 
			100.4,12.6 97.2,21.4 96.6,35.7 97.2,47.8 91.2,42.7 82.3,40.1 75.2,43.2 69.3,49.2 69.3,57.8 74.5,52.1 81.5,49.9 88.3,51.2 
			96.6,57.2 98.5,102.1 96.8,112.1 99.7,120.4 101.7,120.4 103.7,120.4 106.6,112.1 105,102.1 106.9,57.2 115.2,51.2 121.9,49.9 
			129,52.1 134.1,57.8 134.1,49.2 		"/>
		<polygon class="st2" points="126.2,84 130,59.7 124.4,61.9 125.1,56.1 114.6,66.2 115.9,54.3 106.6,63.7 105.1,99.4 108.4,101.9 
			115.6,100.7 121.4,96.5 127.9,83.7 		"/>
		<polygon class="st1" points="106.8,96.4 110.2,89.9 117.5,85.8 123.5,84.8 125,84.8 122.9,90.6 117.9,96.4 112.6,98.6 109.3,98.6 
					"/>
		<polygon class="st2" points="125,109.9 119.3,113.5 113.1,113.5 115.9,117.8 106.8,122.3 114.6,130.9 121.8,119.7 		"/>
		<polygon class="st2" points="120.7,88 106.8,96.4 110.9,97.6 115.9,95 		"/>
		<polygon class="st2" points="101.7,135.9 92.7,133.4 101.7,142.1 110.8,133.4 		"/>
		<polygon class="st2" points="101.7,125.9 92.7,132 101.7,134.2 110.8,132 		"/>
	</g>
</g>
</svg>
