<?xml version="1.0" encoding="utf-8"?>
<!-- Generator: Adobe Illustrator 28.1.0, SVG Export Plug-In . SVG Version: 6.00 Build 0)  -->
<svg version="1.1" id="Capa_1" xmlns="http://www.w3.org/2000/svg" xmlns:xlink="http://www.w3.org/1999/xlink" x="0px" y="0px"
	 viewBox="0 0 203.5 162.8" style="enable-background:new 0 0 203.5 162.8;" xml:space="preserve">
<style type="text/css">
	.st0{fill:#F39D96;}
	.st1{fill:#33915C;}
	.st2{fill:#7E6A25;}
	.st3{fill:#FDC300;}
</style>
<rect class="st0" width="203.5" height="162.8"/>
<g>
	<g>
		<rect x="35.5" y="94.4" class="st1" width="4.3" height="50.5"/>
		<polygon class="st2" points="31.8,61.4 37.7,53.2 44,61 42.7,65.3 37.9,69.9 32.5,64.2 		"/>
		<polygon class="st3" points="37.7,96.8 33.4,95.2 29.6,89.6 29.6,82.7 32.3,75.3 36.4,69.8 41.8,63.1 46.5,58.6 48.1,61.1 
			51.6,68.8 53.4,75.2 54.1,81.8 52.6,87.6 48.8,92.8 43.6,95.9 		"/>
		<polygon class="st3" points="37.7,96.8 42,95.2 45.8,89.6 45.8,82.7 43.1,75.3 39,69.8 33.6,63.1 28.8,58.6 27.3,61.1 23.8,68.8 
			22,75.2 21.2,81.8 22.8,87.6 26.6,92.8 31.8,95.9 		"/>
		<polygon class="st1" points="35.5,114.8 26.8,100.2 11.1,91.6 16.7,103.6 25.7,110.9 34.3,115.7 35.5,116.1 		"/>
		<polygon class="st1" points="39.8,114.8 48.5,100.2 64.2,91.6 58.6,103.6 49.6,110.9 41,115.7 39.8,116.1 		"/>
		<polygon class="st2" points="28.1,59.8 28.8,58.6 33.6,63.1 39,69.8 43.1,75.3 45.8,82.7 45.1,89.2 39.8,96.5 37.7,96.8 
			39.8,94.4 42.9,89.1 42.8,83 40.2,76.4 36.5,71.5 32.2,65 		"/>
	</g>
	<g>
		<rect x="99.6" y="94.4" class="st1" width="4.3" height="50.5"/>
		<polygon class="st2" points="95.8,61.4 101.8,53.2 108.1,61 106.7,65.3 102,69.9 96.6,64.2 		"/>
		<polygon class="st3" points="101.8,96.8 97.5,95.2 93.7,89.6 93.7,82.7 96.4,75.3 100.5,69.8 105.9,63.1 110.6,58.6 112.2,61.1 
			115.7,68.8 117.5,75.2 118.2,81.8 116.7,87.6 112.9,92.8 107.7,95.9 		"/>
		<polygon class="st3" points="101.8,96.8 106.1,95.2 109.9,89.6 109.9,82.7 107.2,75.3 103.1,69.8 97.7,63.1 92.9,58.6 91.3,61.1 
			87.9,68.8 86.1,75.2 85.3,81.8 86.9,87.6 90.7,92.8 95.9,95.9 		"/>
		<polygon class="st1" points="99.6,114.8 90.9,100.2 75.2,91.6 80.8,103.6 89.8,110.9 98.4,115.7 99.6,116.1 		"/>
		<polygon class="st1" points="103.9,114.8 112.5,100.2 128.2,91.6 122.7,103.6 113.7,110.9 105.1,115.7 103.9,116.1 		"/>
		<polygon class="st2" points="92.2,59.8 92.9,58.6 97.7,63.1 103.1,69.8 107.2,75.3 109.9,82.7 109.2,89.2 103.9,96.5 101.8,96.8 
			103.9,94.4 107,89.1 106.9,83 104.3,76.4 100.6,71.5 96.3,65 		"/>
	</g>
	<g>
		<rect x="163.7" y="94.4" class="st1" width="4.3" height="50.5"/>
		<polygon class="st2" points="159.9,61.4 165.9,53.2 172.2,61 170.8,65.3 166.1,69.9 160.7,64.2 		"/>
		<polygon class="st3" points="165.9,96.8 161.6,95.2 157.8,89.6 157.8,82.7 160.5,75.3 164.6,69.8 170,63.1 174.7,58.6 176.3,61.1 
			179.8,68.8 181.6,75.2 182.3,81.8 180.7,87.6 176.9,92.8 171.8,95.9 		"/>
		<polygon class="st3" points="165.9,96.8 170.2,95.2 174,89.6 174,82.7 171.2,75.3 167.1,69.8 161.8,63.1 157,58.6 155.4,61.1 
			152,68.8 150.2,75.2 149.4,81.8 151,87.6 154.8,92.8 160,95.9 		"/>
		<polygon class="st1" points="163.7,114.8 155,100.2 139.3,91.6 144.9,103.6 153.9,110.9 162.5,115.7 163.7,116.1 		"/>
		<polygon class="st1" points="168,114.8 176.6,100.2 192.3,91.6 186.8,103.6 177.8,110.9 169.1,115.7 168,116.1 		"/>
		<polygon class="st2" points="156.3,59.8 157,58.6 161.8,63.1 167.1,69.8 171.2,75.3 174,82.7 173.3,89.2 168,96.5 165.9,96.8 
			168,94.4 171.1,89.1 171,83 168.4,76.4 164.7,71.5 160.4,65 		"/>
	</g>
	<rect y="143.9" class="st1" width="203.5" height="18.9"/>
</g>
</svg>
