<?xml version="1.0" encoding="utf-8"?>
<!-- Generator: Adobe Illustrator 28.1.0, SVG Export Plug-In . SVG Version: 6.00 Build 0)  -->
<svg version="1.1" id="Capa_1" xmlns="http://www.w3.org/2000/svg" xmlns:xlink="http://www.w3.org/1999/xlink" x="0px" y="0px"
	 viewBox="0 0 203.5 162.8" style="enable-background:new 0 0 203.5 162.8;" xml:space="preserve">
<style type="text/css">
	.st0{fill:#2C80C3;}
	.st1{fill:#7E6A25;}
	.st2{fill:#FDC300;}
	.st3{fill:#E6332A;}
</style>
<rect class="st0" width="203.5" height="162.8"/>
<g>
	<polygon class="st1" points="98.8,52.1 115.4,49.7 133.9,48.5 153.5,50.3 164.8,53.8 167.5,58.3 163.4,71.2 127.3,77.2 105.7,66.5 
			"/>
	<polygon class="st2" points="98.3,45.8 104.4,56.8 112.9,64 125.9,69 138.3,70.9 149.1,68.7 159.5,64.6 167.5,58.3 170,63.2 
		170,73.9 170,81.6 165.3,92.7 160.9,99.6 161.2,102.9 152.4,106.2 129.7,107.6 128.1,102.1 123.9,100.2 109,105.7 89.5,116.6 
		72.9,117 55.5,108.7 42.3,96 33.4,74.5 33.4,63.2 35.9,58.8 50.8,66.5 60.5,69 69.6,67.3 86.7,53.2 	"/>
	<g>
		<polygon class="st3" points="82.3,83 88.3,89.7 82.3,91.9 		"/>
		<polygon class="st3" points="73.4,85.8 73.4,94.3 68.5,91.9 		"/>
		<polygon class="st3" points="63.2,83 57.2,87.5 60.2,91.9 		"/>
		<polygon class="st3" points="55,75.9 49.7,81.6 47.8,75.9 		"/>
		<polygon class="st3" points="89.4,78.7 93,85.8 96.1,83 		"/>
		<polygon class="st3" points="93.9,72.3 98.8,78.7 100.5,73.9 		"/>
		<polygon class="st3" points="60.5,69 58.5,72.3 63.2,78.7 72.1,82.3 82.3,79.7 89.7,75.5 92.8,60.4 86.7,53.2 82.3,56.9 
			86.7,61.2 85.3,72.3 80.6,75.9 72.3,75.9 66,74.2 64.8,68.2 		"/>
	</g>
</g>
</svg>
