<?xml version="1.0" encoding="utf-8"?>
<!-- Generator: Adobe Illustrator 28.1.0, SVG Export Plug-In . SVG Version: 6.00 Build 0)  -->
<svg version="1.1" id="Capa_1" xmlns="http://www.w3.org/2000/svg" xmlns:xlink="http://www.w3.org/1999/xlink" x="0px" y="0px"
	 viewBox="0 0 203.5 162.8" style="enable-background:new 0 0 203.5 162.8;" xml:space="preserve">
<style type="text/css">
	.st0{fill:#33915C;}
	.st1{fill:#F39D96;}
	.st2{fill:#AB5243;}
	.st3{fill:#601313;}
	.st4{fill:#1B4C2F;}
</style>
<rect class="st0" width="203.5" height="162.8"/>
<g>
	<polygon class="st1" points="95.9,8.4 101.7,8.4 105.8,8.4 111.3,9 117.8,10.3 124.7,13.4 131.6,17.8 137,22.5 141.1,27.5 
		144.7,32.9 147.8,38.5 150,44 151.3,48 152.3,59.6 152.8,68.2 152.8,71.9 125.9,66.6 125.9,57 107.2,53.6 85.2,58.2 85.3,68.9 
		79.1,70 73.2,35.7 79.7,16.2 91.4,10.2 	"/>
	<polygon class="st2" points="107.2,53.6 109.6,149.7 11.7,154.3 18.8,72.8 42,67.8 42,76.9 49.1,75.6 49.6,53.6 51.9,44.5 
		57.7,33.1 65.1,23.7 71.4,17.9 78,13.9 85.3,10.8 91.3,9.4 95.9,8.4 88.7,14 83.8,19.6 80.2,26.5 78.1,34.3 77.8,43.4 78.5,52.2 
		79.5,57.9 81.3,63.3 85.3,68.9 85.2,58.2 	"/>
	<polygon class="st1" points="107.2,53.6 125.9,57 125.9,66.6 167.7,74.8 167.7,65.3 182.1,68.7 191.8,151 109.6,149.7 	"/>
	<polygon class="st2" points="167.7,65.3 152.8,68.2 152.8,71.9 167.7,74.8 	"/>
	<polygon class="st2" points="162.4,150.5 143.8,150.2 144.2,138.1 144.7,123.2 146.4,111.2 148.6,100.1 149.5,97.8 150.8,97.8 
		152.8,100.7 154.9,107.2 157.7,116.9 160.2,126.6 162.4,136.4 	"/>
	<polygon class="st3" points="58.4,99.2 56.4,100.9 54.6,106.9 50.5,120.5 48.9,129.9 46.4,143 45.2,152.7 69.9,151.6 69.1,139.6 
		67.6,124.7 64.6,112.6 61.2,102.3 	"/>
	<polygon class="st1" points="42,67.8 49.3,68.8 49.1,75.6 42,76.9 	"/>
	<polygon class="st2" points="151.4,49 146.3,45.2 136,42.5 121.1,40.9 107.2,40.9 89.3,42.2 77.9,44.1 77.8,43.4 77.8,42.7 
		89.2,40.7 107.2,39.4 121.2,39.4 136.3,41.1 147,43.9 150.9,46.8 151.3,48 	"/>
	<polygon class="st3" points="75.5,66.8 70,67.8 70,63.1 70.8,62 70.7,61.3 70,60.7 70,59.3 70.4,58 71.2,57.1 72.6,56.5 73.8,56.5 
		74.8,57.1 75.2,58.1 75.2,59.4 74.8,60.5 74.4,60.9 74.4,61.8 75.3,62.1 	"/>
	<polygon class="st3" points="68.4,68.4 63,69.4 63,64.7 63.7,63.6 63.6,62.9 63,62.3 63,60.9 63.4,59.5 64.2,58.7 65.5,58.1 
		66.8,58.1 67.8,58.7 68.1,59.7 68.1,61 67.7,62.1 67.3,62.5 67.3,63.4 68.2,63.7 	"/>
	<polygon class="st3" points="61.3,70 55.9,71 55.9,66.2 56.6,65.2 56.5,64.5 55.9,63.9 55.9,62.5 56.3,61.1 57.1,60.2 58.4,59.7 
		59.7,59.7 60.7,60.3 61,61.3 61,62.6 60.6,63.7 60.2,64.1 60.2,65 61.1,65.3 	"/>
	<polygon class="st3" points="132.8,65.7 137,66.4 137,61.4 136.3,60.7 136.3,60.2 137,60.2 137.3,59.1 137.3,57.5 136.5,56 
		135.3,55.6 133.8,55.8 132.8,57.1 132.8,58.8 133.8,59.4 133.8,60.2 133,60.7 	"/>
	<polygon class="st3" points="139.3,66.9 143.5,67.6 143.5,62.6 142.9,61.9 142.9,61.4 143.5,61.4 143.8,60.3 143.8,58.7 143,57.2 
		141.8,56.8 140.3,57 139.3,58.3 139.3,60 140.3,60.7 140.3,61.4 139.6,61.9 	"/>
	<polygon class="st3" points="145.1,68.2 149.3,68.8 149.3,63.8 148.7,63.2 148.7,62.6 149.3,62.6 149.6,61.5 149.6,59.9 
		148.8,58.4 147.6,58 146.1,58.3 145.1,59.5 145.1,61.3 146.1,61.9 146.1,62.6 145.4,63.1 	"/>
	<polygon class="st4" points="0,156 11.7,154.3 109.6,149.7 191.8,151 203.5,154.3 203.5,162.8 0,162.8 	"/>
</g>
</svg>
