<?xml version="1.0" encoding="utf-8"?>
<!-- Generator: Adobe Illustrator 28.1.0, SVG Export Plug-In . SVG Version: 6.00 Build 0)  -->
<svg version="1.1" id="Capa_1" xmlns="http://www.w3.org/2000/svg" xmlns:xlink="http://www.w3.org/1999/xlink" x="0px" y="0px"
	 viewBox="0 0 203.5 162.8" style="enable-background:new 0 0 203.5 162.8;" xml:space="preserve">
<style type="text/css">
	.st0{fill:#E6332A;}
	.st1{fill:#FDC300;}
	.st2{fill:#004259;}
	.st3{fill:#7E6A25;}
	.st4{fill:#2C80C3;}
</style>
<rect class="st0" width="203.5" height="162.8"/>
<g>
	<polygon class="st1" points="60.3,78 60.3,68.4 64.5,55.3 73.6,43.8 82.5,36.9 93.4,32.6 99.9,31.5 104.8,31.5 110.8,32.6 
		118.8,35.5 126.3,40.2 132.8,46.4 137,52 140.6,58.7 142.4,66.9 143.5,71.3 143.5,78 127.4,75.6 112.6,75.3 83.9,74.9 77.6,75.3 	
		"/>
	<polygon class="st2" points="60.3,78 56.3,79.8 55.1,81.2 56.7,83.1 56.7,95.4 146.4,95.4 146.4,83.1 148.4,81 146.5,79.2 
		143.5,78 127.4,75.6 83.9,74.9 77.6,75.3 	"/>
	<polygon class="st3" points="203.5,150.6 203.5,105.9 157.6,96.3 157.6,154.3 	"/>
	<polygon class="st3" points="0,150.6 0,105.9 45.9,96.3 45.9,154.3 	"/>
	<polygon class="st1" points="157.6,96.3 151.3,95.4 146.4,95.4 56.7,95.4 50.5,95.9 45.9,96.3 45.9,154.3 77.4,156 124.3,156 
		157.6,154.3 	"/>
	<polygon class="st2" points="157.6,131.3 203.5,132.9 203.5,105.9 157.6,96.3 	"/>
	<polygon class="st2" points="0,132.9 45.9,131.3 45.9,96.3 0,105.9 	"/>
	<polygon class="st4" points="45.9,131.3 157.6,131.3 157.6,96.3 151.3,95.4 56.7,95.4 50.5,95.9 45.9,96.3 	"/>
	<g>
		<polygon class="st4" points="0,111.8 0,115.5 45.9,108.2 45.9,104 		"/>
		<rect x="45.9" y="104" class="st2" width="111.7" height="4.2"/>
		<polygon class="st4" points="157.6,104 157.6,108.2 203.5,115.5 203.5,111.7 		"/>
	</g>
	<polygon class="st3" points="102.5,20.5 104,20.1 105.1,19.1 105.5,17.5 105.2,15.3 103.8,14.2 102.7,14.2 103.8,15.4 104.1,17.5 
		103,18.7 101.3,19.1 100.4,18.5 99.8,17.8 99.5,16.7 99.7,15.3 100.9,14.2 99.2,14.6 98.6,15.6 98.2,16.6 98.4,17.6 99,19.3 
		100.2,20.1 101.3,20.7 101.4,20.7 101.4,23.1 100.4,23.5 99.6,24.9 99.8,26.5 101.1,27.5 101.4,27.5 101.4,31.5 102.3,31.5 
		102.3,27.5 102.7,27.5 103.9,26.5 104.2,24.9 103.4,23.5 102.3,23.1 102.3,20.5 	"/>
	<g>
		<polygon class="st2" points="82.8,131.3 82.8,119.8 84.1,117.9 86.8,116.2 89.3,116.2 92.2,117.9 93.7,119.8 93.7,131.3 		"/>
		<polygon class="st2" points="96.6,131.3 96.6,119.8 97.9,117.9 100.6,116.2 103.2,116.2 106,117.9 107.5,119.8 107.5,131.3 		"/>
		<polygon class="st2" points="110.4,131.3 110.4,119.8 111.7,117.9 114.4,116.2 117,116.2 119.9,117.9 121.3,119.8 121.3,131.3 		
			"/>
		<polygon class="st2" points="124.2,131.3 124.2,119.8 125.6,117.9 128.2,116.2 130.8,116.2 133.7,117.9 135.1,119.8 135.1,131.3 
					"/>
		<polygon class="st2" points="138.1,131.3 138.1,119.8 139.4,117.9 142.1,116.2 144.6,116.2 147.5,117.9 148.9,119.8 148.9,131.3 
					"/>
		<polygon class="st2" points="68.7,131.3 68.7,119.8 70,117.9 72.7,116.2 75.2,116.2 78.1,117.9 79.5,119.8 79.5,131.3 		"/>
		<polygon class="st2" points="54.5,131.3 54.5,119.8 55.8,117.9 58.5,116.2 61.1,116.2 64,117.9 65.4,119.8 65.4,131.3 		"/>
	</g>
</g>
</svg>
