<?xml version="1.0" encoding="utf-8"?>
<!-- Generator: Adobe Illustrator 28.1.0, SVG Export Plug-In . SVG Version: 6.00 Build 0)  -->
<svg version="1.1" id="Capa_1" xmlns="http://www.w3.org/2000/svg" xmlns:xlink="http://www.w3.org/1999/xlink" x="0px" y="0px"
	 viewBox="0 0 203.5 162.8" style="enable-background:new 0 0 203.5 162.8;" xml:space="preserve">
<style type="text/css">
	.st0{fill:#33915C;}
	.st1{fill:#F39D96;}
	.st2{fill:#AB5243;}
	.st3{fill:#E6332A;}
	.st4{fill:#2C80C3;}
	.st5{fill:#F8F5E0;}
	.st6{fill:#FDC300;}
</style>
<rect class="st0" width="203.5" height="162.8"/>
<g>
	<polyline class="st1" points="101.8,137.5 105.6,137.5 110.6,135.8 115,130.8 118,125.2 118,117.6 134.4,106.2 134.4,57.8 
		118.9,47 118.7,41.8 116.7,34.7 113.8,29.6 109.2,26.3 104.5,25.3 101.8,25.3 101.8,25.3 99,25.3 94.3,26.3 89.8,29.6 86.8,34.7 
		84.8,41.8 84.6,47 69.1,57.8 69.1,106.2 85.5,117.6 85.5,125.2 88.5,130.8 92.9,135.8 97.9,137.5 101.8,137.5 	"/>
	<polygon class="st1" points="126.5,58.7 101.8,58.7 101.4,58.7 77.1,58.7 69.1,57.8 69.1,106.2 77.2,109.7 101.4,110.5 
		101.4,110.5 101.6,110.5 101.8,110.5 101.8,110.5 126.3,109.7 134.4,106.2 134.4,57.8 	"/>
	<polygon class="st2" points="118.9,47 116.1,47.6 101.8,47.6 101,47.6 87.4,47.6 84.6,47 69.1,57.8 77.1,58.7 101,58.7 101.8,58.7 
		126.5,58.7 134.4,57.8 	"/>
	<polygon class="st2" points="98.5,107.5 78.9,106.8 78.9,61.4 98.5,61.4 	"/>
	<polygon class="st2" points="75.8,61.7 70.1,61 70.1,103.9 75.7,106.2 	"/>
	<g>
		<polygon class="st3" points="84.3,68.1 83.1,68.5 81.5,67.7 80,65.1 80,63.2 80.9,62.4 82.5,63.1 84.3,65.2 84.7,66.9 		"/>
		<polygon class="st0" points="92.9,68.1 94.1,68.5 95.7,67.7 97.2,65.1 97.2,63.2 96.3,62.4 94.7,63.1 92.9,65.2 92.6,66.9 		"/>
		<polygon class="st1" points="92.9,77.5 94.1,77.2 95.7,78 97.2,80.6 97.2,82.5 96.3,83.2 94.7,82.6 92.9,80.5 92.6,78.8 		"/>
		<polygon class="st4" points="84.3,77.5 83.1,77.2 81.5,78 80,80.6 80,82.5 80.9,83.2 82.5,82.6 84.3,80.5 84.7,78.8 		"/>
		<polygon class="st5" points="88.3,66.8 87.2,66.5 86.2,65.5 86.2,63.9 87.1,62.9 88.3,62.4 89.6,62.8 90.5,64.1 90.2,65.5 
			89.7,66 89.1,66.5 		"/>
		<polygon class="st5" points="88.6,83.1 87.5,82.9 86.5,81.8 86.5,80.3 87.4,79.2 88.6,78.8 89.9,79.2 90.8,80.5 90.6,81.8 
			90,82.4 89.4,82.8 		"/>
		<polygon class="st5" points="81.6,74.6 80.5,74.4 79.5,73.3 79.5,71.8 80.3,70.7 81.6,70.3 82.9,70.7 83.8,72 83.5,73.3 
			82.9,73.9 82.4,74.4 		"/>
		<polygon class="st5" points="95.3,74.6 94.2,74.4 93.2,73.3 93.2,71.8 94.1,70.7 95.3,70.3 96.7,70.7 97.5,72 97.3,73.3 
			96.7,73.9 96.1,74.4 		"/>
		<polygon class="st6" points="88.4,76 86.7,75.6 85.1,73.9 85.1,71.5 86.5,69.8 88.4,69.1 90.5,69.7 91.9,71.8 91.5,73.9 
			90.6,74.8 89.7,75.6 		"/>
	</g>
	<g>
		<polygon class="st1" points="84.3,91.1 83.1,91.5 81.5,90.6 80,88.1 80,86.1 80.9,85.4 82.5,86.1 84.3,88.2 84.7,89.9 		"/>
		<polygon class="st0" points="92.9,91.1 94.1,91.5 95.7,90.6 97.2,88.1 97.2,86.1 96.3,85.4 94.7,86.1 92.9,88.2 92.6,89.9 		"/>
		<polygon class="st6" points="92.9,100.5 94.1,100.2 95.7,101 97.2,103.6 97.2,105.5 96.3,106.2 94.7,105.6 92.9,103.5 92.6,101.7 
					"/>
		<polygon class="st3" points="84.3,100.5 83.1,100.2 81.5,101 80,103.6 80,105.5 80.9,106.2 82.5,105.6 84.3,103.5 84.7,101.7 		
			"/>
		<polygon class="st5" points="88.3,89.7 87.2,89.5 86.2,88.4 86.2,86.9 87.1,85.8 88.3,85.4 89.6,85.8 90.5,87.1 90.2,88.4 
			89.7,89 89.1,89.5 		"/>
		<polygon class="st5" points="88.6,106.1 87.5,105.9 86.5,104.8 86.5,103.3 87.4,102.2 88.6,101.8 89.9,102.2 90.8,103.4 
			90.6,104.8 90,105.3 89.4,105.8 		"/>
		<polygon class="st5" points="81.6,97.6 80.5,97.4 79.5,96.3 79.5,94.8 80.3,93.7 81.6,93.3 82.9,93.7 83.8,95 83.5,96.3 
			82.9,96.9 82.4,97.3 		"/>
		<polygon class="st5" points="95.3,97.6 94.2,97.4 93.2,96.3 93.2,94.8 94.1,93.7 95.3,93.3 96.7,93.7 97.5,95 97.3,96.3 
			96.7,96.9 96.1,97.3 		"/>
		<polygon class="st4" points="88.4,98.9 86.7,98.6 85.1,96.9 85.1,94.5 86.5,92.8 88.4,92.1 90.5,92.7 91.9,94.8 91.5,96.9 
			90.6,97.8 89.7,98.5 		"/>
	</g>
	<g>
		<polygon class="st3" points="71.8,67.7 71.4,68 71,67.1 70.6,64.6 70.6,62.8 70.8,62.2 71.3,62.9 71.8,65 71.9,66.6 		"/>
		<polygon class="st0" points="74.2,68.2 74.5,68.7 74.9,68 75.3,65.7 75.3,63.9 75.1,63.1 74.6,63.6 74.2,65.5 74,67.1 		"/>
		<polygon class="st6" points="74.2,77 74.5,76.8 74.9,77.6 75.3,80.2 75.3,81.9 75.1,82.6 74.6,81.9 74.2,79.8 74,78.1 		"/>
		<polygon class="st4" points="71.8,76.5 71.4,76.1 71,76.8 70.6,79.1 70.6,80.8 70.8,81.6 71.3,81.1 71.8,79.2 71.9,77.6 		"/>
		<polygon class="st5" points="72.8,66.7 72.6,66.4 72.3,65.3 72.3,63.9 72.5,63 72.8,62.6 73.2,63.1 73.5,64.3 73.4,65.6 
			73.2,66.1 73.1,66.5 		"/>
		<polygon class="st5" points="72.9,81.9 72.7,81.7 72.4,80.6 72.4,79.2 72.6,78.2 72.9,77.9 73.3,78.4 73.6,79.6 73.5,80.9 
			73.3,81.3 73.2,81.8 		"/>
		<polygon class="st5" points="71,73.6 70.7,73.3 70.4,72.2 70.4,70.8 70.7,69.9 71,69.6 71.4,70 71.6,71.3 71.5,72.5 71.4,73 
			71.2,73.4 		"/>
		<polygon class="st5" points="74.8,74.5 74.5,74.2 74.2,73.1 74.2,71.7 74.5,70.8 74.8,70.4 75.2,70.9 75.4,72.1 75.3,73.4 
			75.2,73.9 75,74.3 		"/>
		<polygon class="st1" points="72.9,75.3 72.4,74.8 72,73.2 72,70.9 72.4,69.4 72.9,68.9 73.5,69.6 73.8,71.6 73.7,73.6 73.5,74.3 
			73.2,75 		"/>
	</g>
	<g>
		<polygon class="st1" points="71.8,89.2 71.4,89.4 71,88.5 70.6,86 70.6,84.2 70.8,83.6 71.3,84.3 71.8,86.4 71.9,88 		"/>
		<polygon class="st0" points="74.2,89.7 74.5,90.1 74.9,89.4 75.3,87.1 75.3,85.3 75.1,84.6 74.6,85.1 74.2,86.9 74,88.5 		"/>
		<polygon class="st4" points="74.2,98.5 74.5,98.2 74.9,99.1 75.3,101.6 75.3,103.4 75.1,104 74.6,103.3 74.2,101.2 74,99.6 		"/>
		<polygon class="st6" points="71.8,97.9 71.4,97.5 71,98.2 70.6,100.5 70.6,102.3 70.8,103 71.3,102.5 71.8,100.7 71.9,99.1 		"/>
		<polygon class="st5" points="72.8,88.1 72.6,87.8 72.3,86.8 72.3,85.3 72.5,84.4 72.8,84.1 73.2,84.5 73.5,85.8 73.4,87 
			73.2,87.5 73.1,87.9 		"/>
		<polygon class="st5" points="72.9,103.4 72.7,103.1 72.4,102 72.4,100.6 72.6,99.7 72.9,99.3 73.3,99.8 73.6,101.1 73.5,102.3 
			73.3,102.8 73.2,103.2 		"/>
		<polygon class="st5" points="71,95 70.7,94.8 70.4,93.7 70.4,92.3 70.7,91.3 71,91 71.4,91.4 71.6,92.7 71.5,93.9 71.4,94.4 
			71.2,94.8 		"/>
		<polygon class="st5" points="74.8,95.9 74.5,95.6 74.2,94.6 74.2,93.1 74.5,92.2 74.8,91.9 75.2,92.3 75.4,93.6 75.3,94.8 
			75.2,95.3 75,95.7 		"/>
		<polygon class="st3" points="72.9,96.7 72.4,96.3 72,94.6 72,92.4 72.4,90.8 72.9,90.3 73.5,91 73.8,93 73.7,95 73.5,95.8 
			73.2,96.4 		"/>
	</g>
	<polygon class="st2" points="105.1,107.5 124.7,106.8 124.7,61.4 105.1,61.4 	"/>
	<polygon class="st2" points="127.8,61.7 133.4,61 133.4,103.9 127.9,106.2 	"/>
	<g>
		<polygon class="st6" points="84.3,55 84.3,53.7 85.4,52.8 86.8,53.1 87.4,53.9 86.2,55.3 		"/>
		<polygon class="st6" points="92.3,50.1 92.3,48.8 93.4,47.9 94.8,48.2 95.4,49 94.2,50.4 		"/>
		<polygon class="st6" points="94.5,55 94.5,53.7 95.6,52.8 96.9,53.1 97.5,53.9 96.3,55.3 		"/>
		<polygon class="st6" points="78.7,53.2 77.4,52.8 76.5,53.2 76,54.1 76,55.5 77.8,54.6 		"/>
		<polygon class="st6" points="80.6,50.7 80.4,49.2 81.3,48.4 82.3,47.9 83.5,48.8 82.3,49.8 		"/>
		<polygon class="st6" points="119.2,55 119.2,53.7 118.1,52.8 116.7,53.1 116.2,53.9 117.3,55.3 		"/>
		<polygon class="st6" points="111.2,50.1 111.2,48.8 110.1,47.9 108.7,48.2 108.1,49 109.3,50.4 		"/>
		<polygon class="st6" points="109.1,55 109.1,53.7 107.9,52.8 106.6,53.1 106,53.9 107.2,55.3 		"/>
		<polygon class="st6" points="124.9,53.2 126.1,52.8 127,53.2 127.5,54.1 127.5,55.5 125.8,54.6 		"/>
		<polygon class="st6" points="122.9,50.7 123.2,49.2 122.2,48.4 121.2,47.9 120,48.8 121.2,49.8 		"/>
	</g>
	<polygon class="st2" points="99.8,110.4 101.8,110.5 126.3,109.7 134.4,106.2 118,117.6 114.6,119.5 101.8,120.9 88.9,119.5 
		85.5,117.6 69.1,106.2 77.2,109.7 	"/>
	<g>
		<polygon class="st3" points="119.2,68.1 120.4,68.5 122,67.7 123.5,65.1 123.5,63.2 122.6,62.4 121,63.1 119.2,65.2 118.8,66.9 		
			"/>
		<polygon class="st0" points="110.6,68.1 109.4,68.5 107.8,67.7 106.3,65.1 106.3,63.2 107.2,62.4 108.8,63.1 110.6,65.2 111,66.9 
					"/>
		<polygon class="st1" points="110.6,77.5 109.4,77.2 107.8,78 106.3,80.6 106.3,82.5 107.2,83.2 108.8,82.6 110.6,80.5 111,78.8 		
			"/>
		<polygon class="st4" points="119.2,77.5 120.4,77.2 122,78 123.5,80.6 123.5,82.5 122.6,83.2 121,82.6 119.2,80.5 118.8,78.8 		
			"/>
		<polygon class="st5" points="115.3,66.8 116.3,66.5 117.3,65.5 117.3,63.9 116.5,62.9 115.3,62.4 113.9,62.8 113.1,64.1 
			113.3,65.5 113.9,66 114.4,66.5 		"/>
		<polygon class="st5" points="114.9,83.1 116,82.9 117,81.8 117,80.3 116.1,79.2 114.9,78.8 113.6,79.2 112.7,80.5 113,81.8 
			113.5,82.4 114.1,82.8 		"/>
		<polygon class="st5" points="122,74.6 123.1,74.4 124,73.3 124,71.8 123.2,70.7 122,70.3 120.6,70.7 119.8,72 120,73.3 
			120.6,73.9 121.1,74.4 		"/>
		<polygon class="st5" points="108.2,74.6 109.3,74.4 110.3,73.3 110.3,71.8 109.4,70.7 108.2,70.3 106.9,70.7 106,72 106.3,73.3 
			106.8,73.9 107.4,74.4 		"/>
		<polygon class="st6" points="115.1,76 116.8,75.6 118.4,73.9 118.4,71.5 117,69.8 115.1,69.1 113,69.7 111.6,71.8 112.1,73.9 
			112.9,74.8 113.8,75.6 		"/>
	</g>
	<g>
		<polygon class="st1" points="119.2,91.1 120.4,91.5 122,90.6 123.5,88.1 123.5,86.1 122.6,85.4 121,86.1 119.2,88.2 118.8,89.9 		
			"/>
		<polygon class="st0" points="110.6,91.1 109.4,91.5 107.8,90.6 106.3,88.1 106.3,86.1 107.2,85.4 108.8,86.1 110.6,88.2 111,89.9 
					"/>
		<polygon class="st6" points="110.6,100.5 109.4,100.2 107.8,101 106.3,103.6 106.3,105.5 107.2,106.2 108.8,105.6 110.6,103.5 
			111,101.7 		"/>
		<polygon class="st3" points="119.2,100.5 120.4,100.2 122,101 123.5,103.6 123.5,105.5 122.6,106.2 121,105.6 119.2,103.5 
			118.8,101.7 		"/>
		<polygon class="st5" points="115.3,89.7 116.3,89.5 117.3,88.4 117.3,86.9 116.5,85.8 115.3,85.4 113.9,85.8 113.1,87.1 
			113.3,88.4 113.9,89 114.4,89.5 		"/>
		<polygon class="st5" points="114.9,106.1 116,105.9 117,104.8 117,103.3 116.1,102.2 114.9,101.8 113.6,102.2 112.7,103.4 
			113,104.8 113.5,105.3 114.1,105.8 		"/>
		<polygon class="st5" points="122,97.6 123.1,97.4 124,96.3 124,94.8 123.2,93.7 122,93.3 120.6,93.7 119.8,95 120,96.3 
			120.6,96.9 121.1,97.3 		"/>
		<polygon class="st5" points="108.2,97.6 109.3,97.4 110.3,96.3 110.3,94.8 109.4,93.7 108.2,93.3 106.9,93.7 106,95 106.3,96.3 
			106.8,96.9 107.4,97.3 		"/>
		<polygon class="st4" points="115.1,98.9 116.8,98.6 118.4,96.9 118.4,94.5 117,92.8 115.1,92.1 113,92.7 111.6,94.8 112.1,96.9 
			112.9,97.8 113.8,98.5 		"/>
	</g>
	<g>
		<polygon class="st3" points="131.8,67.7 132.1,68 132.5,67.1 133,64.6 133,62.8 132.7,62.2 132.3,62.9 131.8,65 131.7,66.6 		"/>
		<polygon class="st0" points="129.4,68.2 129.1,68.7 128.6,68 128.2,65.7 128.2,63.9 128.4,63.1 128.9,63.6 129.4,65.5 129.5,67.1 
					"/>
		<polygon class="st6" points="129.4,77 129.1,76.8 128.6,77.6 128.2,80.2 128.2,81.9 128.4,82.6 128.9,81.9 129.4,79.8 129.5,78.1 
					"/>
		<polygon class="st4" points="131.8,76.5 132.1,76.1 132.5,76.8 133,79.1 133,80.8 132.7,81.6 132.3,81.1 131.8,79.2 131.7,77.6 		
			"/>
		<polygon class="st5" points="130.7,66.7 131,66.4 131.2,65.3 131.2,63.9 131,63 130.7,62.6 130.3,63.1 130.1,64.3 130.1,65.6 
			130.3,66.1 130.4,66.5 		"/>
		<polygon class="st5" points="130.6,81.9 130.9,81.7 131.1,80.6 131.1,79.2 130.9,78.2 130.6,77.9 130.2,78.4 130,79.6 130,80.9 
			130.2,81.3 130.4,81.8 		"/>
		<polygon class="st5" points="132.5,73.6 132.8,73.3 133.1,72.2 133.1,70.8 132.9,69.9 132.5,69.6 132.2,70 131.9,71.3 132,72.5 
			132.1,73 132.3,73.4 		"/>
		<polygon class="st5" points="128.7,74.5 129,74.2 129.3,73.1 129.3,71.7 129.1,70.8 128.7,70.4 128.3,70.9 128.1,72.1 128.2,73.4 
			128.3,73.9 128.5,74.3 		"/>
		<polygon class="st1" points="130.6,75.3 131.1,74.8 131.5,73.2 131.5,70.9 131.2,69.4 130.6,68.9 130.1,69.6 129.7,71.6 
			129.8,73.6 130,74.3 130.3,75 		"/>
	</g>
	<g>
		<polygon class="st1" points="131.8,89.2 132.1,89.4 132.5,88.5 133,86 133,84.2 132.7,83.6 132.3,84.3 131.8,86.4 131.7,88 		"/>
		<polygon class="st0" points="129.4,89.7 129.1,90.1 128.6,89.4 128.2,87.1 128.2,85.3 128.4,84.6 128.9,85.1 129.4,86.9 
			129.5,88.5 		"/>
		<polygon class="st4" points="129.4,98.5 129.1,98.2 128.6,99.1 128.2,101.6 128.2,103.4 128.4,104 128.9,103.3 129.4,101.2 
			129.5,99.6 		"/>
		<polygon class="st6" points="131.8,97.9 132.1,97.5 132.5,98.2 133,100.5 133,102.3 132.7,103 132.3,102.5 131.8,100.7 
			131.7,99.1 		"/>
		<polygon class="st5" points="130.7,88.1 131,87.8 131.2,86.8 131.2,85.3 131,84.4 130.7,84.1 130.3,84.5 130.1,85.8 130.1,87 
			130.3,87.5 130.4,87.9 		"/>
		<polygon class="st5" points="130.6,103.4 130.9,103.1 131.1,102 131.1,100.6 130.9,99.7 130.6,99.3 130.2,99.8 130,101.1 
			130,102.3 130.2,102.8 130.4,103.2 		"/>
		<polygon class="st5" points="132.5,95 132.8,94.8 133.1,93.7 133.1,92.3 132.9,91.3 132.5,91 132.2,91.4 131.9,92.7 132,93.9 
			132.1,94.4 132.3,94.8 		"/>
		<polygon class="st5" points="128.7,95.9 129,95.6 129.3,94.6 129.3,93.1 129.1,92.2 128.7,91.9 128.3,92.3 128.1,93.6 128.2,94.8 
			128.3,95.3 128.5,95.7 		"/>
		<polygon class="st3" points="130.6,96.7 131.1,96.3 131.5,94.6 131.5,92.4 131.2,90.8 130.6,90.3 130.1,91 129.7,93 129.8,95 
			130,95.8 130.3,96.4 		"/>
	</g>
	<g>
		<polygon class="st2" points="86.5,46.2 86.5,41.8 88.3,36.1 91.9,36.7 94.9,36.7 93.8,41.2 93.8,46.2 		"/>
		<polygon class="st2" points="91.7,35.5 91.7,32.5 94.5,29.8 93.8,33 		"/>
		<polygon class="st2" points="96,36.1 96.1,32.9 98.5,30.1 98.5,33.5 		"/>
		<polygon class="st2" points="89.9,32.7 89.9,35.3 88.3,34.8 		"/>
		<polygon class="st2" points="90.3,32.2 92.3,30.1 91,29.8 		"/>
		<polygon class="st2" points="94.5,34 93.1,35.8 94.5,36.1 		"/>
		<polygon class="st2" points="95.4,32 95.4,30.1 96.7,30.6 		"/>
		<polygon class="st2" points="96.4,42.1 97.2,37.8 101.8,37.8 100.8,42.1 101.8,46.5 96.4,46.5 		"/>
		<polygon class="st2" points="100,33.1 100,31 101.4,31 		"/>
		<polygon class="st2" points="100,34.2 99.1,36.1 100.7,36.1 		"/>
	</g>
	<g>
		<polygon class="st2" points="117.6,46.2 117.6,41.8 115.8,36.1 112.3,36.7 109.3,36.7 110.3,41.2 110.3,46.2 		"/>
		<polygon class="st2" points="112.4,35.5 112.4,32.5 109.7,29.8 110.3,33 		"/>
		<polygon class="st2" points="108.2,36.1 108,32.9 105.7,30.1 105.7,33.5 		"/>
		<polygon class="st2" points="114.3,32.7 114.3,35.3 115.8,34.8 		"/>
		<polygon class="st2" points="113.8,32.2 111.8,30.1 113.1,29.8 		"/>
		<polygon class="st2" points="109.7,34 111.1,35.8 109.7,36.1 		"/>
		<polygon class="st2" points="108.8,32 108.8,30.1 107.5,30.6 		"/>
		<polygon class="st2" points="107.8,42.1 106.9,37.8 102.4,37.8 103.4,42.1 102.4,46.5 107.8,46.5 		"/>
		<polygon class="st2" points="104.2,33.1 104.2,31 102.7,31 		"/>
		<polygon class="st2" points="104.1,34.2 105.1,36.1 103.5,36.1 		"/>
	</g>
	<g>
		<polygon class="st2" points="88,120.6 88,124.8 89.6,129.4 92.8,129 95.6,129 94.6,125.4 94.6,121.3 		"/>
		<polygon class="st2" points="92.7,129.9 92.7,132.3 95.2,134.5 94.6,131.9 		"/>
		<polygon class="st2" points="96.6,129.4 96.7,132 98.8,134.2 98.8,131.6 		"/>
		<polygon class="st2" points="91,132.2 91,130.1 89.6,130.4 		"/>
		<polygon class="st2" points="91.4,132.6 93.2,134.2 92.1,134.5 		"/>
		<polygon class="st2" points="95.2,131.2 93.9,129.7 95.2,129.4 		"/>
		<polygon class="st2" points="96,132.7 96,134.2 97.2,133.8 		"/>
		<polygon class="st2" points="96.9,124.6 97.7,128.1 101.8,128.1 100.9,124.6 101.8,121.9 96.9,121.1 		"/>
		<polygon class="st2" points="100.2,131.8 100.2,133.5 101.5,133.5 		"/>
		<polygon class="st2" points="100.2,130.9 99.3,129.4 100.8,129.4 		"/>
	</g>
	<g>
		<polygon class="st2" points="116.2,120.6 116.2,124.8 114.5,129.4 111.3,129 108.6,129 109.5,125.4 109.5,121.3 		"/>
		<polygon class="st2" points="111.5,129.9 111.5,132.3 109,134.5 109.5,131.9 		"/>
		<polygon class="st2" points="107.6,129.4 107.5,132 105.3,134.2 105.3,131.6 		"/>
		<polygon class="st2" points="113.1,132.2 113.1,130.1 114.5,130.4 		"/>
		<polygon class="st2" points="112,132.6 110.2,134.2 111.3,134.5 		"/>
		<polygon class="st2" points="109,131.2 110.2,129.7 109,129.4 		"/>
		<polygon class="st2" points="108.2,132.7 108.2,134.2 107,133.8 		"/>
		<polygon class="st2" points="107.3,124.6 106.5,128.1 102.4,128.1 103.3,124.6 102.4,121.9 107.3,121.1 		"/>
		<polygon class="st2" points="104,131.8 104,133.5 102.7,133.5 		"/>
		<polygon class="st2" points="103.9,130.9 104.8,129.4 103.3,129.4 		"/>
	</g>
	<polygon class="st2" points="102.1,32 101.1,33.5 102.1,35.5 102.7,33.6 	"/>
	<rect x="99.7" class="st1" width="4.2" height="27.8"/>
</g>
</svg>
