<?xml version="1.0" encoding="UTF-8"?>
<svg id="Capa_1" data-name="Capa 1" xmlns="http://www.w3.org/2000/svg" viewBox="0 0 203.46 162.77">
  <defs>
    <style>
      .cls-1 {
        fill: #f39d96;
      }

      .cls-1, .cls-2, .cls-3, .cls-4, .cls-5, .cls-6 {
        stroke-width: 0px;
      }

      .cls-2 {
        fill: #33915c;
      }

      .cls-3 {
        fill: #2c80c3;
      }

      .cls-4 {
        fill: #ab5243;
      }

      .cls-5 {
        fill: #7e6a25;
      }

      .cls-6 {
        fill: #fdc300;
      }
    </style>
  </defs>
  <rect class="cls-3" width="203.46" height="162.77"/>
  <g>
    <polygon class="cls-4" points="78.44 56.87 72.91 58.21 66.1 60.17 64.35 61.93 65.79 63.89 76.39 64.82 102.6 63.89 104.04 61.93 102.29 60.17 95.48 58.21 89.95 56.87 84.2 56.46 78.44 56.87"/>
    <polygon class="cls-1" points="121.51 85.98 113.12 74.85 109.01 78.11 101.82 80.5 91.9 82.04 84.2 82.56 76.49 82.04 66.57 80.5 59.38 78.11 55.27 74.85 46.88 85.98 41.06 104.81 43.12 126.37 52.53 140.58 68.96 148.96 81.12 151.02 84.2 151.02 87.28 151.02 99.43 148.96 115.86 140.58 125.27 126.37 127.33 104.81 121.51 85.98"/>
    <polygon class="cls-6" points="108.84 62.7 105.76 66.98 98.4 70.06 89.95 70.92 84.2 71.26 78.44 70.92 69.99 70.06 62.63 66.98 59.55 62.7 55.27 74.85 59.38 78.11 66.57 80.5 76.49 82.04 84.2 82.56 91.9 82.04 101.82 80.5 109.01 78.11 113.12 74.85 108.84 62.7"/>
    <path class="cls-5" d="M107.24,59.86l-4.23-2.17-11.76-2.48-7.05-.41-7.05.41-11.76,2.48-4.23,2.17-1.6,2.84,3.08,4.28,7.36,3.08,8.45.86,5.76.34,5.76-.34,8.45-.86,7.36-3.08,3.08-4.28-1.6-2.84ZM102.6,63.89l-6.08,2.48-12.32,1.44-12.32-1.44-6.08-2.48-1.44-1.96,1.75-1.75,6.81-1.96,5.53-1.34,5.76-.41,5.76.41,5.53,1.34,6.81,1.96,1.75,1.75-1.44,1.96Z"/>
    <polygon class="cls-2" points="99.92 62.7 91.46 61.82 84.2 61.82 76.93 61.82 68.47 62.7 65.27 63.18 65.79 63.89 71.87 66.36 84.2 67.81 96.52 66.36 102.6 63.89 103.12 63.18 99.92 62.7"/>
    <polygon class="cls-6" points="88.56 63.03 92.7 64.82 96.04 64.82 99.73 63.93 129.21 29.48 162.4 17.29 158.14 11.75 124.11 24.38 88.56 63.03"/>
    <polygon class="cls-4" points="109.01 78.11 105.14 79.4 111.85 94.43 113.12 112.94 107.63 131.54 96.07 141.98 79.19 148.2 68.96 148.96 81.12 151.02 84.2 151.02 87.28 151.02 99.43 148.96 115.86 140.58 125.27 126.37 127.33 104.81 121.51 85.98 113.12 74.85 109.01 78.11"/>
    <polygon class="cls-5" points="95.15 70.39 97.39 81.19 101.82 80.5 105.14 79.4 109.01 78.11 113.12 74.85 108.84 62.7 105.76 66.98 98.4 70.06 95.15 70.39"/>
    <polygon class="cls-6" points="89.88 68.41 91.05 70.43 95.15 70.39 98.4 70.06 105.76 66.98 108.07 63.77 107.41 62.13 105.91 62.13 104.59 63.76 103.12 65.58 97.38 67.81 94.81 68.13 92.41 68.37 89.88 68.41"/>
  </g>
</svg>