<?xml version="1.0" encoding="utf-8"?>
<!-- Generator: Adobe Illustrator 28.1.0, SVG Export Plug-In . SVG Version: 6.00 Build 0)  -->
<svg version="1.1" id="Capa_1" xmlns="http://www.w3.org/2000/svg" xmlns:xlink="http://www.w3.org/1999/xlink" x="0px" y="0px"
	 viewBox="0 0 203.5 162.8" style="enable-background:new 0 0 203.5 162.8;" xml:space="preserve">
<style type="text/css">
	.st0{fill:#33915C;}
	.st1{fill:#AB5243;}
	.st2{fill:#601313;}
	.st3{fill:#F39D96;}
</style>
<rect class="st0" width="203.5" height="162.8"/>
<g>
	<polygon class="st1" points="138.2,41.8 88.9,137.6 94,141.8 99.6,144.1 141.3,46.8 	"/>
	<polygon class="st2" points="62.2,131.2 68.1,135.4 76.2,137.9 83.1,138.5 88.9,137.6 94,141.8 99.6,144.1 96.4,145.3 88.1,145.3 
		78.6,144.1 71.2,141.4 66.4,138.3 63.1,133.9 	"/>
	<polygon class="st3" points="138.2,41.8 131.1,41.8 62.2,131.2 68.1,135.4 76.2,137.9 83.1,138.5 88.9,137.6 	"/>
	<polygon class="st3" points="100.4,142.3 101.8,144.4 105.2,147 106,148.3 106,149.4 104.6,149.7 101.7,148.5 98.2,146.3 
		96.4,145.3 99.6,144.1 	"/>
	<polygon class="st3" points="72.9,142 75.2,144.1 77.7,145.3 78.8,145.3 79.4,144.2 78.6,144.1 	"/>
	<polygon class="st1" points="131.6,49 136.1,42.5 133.6,40 129.5,39 124.4,39 118.6,39.5 114.7,38.7 110.9,36.8 107.7,33.2 
		104.4,28.4 100.2,22.4 95.9,19.1 91,16.6 85.7,15.5 83.9,30.3 88.9,31.7 93.5,34.2 98.9,39.5 103,44.3 107.7,48.1 111.7,49.4 
		116.5,49.4 121.1,48.5 126.4,48 130.4,48.3 	"/>
	<polygon class="st1" points="69.3,112.7 66.8,135.7 68.8,137 72.1,137.7 74.1,136.6 83,122 79.8,120.7 77.4,124.6 74.4,127.8 
		72.6,128.2 73.4,112.7 71.4,112.4 	"/>
	<polygon class="st1" points="131.6,49 83,122 79.8,120.7 130.4,48.3 	"/>
	<polygon class="st3" points="85.7,15.5 85.3,13.9 83.9,13.1 82.3,13.3 81.3,14.6 80.6,15 76,59.6 76.7,60.9 70.1,112.6 71.4,112.4 
		72.9,112.6 79.5,61.2 80.9,59.9 83.9,30.3 	"/>
	<polygon class="st2" points="87.2,19.3 86.3,23.9 86.3,28.4 90.5,29.3 95.1,32.5 101.1,38.7 106.7,43.9 112.8,47 118.2,47 
		124.7,46 130.2,46.3 131.6,44.9 132.4,42.5 128.6,41.3 124,41.4 118.9,41.8 113.9,41.8 110,39.2 105.7,35 101.4,29.2 97.4,24.5 
		93,21.2 	"/>
	<g>
		<path class="st2" d="M79.5,124.4C79.5,124.4,79.4,124.4,79.5,124.4c-0.4,0-0.6-0.3-0.5-0.6l10.3-91.7c0-0.3,0.3-0.5,0.6-0.5
			c0.3,0,0.5,0.3,0.5,0.6L80,123.9C80,124.2,79.8,124.4,79.5,124.4z"/>
		<path class="st2" d="M81.9,122.1C81.9,122.1,81.9,122.1,81.9,122.1c-0.4,0-0.6-0.3-0.5-0.6l10-88.2c0-0.3,0.3-0.5,0.6-0.5
			c0.3,0,0.5,0.3,0.5,0.6l-10,88.2C82.5,121.9,82.2,122.1,81.9,122.1z"/>
		<path class="st2" d="M84.4,118C84.4,118,84.3,118,84.4,118c-0.4,0-0.6-0.3-0.5-0.6l9.6-82.8c0-0.3,0.3-0.5,0.6-0.5
			c0.3,0,0.5,0.3,0.5,0.6l-9.6,82.8C84.9,117.8,84.6,118,84.4,118z"/>
		<path class="st2" d="M86.9,114.8C86.9,114.8,86.9,114.8,86.9,114.8c-0.4,0-0.6-0.3-0.5-0.6l9.1-77.6c0-0.3,0.3-0.5,0.6-0.5
			c0.3,0,0.5,0.3,0.5,0.6l-9.1,77.6C87.5,114.6,87.2,114.8,86.9,114.8z"/>
		<path class="st2" d="M89.8,110.6C89.8,110.6,89.8,110.6,89.8,110.6c-0.4,0-0.6-0.3-0.5-0.6l8.2-71.4c0-0.3,0.3-0.5,0.6-0.5
			c0.3,0,0.5,0.3,0.5,0.6l-8.2,71.4C90.3,110.4,90.1,110.6,89.8,110.6L89.8,110.6z"/>
		<path class="st2" d="M91.9,106.1C91.9,106.1,91.9,106.1,91.9,106.1c-0.4,0-0.6-0.3-0.5-0.6l7.8-65.1c0-0.3,0.3-0.5,0.6-0.5
			c0.3,0,0.5,0.3,0.5,0.6l-7.8,65.1C92.4,105.9,92.2,106.2,91.9,106.1L91.9,106.1z"/>
		<path class="st2" d="M94.6,102.3C94.6,102.3,94.5,102.3,94.6,102.3c-0.4,0-0.6-0.3-0.5-0.6l7-59.1c0-0.3,0.3-0.5,0.6-0.5
			c0.3,0,0.5,0.3,0.5,0.6l-7,59.1C95.1,102.1,94.8,102.3,94.6,102.3z"/>
		<path class="st2" d="M97.2,98.8C97.2,98.8,97.1,98.8,97.2,98.8c-0.4,0-0.6-0.3-0.5-0.6l6.1-53.8c0-0.3,0.3-0.5,0.6-0.5
			c0.3,0,0.5,0.3,0.5,0.6l-6.1,53.8C97.7,98.6,97.4,98.8,97.2,98.8z"/>
		<path class="st2" d="M99.8,94.7C99.8,94.7,99.7,94.7,99.8,94.7c-0.4,0-0.6-0.3-0.5-0.6l5.5-48.1c0-0.3,0.3-0.5,0.6-0.5
			c0.3,0,0.5,0.3,0.5,0.6l-5.5,48.1C100.3,94.5,100,94.7,99.8,94.7z"/>
		<path class="st2" d="M102.5,90.7C102.5,90.7,102.5,90.7,102.5,90.7c-0.4,0-0.6-0.3-0.5-0.6l4.7-42.5c0-0.3,0.3-0.5,0.6-0.5
			c0.3,0,0.5,0.3,0.5,0.6L103,90.2C103,90.5,102.8,90.7,102.5,90.7z"/>
		<path class="st2" d="M105.2,86.4C105.2,86.4,105.2,86.4,105.2,86.4c-0.4,0-0.6-0.3-0.5-0.6l4.4-37.2c0-0.3,0.3-0.5,0.6-0.5
			c0.3,0,0.5,0.3,0.5,0.6l-4.4,37.2C105.8,86.2,105.5,86.4,105.2,86.4z"/>
		<path class="st2" d="M107.8,82.8C107.8,82.8,107.7,82.8,107.8,82.8c-0.4,0-0.6-0.3-0.5-0.6l4-32.9c0-0.3,0.3-0.5,0.6-0.5
			c0.3,0,0.5,0.3,0.5,0.6l-4,32.9C108.2,82.7,108,82.9,107.8,82.8L107.8,82.8z"/>
		<path class="st2" d="M110.4,78.5C110.4,78.5,110.4,78.5,110.4,78.5c-0.4,0-0.6-0.3-0.5-0.6l3.1-28.6c0-0.3,0.3-0.5,0.6-0.5
			c0.3,0,0.5,0.3,0.5,0.6L111,78.1C110.9,78.3,110.7,78.5,110.4,78.5z"/>
		<path class="st2" d="M112.8,75.2C112.8,75.2,112.7,75.2,112.8,75.2c-0.4,0-0.6-0.3-0.5-0.6l2.9-25.3c0-0.3,0.3-0.5,0.6-0.5
			c0.3,0,0.5,0.3,0.5,0.6l-2.9,25.3C113.3,75,113.1,75.2,112.8,75.2z"/>
		<path class="st2" d="M115.4,71.6C115.4,71.6,115.4,71.6,115.4,71.6c-0.4,0-0.6-0.3-0.5-0.6l2.3-22c0-0.3,0.3-0.5,0.6-0.5
			c0.3,0,0.5,0.3,0.5,0.6l-2.3,22C115.9,71.4,115.7,71.7,115.4,71.6L115.4,71.6z"/>
		<path class="st2" d="M118,67.5C118,67.5,118,67.5,118,67.5c-0.4,0-0.6-0.3-0.5-0.6l1.7-18.2c0-0.3,0.3-0.5,0.6-0.5
			c0.3,0,0.5,0.3,0.5,0.6L118.6,67C118.5,67.3,118.3,67.5,118,67.5z"/>
		<path class="st2" d="M120.3,64.2C120.3,64.2,120.2,64.2,120.3,64.2c-0.4,0-0.6-0.3-0.5-0.6l1.6-15.3c0-0.3,0.3-0.5,0.6-0.5
			c0.3,0,0.5,0.3,0.5,0.6l-1.6,15.3C120.8,64,120.5,64.2,120.3,64.2L120.3,64.2z"/>
		<path class="st2" d="M122.9,60.4C122.9,60.4,122.9,60.4,122.9,60.4c-0.4,0-0.6-0.3-0.5-0.6l1.1-11.7c0-0.3,0.3-0.5,0.6-0.5
			c0.3,0,0.5,0.3,0.5,0.6l-1.1,11.7C123.5,60.2,123.2,60.4,122.9,60.4z"/>
		<path class="st2" d="M126.2,55.8C126.2,55.8,126.1,55.8,126.2,55.8c-0.3,0-0.6-0.3-0.5-0.6l0.2-7.2c0-0.3,0.3-0.5,0.6-0.5
			c0.3,0,0.5,0.3,0.5,0.6l-0.2,7.2C126.7,55.5,126.4,55.8,126.2,55.8z"/>
	</g>
</g>
</svg>
