<?xml version="1.0" encoding="UTF-8"?>
<svg id="Capa_1" data-name="Capa 1" xmlns="http://www.w3.org/2000/svg" viewBox="0 0 203.46 162.77">
  <defs>
    <style>
      .cls-1 {
        fill: #f8f5e0;
      }

      .cls-1, .cls-2, .cls-3, .cls-4 {
        stroke-width: 0px;
      }

      .cls-2 {
        fill: #33915c;
      }

      .cls-3 {
        fill: #7e6a25;
      }

      .cls-4 {
        fill: #fdc300;
      }
    </style>
  </defs>
  <rect class="cls-2" width="203.46" height="162.77"/>
  <g>
    <ellipse class="cls-1" cx="86.89" cy="35.78" rx="26.69" ry="26.79"/>
    <polygon class="cls-4" points="186.94 147.81 172.39 98.79 164.34 83.47 160.13 54.37 154.39 45.56 137.54 25.65 132.56 18.37 125.67 16.07 116.09 20.29 106.9 31.01 100.01 40.96 92.73 52.84 86.34 67.39 73.59 75.05 65.93 81.94 58.27 76.58 53.5 68.54 46.4 64.71 35.68 71.98 28.4 85.39 22.66 99.94 20.19 110.28 17.68 126.74 13.85 147.81 186.94 147.81"/>
    <g>
      <polygon class="cls-3" points="92.35 72.75 100.39 85 108.05 91.51 113.41 91.51 113.41 81.94 126.82 23.35 132.56 18.37 125.67 16.07 116.09 20.29 106.9 31.01 100.01 40.96 92.73 52.84 86.34 67.39 73.59 75.05 84.69 71.6 92.35 72.75"/>
      <polygon class="cls-3" points="40.27 91.51 44.1 75.05 48.54 65.86 46.4 64.71 35.68 71.98 28.4 85.39 22.66 99.94 20.19 110.28 18.48 121.5 38.36 119.09 40.27 91.51"/>
    </g>
    <polygon class="cls-3" points="41.68 119.09 31.49 119.09 11.61 121.5 0 121.5 0 162.77 100 162.77 70.93 125.6 41.68 119.09"/>
    <polygon class="cls-3" points="202.66 158.53 191.56 143.21 155.94 115.64 131.82 115.64 113.06 106.83 93.53 110.66 132.97 126.74 160.54 160.06 167.18 162.77 203.46 162.77 202.66 158.53"/>
    <polygon class="cls-4" points="132.97 126.74 93.53 110.66 76.29 106.83 53.32 106.83 31.49 119.09 41.68 119.09 70.93 125.6 100 162.77 167.18 162.77 160.54 160.06 132.97 126.74"/>
  </g>
</svg>