<?xml version="1.0" encoding="UTF-8"?>
<svg id="Capa_1" data-name="Capa 1" xmlns="http://www.w3.org/2000/svg" viewBox="0 0 203.46 162.77">
  <defs>
    <style>
      .cls-1 {
        fill: #f39d96;
      }

      .cls-1, .cls-2, .cls-3, .cls-4 {
        stroke-width: 0px;
      }

      .cls-2 {
        fill: #f8f5e0;
      }

      .cls-3 {
        fill: #ab5243;
      }

      .cls-4 {
        fill: #fdc300;
      }
    </style>
  </defs>
  <rect class="cls-1" width="203.46" height="162.77"/>
  <g>
    <ellipse class="cls-2" cx="154.85" cy="32.36" rx="26.69" ry="26.79"/>
    <polygon class="cls-3" points="203.46 162.77 195.29 135.24 190.77 126.63 188.41 110.28 185.18 105.34 175.72 94.15 172.92 90.06 169.05 88.77 163.67 91.14 158.51 97.16 154.63 102.76 150.55 109.42 146.95 117.6 139.79 121.9 135.49 125.77 131.19 122.76 128.51 118.24 124.52 116.09 118.5 120.18 114.41 127.71 111.18 135.88 109.8 141.69 108.39 150.94 106.23 162.77 203.46 162.77"/>
    <polygon class="cls-3" points="132.18 162.77 124.01 149 119.49 144.7 117.12 136.53 113.9 134.05 104.43 128.46 101.64 126.42 97.77 125.77 92.39 126.96 87.22 129.97 83.35 132.76 79.27 136.1 75.67 140.18 68.51 142.34 64.21 144.27 59.91 142.77 57.23 140.51 53.24 139.43 47.21 141.48 43.13 145.24 39.9 149.33 38.52 152.23 37.1 156.86 34.95 162.77 132.18 162.77"/>
    <polygon class="cls-3" points="0 162.77 8.17 151.61 12.69 148.12 15.06 141.49 18.28 139.48 27.75 134.94 30.55 133.29 34.42 132.76 39.8 133.72 44.96 136.17 48.83 138.43 52.92 141.14 56.51 144.45 63.67 146.2 67.97 147.77 72.28 146.55 74.96 144.71 78.95 143.84 84.97 145.5 89.06 148.55 92.28 151.87 93.67 154.22 95.08 157.97 97.23 162.77 0 162.77"/>
    <path class="cls-4" d="M173.48,26.43l-13.15-9.16,2.56-1.58,4.75-5.97-1.22-.73-1.22,1.54-5.72,2.11-2.92,2.52h-.43l4.08-5.2h-3.53l-5.78,4.63-1.1,1.9-3.22,1.38-5.85,5.12-5.11,13.52v16.44l-6.88,8.54-67.66-5.55-4.27,2.4-4.17-7.64-7.86-4.27-11.64,5.73-4.23,10.77.73,9.31,3.5,3.49,2-.87-2,4.37,2.04,18.05,10.19,29.11-2.91,4.37,12.81,32.02h9.9l-7.28-3.78-4.02-18.92,1.7-3.78,8.73-25.03,4.95-2.31,8.73,3.48,11.93,4.66,9.61.29,8.23-.42,1.08,27.49-1.26,13.46,3.31,4.88h8.44l-6.25-6.69,1.89-14.84,2.47-3.93.59-16.16,4.5,23.57.59,14.85,4.15,3.2h8.66l-8.66-6.4v-17.46l2.84-4.66.87-22.41,19.97-7.57,4.93-20.38,4.38-16.68-1.95-31.57,4.26-.13,3.04-1.06,4.51.59,3.53-1.79h.97v-2.95l-1.1-3.87ZM39.13,68.28l1.26-5.06,4.52-4.08,3.7,3.8-9.48,5.34Z"/>
  </g>
</svg>