<?xml version="1.0" encoding="utf-8"?>
<!-- Generator: Adobe Illustrator 28.1.0, SVG Export Plug-In . SVG Version: 6.00 Build 0)  -->
<svg version="1.1" id="Capa_1" xmlns="http://www.w3.org/2000/svg" xmlns:xlink="http://www.w3.org/1999/xlink" x="0px" y="0px"
	 viewBox="0 0 203.5 162.8" style="enable-background:new 0 0 203.5 162.8;" xml:space="preserve">
<style type="text/css">
	.st0{fill:#E6332A;}
	.st1{fill:#F8F5E0;}
	.st2{fill:none;}
	.st3{fill:#80BE94;}
	.st4{fill:#2C80C3;}
	.st5{fill:#004259;}
</style>
<rect class="st0" width="203.5" height="162.8"/>
<circle class="st1" cx="104.7" cy="60.7" r="28.4"/>
<g>
	<polygon class="st2" points="79,146.1 79,146.1 81.9,145.9 81.9,145.9 	"/>
	<polygon class="st2" points="123.5,152.2 92,150 130.2,152.6 	"/>
	<polygon class="st2" points="89,145.4 91.6,145.3 89,145.4 	"/>
	<path class="st3" d="M86,119.8l0.3,0.3l0,0.7l0.7,0.1v-2.4l0.2-0.2l0.4,0.3v2.3l0.4-1.5l0.3,1.2v-1.8l0.3-0.4l0.3,0.4v2.4l2.1-0.4
		v4.7l-2.1,0.4v5.5l2.1-0.4v4.7l-2.1,0.4v9.3l2.7-0.2l5.4,0.4v-25l-0.8-1H97v-4.3l0.4-0.4l0.3,0.5v1.8l0.5-1.3l0.4,1.1V115l0.6-0.3
		l0.3,0.4v2.2l1-0.2v-1.1l0.6-1.1l0.8-0.6h1.1l0.6,0.8l0.2,0.6v1.1l1.2-0.1v-2.2l0.6-0.8l0.3,0.6v2l0.6-1.6l0.6,2v-1.4v-1.2l0.4-0.7
		l0.4,0.7V73.2l-5.5,1.2l0,0.5L91,77.4v-0.4l-0.3,0l-4.8,1v41l0,0.1L86,119.8z M102.5,79.2l2.1-0.4v4.7l-2.1,0.4V79.2z M102.5,89.1
		l2.1-0.4v4.7l-2.1,0.4V89.1z M102.5,98.9l2.1-0.4v4.7l-2.1,0.4V98.9z M102.5,108.6l2.1-0.4v4.7l-2.1,0.4V108.6z M98,80.2l2.1-0.4
		v4.7L98,84.9V80.2z M98,90l2.1-0.4v4.7L98,94.7V90z M98,99.9l2.1-0.4v4.7l-2.1,0.4V99.9z M98,109.5l2.1-0.4v4.7l-2.1,0.4V109.5z
		 M93.5,81.1l2.1-0.4v4.7l-2.1,0.4V81.1z M93.5,90.9l2.1-0.4v4.7l-2.1,0.4V90.9z M93.5,100.5l2.1-0.4v4.7l-2.1,0.4V100.5z
		 M93.5,110.4l2.1-0.4v4.7l-2.1,0.4V110.4z M93.5,120.6l2.1-0.4v4.7l-2.1,0.4V120.6z M93.5,130.7l2.1-0.4v4.7l-2.1,0.4V130.7z
		 M88.9,82l2.1-0.4v4.7l-2.1,0.4V82z M88.9,91.6l2.1-0.4v4.7l-2.1,0.4V91.6z M88.9,101.2l2.1-0.4v4.7l-2.1,0.4V101.2z M88.9,111.1
		l2.1-0.4v4.7l-2.1,0.4V111.1z"/>
	<path class="st4" d="M121.1,77.8l-9.2-3v-0.4l-3.8-1.2v41.1l0.3-0.7l0.3,0.7v1.2v1.4l0.4-2l0.4,1.6v-2l0.2-0.6l0.5,0.8v2.2l0.9,0.2
		v-1.1l0.1-0.6l0.5-0.8l0.8,0l0.6,0.6l0.4,1.1v1.1l0.8,0.2v-2.2l0.2-0.4l0.5,0.3v2.1l0.3-1.1l0.4,1.3v-1.8l0.2-0.5l0.3,0.4v4.3
		l0.6,0l-0.6,1v26.8l7,0.9v1.5l1.3-0.1v-12.8l-2.1-0.6v-4.7l2.1,0.6V127l-2.1-0.6v-4.7l2.1,0.6v1h0.2v-0.9l0.4-0.1v-3.1l0.3-0.5
		l-0.2-39.9l-3.7-1.2L121.1,77.8z M111.3,113.3l-2.1-0.6V108l2.1,0.6V113.3z M111.3,103.7l-2.1-0.6v-4.7l2.1,0.6V103.7z M111.3,93.8
		l-2.1-0.6v-4.7l2.1,0.6V93.8z M111.3,83.9l-2.1-0.6v-4.7l2.1,0.6V83.9z M115.8,114.5l-2.1-0.6v-4.7l2.1,0.6V114.5z M115.8,104.9
		l-2.1-0.6v-4.7l2.1,0.6V104.9z M115.8,95.1l-2.1-0.6v-4.7l2.1,0.6V95.1z M115.8,85.2l-2.1-0.6v-4.7l2.1,0.6V85.2z M120.3,136.1
		l-2.1-0.6v-4.7l2.1,0.6V136.1z M120.3,126l-2.1-0.6v-4.7l2.1,0.6V126z M120.3,115.8l-2.1-0.6v-4.7l2.1,0.6V115.8z M120.3,105.9
		l-2.1-0.6v-4.7l2.1,0.6V105.9z M120.3,96.3l-2.1-0.6V91l2.1,0.6V96.3z M120.3,86.5l-2.1-0.6v-4.7l2.1,0.6V86.5z M122.7,82.4
		l2.1,0.6v4.7l-2.1-0.6V82.4z M122.7,92.1l2.1,0.6v4.7l-2.1-0.6V92.1z M122.7,101.7l2.1,0.6v4.7l-2.1-0.6V101.7z M122.7,111.5
		l2.1,0.6v4.7l-2.1-0.6V111.5z"/>
	<polygon class="st3" points="102.5,67.9 103.2,64.4 103.9,67.6 103.9,68.4 104.5,66.9 105.8,66.7 106.5,67.1 106.5,50.9 
		100.5,52.4 100.5,52.4 97,53.2 97,61.9 96.7,62.1 97.3,63.4 97.3,71.2 97.4,71.2 102.5,70 	"/>
	<polygon class="st4" points="107,67.4 107.5,63.4 108.3,65.9 108.3,68 109.1,66.9 110.2,66.9 110.8,67.9 111.2,64.7 111.9,67.7 
		111.9,70.1 114.1,70.8 114.1,63.6 114.7,62.5 114.1,62.3 114.1,55.2 114.7,54.6 114.2,54.4 114.3,53.9 106.5,50.9 106.5,67.1 	"/>
	<polygon class="st5" points="111.9,70.1 108.3,69.4 108.1,73.2 111.9,74.4 111.9,74.8 121.1,77.8 121.8,77.7 125.5,78.9 126.9,77 
		125.3,76.4 125.3,71.9 124.6,69.7 124.3,72.5 123.8,71.8 122.8,71.6 122,72.4 122,70.8 121.4,68.3 120.8,71.1 120.8,73.2 
		114.1,70.8 114.1,70.8 	"/>
	<polygon class="st5" points="111.9,67.7 111.2,64.7 110.8,67.9 110.2,66.9 109.1,66.9 108.3,68 108.3,69.4 111.9,70.1 	"/>
	<polygon class="st5" points="114.1,70.8 114.1,70.8 111.9,70.1 	"/>
	<polygon class="st4" points="91,77.1 91,77.4 102.6,74.9 102.6,74.4 108.1,73.2 108.3,69.4 106.5,69.1 97.4,71.2 91.2,72.7 
		91.2,70.3 90.5,67.4 89.7,71.3 89,70.9 87.6,71.3 87.1,72.8 86.4,68.7 85.7,73.2 85.7,76 84.5,76.3 85.9,78 90.7,77 	"/>
	<polygon class="st4" points="106.5,67.1 106.5,67.1 105.8,66.7 104.5,66.9 103.9,68.4 103.9,67.6 103.2,64.4 102.5,67.9 102.5,70 
		97.4,71.2 106.5,69.1 	"/>
	<polygon class="st4" points="108.3,65.9 107.5,63.4 107,67.4 106.5,67.1 106.5,67.1 106.5,69.1 108.3,69.4 108.3,68 	"/>
	<path class="st4" d="M106.5,38.5l-7.3,2.3l1.1,1.1v3.1l-0.5,0.1l0.6,0.8v6.4l6-1.5V38.5z M104.3,49.4l-1.2,0.6l-1.1-0.5l-0.5-1.4
		l0.4-1.7l1.1-1.1l1.2-0.1l0.8,1l0,1.7L104.3,49.4z"/>
	<polygon class="st4" points="106.5,50.9 100.5,52.4 100.5,52.4 	"/>
	<path class="st5" d="M110.8,52.5v-6.4l0.3-0.7h-0.4v-3.1l1-1.2l-2-1l0,0l-3.3-1.7v12.3L110.8,52.5z M107.6,45.5l1.1-0.4l1.1,0.8
		l0.6,1.6l-0.2,1.7l-0.9,0.9l-1.2-0.2l-0.9-1.3l-0.2-1.8L107.6,45.5z"/>
	<polygon class="st5" points="108.4,38.5 107.7,36.7 107.4,35.5 106.5,35.5 106.5,33.2 107.4,32.3 107.4,31.5 107.2,31.1 
		106.2,30.2 106.9,29.9 107.2,29.4 107.2,28.9 106.2,28.7 105.8,12.4 106.2,11.7 106.2,10.6 105.7,10.2 105.7,5.8 105.2,5.8 
		105.2,10.2 104.4,10.8 104.3,11.7 104.9,12.2 104.9,28.7 104,28.9 103.9,29.6 104.9,30.4 103.6,31.3 103.6,32.2 104.5,33.2 
		104.5,35.3 104,35.3 103.6,36.7 102.6,38.5 100,40.6 106.5,38.5 109.8,40.2 	"/>
	<polygon class="st5" points="109.8,40.2 106.5,38.5 109.8,40.2 	"/>
	<path class="st4" d="M108.1,114.3l-0.4-0.7l-0.4,0.7v1.2v1.4l-0.6-2l-0.6,1.6v-2l-0.3-0.6l-0.6,0.8v2.2L104,117v-1.1l-0.2-0.6
		l-0.6-0.8h-1.1l-0.8,0.6l-0.6,1.1v1.1l-1,0.2v-2.2l-0.3-0.4l-0.6,0.3v2.1l-0.4-1.1l-0.5,1.3v-1.8l-0.3-0.5l-0.4,0.4v4.3h-0.8l0.8,1
		v25l11.1,0.9V114.3z M99.9,143.6l-1.6,0.2v-3.5l1.6-0.2V143.6z M99.9,137.7l-1.6,0.2v-3.5l1.6-0.2V137.7z M99.9,131.7l-1.6,0.2
		v-3.5l1.6-0.2V131.7z M99.9,125.8l-1.6,0.2v-3.5l1.6-0.2V125.8z M103.2,143.4l-1.6,0.2V140l1.6-0.2V143.4z M103.2,137.4l-1.6,0.2
		v-3.5l1.6-0.2V137.4z M103.2,131.5l-1.6,0.2v-3.5l1.6-0.2V131.5z M103.2,125.6l-1.6,0.2v-3.5l1.6-0.2V125.6z M106.6,143l-1.6,0.2
		v-3.5l1.6-0.2V143z M106.6,137.1l-1.6,0.2v-3.5l1.6-0.2V137.1z M106.6,131.2l-1.6,0.2v-3.5l1.6-0.2V131.2z M106.6,125.2l-1.6,0.2
		v-3.5l1.6-0.2V125.2z"/>
	<polygon class="st5" points="116.4,147.6 116.4,120.8 117,119.8 116.4,119.8 116.4,115.5 116.1,115.1 115.9,115.6 115.9,117.4 
		115.5,116.1 115.2,117.2 115.2,115.1 114.7,114.8 114.4,115.2 114.4,117.5 113.7,117.2 113.7,116.2 113.2,115.1 112.7,114.5 
		111.9,114.5 111.4,115.3 111.2,115.9 111.2,117 110.3,116.9 110.3,114.7 109.8,113.9 109.6,114.5 109.6,116.5 109.2,114.9 
		108.7,116.9 108.7,115.5 108.7,114.3 108.4,113.5 108.1,114.3 108.1,146.6 	"/>
	<path class="st4" d="M81.2,141.6v-20.3v-3.9l-0.3,0.4v1.9l-0.6-1.2l-0.5,1.5v-2.1l-0.3-0.3l-0.4,0.5v2.2l-0.9,0l-0.1-0.6l-0.2-0.5
		l-0.2-0.7l-0.6-0.3h-0.8l-0.6,0.2l-0.3,0.8l-0.1,0.7l-0.3,0.3l0,0.7l-0.9,0.1v-2.4l-0.3-0.2l-0.5,0.3v2.3l-0.4-1.5l-0.4,1.2v-1.8
		l-0.4-0.4l-0.3,0.4v3.8l-0.6,0l0.6,1.3v16.5l7.3,0.9L81.2,141.6z M78.9,124.4l1.6-0.2v3.5l-1.6,0.2V124.4z M78.9,130.3l1.6-0.2v3.5
		l-1.6,0.2V130.3z M78.9,136.2l1.6-0.2v3.5l-1.6,0.2V136.2z M73.8,140.1l-1.6,0.2v-3.5l1.6-0.2V140.1z M73.8,134.2l-1.6,0.2v-3.5
		l1.6-0.2V134.2z M73.8,128.3l-1.6,0.2V125l1.6-0.2V128.3z M77.1,139.9l-1.6,0.2v-3.5l1.6-0.2V139.9z M77.1,134l-1.6,0.2v-3.5
		l1.6-0.2V134z M77.1,128.1l-1.6,0.2v-3.5l1.6-0.2V128.1z"/>
	<polygon class="st4" points="78.9,146.1 79,146.1 79,146.1 	"/>
	<polygon class="st5" points="85.9,145.6 85.9,145.6 81.9,145.9 81.9,145.9 89,145.4 89,145.4 	"/>
	<polygon class="st5" points="81.2,141.6 85.9,142 85.9,119 85.7,118.3 85.2,118.1 84.5,118.1 84.1,118.4 83.9,119.1 83.7,119.6 
		83.6,120.2 82.9,120.2 82.9,118 82.6,117.5 82.3,117.8 82.3,119.9 82,118.4 81.4,119.7 81.4,117.7 81.2,117.3 81.2,121.2 	"/>
	<polygon class="st5" points="87.1,142.1 87.1,145.5 85.9,145.6 85.9,145.6 89,145.4 89,136.1 88.9,136.1 88.9,131.4 89,131.4 
		89,125.9 88.9,125.9 88.9,121.2 89,121.2 89,118.9 88.7,118.5 88.4,118.9 88.4,120.7 88,119.5 87.7,120.9 87.7,118.6 87.3,118.3 
		87.1,118.5 87.1,120.9 86.3,120.8 86.3,120.1 86,119.8 86,119.1 85.9,119 85.9,142 	"/>
	<polygon class="st4" points="132.3,149.7 139.4,150 139.4,124.9 140.3,123.8 139.5,123.7 139.5,123.4 139.3,123.3 139.3,121.4 
		139.2,119.8 138.9,119.6 138.7,119.9 138.5,121 138.3,120.5 138,120.9 138,119.6 137.7,119.3 137.4,119.7 137.3,120.5 136.9,120.4 
		136.7,120.4 136.7,120 136.5,119.4 136.2,119.1 135.5,119 135.2,119.5 135,120 134.2,120.1 133.9,119.7 133.6,120.5 133.5,118.7 
		133.2,118.4 133,118.7 133,120.4 132.7,119.4 132.6,120.3 132.6,118.6 132.3,118.2 132.3,122.4 	"/>
	<polygon class="st3" points="92,150 91.5,150.1 64.2,151.9 64.2,151.9 55.7,152.5 55.7,162.8 92,162.8 	"/>
	<polygon class="st4" points="130,154.2 130.2,153.9 130.2,152.6 92,150 92,162.8 147.2,162.8 147.2,157.2 147.8,156 146.7,156 
		146.7,155.2 139.4,154.7 139.4,154.8 	"/>
	<polygon class="st3" points="71.6,146.8 71.6,140.4 71.5,140.4 65.1,141.9 65.1,145 64.2,145 64.2,147.6 72.6,146.7 	"/>
	<polygon class="st3" points="72.6,146.7 78.9,146.1 78.9,141.4 71.6,140.4 71.6,146.8 	"/>
	<polygon class="st5" points="79,146.1 81.9,145.9 81.2,145.8 	"/>
	<polygon class="st5" points="81.2,145.8 81.2,141.6 78.9,141.4 78.9,146.1 79,146.1 	"/>
	<polygon class="st5" points="81.9,145.9 85.9,145.6 85.9,142 81.2,141.6 81.2,145.8 	"/>
	<polygon class="st5" points="87.1,145.5 87.1,142.1 85.9,142 85.9,145.6 	"/>
	<polygon class="st4" points="91.6,145.3 89,145.4 89,146.4 81.9,145.9 79,146.1 72.6,146.7 64.2,147.6 64.2,151.9 91.5,150.1 	"/>
	<polygon class="st4" points="72.6,146.7 79,146.1 78.9,146.1 	"/>
	<polygon class="st4" points="89,146.4 89,145.4 81.9,145.9 	"/>
	
		<rect x="77.8" y="137.3" transform="matrix(2.701716e-02 -0.9996 0.9996 2.701716e-02 -75.2216 224.6967)" class="st4" width="0" height="27.4"/>
	<polygon class="st5" points="123.5,150.2 108.1,146.6 97,145.7 97,145.7 91.6,145.3 91.5,150.1 92,150 123.5,152.2 	"/>
	<polygon class="st5" points="108.1,146.6 123.5,150.2 123.5,150 123.5,148.5 116.4,147.6 116.4,147.6 	"/>
	<polygon class="st5" points="108.1,146.6 97,145.7 97,145.7 	"/>
	<polygon class="st5" points="116.4,147.6 116.4,147.6 108.1,146.6 	"/>
	<polygon class="st5" points="91.5,150.1 92,150 91.5,150.1 	"/>
	<polygon class="st5" points="91.1,81.6 88.9,82 88.9,86.7 91.1,86.3 	"/>
	<polygon class="st5" points="95.6,80.7 93.5,81.1 93.5,85.8 95.6,85.4 	"/>
	<polygon class="st5" points="100.1,79.7 98,80.2 98,84.9 100.1,84.4 	"/>
	<polygon class="st5" points="104.6,78.8 102.5,79.2 102.5,83.9 104.6,83.5 	"/>
	<polygon class="st5" points="91.1,91.2 88.9,91.6 88.9,96.3 91.1,95.9 	"/>
	<polygon class="st5" points="95.6,90.5 93.5,90.9 93.5,95.6 95.6,95.2 	"/>
	<polygon class="st5" points="100.1,89.6 98,90 98,94.7 100.1,94.3 	"/>
	<polygon class="st5" points="104.6,88.7 102.5,89.1 102.5,93.8 104.6,93.4 	"/>
	<polygon class="st5" points="91.1,100.8 88.9,101.2 88.9,105.9 91.1,105.5 	"/>
	<polygon class="st5" points="95.6,100.1 93.5,100.5 93.5,105.2 95.6,104.8 	"/>
	<polygon class="st5" points="100.1,99.4 98,99.9 98,104.6 100.1,104.2 	"/>
	<polygon class="st5" points="104.6,98.5 102.5,98.9 102.5,103.7 104.6,103.2 	"/>
	<polygon class="st5" points="91.1,110.7 88.9,111.1 88.9,115.8 91.1,115.4 	"/>
	<polygon class="st5" points="95.6,110 93.5,110.4 93.5,115.1 95.6,114.7 	"/>
	<polygon class="st5" points="91.1,120.8 89,121.2 89,122.7 89.5,122.7 89,124 89,125.9 91.1,125.5 	"/>
	<polygon class="st5" points="89.5,122.7 89,122.7 89,121.2 88.9,121.2 88.9,125.9 89,125.9 89,124 	"/>
	<polygon class="st5" points="95.6,120.1 93.5,120.6 93.5,125.3 95.6,124.9 	"/>
	<polygon class="st5" points="91.1,131 89,131.4 89,136.1 91.1,135.7 	"/>
	<polygon class="st5" points="88.9,131.4 88.9,136.1 89,136.1 89,131.4 	"/>
	<polygon class="st5" points="95.6,130.3 93.5,130.7 93.5,135.4 95.6,135 	"/>
	<polygon class="st5" points="100.1,109.1 98,109.5 98,114.2 100.1,113.8 	"/>
	<polygon class="st5" points="72.2,128.5 73.8,128.3 73.8,124.8 72.2,125 	"/>
	<polygon class="st5" points="75.5,128.3 77.1,128.1 77.1,124.6 75.5,124.8 	"/>
	<polygon class="st5" points="80.5,124.3 78.9,124.4 78.9,127.9 80.5,127.7 	"/>
	<polygon class="st5" points="72.2,134.4 73.8,134.2 73.8,130.7 72.2,130.9 	"/>
	<polygon class="st5" points="75.5,134.2 77.1,134 77.1,130.5 75.5,130.7 	"/>
	<polygon class="st5" points="80.5,130.2 78.9,130.3 78.9,133.8 80.5,133.7 	"/>
	<polygon class="st5" points="72.2,140.3 73.8,140.1 73.8,136.7 72.2,136.8 	"/>
	<polygon class="st5" points="75.5,140.1 77.1,139.9 77.1,136.4 75.5,136.6 	"/>
	<polygon class="st5" points="80.5,136.1 78.9,136.2 78.9,139.7 80.5,139.6 	"/>
	<polygon class="st5" points="98.3,126 99.9,125.8 99.9,122.3 98.3,122.5 	"/>
	<polygon class="st5" points="101.7,125.8 103.2,125.6 103.2,122.1 101.7,122.3 	"/>
	<polygon class="st5" points="105,125.4 106.6,125.2 106.6,121.8 105,121.9 	"/>
	<polygon class="st5" points="98.3,131.9 99.9,131.7 99.9,128.2 98.3,128.4 	"/>
	<polygon class="st5" points="101.7,131.7 103.2,131.5 103.2,128 101.7,128.2 	"/>
	<polygon class="st5" points="105,131.3 106.6,131.2 106.6,127.7 105,127.8 	"/>
	<polygon class="st5" points="98.3,137.8 99.9,137.7 99.9,134.2 98.3,134.3 	"/>
	<polygon class="st5" points="101.7,137.6 103.2,137.4 103.2,133.9 101.7,134.1 	"/>
	<polygon class="st5" points="105,137.2 106.6,137.1 106.6,133.6 105,133.7 	"/>
	<polygon class="st5" points="98.3,143.7 99.9,143.6 99.9,140.1 98.3,140.2 	"/>
	<polygon class="st5" points="101.7,143.5 103.2,143.4 103.2,139.9 101.7,140 	"/>
	<polygon class="st5" points="105,143.2 106.6,143 106.6,139.5 105,139.7 	"/>
	<polygon class="st5" points="104.6,108.2 102.5,108.6 102.5,113.3 104.6,112.9 	"/>
	<polygon class="st5" points="124.8,83 122.7,82.4 122.7,87.2 124.8,87.7 	"/>
	<polygon class="st5" points="118.2,85.9 120.3,86.5 120.3,81.8 118.2,81.2 	"/>
	<polygon class="st5" points="113.7,84.6 115.8,85.2 115.8,80.5 113.7,79.9 	"/>
	<polygon class="st5" points="109.2,83.4 111.3,83.9 111.3,79.2 109.2,78.7 	"/>
	<polygon class="st5" points="124.8,92.7 122.7,92.1 122.7,96.8 124.8,97.4 	"/>
	<polygon class="st5" points="118.2,95.7 120.3,96.3 120.3,91.6 118.2,91 	"/>
	<polygon class="st5" points="113.7,94.5 115.8,95.1 115.8,90.4 113.7,89.8 	"/>
	<polygon class="st5" points="109.2,93.2 111.3,93.8 111.3,89.1 109.2,88.5 	"/>
	<polygon class="st5" points="124.8,102.3 122.7,101.7 122.7,106.4 124.8,107 	"/>
	<polygon class="st5" points="118.2,105.4 120.3,105.9 120.3,101.2 118.2,100.7 	"/>
	<polygon class="st5" points="113.7,104.3 115.8,104.9 115.8,100.2 113.7,99.6 	"/>
	<polygon class="st5" points="109.2,103.1 111.3,103.7 111.3,98.9 109.2,98.4 	"/>
	<polygon class="st5" points="124.8,112.1 122.7,111.5 122.7,116.3 124.8,116.8 	"/>
	<polygon class="st5" points="118.2,115.2 120.3,115.8 120.3,111.1 118.2,110.5 	"/>
	<polygon class="st5" points="124.4,123.3 124.8,123.3 124.8,122.3 122.7,121.7 122.7,126.4 124.8,127 124.8,124.5 	"/>
	<polygon class="st5" points="118.2,125.4 120.3,126 120.3,121.3 118.2,120.7 	"/>
	<polygon class="st5" points="122.7,131.9 122.7,136.6 124.8,137.2 124.8,132.5 	"/>
	<polygon class="st5" points="118.2,135.6 120.3,136.1 120.3,131.4 118.2,130.9 	"/>
	<polygon class="st5" points="113.7,114 115.8,114.5 115.8,109.8 113.7,109.3 	"/>
	<polygon class="st5" points="109.2,112.7 111.3,113.3 111.3,108.6 109.2,108 	"/>
	<path class="st3" d="M126.5,125.5v2.6l-0.8,0.1l0,1.8l0.8-0.1v2.6l-0.7,0.1l0,1.8l0.7-0.1v2.6l-0.7,0.1l0,1.8l0.7-0.1v2.6l-0.7,0.1
		l0,1.9l0.7-0.1v2.6l-0.7,0.1l0,3.9l3.7-0.2l2.7,0.1v-27.4v-4.2l-0.4,0.3l-0.2,3.2l-0.5-2.4l-0.6,2.5v-3l-0.5-0.5l-0.2,0.4v3.1
		l-0.4,0.1v-1.3l-0.3-0.3l-0.3,0.2v1.2l-0.5,0.2v-3l-0.4-0.4l-0.4,0.5v3.1l-0.3-0.2l-0.1-0.8l-0.1-0.5l-0.3,0.4v0.8l-0.3,0.3
		l-0.3-2.9l-0.4-0.5l0,0l0,6.8L126.5,125.5z M130.4,125l1.2-0.2v2.6l-1.2,0.2V125z M130.4,129.4l1.2-0.2v2.6l-1.2,0.2V129.4z
		 M130.4,133.8l1.2-0.2v2.6l-1.2,0.2V133.8z M130.4,138.2l1.2-0.2v2.6l-1.2,0.2V138.2z M130.4,142.8l1.2-0.2v2.6l-1.2,0.2V142.8z
		 M127.9,125.4l1.2-0.2v2.6l-1.2,0.2V125.4z M127.9,129.8l1.2-0.2v2.6l-1.2,0.2V129.8z M127.9,134.2l1.2-0.2v2.6l-1.2,0.2V134.2z
		 M127.9,138.7l1.2-0.2v2.6l-1.2,0.2V138.7z M127.9,143.2l1.2-0.2v2.6l-1.2,0.2V143.2z"/>
	<polygon class="st3" points="125.5,122.4 125,122.5 125,123.3 124.8,123.3 124.8,127 124.8,127 124.8,132.5 124.8,132.5 
		124.8,137.2 124.8,137.2 124.8,149.9 125.9,149.9 125.9,146 125.3,146.1 125.3,143.5 125.9,143.4 125.8,141.5 125.3,141.6 
		125.3,139 125.8,138.9 125.8,137.1 125.3,137.2 125.3,134.5 125.8,134.5 125.8,132.7 125.3,132.7 125.3,130.1 125.8,130.1 
		125.8,128.2 125.3,128.3 125.3,125.7 125.8,125.6 125.7,118.8 125.5,119.3 	"/>
	<polygon class="st3" points="124.8,123.3 124.4,123.3 124.8,124.5 124.8,127 124.8,127 	"/>
	<polygon class="st3" points="124.8,132.5 124.8,132.5 124.8,137.2 124.8,137.2 	"/>
	<polygon class="st5" points="124.8,150.5 123.5,150.2 123.5,152.2 130.2,152.6 130.2,153.9 130,154.2 139.3,154.7 132.3,153.7 
		132.3,152.3 124.8,151.3 	"/>
	<polygon class="st5" points="124.8,150.5 124.8,149.9 123.5,150 123.5,150.2 	"/>
	<polygon class="st5" points="132.3,152.3 132.3,153.7 139.3,154.7 139.4,154.7 139.4,150 132.3,149.7 	"/>
	<polygon class="st5" points="139.4,154.8 139.3,154.7 130,154.2 	"/>
	<polygon class="st5" points="139.4,154.8 139.4,154.7 139.3,154.7 	"/>
	<polygon class="st5" points="124.8,150.5 124.8,151.3 132.3,152.3 132.3,149.7 129.6,149.6 125.9,149.9 125.9,150.8 	"/>
	<polygon class="st5" points="125.9,150.8 125.9,149.9 124.8,149.9 124.8,150.5 	"/>
	<polygon class="st5" points="104.3,45.2 103,45.3 102,46.4 101.5,48.1 102,49.5 103.1,50.1 104.3,49.4 105.1,47.9 105.1,46.3 	"/>
	<polygon class="st4" points="108.1,49.9 109.3,50.2 110.2,49.3 110.4,47.6 109.8,46 108.7,45.1 107.6,45.5 107,46.9 107.2,48.6 	
		"/>
	<polygon class="st5" points="126.5,125.5 125.8,125.6 125.8,128.2 126.5,128.1 	"/>
	<polygon class="st5" points="125.3,125.7 125.3,128.3 125.8,128.2 125.8,125.6 	"/>
	<polygon class="st5" points="129,125.2 127.9,125.4 127.9,128 129,127.8 	"/>
	<polygon class="st5" points="131.6,124.8 130.4,125 130.4,127.6 131.6,127.4 	"/>
	<polygon class="st5" points="126.5,129.9 125.8,130.1 125.8,132.7 126.5,132.5 	"/>
	<polygon class="st5" points="125.3,130.1 125.3,132.7 125.8,132.7 125.8,130.1 	"/>
	<polygon class="st5" points="129,129.6 127.9,129.8 127.9,132.4 129,132.2 	"/>
	<polygon class="st5" points="131.6,129.2 130.4,129.4 130.4,132 131.6,131.8 	"/>
	<polygon class="st5" points="126.5,134.4 125.8,134.5 125.8,137.1 126.5,137 	"/>
	<polygon class="st5" points="125.3,134.5 125.3,137.2 125.8,137.1 125.8,134.5 	"/>
	<polygon class="st5" points="129,134.1 127.9,134.2 127.9,136.9 129,136.7 	"/>
	<polygon class="st5" points="131.6,133.6 130.4,133.8 130.4,136.4 131.6,136.2 	"/>
	<polygon class="st5" points="126.5,138.8 125.8,138.9 125.8,141.5 126.5,141.4 	"/>
	<polygon class="st5" points="125.3,139 125.3,141.6 125.8,141.5 125.8,138.9 	"/>
	<polygon class="st5" points="129,138.5 127.9,138.7 127.9,141.3 129,141.1 	"/>
	<polygon class="st5" points="131.6,138.1 130.4,138.2 130.4,140.9 131.6,140.7 	"/>
	<polygon class="st5" points="126.5,143.3 125.9,143.4 125.9,146 126.5,145.9 	"/>
	<polygon class="st5" points="125.3,143.5 125.3,146.1 125.9,146 125.9,143.4 	"/>
	<polygon class="st5" points="129,143 127.9,143.2 127.9,145.8 129,145.6 	"/>
	<polygon class="st5" points="131.6,142.6 130.4,142.8 130.4,145.4 131.6,145.2 	"/>
</g>
</svg>
