<?xml version="1.0" encoding="utf-8"?>
<!-- Generator: Adobe Illustrator 28.1.0, SVG Export Plug-In . SVG Version: 6.00 Build 0)  -->
<svg version="1.1" id="Capa_1" xmlns="http://www.w3.org/2000/svg" xmlns:xlink="http://www.w3.org/1999/xlink" x="0px" y="0px"
	 viewBox="0 0 203.5 162.8" style="enable-background:new 0 0 203.5 162.8;" xml:space="preserve">
<style type="text/css">
	.st0{fill:#33915C;}
	.st1{fill:#FDC300;}
	.st2{fill:#601313;}
	.st3{fill:#7E6A25;}
	.st4{fill:#F8F5E0;}
	.st5{fill:#E6332A;}
	.st6{fill:#2C80C3;}
	.st7{fill:#004259;}
</style>
<rect class="st0" width="203.5" height="162.8"/>
<g>
	<polygon class="st1" points="203.5,73.7 106.6,162.8 84.7,162.8 203.5,68.3 	"/>
	<polygon class="st1" points="203.5,54.1 47.2,162.8 25.3,162.8 203.5,51.9 	"/>
	<g>
		<polygon class="st2" points="123.5,128 119.2,130 115.6,134.5 114.3,139.8 115.7,143.8 119.2,145.1 123.6,143.1 127.2,138.6 
			128.5,133.3 127.1,129.3 		"/>
		<polygon class="st2" points="138.2,115.2 133.8,117.2 130.3,121.7 129,127 130.4,131 133.9,132.3 138.3,130.3 141.8,125.8 
			143.2,120.5 141.8,116.4 		"/>
		<polygon class="st2" points="171.4,91.3 168.9,92.5 166.9,95 166.1,98.1 166.9,100.4 169,101.1 171.5,99.9 173.5,97.4 174.3,94.3 
			173.5,92 		"/>
		<polygon class="st2" points="179.8,84 177.3,85.1 175.3,87.7 174.5,90.7 175.3,93 177.4,93.8 179.9,92.6 181.9,90 182.6,87 
			181.8,84.7 		"/>
		<polygon class="st1" points="31.4,43.9 37.2,129.5 56,134.2 79.7,136.9 108,137.5 106.2,40.2 		"/>
		<polygon class="st3" points="108,137.5 189.9,76.3 189.9,25.8 106.8,25.8 106.2,40.2 		"/>
		<polygon class="st4" points="35,31.9 28.7,37.2 24.6,44 31.4,43.9 99.9,42.5 100.3,35.6 103,29.1 106.8,25.8 		"/>
		<polygon class="st2" points="108,39.8 107.6,30.4 106.8,25.8 103,29.1 100.3,35.6 99.9,42.5 		"/>
		<polygon class="st5" points="52.5,103.4 54.4,104.6 55.3,107.2 54.8,109 53.2,110.1 51.4,109.3 50,106.8 50.6,104.3 		"/>
		<polygon class="st5" points="77.7,104.7 79.6,105.8 80.6,108.4 80.1,110.2 78.4,111.3 76.6,110.5 75.3,108 75.9,105.5 		"/>
		<polygon class="st2" points="61,112.5 64.2,111.8 67.8,112.1 72.1,114.9 75.3,118.8 76.6,122.9 76.6,128.1 74.8,131.5 72.1,133.5 
			69.2,134.2 65,134.2 62,132.9 58.5,129.9 56.8,126.5 55.3,123 55.9,119 57.9,114.9 		"/>
		<polygon class="st6" points="33.8,43.9 37.2,95 41.2,97.5 47.3,99.1 50,99.1 46.9,43.6 		"/>
		<polygon class="st6" points="77.9,43 79.8,101.1 76.6,101.1 65.9,101.1 55.9,100.1 51.5,99.7 48.7,43.6 		"/>
		<polygon class="st6" points="79.8,43 81.9,101.1 87.1,101.1 96.2,99.8 103,97.7 103.9,96.2 103.2,41.4 99.9,42.5 		"/>
		<polygon class="st5" points="33.6,76.7 27.3,75.7 26.2,77.6 27.8,93.1 29.1,94.9 34.9,96.2 		"/>
		<polygon class="st2" points="119.5,25.8 122.7,15.6 151.9,17.4 156.9,25.8 		"/>
		<polygon class="st5" points="86.7,19.7 122.7,15.6 119.5,25.8 106.8,25.8 82.8,27.8 		"/>
		<polygon class="st7" points="107.2,94 117.5,89.7 115.8,38.4 108,38.7 108,39.8 106.2,40.5 		"/>
		<polygon class="st7" points="150.7,35.9 150.7,77.1 128.2,86.2 127.2,37.8 		"/>
		<polygon class="st7" points="171.6,34.4 171.1,68.8 151.9,76.7 151.9,35.9 		"/>
		<polygon class="st7" points="187.9,32.8 187.1,62.2 172.5,68.5 173,34.4 		"/>
		<polygon class="st2" points="110.8,100.1 114.7,96.2 114.7,97.5 125.3,99.1 124.6,76.7 113.9,76 114.7,92.7 109.1,94.9 
			109.1,97.9 		"/>
		<polygon class="st5" points="52.7,133.4 54.3,139.4 60,144.8 77.9,148.8 108,148.8 103.9,137.4 79.7,136.9 56,134.2 		"/>
		<polygon class="st2" points="185.9,79.2 185.9,83.8 108,148.8 103.9,137.4 108,137.5 		"/>
		<polygon class="st2" points="52.2,10.1 47.5,10.5 44.4,15.5 44.5,22.1 47.9,26.5 52.6,26.1 55.7,21.1 55.6,14.4 		"/>
		<polygon class="st1" points="51.4,11.9 47.6,12.3 45,16.5 45.1,21.9 48,25.5 51.8,25.2 54.4,21 54.2,15.6 		"/>
		<polygon class="st2" points="98.8,4.8 93.7,5.2 90.2,10.7 90.4,18 94.2,22.8 99.3,22.4 102.8,16.9 102.6,9.6 		"/>
		<polygon class="st1" points="98,6.8 93.8,7.2 90.9,11.8 91.1,17.8 94.2,21.8 98.4,21.4 101.3,16.9 101.1,10.8 		"/>
		<polygon class="st7" points="48.8,26.4 48.8,30.7 52.2,30.4 52.3,26.1 		"/>
		<polygon class="st7" points="95.3,22.7 95.3,26.8 98.5,26.4 98.5,22.4 		"/>
		<polygon class="st6" points="65.8,114.9 63.3,114.9 59.7,115.9 57.4,119 56.8,122.3 57.8,126.3 60,129.8 62.5,131.6 67.9,132.2 
			70.4,131.6 72.9,129 73.8,125 72.7,120.2 69.7,116.7 67.3,115.5 		"/>
	</g>
</g>
</svg>
