<?xml version="1.0" encoding="utf-8"?>
<!-- Generator: Adobe Illustrator 28.1.0, SVG Export Plug-In . SVG Version: 6.00 Build 0)  -->
<svg version="1.1" id="Capa_1" xmlns="http://www.w3.org/2000/svg" xmlns:xlink="http://www.w3.org/1999/xlink" x="0px" y="0px"
	 viewBox="0 0 203.5 162.8" style="enable-background:new 0 0 203.5 162.8;" xml:space="preserve">
<style type="text/css">
	.st0{fill:#F39D96;}
	.st1{fill:#E6332A;}
	.st2{fill:#FDC300;}
	.st3{fill:#004259;}
	.st4{fill:#2C80C3;}
	.st5{fill:#33915C;}
	.st6{fill:#F8F5E0;}
</style>
<rect class="st0" width="203.5" height="162.8"/>
<g>
	<polygon class="st1" points="66.1,40.4 59.4,37.4 55.2,30 57.7,18.7 65,10.9 75,8.1 85.1,10.6 90.7,16.1 95.6,27 95.6,36 
		92.4,43.5 87.9,47.4 86.3,46.7 87.8,43.6 89,34.2 86.3,27.7 81.8,26.4 78.1,28.7 77,33.6 73.9,33.7 69.4,36.3 68,39.7 	"/>
	<polygon class="st2" points="69.7,47.4 57.7,47.9 66.1,40.4 68,39.7 70.3,43.2 	"/>
	<polygon class="st3" points="77,33.6 73.9,33.7 69.4,36.3 68,39.7 70.3,43.2 69.7,47.4 73.4,47.9 75.4,52.2 75.4,56.8 73.7,60.3 
		72.5,61.6 72.5,87.6 68.9,95.9 68.4,102.8 70.3,111.2 77.5,117.4 81.6,121.4 81.6,123.4 86.2,125.6 94.7,126.9 101.8,126.6 
		107.3,125.2 109.6,124.3 109.6,120.8 113,117.4 115.2,116.9 129.2,116.9 117.4,97.2 116.7,93.8 119,89.7 122.7,87.2 127.7,88.3 
		131.2,92.6 130.8,98.9 128.7,104.1 129.3,106 132.1,105.9 137.5,102.7 144.1,93.8 148.2,80.2 145.9,69 139.8,59.5 133.4,54.5 
		124.8,51.3 116.7,50.8 109.6,53 103.1,57.8 100.1,63.8 99.3,69.6 100,76.2 103.1,81.8 103.5,86.6 100,91.5 95.6,92.6 91.4,91.1 
		88.6,87.8 83,39.1 80.7,35.7 	"/>
	<polygon class="st1" points="69.7,47.4 68,49 68,58.6 71.2,62.3 72.5,61.6 73.7,60.3 75.4,56.8 75.4,52.2 73.4,47.9 	"/>
	<polygon class="st2" points="78.1,44.5 79.8,45 81.6,47.4 82,51.3 82,55.2 80.6,59.8 78.1,56.3 76.3,52.1 75.4,47.9 76.3,45.3 	"/>
	<polygon class="st1" points="75.5,36.1 73.5,36.1 71.9,37.3 71.3,39.2 71.9,41.1 73.5,42.3 75.5,42.3 77.1,41.1 77.7,39.2 
		77.1,37.3 	"/>
	<polygon class="st3" points="75,37.7 74,37.7 73.2,38.3 72.9,39.2 73.2,40.1 74,40.7 75,40.7 75.8,40.1 76.1,39.2 75.8,38.3 	"/>
	<polygon class="st4" points="81.6,123.4 80.5,128.1 68,135.6 68,148.3 83,153.6 94.4,154.7 101.8,154.7 115,151.6 123.2,147.9 
		123.2,136 110.9,128.1 109.6,124.3 101.8,126.6 94.7,126.9 86.2,125.6 	"/>
	<polygon class="st1" points="99.7,111.7 98,108.5 98,103.3 97.5,98.4 95.6,95.4 91.7,94.6 88.1,96.2 86.7,99.6 83.8,99.8 
		81.4,100.9 79.8,103.8 79.8,107.2 82,110.1 85.6,111.7 90.8,112.5 96.5,112.5 	"/>
	<polygon class="st1" points="122.7,84.3 123.2,80.2 126,77.1 128.5,74.8 130.2,71.8 130.8,67.4 128.2,63.4 125.4,62.3 121.5,62.9 
		119.6,63.9 117.6,61.7 113.1,60.8 109.7,62.3 107.4,64.9 107,68.7 108.1,72.6 110.2,75.5 113.2,78.8 116.7,81.9 120.8,84.3 
		122.1,85.4 	"/>
	<polygon class="st2" points="86.6,94.6 83.7,93.8 82.7,96.7 81.4,93.9 78.6,94.9 80,92.2 77.4,90.6 80.4,90 80.1,87 82.4,89 
		84.6,86.8 84.4,89.9 87.4,90.2 85,92 	"/>
	<polygon class="st5" points="115.6,110.4 112.6,109.6 111.6,112.5 110.4,109.7 107.5,110.7 109,108 106.4,106.4 109.4,105.8 
		109.1,102.8 111.4,104.8 113.5,102.7 113.4,105.7 116.4,106 114,107.8 	"/>
	<polygon class="st2" points="105.5,107.4 103.8,107.4 103.7,109.1 102.7,107.8 101.3,108.7 101.7,107.1 100.1,106.6 101.6,105.8 
		101,104.3 102.5,105 103.3,103.6 103.7,105.2 105.3,105 104.3,106.3 	"/>
	<polygon class="st4" points="80.1,100.5 78.5,100.5 78.3,102.1 77.3,100.8 75.9,101.8 76.3,100.1 74.7,99.6 76.2,98.9 75.7,97.4 
		77.1,98.1 78,96.7 78.3,98.3 80,98.1 78.9,99.4 	"/>
	<polygon class="st1" points="106.3,101.3 104.1,100.5 103,102.6 102.3,100.3 100,100.9 101.3,98.9 99.5,97.4 101.8,97.2 
		101.9,94.8 103.5,96.6 105.3,95.1 105,97.5 107.3,98 105.2,99.2 	"/>
	<polygon class="st4" points="115.8,85.5 113.9,89 117.2,91.2 113.3,91.8 113.7,95.8 110.7,93.2 107.8,95.9 108,92 104.1,91.5 
		107.3,89.1 105.2,85.7 109.1,86.8 110.5,83.1 112,86.7 	"/>
	<polygon class="st5" points="140,81.8 137.1,81.1 136.1,83.9 134.8,81.1 132,82.1 133.4,79.4 130.8,77.8 133.8,77.2 133.5,74.2 
		135.8,76.2 137.9,74.1 137.8,77.1 140.9,77.5 138.4,79.3 	"/>
	<g>
		<polygon class="st6" points="134.3,98.1 133.2,98.1 132.3,98.8 132,99.8 132.3,100.9 133.2,101.5 134.3,101.5 135.2,100.9 
			135.6,99.8 135.2,98.8 		"/>
		<polygon class="st6" points="115.2,111.8 114.1,111.8 113.2,112.5 112.8,113.6 113.2,114.6 114.1,115.3 115.2,115.3 116.1,114.6 
			116.4,113.6 116.1,112.5 		"/>
		<polygon class="st6" points="99.5,114.5 98.4,114.5 97.5,115.2 97.2,116.2 97.5,117.3 98.4,117.9 99.5,117.9 100.4,117.3 
			100.7,116.2 100.4,115.2 		"/>
		<polygon class="st6" points="74.8,107.4 73.7,107.4 72.8,108 72.4,109.1 72.8,110.1 73.7,110.8 74.8,110.8 75.7,110.1 76,109.1 
			75.7,108 		"/>
		<polygon class="st6" points="74,92.9 72.9,92.9 72,93.6 71.7,94.6 72,95.7 72.9,96.3 74,96.3 74.9,95.7 75.3,94.6 74.9,93.6 		"/>
		<polygon class="st6" points="83.6,113.6 82.5,113.6 81.6,114.2 81.3,115.3 81.6,116.3 82.5,117 83.6,117 84.5,116.3 84.9,115.3 
			84.5,114.2 		"/>
		<polygon class="st6" points="72.2,99.8 71.1,99.8 70.2,100.5 69.9,101.5 70.2,102.6 71.1,103.2 72.2,103.2 73.1,102.6 73.5,101.5 
			73.1,100.5 		"/>
		<polygon class="st6" points="121.3,110.8 120.2,110.8 119.3,111.4 118.9,112.5 119.3,113.6 120.2,114.2 121.3,114.2 122.2,113.6 
			122.5,112.5 122.2,111.4 		"/>
		<polygon class="st6" points="107.6,113.6 106.5,113.6 105.6,114.2 105.2,115.3 105.6,116.3 106.5,117 107.6,117 108.5,116.3 
			108.8,115.3 108.5,114.2 		"/>
		<polygon class="st6" points="91.8,115.3 90.6,115.3 89.8,115.9 89.4,117 89.8,118 90.6,118.7 91.8,118.7 92.7,118 93,117 
			92.7,115.9 		"/>
		<polygon class="st6" points="142.2,86.7 141.1,86.7 140.2,87.3 139.9,88.4 140.2,89.5 141.1,90.1 142.2,90.1 143.1,89.5 
			143.5,88.4 143.1,87.3 		"/>
		<polygon class="st6" points="144.1,74.1 142.9,74.1 142,74.7 141.7,75.8 142,76.8 142.9,77.5 144.1,77.5 144.9,76.8 145.3,75.8 
			144.9,74.7 		"/>
		<polygon class="st6" points="137.9,61.4 136.7,61.4 135.9,62.1 135.5,63.2 135.9,64.2 136.7,64.8 137.9,64.8 138.8,64.2 
			139.1,63.2 138.8,62.1 		"/>
		<polygon class="st6" points="125.5,53.6 124.4,53.6 123.5,54.3 123.1,55.3 123.5,56.4 124.4,57 125.5,57 126.4,56.4 126.7,55.3 
			126.4,54.3 		"/>
		<polygon class="st6" points="104.6,63.2 103.5,63.2 102.6,63.8 102.3,64.8 102.6,65.9 103.5,66.6 104.6,66.6 105.5,65.9 
			105.9,64.8 105.5,63.8 		"/>
		<polygon class="st6" points="107.6,78.5 106.5,78.5 105.6,79.2 105.2,80.2 105.6,81.3 106.5,81.9 107.6,81.9 108.5,81.3 
			108.8,80.2 108.5,79.2 		"/>
		<polygon class="st6" points="109.4,56.4 108.3,56.4 107.4,57 107,58.1 107.4,59.1 108.3,59.8 109.4,59.8 110.3,59.1 110.6,58.1 
			110.3,57 		"/>
		<polygon class="st6" points="138.7,93.1 137.6,93.1 136.7,93.8 136.3,94.8 136.7,95.9 137.6,96.6 138.7,96.6 139.6,95.9 
			139.9,94.8 139.6,93.8 		"/>
		<polygon class="st6" points="144.1,80.5 142.9,80.5 142,81.2 141.7,82.2 142,83.3 142.9,83.9 144.1,83.9 144.9,83.3 145.3,82.2 
			144.9,81.2 		"/>
		<polygon class="st6" points="142.2,67.6 141.1,67.6 140.2,68.3 139.9,69.3 140.2,70.4 141.1,71.1 142.2,71.1 143.1,70.4 
			143.5,69.3 143.1,68.3 		"/>
		<polygon class="st6" points="132.5,56.5 131.4,56.5 130.5,57.1 130.2,58.2 130.5,59.2 131.4,59.9 132.5,59.9 133.4,59.2 
			133.8,58.2 133.4,57.1 		"/>
		<polygon class="st6" points="105.1,71.4 104,71.4 103.1,72 102.8,73.1 103.1,74.1 104,74.8 105.1,74.8 106,74.1 106.4,73.1 
			106,72 		"/>
		<polygon class="st6" points="117,53.2 115.9,53.2 115,53.8 114.6,54.9 115,55.9 115.9,56.6 117,56.6 117.9,55.9 118.2,54.9 
			117.9,53.8 		"/>
	</g>
	<polygon class="st2" points="130.3,84.1 128.7,84.1 128.5,85.7 127.5,84.4 126.1,85.3 126.5,83.7 124.9,83.2 126.4,82.5 
		125.8,80.9 127.3,81.7 128.2,80.2 128.5,81.9 130.2,81.6 129.1,82.9 	"/>
	<polygon class="st4" points="137.6,91.4 135.5,90.3 134.2,92.3 133.8,90 131.4,90.3 132.9,88.4 131.2,86.8 133.6,86.8 133.9,84.5 
		135.3,86.4 137.3,85.1 136.7,87.4 139,88.2 136.8,89.2 	"/>
</g>
</svg>
