<?xml version="1.0" encoding="utf-8"?>
<!-- Generator: Adobe Illustrator 28.1.0, SVG Export Plug-In . SVG Version: 6.00 Build 0)  -->
<svg version="1.1" id="Capa_1" xmlns="http://www.w3.org/2000/svg" xmlns:xlink="http://www.w3.org/1999/xlink" x="0px" y="0px"
	 viewBox="0 0 203.5 162.8" style="enable-background:new 0 0 203.5 162.8;" xml:space="preserve">
<style type="text/css">
	.st0{fill:#FDC300;}
	.st1{fill:#F8F5E0;}
	.st2{fill:#601313;}
	.st3{fill:#E6332A;}
</style>
<rect class="st0" width="203.5" height="162.8"/>
<g>
	<ellipse class="st1" cx="94.4" cy="87.3" rx="26.6" ry="26.7"/>
	<polygon class="st2" points="152.2,59.6 154.4,55.5 158.4,52.3 163.1,50.5 167,50.5 170.8,52 174.1,54.1 176.4,57.2 177.1,59.6 
		179.9,58.3 183.4,58.6 186.6,60.2 188.7,62.3 190.2,65.7 190.2,67.2 193.2,67.2 195.8,69.8 197.4,71.5 199,74.6 199,78.6 197.1,82 
		194.6,84.4 191.8,86 188.3,86 184.9,84.6 183.3,86.8 179.6,88.3 175.6,88.3 171.9,86.7 169.8,84.6 168.1,86.3 164.9,88.7 161.7,89 
		157.3,88.2 155.2,86.8 153.5,85 150.7,87.1 147,87.7 143.7,86.3 141.9,84.5 140,84.5 135.9,84.2 131.9,81.6 130.8,78.6 130.8,73.6 
		133.7,71 136.4,69.8 138.2,69.8 138.8,66.6 140.4,63 144.4,60.3 148.5,59 	"/>
	<polygon class="st2" points="109.8,61.2 111.2,59.1 114,57.5 117.1,56.7 119.7,56.7 122.3,57.4 124.5,58.5 126.1,60 126.5,61.2 
		128.4,60.5 130.7,60.7 132.9,61.5 134.3,62.6 135.3,64.3 135.3,65 137.3,65 139.1,66.3 140.1,67.2 141.2,68.7 141.2,70.7 
		139.9,72.4 138.2,73.6 136.4,74.4 134,74.4 131.8,73.7 130.7,74.8 128.2,75.6 125.5,75.6 123,74.8 121.6,73.7 120.5,74.6 
		118.3,75.7 116.2,75.9 113.2,75.5 111.8,74.8 110.7,73.9 108.8,74.9 106.3,75.2 104.1,74.6 102.8,73.7 101.6,73.7 98.8,73.5 
		96.2,72.2 95.4,70.7 95.4,68.2 97.3,66.9 99.2,66.3 100.4,66.3 100.8,64.7 101.9,62.9 104.6,61.6 107.3,60.9 	"/>
	<polygon class="st2" points="68.8,93.2 67.7,92.4 66,91.1 63.9,91.1 63.9,90.4 63,88.7 61.5,87.6 59.4,86.8 57,86.6 55.1,87.3 
		54,86.6 52.9,86.3 50.6,87 47.8,86.6 45.9,87.3 45.5,86.1 43.9,84.6 41.7,83.5 39.2,82.8 36.5,82.8 33.4,83.6 30.7,85.2 29.2,87.3 
		26.7,87 24,87.7 21.3,89 20.2,90.8 19.8,92.4 18.6,92.4 16.8,93 14.9,94.3 14.9,96.8 15.6,98.3 18.3,99.6 21.1,99.7 22.3,99.7 
		23.5,100.7 25.8,101.3 28.2,101 30.1,100 31.3,100.9 32.7,101.6 35.6,102 37.8,101.8 39.9,100.7 40,100.6 40.5,100.9 41.9,101.6 
		44.8,102 47,101.8 47.3,101.6 47.6,101.6 50.1,100.9 50.8,100.2 51.7,100.8 54.2,101.6 56.9,101.6 59.3,100.9 60.4,99.8 
		62.7,100.5 65,100.5 66.9,99.7 68.6,98.5 69.9,96.8 69.9,94.8 	"/>
	<g>
		<polygon class="st3" points="8.5,162.8 10.4,151.4 11.6,129.7 10,118.1 21.3,118.1 19.6,133.7 19,162.8 		"/>
		<polygon class="st3" points="28.4,136 28.4,118.1 41.8,118.1 42.9,140.4 41.5,148.8 41.8,162.8 26.1,162.8 24.7,145.7 		"/>
		<polygon class="st3" points="44.9,162.8 48,137.7 50.6,134.9 50.6,118.1 66.8,118.1 68.3,121.8 68.3,134.6 68.3,162.8 		"/>
		<polygon class="st3" points="74,162.8 71.7,154.8 74,118.1 89.9,118.1 93.9,119.5 92.5,136 93.9,162.8 		"/>
		<polygon class="st3" points="104.6,162.8 105.9,119.8 109,118.1 124.1,118.1 126.9,125.2 126.9,131.7 130.1,141.7 132.1,162.8 		
			"/>
		<polygon class="st3" points="139.2,162.8 140.6,120.9 145.2,118.1 161.1,118.1 164.3,128 166.5,162.8 		"/>
		<polygon class="st3" points="174.2,162.8 174.2,144.8 177.1,118.1 196.4,118.1 197.6,147.7 199,162.8 		"/>
		<polygon class="st3" points="55.9,109.1 55.9,115.7 58.9,115.7 60.5,118.1 153.5,118.1 155.8,115.5 155.2,109.1 150.3,108.3 
			132.1,105.6 116.5,105.6 116.5,108.3 84.8,107.2 83.8,109.9 		"/>
	</g>
</g>
</svg>
