<?xml version="1.0" encoding="utf-8"?>
<!-- Generator: Adobe Illustrator 28.1.0, SVG Export Plug-In . SVG Version: 6.00 Build 0)  -->
<svg version="1.1" id="Capa_1" xmlns="http://www.w3.org/2000/svg" xmlns:xlink="http://www.w3.org/1999/xlink" x="0px" y="0px"
	 viewBox="0 0 203.5 162.8" style="enable-background:new 0 0 203.5 162.8;" xml:space="preserve">
<style type="text/css">
	.st0{fill:#2C80C3;}
	.st1{fill:#F8F5E0;}
	.st2{fill:#004259;}
	.st3{fill:#E6332A;}
</style>
<rect class="st0" width="203.5" height="162.8"/>
<g>
	<ellipse class="st1" cx="41.3" cy="70.3" rx="26.4" ry="26.5"/>
	<polygon class="st2" points="195,105.6 195,124.6 193.9,124.6 193.9,112.9 188.3,112.9 188.3,99.9 176.5,99.9 176.5,121.3 
		165.6,121.3 165.6,134.6 156.9,134.6 156.9,110 147.8,110 147.8,105.6 139.9,105.6 139.9,124.6 138.9,124.6 138.9,112.9 
		133.7,112.9 133.7,99.9 122.7,99.9 122.7,121.3 116.9,121.3 116.9,105.2 109.7,105.2 109.7,118.1 104.4,118.1 104.4,110 98.8,110 
		98.8,105.6 90.2,105.6 90.2,124.6 82.1,124.6 82.1,112.9 76.9,112.9 76.9,99.9 65.9,99.9 65.9,108.5 61.3,108.4 61.3,105.2 
		54,105.2 54,118.1 48.5,118.1 48.5,133.8 43.2,133.8 43.2,105.6 34.5,105.6 34.5,124.6 26.5,124.6 26.5,112.9 21.3,112.9 
		21.3,99.9 10.3,99.9 10.3,108.5 3.6,108.4 3.6,121.2 0,121.2 0,162.8 55.6,162.8 61.3,162.8 96,162.8 116.9,162.8 147.8,162.8 
		203.5,162.8 203.5,105.6 	"/>
	<g>
		<polygon class="st3" points="174.8,116.7 168.1,87.3 162.3,83.1 38.5,83.1 31.4,85 27.5,89.6 25.2,98.9 25.2,116.7 22.9,116.7 
			22.9,120.3 26.4,120.3 26.4,156.2 53.5,156.2 53.1,151.9 54.2,148.2 56.9,144.8 60.2,142.7 65.1,142.1 69,143.4 72.1,145.4 
			74.4,149 75.6,153.2 74.9,156.2 148.5,156.2 148.2,152.3 149.4,148.4 151.9,144.9 154.7,143.1 157.9,142.3 162.9,142.7 
			166.3,144.8 168.7,147.2 170.1,152.4 169.7,156.2 180.6,156.2 180.6,150.4 178.7,150.4 178.7,138.3 176.6,136.2 173.5,136.2 
			171.7,120.3 176.4,120.3 176.4,116.7 		"/>
		<rect x="22.9" y="116.7" class="st1" width="153.5" height="3.5"/>
		<rect x="125" y="91" class="st1" width="17.8" height="11.7"/>
		<rect x="102.9" y="91" class="st1" width="17.8" height="11.7"/>
		<rect x="80.9" y="91" class="st1" width="17.8" height="11.7"/>
		<rect x="58.8" y="91" class="st1" width="17.8" height="11.7"/>
		<rect x="36.8" y="91" class="st1" width="17.8" height="11.7"/>
		<rect x="148.2" y="91" class="st1" width="17.8" height="11.7"/>
		<rect x="125" y="123.2" class="st1" width="17.8" height="11.7"/>
		<rect x="102.9" y="123.2" class="st1" width="17.8" height="11.7"/>
		<rect x="80.9" y="123.2" class="st1" width="17.8" height="11.7"/>
		<rect x="58.8" y="123.2" class="st1" width="17.8" height="11.7"/>
		<rect x="148.2" y="123.2" class="st1" width="17.8" height="11.7"/>
		<circle class="st3" cx="64.3" cy="153.2" r="7.8"/>
		<circle class="st3" cx="159.3" cy="153.2" r="7.8"/>
	</g>
</g>
</svg>
