<?xml version="1.0" encoding="utf-8"?>
<!-- Generator: Adobe Illustrator 28.1.0, SVG Export Plug-In . SVG Version: 6.00 Build 0)  -->
<svg version="1.1" id="Capa_1" xmlns="http://www.w3.org/2000/svg" xmlns:xlink="http://www.w3.org/1999/xlink" x="0px" y="0px"
	 viewBox="0 0 203.5 162.8" style="enable-background:new 0 0 203.5 162.8;" xml:space="preserve">
<style type="text/css">
	.st0{fill:#E6332A;}
	.st1{fill:#601313;}
	.st2{fill:#FDC300;}
	.st3{fill:#F39D96;}
	.st4{fill:#F8F5E0;}
	.st5{fill:#33915C;}
	.st6{fill:#1B4C2F;}
	.st7{fill:#7E6A25;}
</style>
<rect class="st0" width="203.5" height="162.8"/>
<g>
	<polygon class="st1" points="88.9,118.1 87.9,119.1 86.9,118.1 86.9,39.4 88.9,38.7 	"/>
	<polygon class="st2" points="112.7,89.5 116.3,86.2 119,81.9 120.2,78.1 121.5,78.4 122.3,78.1 122.6,79.9 124.1,81.2 125.2,81.6 
		125.2,83.1 125.7,84.6 127.3,85.8 127.3,89.7 128,94 129.1,92.1 130.5,94.6 130.5,91.4 133.1,93.1 132.8,89.9 135.4,90.5 
		130.4,84.8 130.6,83.7 130.5,81.6 129,80.2 128.1,80.1 128.7,78.4 127.3,75.9 125.6,75.5 124.4,75.5 124.8,73.8 123.5,71.9 
		121.8,71.2 120.5,71.2 119.8,67.9 117.7,64.1 114.5,61.1 111.2,59.3 107.3,58.4 105.9,58.6 103.9,57.4 101.1,56.9 97.8,57.3 
		94,58.5 90.6,60.7 88.2,62.6 86.4,64.9 84.9,66.9 84.1,69 82.3,68.9 81.1,69.7 80.1,70.9 80.1,72.7 78.6,72.7 77.1,73.5 76.4,74.8 
		76.2,76.1 76.2,76.7 69.6,80.2 72.7,80.6 71.2,83.2 73.9,82.4 73.2,85.5 75.6,83.4 75.9,85.3 78,81.6 78.9,78.2 80.2,77.8 
		81.4,76.6 81.8,74.9 83.1,75 84.6,74.5 86.9,73.8 93.2,69.9 96.3,73.4 102.5,76.2 109.2,78.1 110.4,83.9 112.1,87.7 	"/>
	<polygon class="st3" points="111.4,90.4 107.6,92.6 103.3,94 98.3,94.4 92.6,93.2 89.7,91.4 87.4,88.6 86.4,85 86.4,82.3 
		86.4,81.2 85.6,79.4 84.8,76.7 84.6,74.5 86.9,73.8 93.2,69.9 96.3,73.4 102.5,76.2 109.2,78.1 110.4,83.9 112.1,87.7 112.7,89.5 	
		"/>
	<polygon class="st4" points="118.6,121.5 113.7,121.9 111.7,109.8 110,100.8 106.9,92.8 107.6,92.6 111.4,90.4 117.7,104.1 	"/>
	<polygon class="st4" points="94.1,93.5 90.5,101.9 87.7,119.8 90.9,116.4 91.2,113.9 90.3,113.2 91.3,107.7 93.2,101.2 95.6,93.8 	
		"/>
	<polygon class="st5" points="120.3,114.9 118.4,116.9 113.4,119.8 107.2,120.7 101.1,119.8 93.9,117.8 90.9,116.4 91.2,113.9 
		90.3,113.2 91.3,107.7 93.2,101.2 95.6,93.8 98.3,94.4 103.3,94 106.9,92.8 118,109.9 	"/>
	<polygon class="st6" points="109.6,108 101.7,107.1 100.9,112.8 102.1,116 106.4,116.9 109.2,114.9 	"/>
	<polygon class="st6" points="97.6,118.8 93.9,121.5 89.6,124.2 91.6,129 92.5,131.4 91,132.6 88.9,132.1 88,130.9 85,124.4 85,123 
		87.7,119.8 90.9,116.4 93.9,117.8 	"/>
	<polygon class="st6" points="107.2,120.7 109,130.2 112.8,137.7 114.3,138.8 116,138.4 116.7,137.1 115,129.2 113.7,121.9 
		113.4,119.8 	"/>
	<polygon class="st1" points="88,130.9 84.8,133.6 81.2,136.3 80.2,138.8 81.2,140.5 86.2,141 89.9,139.9 92.7,135.7 94.3,133.1 
		93.1,130.5 92,129.9 92.5,131.4 91,132.6 88.9,132.1 	"/>
	<polygon class="st1" points="112.5,137.2 105.8,143.3 105.8,145.8 107.2,147.3 110.6,147.7 114.4,146.7 116.5,143.5 118.6,138.6 
		117.8,136.6 116.4,135.7 116.7,137.1 116,138.4 114.3,138.8 112.8,137.7 	"/>
	<polygon class="st3" points="118.6,121.5 118.6,123 117.5,126.9 114,128.1 114,126.9 114.6,125.6 114.6,124.1 113.8,124.5 
		113.3,125.1 112.8,124.5 113.2,123 113.7,121.9 	"/>
	<polygon class="st2" points="80.9,15 133.4,33.6 124.3,37.9 71.6,19.5 	"/>
	<polygon class="st7" points="124,40.4 71.6,21.8 71.6,19.5 124.3,37.9 	"/>
	<polygon class="st1" points="133.4,36.2 133.4,33.6 124.3,37.9 124,40.4 	"/>
	<polygon class="st1" points="85.6,136.5 83.6,136.5 83.6,40.9 85.6,40 	"/>
	<polygon class="st1" points="112.2,143.2 110.2,143.2 110.2,34.8 112.2,35.8 	"/>
	<polygon class="st1" points="101.5,60.3 100.9,61.2 100.2,60.2 99.9,33.7 101.9,32.7 	"/>
	<polygon class="st1" points="118.3,123.1 117.6,124.2 117,123.1 116.6,37.1 118.6,38.1 	"/>
	<polygon class="st2" points="128.8,19 77.6,40.9 68.1,37.1 119.3,15 	"/>
	<polygon class="st1" points="68.1,39.9 78.2,43.7 77.6,40.9 68.1,37.1 	"/>
	<polygon class="st7" points="129.4,21.2 128.8,19 77.6,40.9 78.2,43.7 	"/>
</g>
</svg>
