<?xml version="1.0" encoding="utf-8"?>
<!-- Generator: Adobe Illustrator 28.1.0, SVG Export Plug-In . SVG Version: 6.00 Build 0)  -->
<svg version="1.1" id="Capa_1" xmlns="http://www.w3.org/2000/svg" xmlns:xlink="http://www.w3.org/1999/xlink" x="0px" y="0px"
	 viewBox="0 0 203.5 162.8" style="enable-background:new 0 0 203.5 162.8;" xml:space="preserve">
<style type="text/css">
	.st0{fill:#F39D96;}
	.st1{fill:#F8F5E0;}
	.st2{fill:#AB5243;}
	.st3{fill:#004259;}
	.st4{fill:#2C80C3;}
	.st5{fill:#33915C;}
</style>
<rect class="st0" width="203.5" height="162.8"/>
<g>
	<circle class="st1" cx="54.9" cy="56.7" r="39.4"/>
	<polygon class="st2" points="200.8,135.2 188.1,135.2 188.1,113.6 184.6,95.8 180.2,92 180.2,93 161.4,93 160.6,91.4 158.2,89.8 
		154.7,89.4 152.4,89.7 151.6,90.2 148.4,84.1 143.2,92.8 140,92.8 140,71.6 142.8,71.6 141.4,70.5 135.9,65.9 133.4,60.6 
		133.4,53.9 133.4,46.7 132.7,40.8 131.7,45.5 128.4,27.6 124.7,47.6 123,40.9 121.7,48.5 121.7,57.2 122.7,58 121.7,62.2 
		118.8,66.3 113.4,69.7 112.3,70.5 114.7,70.5 114.7,87.7 112.3,89 112.3,92.8 102.6,92.8 100.9,96.7 91.7,96.7 86.7,90.2 82,96.8 
		75.3,96.8 75.3,125.9 75.3,162.8 203.5,162.8 203.5,137.6 	"/>
	<polygon class="st3" points="57.9,162.8 80.4,162.8 75.7,158.7 75.6,151.1 79.3,146 82.3,142.5 86.6,139.1 90.5,136.7 94.2,135.2 
		96.2,134.7 96.2,132.1 57.9,132.1 	"/>
	<polygon class="st3" points="117.1,158.6 115.6,159.9 115.6,162.8 161,162.8 161,159.5 159.5,158.1 159.5,149.2 161.8,146 
		164.9,141.6 169.7,137.2 173.9,134 178.3,132.1 182.2,130.6 186.5,130.1 190.6,130.3 190.6,127.4 118.6,127.4 	"/>
	<polygon class="st3" points="75.7,124 75.7,62.8 77.2,60.9 77.2,52.4 77.9,51.5 77.9,45.2 76.7,44.7 74.9,29.6 73.2,44 67.8,42.5 
		62.8,24.4 61.7,27.5 57.1,6.3 50.4,4.7 41.8,42.1 32.4,42.3 31,30.4 29.2,42.6 27.8,42.7 27.8,49.7 57.4,48.5 57.4,95.8 
		57.4,124.8 	"/>
	<polygon class="st4" points="27.8,49.7 30.2,51.2 30.2,162.8 57.9,162.8 58.4,158.1 59.8,153.4 63.6,147.4 66.3,143.3 71.2,138.8 
		74.2,136.5 78.4,134.6 82.9,133.8 86.4,133.7 91.6,133.7 95,134.2 99.7,136 104.7,138.2 109.2,142 112.3,144.7 114.8,148.2 
		117.1,152.6 117.1,158.6 147.3,158.6 147.3,151.1 148,147.8 150.8,142.7 154.5,138.5 158.5,135.8 162.4,133.5 167.5,131.3 
		171.9,130.2 176.9,129.4 181,129.2 183.8,129.2 188.5,129.7 190.6,130.3 194.2,131.5 197.8,133.2 200.8,135.2 203.5,137.6 
		203.5,119.6 75.7,124 57.4,124.8 57.4,48.5 	"/>
	<polygon class="st5" points="59.4,124.7 60.1,113.4 61.2,109.2 63.4,105.1 66,102.5 67.1,102.5 69.5,104.7 71.9,108.8 73.4,113.6 
		73.4,116.7 73.4,120.6 73.4,124.1 	"/>
	<polygon class="st5" points="64.3,75.5 69.4,76.6 69.4,92.9 64.3,92.4 	"/>
	<polygon class="st5" points="75.7,97.8 57.4,95.8 57.4,97.4 75.7,99.3 	"/>
	<rect x="30.2" y="95.8" class="st3" width="27.2" height="1.6"/>
	<rect x="36.3" y="85.9" class="st3" width="4.3" height="6.1"/>
	<rect x="47.3" y="85.9" class="st3" width="4.3" height="6.1"/>
	<polygon class="st5" points="50.4,4.7 58.2,41 63.3,26.2 62.8,24.4 61.7,27.5 57.1,6.3 	"/>
	<rect x="32.2" y="51.4" class="st3" width="4.8" height="16.2"/>
	<rect x="38.1" y="51.4" class="st3" width="4.8" height="16.2"/>
	<rect x="44.1" y="51.4" class="st3" width="4.8" height="16.2"/>
	<rect x="50" y="51.4" class="st3" width="4.8" height="16.2"/>
	<polygon class="st3" points="57.4,124.8 30.2,125.8 30.2,128.5 63.2,126.6 113.3,123.5 113.3,122.7 	"/>
	<polygon class="st5" points="63.6,67.3 60.3,66.8 60.3,50.1 63.6,50.6 	"/>
	<polygon class="st5" points="68.5,68.4 65.2,67.9 65.2,51.2 68.5,51.7 	"/>
	<polygon class="st5" points="73.3,69.5 70,68.9 70,52.3 73.3,52.8 	"/>
</g>
</svg>
