<?xml version="1.0" encoding="utf-8"?>
<!-- Generator: Adobe Illustrator 28.1.0, SVG Export Plug-In . SVG Version: 6.00 Build 0)  -->
<svg version="1.1" id="Capa_1" xmlns="http://www.w3.org/2000/svg" xmlns:xlink="http://www.w3.org/1999/xlink" x="0px" y="0px"
	 viewBox="0 0 203.5 162.8" style="enable-background:new 0 0 203.5 162.8;" xml:space="preserve">
<style type="text/css">
	.st0{fill:#FDC300;}
	.st1{fill:#601313;}
	.st2{fill:#AB5243;}
	.st3{fill:#F39D96;}
	.st4{fill:#E6332A;}
	.st5{fill:#33915C;}
</style>
<rect class="st0" width="203.5" height="162.8"/>
<g>
	<rect x="106.9" y="21.8" class="st1" width="12" height="8"/>
	<rect x="196.3" y="95.3" class="st2" width="3.4" height="25.2"/>
	<rect x="15.9" y="57.9" class="st2" width="2.7" height="5.3"/>
	<rect x="135.7" y="92.6" class="st2" width="32.8" height="23.9"/>
	<rect x="189.1" y="122.9" class="st3" width="14.3" height="31.7"/>
	<rect x="160.1" y="96.7" class="st2" width="29" height="57.8"/>
	<rect x="149.2" y="119.6" class="st3" width="21.2" height="35"/>
	<rect x="135.7" y="119.6" class="st2" width="13.5" height="35"/>
	<rect x="90" y="54.8" class="st3" width="45.7" height="99.8"/>
	<rect x="57.8" y="101" class="st2" width="32.1" height="53.5"/>
	<rect x="19" y="101" class="st3" width="38.8" height="53.5"/>
	<rect x="1.2" y="78.2" class="st2" width="17.8" height="76.4"/>
	<rect x="11.7" y="63.2" class="st1" width="7.7" height="14.1"/>
	<g>
		<polygon class="st4" points="189.1,108.2 203.5,122.9 189.1,122.9 		"/>
		<polygon class="st4" points="189.1,96.7 174.6,53.7 158.8,96.7 		"/>
		<polygon class="st4" points="170.4,119.6 171.6,119.6 171.6,116.5 148.9,116.5 148.9,106.9 135.7,106.9 135.7,119.6 		"/>
		<polygon class="st4" points="112.9,5.7 117.3,13.8 121.6,21.8 112.9,21.8 104.2,21.8 108.6,13.8 		"/>
		<polygon class="st4" points="10.1,59 15.2,68.6 20.3,78.2 10.1,78.2 0,78.2 5.1,68.6 		"/>
		<polygon class="st4" points="4.6,60.1 5.5,61.7 6.4,63.2 4.6,63.2 2.7,63.2 3.6,61.7 		"/>
		<rect x="15.1" y="55.3" class="st4" width="4.2" height="3"/>
		<rect x="53.9" y="65.2" class="st4" width="6.4" height="2.3"/>
		<rect x="19" y="71.3" class="st4" width="71" height="29.7"/>
	</g>
	<rect x="3.1" y="63.2" class="st2" width="2.9" height="11.1"/>
	<rect x="49.2" y="68.8" class="st2" width="3" height="21.1"/>
	<rect x="55.3" y="67.5" class="st2" width="3.7" height="6.8"/>
	<polygon class="st2" points="90,86.9 61.3,86.9 51.5,101 90,101 	"/>
	<polygon class="st2" points="91.5,23.7 95.8,26.5 100.3,23.7 100.3,27.3 101.7,26.4 103.8,27.3 106,26.4 107.9,27.3 109.6,26.2 
		111.5,27.3 114.6,27.3 116.3,26.2 118.1,27.3 119.7,26.2 121.9,27.3 123.5,26.3 125.6,27.3 125.6,23.7 129.9,26.5 134.3,23.7 
		134.3,54.8 91.5,54.8 	"/>
	<polygon class="st1" points="27.1,110.4 27.1,115.6 27.1,117.4 27.1,121.4 28.6,121.4 28.6,117.4 33.5,117.4 33.5,121.4 35,121.4 
		35,117.4 40.6,117.4 40.6,121.4 42.1,121.4 42.1,117.4 47,117.4 47,121.4 48.5,121.4 48.5,117.4 48.5,115.6 48.5,110.4 	"/>
	<g>
		<rect x="28.6" y="88.1" class="st1" width="11.3" height="6.8"/>
		<rect x="62.8" y="86.9" class="st1" width="9.1" height="5.7"/>
		<rect x="80.9" y="86.9" class="st1" width="9.1" height="5.7"/>
		<rect x="7.8" y="82.9" class="st1" width="4.7" height="4.7"/>
		<rect x="177.2" y="103.8" class="st1" width="3" height="4.3"/>
		<rect x="101.8" y="59.1" class="st1" width="5.5" height="5.5"/>
		<rect x="119.6" y="59.1" class="st1" width="5.5" height="5.5"/>
		<rect x="101.8" y="75.2" class="st1" width="5.5" height="5.5"/>
		<rect x="119.6" y="75.2" class="st1" width="5.5" height="5.5"/>
		<rect x="101.8" y="91.3" class="st1" width="5.5" height="5.5"/>
		<rect x="119.6" y="91.3" class="st1" width="5.5" height="5.5"/>
		<rect x="136.9" y="94" class="st1" width="5.5" height="8.7"/>
		<rect x="146.4" y="94" class="st1" width="5.5" height="8.7"/>
		<polygon class="st1" points="161.4,102.7 155.9,102.7 155.9,94 159.8,94 158.8,96.7 161.4,96.7 		"/>
		<rect x="151.2" y="106.8" class="st1" width="5.5" height="8.7"/>
		<rect x="160.6" y="106.8" class="st1" width="5.5" height="8.7"/>
	</g>
	<rect x="90.1" y="33.3" class="st1" width="45.7" height="1.7"/>
	<rect x="90.1" y="42.7" class="st1" width="45.7" height="1.7"/>
	<g>
		<rect x="92.9" y="36.2" class="st1" width="6.9" height="4.8"/>
		<rect x="101.2" y="36.2" class="st1" width="6.9" height="4.8"/>
		<rect x="109.5" y="36.2" class="st1" width="6.9" height="4.8"/>
		<rect x="117.8" y="36.2" class="st1" width="6.9" height="4.8"/>
		<rect x="126.1" y="36.2" class="st1" width="6.9" height="4.8"/>
	</g>
	<g>
		<rect x="92.9" y="47.2" class="st1" width="6.9" height="4.8"/>
		<rect x="101.2" y="47.2" class="st1" width="6.9" height="4.8"/>
		<rect x="109.5" y="47.2" class="st1" width="6.9" height="4.8"/>
		<rect x="117.8" y="47.2" class="st1" width="6.9" height="4.8"/>
		<rect x="126.1" y="47.2" class="st1" width="6.9" height="4.8"/>
	</g>
	<polygon class="st5" points="0,134 8.5,131.6 15.8,132.3 19.3,137.1 21.3,145.3 27,148.7 28.5,153.9 38.3,149 46.8,152.7 
		58.9,144.4 68.9,143.1 76.7,143.1 83.8,146.1 87.7,143.1 92.8,140.7 99,137.1 103.4,128.8 108,125.6 114.8,125.6 119.5,129.5 
		126,135.5 129.4,134.5 135.8,135.1 141.4,139.8 143.2,144.2 149.3,148.1 155.9,147.9 162.2,146.1 169.6,143.8 177.2,144 
		182.4,147.7 188,151.4 203.5,135.8 203.5,162.8 0,162.8 	"/>
</g>
</svg>
