<?xml version="1.0" encoding="utf-8"?>
<!-- Generator: Adobe Illustrator 28.1.0, SVG Export Plug-In . SVG Version: 6.00 Build 0)  -->
<svg version="1.1" id="Capa_1" xmlns="http://www.w3.org/2000/svg" xmlns:xlink="http://www.w3.org/1999/xlink" x="0px" y="0px"
	 viewBox="0 0 203.5 162.8" style="enable-background:new 0 0 203.5 162.8;" xml:space="preserve">
<style type="text/css">
	.st0{fill:#33915C;}
	.st1{fill:#E6332A;}
	.st2{fill:#FDC300;}
	.st3{fill:#601313;}
	.st4{fill:#7E6A25;}
</style>
<rect class="st0" width="203.5" height="162.8"/>
<g>
	<polygon class="st1" points="140.9,76.1 130.2,51.5 130.2,31.6 121.3,19.6 111.1,14.3 101.7,13.5 92.3,14.3 82.2,19.6 73.3,31.6 
		73.3,51.5 62.6,76.1 68.6,106.7 77.8,126.5 71.7,139.2 101.7,139.2 131.7,139.2 125.7,126.5 134.9,106.7 	"/>
	<circle class="st2" cx="101.5" cy="40.1" r="18.4"/>
	<polygon class="st3" points="101.7,13.5 92.8,18.4 85.1,23.8 78.7,32.8 78.7,52.2 69.3,76.4 74.8,106.7 83.1,125.3 89.4,139.2 
		71.7,139.2 77.8,126.5 68.6,106.7 62.6,76.1 73.3,51.5 73.3,31.6 82.2,19.6 92.3,14.3 	"/>
	<polygon class="st2" points="117.7,83.4 105.3,78.3 101.5,71.3 97.8,78.3 85.4,83.4 64.1,83.8 69.4,90.7 80.2,99.7 96.2,103.2 
		101.5,103.2 106.9,103.2 122.8,99.7 133.7,90.7 139,83.8 	"/>
	<polygon class="st4" points="70.6,83.7 72.4,93.2 69.4,90.7 64.1,83.8 	"/>
</g>
</svg>
