<?xml version="1.0" encoding="utf-8"?>
<!-- Generator: Adobe Illustrator 28.1.0, SVG Export Plug-In . SVG Version: 6.00 Build 0)  -->
<svg version="1.1" id="Capa_1" xmlns="http://www.w3.org/2000/svg" xmlns:xlink="http://www.w3.org/1999/xlink" x="0px" y="0px"
	 viewBox="0 0 203.5 162.8" style="enable-background:new 0 0 203.5 162.8;" xml:space="preserve">
<style type="text/css">
	.st0{fill:#E6332A;}
	.st1{fill:#601313;}
	.st2{fill:#1B4C2F;}
	.st3{fill:#33915C;}
</style>
<g>
	<polygon class="st0" points="197.7,94.2 194.6,100.3 195.6,100.6 195.4,106.4 203.5,109.2 203.5,93.9 197.3,93.7 	"/>
	<polygon class="st0" points="16.4,94.8 23.2,92.3 15.3,92.1 16.8,94.2 	"/>
	<polygon class="st0" points="167.1,95.7 172,98.3 188,103.9 188.3,97.9 187.7,95.5 185.3,93.4 167,93.1 167.8,94.2 	"/>
	<polygon class="st0" points="7.4,97.9 6.8,95.5 3.3,92.2 0,92.2 0,101.1 7.4,98.3 	"/>
	<polygon class="st0" points="40,85.9 60.2,76.6 61.8,78.3 61.8,80.8 65.4,79.9 67.4,75 71,71.5 71,58.4 74,58 78.6,58.7 78.6,60.1 
		82.3,60.5 85.1,60.9 86.8,60.2 91.1,60.2 91.1,58 99.3,58 106.2,57.2 106.2,55.5 107.8,54.9 116.2,56.7 116.2,64 118.6,64.5 
		122.1,73.5 126.9,71.7 136.8,74.4 150.8,85.5 160.2,85.2 203.5,86.1 203.5,0 0,0 0,84.4 38.2,86.5 	"/>
	<polygon class="st1" points="35.1,130.3 35.1,127.7 33.8,125.2 35.6,125.2 36.7,97.9 36.1,95.5 32.7,92.5 23.2,92.3 16.4,94.8 
		13.7,100.3 14.7,100.6 13.3,151.4 20.3,153.3 32.3,150.7 34.7,150.7 35.6,130.3 	"/>
	<polygon class="st1" points="156.8,130.3 156.8,127.7 155.5,125.2 157.3,125.2 158.4,97.9 157.8,95.5 155.1,93.1 136.5,93.6 
		136.9,94.2 133.9,100.3 134.8,100.6 133.5,152.6 136.9,152.2 144.4,150.7 156.4,151.4 157.3,130.3 	"/>
	<polygon class="st1" points="71.1,85.2 99.7,86.6 150.8,85.5 136.8,74.4 126.9,71.7 122.1,73.5 118.6,64.5 116.2,64 116.2,56.7 
		107.8,54.9 106.2,55.5 106.2,57.2 99.3,58 91.1,58 91.1,60.2 86.8,60.2 85.1,60.9 82.3,60.5 78.6,60.1 78.6,58.7 74,58 71,58.4 
		71,71.5 67.4,75 65.4,79.9 61.8,80.8 61.8,78.3 60.2,76.6 40,85.9 38.2,86.5 39.5,86.6 	"/>
	<polygon class="st1" points="65.5,130.3 65.5,127.7 64.2,125.2 66,125.2 67.1,97.9 66.5,95.5 63.4,92.8 44.9,92.6 46.1,94.2 
		43.1,100.3 44,100.6 42.7,150.7 46.1,150.7 61.6,153.3 65,153.3 66,130.3 	"/>
	<polygon class="st1" points="96,130.3 96,127.7 94.7,125.2 96.6,125.2 97.7,97.9 97.1,95.5 94.9,93.6 75.6,93 76.5,94.2 
		73.5,100.3 74.4,100.6 73,153.3 81.5,153.3 93.3,151.7 95.6,151.5 96.6,130.3 	"/>
	<polygon class="st1" points="125.9,130.3 125.9,127.7 124.6,125.2 126.4,125.2 127.5,97.9 126.9,95.5 125,93.8 106.8,93.8 
		107.1,94.2 104,100.3 105,100.6 103.7,150.9 105.9,150.7 116.7,153.3 125.4,153.3 126.4,130.3 	"/>
	<polygon class="st1" points="186.7,130.3 186.7,127.7 185.3,125.2 187.2,125.2 188,103.9 172,98.3 167.1,95.7 164.8,100.3 
		165.7,100.6 164.4,152 179.3,153.3 186.1,153.3 187.2,130.3 	"/>
	<polygon class="st1" points="6.3,130.3 5.7,130.3 5.7,127.7 4.4,125.2 6.2,125.2 7.4,98.3 0,101.1 0,152.2 5.3,151.5 	"/>
	<polygon class="st1" points="194.2,153.3 200.7,153.3 203.5,153.3 203.5,109.2 195.4,106.4 	"/>
	<polygon class="st2" points="9.8,92.1 3.3,92.2 6.8,95.5 7.4,97.9 7.4,98.3 9.5,97.5 	"/>
	<polygon class="st2" points="9.5,97.5 7.4,98.3 6.2,125.2 4.4,125.2 5.7,127.7 5.7,130.3 6.3,130.3 5.3,151.5 7.3,151.2 	"/>
	<polygon class="st3" points="9.8,92.1 9.5,97.5 16.4,94.8 16.8,94.2 15.3,92.1 11,92 	"/>
	<polygon class="st3" points="13.7,100.3 16.4,94.8 9.5,97.5 7.3,151.2 10.9,150.7 13.3,151.4 14.7,100.6 	"/>
	<polygon class="st2" points="200.7,153.3 194.2,153.3 194.2,154.2 188.1,154.2 186.1,154.2 186.1,153.3 179.3,153.3 164.4,152 
		164.3,154.2 157.5,154.2 156.2,154.2 156.4,151.4 144.4,150.7 136.9,152.2 133.5,152.6 133.4,154.2 127.5,154.2 125.3,154.2 
		125.4,153.3 116.7,153.3 105.9,150.7 103.7,150.9 103.6,154.2 97.3,154.2 95.5,154.2 95.6,151.5 93.3,151.7 81.5,153.3 73,153.3 
		73,154.2 66.6,154.2 64.9,154.2 65,153.3 61.6,153.3 46.1,150.7 42.7,150.7 42.6,154.2 36.4,154.2 34.5,154.2 34.7,150.7 
		32.3,150.7 20.3,153.3 13.3,151.4 13.3,154.2 7.2,154.2 5.2,154.2 5.3,151.5 0,152.2 0,162.8 203.5,162.8 203.5,153.3 	"/>
	<polygon class="st2" points="5.3,151.5 5.2,154.2 7.2,154.2 7.3,151.2 	"/>
	<polygon class="st2" points="7.3,151.2 7.2,154.2 13.3,154.2 13.3,151.4 10.9,150.7 	"/>
	<polygon class="st2" points="188.3,97.9 188,103.9 190.2,104.6 190.7,93.5 185.3,93.4 187.7,95.5 	"/>
	<polygon class="st2" points="190.2,104.6 188,103.9 187.2,125.2 185.3,125.2 186.7,127.7 186.7,130.3 187.2,130.3 186.1,153.3 
		188.1,153.3 	"/>
	<polygon class="st2" points="186.1,153.3 186.1,154.2 188.1,154.2 188.1,153.3 	"/>
	<polygon class="st3" points="190.7,93.5 190.2,104.6 195.4,106.4 195.6,100.6 194.6,100.3 197.7,94.2 197.3,93.7 192.9,93.6 	"/>
	<polygon class="st3" points="190.2,104.6 188.1,153.3 194.2,153.3 195.4,106.4 	"/>
	<polygon class="st3" points="188.1,154.2 194.2,154.2 194.2,153.3 188.1,153.3 	"/>
	<polygon class="st2" points="160.3,93 155.1,93.1 157.8,95.5 158.4,97.9 157.3,125.2 155.5,125.2 156.8,127.7 156.8,130.3 
		157.3,130.3 156.4,151.4 157.6,151.5 	"/>
	<polygon class="st2" points="156.4,151.4 156.2,154.2 157.5,154.2 157.6,151.5 	"/>
	<polygon class="st3" points="167.1,95.7 167.8,94.2 167,93.1 162.2,93 	"/>
	<polygon class="st3" points="164.8,100.3 167.1,95.7 162.2,93 160.6,93 160.3,93 157.6,151.5 160.9,151.7 164.4,152 165.7,100.6 	
		"/>
	<polygon class="st3" points="157.6,151.5 157.5,154.2 164.3,154.2 164.4,152 160.9,151.7 	"/>
	<polygon class="st2" points="129.9,93.8 129.6,93.8 125,93.8 126.9,95.5 127.5,97.9 126.4,125.2 124.6,125.2 125.9,127.7 
		125.9,130.3 126.4,130.3 125.4,153.3 127.5,153.3 	"/>
	<polygon class="st2" points="125.4,153.3 125.3,154.2 127.5,154.2 127.5,153.3 	"/>
	<polygon class="st3" points="133.9,100.3 136.9,94.2 136.5,93.6 129.9,93.8 127.5,153.3 127.9,153.3 133.5,152.6 134.8,100.6 	"/>
	<polygon class="st3" points="127.5,153.3 127.5,154.2 133.4,154.2 133.5,152.6 127.9,153.3 	"/>
	<polygon class="st3" points="43.1,100.3 46.1,94.2 44.9,92.6 39.9,92.6 38.2,92.6 36.5,150.7 42.7,150.7 44,100.6 	"/>
	<polygon class="st3" points="36.4,154.2 42.6,154.2 42.7,150.7 36.5,150.7 	"/>
	<polygon class="st2" points="38.2,92.6 32.7,92.5 36.1,95.5 36.7,97.9 35.6,125.2 33.8,125.2 35.1,127.7 35.1,130.3 35.6,130.3 
		34.7,150.7 36.5,150.7 	"/>
	<polygon class="st2" points="34.7,150.7 34.5,154.2 36.4,154.2 36.5,150.7 	"/>
	<polygon class="st2" points="69.5,92.8 63.4,92.8 66.5,95.5 67.1,97.9 66,125.2 64.2,125.2 65.5,127.7 65.5,130.3 66,130.3 
		65,153.3 66.6,153.3 	"/>
	<polygon class="st2" points="65,153.3 64.9,154.2 66.6,154.2 66.6,153.3 	"/>
	<polygon class="st3" points="73.5,100.3 76.5,94.2 75.6,93 70.7,92.8 69.5,92.8 66.6,153.3 73,153.3 74.4,100.6 	"/>
	<polygon class="st3" points="66.6,154.2 73,154.2 73,153.3 66.6,153.3 	"/>
	<polygon class="st2" points="100,93.8 99.9,93.8 94.9,93.6 97.1,95.5 97.7,97.9 96.6,125.2 94.7,125.2 96,127.7 96,130.3 
		96.6,130.3 95.6,151.5 97.4,151.4 	"/>
	<polygon class="st2" points="95.6,151.5 95.5,154.2 97.3,154.2 97.4,151.4 	"/>
	<polygon class="st3" points="104,100.3 107.1,94.2 106.8,93.8 100,93.8 97.4,151.4 103.7,150.9 105,100.6 	"/>
	<polygon class="st3" points="97.3,154.2 103.6,154.2 103.7,150.9 97.4,151.4 	"/>
	<polygon class="st3" points="3,91.8 9.8,91.8 15.2,91.8 15.3,92.1 23.2,92.3 38.2,86.5 0,84.4 0,92.2 3.3,92.2 	"/>
	<polygon class="st3" points="150.8,85.5 156.3,89.9 160.6,92.2 166.2,92.2 167,93.1 185.3,93.4 183.9,92.2 190.7,92.2 196.1,92.2 
		197.3,93.7 203.5,93.9 203.5,86.1 160.2,85.2 	"/>
	<polygon class="st3" points="32.3,92.2 38.2,92.2 44.5,92.2 44.9,92.6 63.4,92.8 62.8,92.2 69.5,92.2 74.9,92.2 75.6,93 94.9,93.6 
		93.3,92.2 100.1,92.2 105.5,92.2 106.8,93.8 125,93.8 123.1,92.2 130,92.2 135.3,92.2 136.5,93.6 155.1,93.1 154,92.2 160.3,92.2 
		160.6,92.2 156.3,89.9 150.8,85.5 99.7,86.6 71.1,85.2 39.5,86.6 38.2,86.5 23.2,92.3 32.7,92.5 	"/>
	<polygon class="st3" points="9.8,91.8 3,91.8 3.3,92.2 9.8,92.1 	"/>
	<polygon class="st3" points="11,92 15.3,92.1 15.2,91.8 9.8,91.8 9.8,92.1 	"/>
	<polygon class="st3" points="190.7,92.2 183.9,92.2 185.3,93.4 190.7,93.5 	"/>
	<polygon class="st3" points="192.9,93.6 197.3,93.7 196.1,92.2 190.7,92.2 190.7,93.5 	"/>
	<polygon class="st3" points="154,92.2 155.1,93.1 160.3,93 160.3,92.2 	"/>
	<polygon class="st3" points="167,93.1 166.2,92.2 160.6,92.2 162.2,93 	"/>
	<polygon class="st3" points="160.3,93 160.6,93 162.2,93 160.6,92.2 160.3,92.2 	"/>
	<polygon class="st3" points="123.1,92.2 125,93.8 129.6,93.8 129.9,93.8 130,92.2 	"/>
	<polygon class="st3" points="130,92.2 129.9,93.8 136.5,93.6 135.3,92.2 	"/>
	<polygon class="st3" points="38.2,92.2 38.2,92.6 39.9,92.6 44.9,92.6 44.5,92.2 	"/>
	<polygon class="st3" points="32.3,92.2 32.7,92.5 38.2,92.6 38.2,92.2 	"/>
	<polygon class="st3" points="62.8,92.2 63.4,92.8 69.5,92.8 69.5,92.2 	"/>
	<polygon class="st3" points="69.5,92.2 69.5,92.8 70.7,92.8 75.6,93 74.9,92.2 	"/>
	<polygon class="st3" points="93.3,92.2 94.9,93.6 99.9,93.8 100,93.8 100.1,92.2 	"/>
	<polygon class="st3" points="100.1,92.2 100,93.8 106.8,93.8 105.5,92.2 	"/>
</g>
</svg>
