<?xml version="1.0" encoding="utf-8"?>
<!-- Generator: Adobe Illustrator 28.1.0, SVG Export Plug-In . SVG Version: 6.00 Build 0)  -->
<svg version="1.1" id="Capa_1" xmlns="http://www.w3.org/2000/svg" xmlns:xlink="http://www.w3.org/1999/xlink" x="0px" y="0px"
	 viewBox="0 0 203.5 162.8" style="enable-background:new 0 0 203.5 162.8;" xml:space="preserve">
<style type="text/css">
	.st0{fill:#F39D96;}
	.st1{fill:#601313;}
	.st2{fill:#AB5243;}
	.st3{fill:#FDC300;}
	.st4{fill:#7E6A25;}
	.st5{fill:#E6332A;}
	.st6{fill:#2C80C3;}
	.st7{fill:#004259;}
</style>
<rect class="st0" width="203.5" height="162.8"/>
<g>
	<polygon class="st1" points="108.1,104.4 96.9,104.7 93.3,105.2 88.9,99 114.6,99 130.4,101.3 123.2,105.2 	"/>
	<rect x="0" y="143" class="st2" width="203.5" height="19.8"/>
	<rect x="88" y="45.2" class="st3" width="27.6" height="46.9"/>
	<polygon class="st4" points="131.1,50.6 132.7,94.4 115.7,92 115.7,45.2 	"/>
	<polygon class="st4" points="72.6,50.6 72.5,95.5 88,92 88,45.2 	"/>
	<polygon class="st5" points="131.3,55.7 132.7,54.2 133.3,46.6 115.7,40.4 86.5,41 70.2,47.7 72.6,50.6 88,45.2 115.7,45.2 
		131.1,50.6 	"/>
	<polygon class="st1" points="132.7,54.2 134.8,54.2 135.7,44.3 115.7,36.6 85.8,37.2 67.8,45.9 67.8,47.3 72.6,54.8 72.6,50.6 
		70.2,47.7 86.5,41 115.7,40.4 133.3,46.6 	"/>
	<polygon class="st3" points="80.5,39.8 82.5,35 87.4,28.7 91,25.6 94.9,23 99.8,21.8 106.5,21.8 112.3,23.5 117.9,27.2 122.7,32.4 
		125.4,37.5 126.2,40.6 115.7,36.6 85.8,37.2 	"/>
	<rect x="101.5" y="9.7" class="st4" width="1.6" height="12.1"/>
	<polygon class="st5" points="132.7,94.4 130.4,101.3 114.6,99 88.9,99 73.6,101.3 72.5,95.5 88,92 115.7,92 	"/>
	<polygon class="st3" points="131.7,111.6 128.2,111.2 124.7,111.6 124.7,151.3 128.2,151.7 131.7,151.3 	"/>
	<polygon class="st3" points="109.7,111.4 109.7,152.8 113.4,153.4 116.4,153.4 117.9,152.7 116.6,111.2 114.5,110.7 111.8,110.7 	
		"/>
	<polygon class="st3" points="87.1,110.5 91.2,110.2 94.8,110.5 95.2,153.4 91.2,153.7 87.1,153.4 	"/>
	<polygon class="st3" points="74.5,111.9 78.3,111.7 82,111.9 82,151.7 78.3,152.2 74.5,151.7 	"/>
	<polyline class="st4" points="82,111.9 82.3,110.7 83.5,110.2 83.5,109.2 82.8,109.2 83.8,108.4 85.2,108.4 85.2,107.5 84.2,107.1 
		84.7,105.9 86.1,105.6 86.3,104.9 85.8,103.8 84.8,103 84.2,103 84.2,102.4 83.8,101.6 82.9,101.3 82.4,100 73.6,101.3 73.9,102.7 
		73.1,102.5 72.2,102.7 72.2,104.2 73.1,105.4 74.5,106.2 74.5,107.5 73.8,107.5 73.1,108 73.7,108.9 74.5,109.4 74.5,111.9 	"/>
	<polygon class="st4" points="109.7,111.4 109.7,108.2 108.8,107.6 108.1,107 108.9,106.3 109.7,106.7 109.7,105.3 108.1,104.4 
		107.2,103.2 107.5,102 108.4,102 108.1,100.7 107.6,100 107.6,99 114.6,99 120.2,99.8 119.6,100.9 120.2,101.8 119.6,102.9 
		118.7,103.5 117.9,104.1 118.8,104.2 118.5,105.2 117.7,105.9 117.9,106.7 117.9,107.6 117.3,107.6 117.2,109.3 116.6,111.2 
		114.5,110.7 111.8,110.7 	"/>
	<polygon class="st4" points="130.4,101.3 131.7,102.6 131.7,101.3 133,101.3 133.5,101.9 133.1,103 133.5,103.8 134.1,104.7 
		134.1,106.3 133.3,106.7 132.3,107.4 131.7,108.4 131.7,110.2 131.7,111.6 128.2,111.2 124.7,111.6 124.2,109.8 123.5,108.8 
		124.2,108.9 123.8,107.7 123.2,106.4 122.4,106.4 122,104.1 122,102.9 123.2,102.2 124.7,101.6 126.5,100.7 	"/>
	<polygon class="st4" points="87.1,110.5 87.1,108.2 87.1,107 86.1,105.6 86.3,104.9 85.8,103.8 84.8,103 84.2,103 83.8,101.6 
		82.9,101.3 82.4,100 88.9,99 96.9,99 96.9,100.3 96.2,101.3 96.9,101.7 96.9,102.4 96.1,102.8 96.2,103.7 96.9,104.7 95.8,106.2 
		95.2,106.9 94.8,110.5 91.2,110.2 	"/>
	<g>
		<path class="st6" d="M90.8,53.3v1.4c1,0,1.9,0.9,1.9,2h1.5c0-1.1,0.8-2,1.9-2v-1.5c-1,0-1.9-0.9-1.9-2h-1.5c0,1.1-0.8,2-1.9,2
			V53.3z M93.5,53.1c0.2,0.3,0.5,0.6,0.8,0.8c-0.3,0.2-0.6,0.5-0.8,0.8c-0.2-0.3-0.5-0.6-0.8-0.8C93,53.7,93.2,53.4,93.5,53.1z"/>
		<path class="st6" d="M99.3,53.4v1.4c1,0,1.9,0.9,1.9,2h1.5c0-1.1,0.8-2,1.9-2v-1.5c-1,0-1.9-0.9-1.9-2h-1.5c0,1.1-0.8,2-1.9,2
			V53.4z M101.9,53.2c0.2,0.3,0.5,0.6,0.8,0.8c-0.3,0.2-0.6,0.5-0.8,0.8c-0.2-0.3-0.5-0.6-0.8-0.8C101.4,53.8,101.7,53.5,101.9,53.2
			z"/>
		<path class="st6" d="M108.1,53.4v1.4c1,0,1.9,0.9,1.9,2h1.5c0-1.1,0.8-2,1.9-2v-1.5c-1,0-1.9-0.9-1.9-2h-1.5c0,1.1-0.8,2-1.9,2
			V53.4z M110.7,53.2c0.2,0.3,0.5,0.6,0.8,0.8c-0.3,0.2-0.6,0.5-0.8,0.8c-0.2-0.3-0.5-0.6-0.8-0.8C110.2,53.8,110.5,53.5,110.7,53.2
			z"/>
		<path class="st6" d="M88.2,50.8h1.5c0-1.1,0.8-2,1.9-2v-1.5c-1,0-1.9-0.9-1.9-2h-1.5c0,1.1-0.8,2-1.9,2v1.5
			C87.4,48.7,88.2,49.6,88.2,50.8z M89,47.2c0.2,0.3,0.5,0.6,0.8,0.8c-0.3,0.2-0.6,0.5-0.8,0.8c-0.2-0.3-0.5-0.6-0.8-0.8
			C88.5,47.7,88.8,47.5,89,47.2z"/>
		<path class="st6" d="M96.8,50.8h1.5c0-1.1,0.8-2,1.9-2v-1.5c-1,0-1.9-0.9-1.9-2h-1.5c0,1.1-0.8,2-1.9,2v1.5
			C96,48.7,96.8,49.6,96.8,50.8z M97.6,47.2c0.2,0.3,0.5,0.6,0.8,0.8c-0.3,0.2-0.6,0.5-0.8,0.8c-0.2-0.3-0.5-0.6-0.8-0.8
			C97.1,47.7,97.3,47.5,97.6,47.2z"/>
		<path class="st6" d="M105.4,50.8h1.5c0-1.1,0.8-2,1.9-2v-1.5c-1,0-1.9-0.9-1.9-2h-1.5c0,1.1-0.8,2-1.9,2v1.5
			C104.5,48.7,105.4,49.6,105.4,50.8z M106.1,47.2c0.2,0.3,0.5,0.6,0.8,0.8c-0.3,0.2-0.6,0.5-0.8,0.8c-0.2-0.3-0.5-0.6-0.8-0.8
			C105.7,47.7,105.9,47.5,106.1,47.2z"/>
		<path class="st6" d="M113.9,50.8h1.5c0-1.1,0.8-2,1.9-2v-1.5c-1,0-1.9-0.9-1.9-2h-1.5c0,1.1-0.8,2-1.9,2v1.5
			C113.1,48.7,113.9,49.6,113.9,50.8z M114.7,47.2c0.2,0.3,0.5,0.6,0.8,0.8c-0.3,0.2-0.6,0.5-0.8,0.8c-0.2-0.3-0.5-0.6-0.8-0.8
			C114.2,47.7,114.5,47.5,114.7,47.2z"/>
		<path class="st6" d="M94.2,62.8h-1.5c0,1.1-0.8,2-1.9,2v1.5c1,0,1.9,0.9,1.9,2.1h1.5c0-1.1,0.8-2.1,1.9-2.1v-1.5
			C95,64.9,94.2,64,94.2,62.8z M93.5,66.4c-0.2-0.3-0.5-0.6-0.8-0.8c0.3-0.2,0.6-0.5,0.8-0.8c0.2,0.3,0.5,0.6,0.8,0.8
			C93.9,65.9,93.7,66.1,93.5,66.4z"/>
		<path class="st6" d="M102.7,62.9h-1.5c0,1.1-0.8,2-1.9,2v1.5c1,0,1.9,0.9,1.9,2.1h1.5c0-1.1,0.8-2.1,1.9-2.1V65
			C103.5,65,102.7,64,102.7,62.9z M101.9,66.5c-0.2-0.3-0.5-0.6-0.8-0.8c0.3-0.2,0.6-0.5,0.8-0.8c0.2,0.3,0.5,0.6,0.8,0.8
			C102.4,65.9,102.1,66.2,101.9,66.5z"/>
		<path class="st6" d="M111.4,62.9h-1.5c0,1.1-0.8,2-1.9,2v1.5c1,0,1.9,0.9,1.9,2.1h1.5c0-1.1,0.8-2.1,1.9-2.1V65
			C112.3,65,111.4,64,111.4,62.9z M110.7,66.5c-0.2-0.3-0.5-0.6-0.8-0.8c0.3-0.2,0.6-0.5,0.8-0.8c0.2,0.3,0.5,0.6,0.8,0.8
			C111.2,65.9,110.9,66.2,110.7,66.5z"/>
		<path class="st6" d="M89.7,56.9h-1.5c0,1.1-0.8,2-1.9,2v1.5c1,0,1.9,0.9,1.9,2h1.5c0-1.1,0.8-2,1.9-2V59
			C90.6,59,89.7,58,89.7,56.9z M89,60.5c-0.2-0.3-0.5-0.6-0.8-0.8c0.3-0.2,0.6-0.5,0.8-0.8c0.2,0.3,0.5,0.6,0.8,0.8
			C89.5,59.9,89.2,60.2,89,60.5z"/>
		<path class="st6" d="M98.3,56.9h-1.5c0,1.1-0.8,2-1.9,2v1.5c1,0,1.9,0.9,1.9,2h1.5c0-1.1,0.8-2,1.9-2V59
			C99.1,59,98.3,58,98.3,56.9z M97.6,60.5c-0.2-0.3-0.5-0.6-0.8-0.8c0.3-0.2,0.6-0.5,0.8-0.8c0.2,0.3,0.5,0.6,0.8,0.8
			C98,59.9,97.8,60.2,97.6,60.5z"/>
		<path class="st6" d="M106.9,56.9h-1.5c0,1.1-0.8,2-1.9,2v1.5c1,0,1.9,0.9,1.9,2h1.5c0-1.1,0.8-2,1.9-2V59
			C107.7,59,106.9,58,106.9,56.9z M106.1,60.5c-0.2-0.3-0.5-0.6-0.8-0.8c0.3-0.2,0.6-0.5,0.8-0.8c0.2,0.3,0.5,0.6,0.8,0.8
			C106.6,59.9,106.3,60.2,106.1,60.5z"/>
		<path class="st6" d="M113.9,62.5h1.5c0-1.1,0.8-2,1.9-2V59c-1,0-1.9-0.9-1.9-2h-1.5c0,1.1-0.8,2-1.9,2v1.5
			C113.1,60.5,113.9,61.4,113.9,62.5z M114.7,58.9c0.2,0.3,0.5,0.6,0.8,0.8c-0.3,0.2-0.6,0.5-0.8,0.8c-0.2-0.3-0.5-0.6-0.8-0.8
			C114.2,59.5,114.5,59.2,114.7,58.9z"/>
		<path class="st6" d="M92.7,80.2h1.5c0-1.1,0.8-2.1,1.9-2.1v-1.5c-1,0-1.9-0.9-1.9-2.1h-1.5c0,1.1-0.8,2.1-1.9,2.1v1.5
			C91.9,78.1,92.7,79.1,92.7,80.2z M93.5,76.6c0.2,0.3,0.5,0.6,0.8,0.8c-0.3,0.2-0.6,0.5-0.8,0.8c-0.2-0.3-0.5-0.6-0.8-0.8
			C93,77.2,93.2,76.9,93.5,76.6z"/>
		<path class="st6" d="M101.2,80.3h1.5c0-1.1,0.8-2.1,1.9-2.1v-1.5c-1,0-1.9-0.9-1.9-2.1h-1.5c0,1.1-0.8,2.1-1.9,2.1v1.5
			C100.3,78.2,101.2,79.1,101.2,80.3z M101.9,76.7c0.2,0.3,0.5,0.6,0.8,0.8c-0.3,0.2-0.6,0.5-0.8,0.8c-0.2-0.3-0.5-0.6-0.8-0.8
			C101.4,77.2,101.7,77,101.9,76.7z"/>
		<path class="st6" d="M109.9,80.3h1.5c0-1.1,0.8-2.1,1.9-2.1v-1.5c-1,0-1.9-0.9-1.9-2.1h-1.5c0,1.1-0.8,2.1-1.9,2.1v1.5
			C109.1,78.2,109.9,79.1,109.9,80.3z M110.7,76.7c0.2,0.3,0.5,0.6,0.8,0.8c-0.3,0.2-0.6,0.5-0.8,0.8c-0.2-0.3-0.5-0.6-0.8-0.8
			C110.2,77.2,110.5,77,110.7,76.7z"/>
		<path class="st6" d="M88.2,74.3h1.5c0-1.1,0.8-2.1,1.9-2.1v-1.5c-1,0-1.9-0.9-1.9-2.1h-1.5c0,1.1-0.8,2.1-1.9,2.1v1.5
			C87.4,72.2,88.2,73.1,88.2,74.3z M89,70.6c0.2,0.3,0.5,0.6,0.8,0.8c-0.3,0.2-0.6,0.5-0.8,0.8c-0.2-0.3-0.5-0.6-0.8-0.8
			C88.5,71.2,88.8,71,89,70.6z"/>
		<path class="st6" d="M96.8,74.3h1.5c0-1.1,0.8-2.1,1.9-2.1v-1.5c-1,0-1.9-0.9-1.9-2.1h-1.5c0,1.1-0.8,2.1-1.9,2.1v1.5
			C96,72.2,96.8,73.1,96.8,74.3z M97.6,70.6c0.2,0.3,0.5,0.6,0.8,0.8c-0.3,0.2-0.6,0.5-0.8,0.8c-0.2-0.3-0.5-0.6-0.8-0.8
			C97.1,71.2,97.3,71,97.6,70.6z"/>
		<path class="st6" d="M105.4,74.3h1.5c0-1.1,0.8-2.1,1.9-2.1v-1.5c-1,0-1.9-0.9-1.9-2.1h-1.5c0,1.1-0.8,2.1-1.9,2.1v1.5
			C104.5,72.2,105.4,73.1,105.4,74.3z M106.1,70.6c0.2,0.3,0.5,0.6,0.8,0.8c-0.3,0.2-0.6,0.5-0.8,0.8c-0.2-0.3-0.5-0.6-0.8-0.8
			C105.7,71.2,105.9,71,106.1,70.6z"/>
		<path class="st6" d="M113.9,74.3h1.5c0-1.1,0.8-2.1,1.9-2.1v-1.5c-1,0-1.9-0.9-1.9-2.1h-1.5c0,1.1-0.8,2.1-1.9,2.1v1.5
			C113.1,72.2,113.9,73.1,113.9,74.3z M114.7,70.6c0.2,0.3,0.5,0.6,0.8,0.8c-0.3,0.2-0.6,0.5-0.8,0.8c-0.2-0.3-0.5-0.6-0.8-0.8
			C114.2,71.2,114.5,71,114.7,70.6z"/>
		<path class="st6" d="M94.2,86.3h-1.5c0,1.1-0.8,2.1-1.9,2.1v1.5c1,0,1.9,0.9,1.9,2.1h1.5c0-1.1,0.8-2.1,1.9-2.1v-1.5
			C95,88.4,94.2,87.5,94.2,86.3z M93.5,89.9c-0.2-0.3-0.5-0.6-0.8-0.8c0.3-0.2,0.6-0.5,0.8-0.8c0.2,0.3,0.5,0.6,0.8,0.8
			C93.9,89.4,93.7,89.6,93.5,89.9z"/>
		<path class="st6" d="M102.7,86.4h-1.5c0,1.1-0.8,2.1-1.9,2.1V90c1,0,1.9,0.9,1.9,2.1h1.5c0-1.1,0.8-2.1,1.9-2.1v-1.5
			C103.5,88.5,102.7,87.5,102.7,86.4z M101.9,90c-0.2-0.3-0.5-0.6-0.8-0.8c0.3-0.2,0.6-0.5,0.8-0.8c0.2,0.3,0.5,0.6,0.8,0.8
			C102.4,89.4,102.1,89.7,101.9,90z"/>
		<path class="st6" d="M111.4,86.4h-1.5c0,1.1-0.8,2.1-1.9,2.1V90c1,0,1.9,0.9,1.9,2.1h1.5c0-1.1,0.8-2.1,1.9-2.1v-1.5
			C112.3,88.5,111.4,87.5,111.4,86.4z M110.7,90c-0.2-0.3-0.5-0.6-0.8-0.8c0.3-0.2,0.6-0.5,0.8-0.8c0.2,0.3,0.5,0.6,0.8,0.8
			C111.2,89.4,110.9,89.7,110.7,90z"/>
		<path class="st6" d="M91.6,83.8v-1.4c-1,0-1.9-0.9-1.9-2.1h-1.5c0,1.1-0.8,2.1-1.9,2.1v1.5c1,0,1.9,0.9,1.9,2.1h1.5
			c0-1.1,0.8-2.1,1.9-2.1V83.8z M89,84c-0.2-0.3-0.5-0.6-0.8-0.8c0.3-0.2,0.6-0.5,0.8-0.8c0.2,0.3,0.5,0.6,0.8,0.8
			C89.5,83.4,89.2,83.7,89,84z"/>
		<path class="st6" d="M100.2,83.8v-1.4c-1,0-1.9-0.9-1.9-2.1h-1.5c0,1.1-0.8,2.1-1.9,2.1v1.5c1,0,1.9,0.9,1.9,2.1h1.5
			c0-1.1,0.8-2.1,1.9-2.1V83.8z M97.6,84c-0.2-0.3-0.5-0.6-0.8-0.8c0.3-0.2,0.6-0.5,0.8-0.8c0.2,0.3,0.5,0.6,0.8,0.8
			C98,83.4,97.8,83.7,97.6,84z"/>
		<path class="st6" d="M108.7,83.8v-1.4c-1,0-1.9-0.9-1.9-2.1h-1.5c0,1.1-0.8,2.1-1.9,2.1v1.5c1,0,1.9,0.9,1.9,2.1h1.5
			c0-1.1,0.8-2.1,1.9-2.1V83.8z M106.1,84c-0.2-0.3-0.5-0.6-0.8-0.8c0.3-0.2,0.6-0.5,0.8-0.8c0.2,0.3,0.5,0.6,0.8,0.8
			C106.6,83.4,106.3,83.7,106.1,84z"/>
		<path class="st6" d="M117.3,83.8v-1.4c-1,0-1.9-0.9-1.9-2.1h-1.5c0,1.1-0.8,2.1-1.9,2.1v1.5c1,0,1.9,0.9,1.9,2.1h1.5
			c0-1.1,0.8-2.1,1.9-2.1V83.8z M114.7,84c-0.2-0.3-0.5-0.6-0.8-0.8c0.3-0.2,0.6-0.5,0.8-0.8c0.2,0.3,0.5,0.6,0.8,0.8
			C115.2,83.4,114.9,83.7,114.7,84z"/>
	</g>
	<g>
		<path class="st7" d="M69.9,60.4v1.3c1-0.3,1.8,0.2,1.8,1.3l0.1,0l1.2-0.4l0.1,0c0-1.1,0.8-2.2,1.8-2.6v-1.4
			c-1,0.3-1.8-0.2-1.8-1.3l-0.1,0l-1.2,0.4l-0.1,0c0,1.1-0.8,2.2-1.8,2.6V60.4z M72.4,59.3c0.2,0.2,0.4,0.4,0.7,0.5
			c-0.3,0.3-0.5,0.7-0.7,1c-0.2-0.2-0.4-0.4-0.7-0.5C71.9,60,72.2,59.6,72.4,59.3z"/>
		<path class="st7" d="M77.9,57.5v1.3c1-0.3,1.8,0.2,1.8,1.3l0.1,0l1.2-0.4l0.1,0c0-1.1,0.8-2.2,1.8-2.6v-1.4
			c-1,0.3-1.8-0.2-1.8-1.3l-0.1,0l-1.2,0.4l-0.1,0c0,1.1-0.8,2.2-1.8,2.6V57.5z M80.3,56.4c0.2,0.2,0.4,0.4,0.7,0.5
			c-0.3,0.3-0.5,0.7-0.7,1c-0.2-0.2-0.4-0.4-0.7-0.5C79.9,57.1,80.1,56.8,80.3,56.4z"/>
		<path class="st7" d="M86.1,54.5v1.3c1-0.3,1.8,0.2,1.8,1.3l0.1,0l1.2-0.4l0.1,0c0-1.1,0.8-2.2,1.8-2.6v-1.4
			c-1,0.3-1.8-0.2-1.8-1.3l-0.1,0L88,51.7l-0.1,0c0,1.1-0.8,2.2-1.8,2.6V54.5z M88.6,53.4c0.2,0.2,0.4,0.4,0.7,0.5
			c-0.3,0.3-0.5,0.7-0.7,1c-0.2-0.2-0.4-0.4-0.7-0.5C88.1,54.1,88.4,53.8,88.6,53.4z"/>
		<path class="st7" d="M67.5,58.9l0.1,0l1.2-0.4l0.1,0c0-1.1,0.8-2.2,1.8-2.6v-1.4c-1,0.3-1.8-0.2-1.8-1.3l-0.1,0l-1.2,0.4l-0.1,0
			c0,1.1-0.8,2.2-1.8,2.6v1.4C66.7,57.2,67.5,57.8,67.5,58.9z M68.2,55.2c0.2,0.2,0.4,0.4,0.7,0.5c-0.3,0.3-0.5,0.7-0.7,1
			c-0.2-0.2-0.4-0.4-0.7-0.5C67.7,55.9,68,55.6,68.2,55.2z"/>
		<path class="st7" d="M75.6,55.9l0.1,0l1.2-0.4l0.1,0c0-1.1,0.8-2.2,1.8-2.6v-1.4c-1,0.3-1.8-0.2-1.8-1.3l-0.1,0l-1.2,0.4l-0.1,0
			c0,1.1-0.8,2.2-1.8,2.6v1.4C74.8,54.3,75.6,54.9,75.6,55.9z M76.2,52.3c0.2,0.2,0.4,0.4,0.7,0.5c-0.3,0.3-0.5,0.7-0.7,1
			c-0.2-0.2-0.4-0.4-0.7-0.5C75.8,53,76,52.6,76.2,52.3z"/>
		<path class="st7" d="M83.6,53l0.1,0l1.2-0.4l0.1,0c0-1.1,0.8-2.2,1.8-2.6v-1.4c-1,0.3-1.8-0.2-1.8-1.3l-0.1,0l-1.2,0.4l-0.1,0
			c0,1.1-0.8,2.2-1.8,2.6v1.4C82.8,51.3,83.6,51.9,83.6,53z M84.3,49.3c0.2,0.2,0.4,0.4,0.7,0.5c-0.3,0.3-0.5,0.7-0.7,1
			c-0.2-0.2-0.4-0.4-0.7-0.5C83.9,50,84.1,49.7,84.3,49.3z"/>
		<path class="st7" d="M91.7,50l0.1,0l1.2-0.4l0.1,0c0-1.1,0.8-2.2,1.8-2.6v-1.4c-1,0.3-1.8-0.2-1.8-1.3l-0.1,0l-1.2,0.4l-0.1,0
			c0,1.1-0.8,2.2-1.8,2.6v1.4C90.9,48.4,91.7,48.9,91.7,50z M92.4,46.3c0.2,0.2,0.4,0.4,0.7,0.5c-0.3,0.3-0.5,0.7-0.7,1
			c-0.2-0.2-0.4-0.4-0.7-0.5C91.9,47.1,92.2,46.7,92.4,46.3z"/>
		<path class="st7" d="M73.1,68.2L73,68.2l-1.2,0.4l-0.1,0.1c0,1.1-0.8,2.2-1.8,2.6v1.4c1-0.3,1.8,0.2,1.8,1.3l0.1-0.1l1.2-0.4
			l0.1-0.1c0-1.1,0.8-2.2,1.8-2.6v-1.4C73.9,69.8,73.1,69.3,73.1,68.2z M72.4,71.8c-0.2-0.2-0.4-0.4-0.7-0.5c0.3-0.3,0.5-0.7,0.7-1
			c0.2,0.2,0.4,0.4,0.7,0.5C72.9,71.1,72.6,71.5,72.4,71.8z"/>
		<path class="st7" d="M81.1,65.3l-0.1,0.1l-1.2,0.4l-0.1,0.1c0,1.1-0.8,2.2-1.8,2.6v1.4c1-0.3,1.8,0.2,1.8,1.3l0.1-0.1l1.2-0.4
			l0.1-0.1c0-1.1,0.8-2.2,1.8-2.6v-1.4C81.8,67,81.1,66.4,81.1,65.3z M80.3,69c-0.2-0.2-0.4-0.4-0.7-0.5c0.3-0.3,0.5-0.7,0.7-1
			c0.2,0.2,0.4,0.4,0.7,0.5C80.8,68.3,80.5,68.6,80.3,69z"/>
		<path class="st7" d="M89.3,62.3l-0.1,0L88,62.8l-0.1,0c0,1.1-0.8,2.2-1.8,2.6v1.4c1-0.3,1.8,0.2,1.8,1.3l0.1-0.1l1.2-0.4l0.1-0.1
			c0-1.1,0.8-2.2,1.8-2.6v-1.4C90.1,63.9,89.3,63.4,89.3,62.3z M88.6,66c-0.2-0.2-0.4-0.4-0.7-0.5c0.3-0.3,0.5-0.7,0.7-1
			c0.2,0.2,0.4,0.4,0.7,0.5C89.1,65.2,88.8,65.6,88.6,66z"/>
		<path class="st7" d="M68.9,64.1l-0.1,0.1l-1.2,0.4l-0.1,0.1c0,1.1-0.8,2.2-1.8,2.6v1.4c1-0.3,1.8,0.2,1.8,1.3l0.1-0.1l1.2-0.4
			l0.1-0.1c0-1.1,0.8-2.2,1.8-2.6v-1.4C69.7,65.8,68.9,65.2,68.9,64.1z M68.2,67.8c-0.2-0.2-0.4-0.4-0.7-0.5c0.3-0.3,0.5-0.7,0.7-1
			c0.2,0.2,0.4,0.4,0.7,0.5C68.6,67.1,68.4,67.4,68.2,67.8z"/>
		<path class="st7" d="M77,61.2l-0.1,0l-1.2,0.4l-0.1,0c0,1.1-0.8,2.2-1.8,2.6v1.4c1-0.3,1.8,0.2,1.8,1.3l0.1-0.1l1.2-0.4l0.1-0.1
			c0-1.1,0.8-2.2,1.8-2.6v-1.4C77.7,62.8,77,62.2,77,61.2z M76.2,64.8c-0.2-0.2-0.4-0.4-0.7-0.5c0.3-0.3,0.5-0.7,0.7-1
			c0.2,0.2,0.4,0.4,0.7,0.5C76.7,64.1,76.5,64.5,76.2,64.8z"/>
		<path class="st7" d="M85,58.2l-0.1,0l-1.2,0.4l-0.1,0c0,1.1-0.8,2.2-1.8,2.6v1.4c1-0.3,1.8,0.2,1.8,1.3l0.1,0l1.2-0.4l0.1,0
			c0-1.1,0.8-2.2,1.8-2.6v-1.4C85.8,59.9,85,59.3,85,58.2z M84.3,61.9c-0.2-0.2-0.4-0.4-0.7-0.5c0.3-0.3,0.5-0.7,0.7-1
			c0.2,0.2,0.4,0.4,0.7,0.5C84.8,61.2,84.5,61.5,84.3,61.9z"/>
		<path class="st7" d="M91.7,61l0.1,0l1.2-0.4l0.1,0c0-1.1,0.8-2.2,1.8-2.6v-1.4c-1,0.3-1.8-0.2-1.8-1.3l-0.1,0l-1.2,0.4l-0.1,0
			c0,1.1-0.8,2.2-1.8,2.6v1.4C90.9,59.4,91.7,60,91.7,61z M92.4,57.4c0.2,0.2,0.4,0.4,0.7,0.5c-0.3,0.3-0.5,0.7-0.7,1
			c-0.2-0.2-0.4-0.4-0.7-0.5C91.9,58.1,92.2,57.8,92.4,57.4z"/>
		<path class="st7" d="M71.7,85l0.1-0.1l1.2-0.4l0.1-0.1c0-1.1,0.8-2.2,1.8-2.6v-1.4c-1,0.3-1.8-0.2-1.8-1.3L73,79.3l-1.2,0.4
			l-0.1,0.1c0,1.1-0.8,2.2-1.8,2.6v1.4C70.9,83.4,71.7,84,71.7,85z M72.4,81.4c0.2,0.2,0.4,0.4,0.7,0.5c-0.3,0.3-0.5,0.7-0.7,1
			c-0.2-0.2-0.4-0.4-0.7-0.5C71.9,82.1,72.2,81.7,72.4,81.4z"/>
		<path class="st7" d="M79.6,82.2l0.1-0.1l1.2-0.4l0.1-0.1c0-1.1,0.8-2.2,1.8-2.6v-1.4c-1,0.3-1.8-0.2-1.8-1.3l-0.1,0.1l-1.2,0.4
			l-0.1,0.1c0,1.1-0.8,2.2-1.8,2.6v1.4C78.9,80.5,79.6,81.1,79.6,82.2z M80.3,78.5c0.2,0.2,0.4,0.4,0.7,0.5c-0.3,0.3-0.5,0.7-0.7,1
			c-0.2-0.2-0.4-0.4-0.7-0.5C79.9,79.2,80.1,78.9,80.3,78.5z"/>
		<path class="st7" d="M87.9,79.2l0.1-0.1l1.2-0.4l0.1-0.1c0-1.1,0.8-2.2,1.8-2.6v-1.4c-1,0.3-1.8-0.2-1.8-1.3l-0.1,0.1L88,73.8
			l-0.1,0.1c0,1.1-0.8,2.2-1.8,2.6v1.4C87.1,77.5,87.9,78.1,87.9,79.2z M88.6,75.5c0.2,0.2,0.4,0.4,0.7,0.5c-0.3,0.3-0.5,0.7-0.7,1
			c-0.2-0.2-0.4-0.4-0.7-0.5C88.1,76.2,88.4,75.9,88.6,75.5z"/>
		<path class="st7" d="M67.5,81l0.1-0.1l1.2-0.4l0.1-0.1c0-1.1,0.8-2.2,1.8-2.6v-1.4c-1,0.3-1.8-0.2-1.8-1.3l-0.1,0.1l-1.2,0.4
			l-0.1,0.1c0,1.1-0.8,2.2-1.8,2.6v1.4C66.7,79.3,67.5,79.9,67.5,81z M68.2,77.3c0.2,0.2,0.4,0.4,0.7,0.5c-0.3,0.3-0.5,0.7-0.7,1
			c-0.2-0.2-0.4-0.4-0.7-0.5C67.7,78.1,68,77.7,68.2,77.3z"/>
		<path class="st7" d="M75.6,78l0.1-0.1l1.2-0.4l0.1-0.1c0-1.1,0.8-2.2,1.8-2.6v-1.4c-1,0.3-1.8-0.2-1.8-1.3l-0.1,0.1l-1.2,0.4
			l-0.1,0.1c0,1.1-0.8,2.2-1.8,2.6v1.4C74.8,76.4,75.6,77,75.6,78z M76.2,74.4c0.2,0.2,0.4,0.4,0.7,0.5c-0.3,0.3-0.5,0.7-0.7,1
			c-0.2-0.2-0.4-0.4-0.7-0.5C75.8,75.1,76,74.7,76.2,74.4z"/>
		<path class="st7" d="M83.6,75.1l0.1-0.1l1.2-0.4l0.1-0.1c0-1.1,0.8-2.2,1.8-2.6v-1.4c-1,0.3-1.8-0.2-1.8-1.3l-0.1,0.1l-1.2,0.4
			l-0.1,0.1c0,1.1-0.8,2.2-1.8,2.6v1.4C82.8,73.4,83.6,74,83.6,75.1z M84.3,71.4c0.2,0.2,0.4,0.4,0.7,0.5c-0.3,0.3-0.5,0.7-0.7,1
			c-0.2-0.2-0.4-0.4-0.7-0.5C83.9,72.1,84.1,71.8,84.3,71.4z"/>
		<path class="st7" d="M91.7,72.1l0.1-0.1l1.2-0.4l0.1-0.1c0-1.1,0.8-2.2,1.8-2.6v-1.4c-1,0.3-1.8-0.2-1.8-1.3L93,66.3l-1.2,0.4
			l-0.1,0.1c0,1.1-0.8,2.2-1.8,2.6v1.4C90.9,70.5,91.7,71,91.7,72.1z M92.4,68.4c0.2,0.2,0.4,0.4,0.7,0.5c-0.3,0.3-0.5,0.7-0.7,1
			c-0.2-0.2-0.4-0.4-0.7-0.5C91.9,69.2,92.2,68.8,92.4,68.4z"/>
		<path class="st7" d="M73.1,90.3L73,90.3l-1.2,0.4l-0.1,0.1c0,1.1-0.8,2.2-1.8,2.6v1.4c1-0.3,1.8,0.2,1.8,1.3l0.1-0.1l1.2-0.4
			l0.1-0.1c0-1.1,0.8-2.2,1.8-2.6v-1.4C73.9,91.9,73.1,91.3,73.1,90.3z M72.4,93.9c-0.2-0.2-0.4-0.4-0.7-0.5c0.3-0.3,0.5-0.7,0.7-1
			c0.2,0.2,0.4,0.4,0.7,0.5C72.9,93.2,72.6,93.6,72.4,93.9z"/>
		<path class="st7" d="M81.1,87.4l-0.1,0.1l-1.2,0.4L79.6,88c0,1.1-0.8,2.2-1.8,2.6V92c1-0.3,1.8,0.2,1.8,1.3l0.1-0.1l1.2-0.4
			l0.1-0.1c0-1.1,0.8-2.2,1.8-2.6v-1.4C81.8,89.1,81.1,88.5,81.1,87.4z M80.3,91.1c-0.2-0.2-0.4-0.4-0.7-0.5c0.3-0.3,0.5-0.7,0.7-1
			c0.2,0.2,0.4,0.4,0.7,0.5C80.8,90.4,80.5,90.7,80.3,91.1z"/>
		<path class="st7" d="M89.3,84.4l-0.1,0.1L88,84.9l-0.1,0.1c0,1.1-0.8,2.2-1.8,2.6v1.4c1-0.3,1.8,0.2,1.8,1.3l0.1-0.1l1.2-0.4
			l0.1-0.1c0-1.1,0.8-2.2,1.8-2.6v-1.4C90.1,86,89.3,85.5,89.3,84.4z M88.6,88.1c-0.2-0.2-0.4-0.4-0.7-0.5c0.3-0.3,0.5-0.7,0.7-1
			c0.2,0.2,0.4,0.4,0.7,0.5C89.1,87.3,88.8,87.7,88.6,88.1z"/>
		<path class="st7" d="M70.7,88.8v-1.3c-1,0.3-1.8-0.2-1.8-1.3l-0.1,0.1l-1.2,0.4l-0.1,0.1c0,1.1-0.8,2.2-1.8,2.6v1.4
			c1-0.3,1.8,0.2,1.8,1.3l0.1-0.1l1.2-0.4l0.1-0.1c0-1.1,0.8-2.2,1.8-2.6V88.8z M68.2,89.9c-0.2-0.2-0.4-0.4-0.7-0.5
			c0.3-0.3,0.5-0.7,0.7-1c0.2,0.2,0.4,0.4,0.7,0.5C68.6,89.2,68.4,89.5,68.2,89.9z"/>
		<path class="st7" d="M78.7,85.8v-1.3c-1,0.3-1.8-0.2-1.8-1.3l-0.1,0.1l-1.2,0.4l-0.1,0.1c0,1.1-0.8,2.2-1.8,2.6v1.4
			c1-0.3,1.8,0.2,1.8,1.3l0.1-0.1l1.2-0.4l0.1-0.1c0-1.1,0.8-2.2,1.8-2.6V85.8z M76.2,86.9c-0.2-0.2-0.4-0.4-0.7-0.5
			c0.3-0.3,0.5-0.7,0.7-1c0.2,0.2,0.4,0.4,0.7,0.5C76.7,86.2,76.5,86.6,76.2,86.9z"/>
		<path class="st7" d="M86.8,82.9v-1.3c-1,0.3-1.8-0.2-1.8-1.3l-0.1,0.1l-1.2,0.4l-0.1,0.1c0,1.1-0.8,2.2-1.8,2.6v1.4
			c1-0.3,1.8,0.2,1.8,1.3l0.1-0.1l1.2-0.4l0.1-0.1c0-1.1,0.8-2.2,1.8-2.6V82.9z M84.3,84c-0.2-0.2-0.4-0.4-0.7-0.5
			c0.3-0.3,0.5-0.7,0.7-1c0.2,0.2,0.4,0.4,0.7,0.5C84.8,83.2,84.5,83.6,84.3,84z"/>
		<path class="st7" d="M94.8,79.9v-1.3c-1,0.3-1.8-0.2-1.8-1.3L93,77.4l-1.2,0.4l-0.1,0.1c0,1.1-0.8,2.2-1.8,2.6v1.4
			c1-0.3,1.8,0.2,1.8,1.3l0.1-0.1l1.2-0.4l0.1-0.1c0-1.1,0.8-2.2,1.8-2.6V79.9z M92.4,81c-0.2-0.2-0.4-0.4-0.7-0.5
			c0.3-0.3,0.5-0.7,0.7-1c0.2,0.2,0.4,0.4,0.7,0.5C92.8,80.3,92.6,80.6,92.4,81z"/>
	</g>
	<g>
		<path class="st7" d="M134.5,60.2c-1-0.3-1.8-1.5-1.8-2.6l-0.1,0l-1.2-0.4l-0.1,0c0,1.1-0.8,1.6-1.8,1.3v1.4c1,0.3,1.8,1.5,1.8,2.6
			l0.1,0l1.2,0.4l0.1,0c0-1.1,0.8-1.6,1.8-1.3v-1.3V60.2z M132.8,60.3c-0.3,0.1-0.5,0.3-0.7,0.5c-0.2-0.4-0.4-0.7-0.7-1
			c0.3-0.1,0.5-0.3,0.7-0.5C132.3,59.6,132.5,60,132.8,60.3z"/>
		<path class="st7" d="M126.6,57.4c-1-0.3-1.8-1.5-1.8-2.6l-0.1,0l-1.2-0.4l-0.1,0c0,1.1-0.8,1.6-1.8,1.3v0.1v1.2V57
			c1,0.3,1.8,1.5,1.8,2.6l0.1,0l1.2,0.4l0.1,0c0-1.1,0.8-1.6,1.8-1.3v-0.1v-1.2V57.4z M124.8,57.5c-0.3,0.1-0.5,0.3-0.7,0.5
			c-0.2-0.4-0.4-0.7-0.7-1c0.3-0.1,0.5-0.3,0.7-0.5C124.3,56.8,124.6,57.1,124.8,57.5z"/>
		<path class="st7" d="M118.3,54.3c-1-0.3-1.8-1.5-1.8-2.6l-0.1,0l-1.2-0.4l-0.1,0c0,1.1-0.8,1.6-1.8,1.3v0.1v1.2V54
			c1,0.3,1.8,1.5,1.8,2.6l0.1,0l1.2,0.4l0.1,0c0-1.1,0.8-1.6,1.8-1.3V54.3L118.3,54.3z M116.6,54.4c-0.3,0.1-0.5,0.3-0.7,0.5
			c-0.2-0.4-0.4-0.7-0.7-1c0.3-0.1,0.5-0.3,0.7-0.5C116.1,53.8,116.3,54.1,116.6,54.4z"/>
		<path class="st7" d="M138.7,57.6v-1.3v-0.1c-1-0.3-1.8-1.5-1.8-2.6l-0.1,0l-1.2-0.4l-0.1,0c0,1.1-0.8,1.6-1.8,1.3v1.4
			c1,0.3,1.8,1.5,1.8,2.6l0.1,0l1.2,0.4l0.1,0C137,57.8,137.8,57.2,138.7,57.6z M137,56.3c-0.3,0.1-0.5,0.3-0.7,0.5
			c-0.2-0.4-0.4-0.7-0.7-1c0.3-0.1,0.5-0.3,0.7-0.5C136.5,55.6,136.7,56,137,56.3z"/>
		<path class="st7" d="M130.7,54.6v-0.1v-1.2v-0.1c-1-0.3-1.8-1.5-1.8-2.6l-0.1,0l-1.2-0.4l-0.1,0c0,1.1-0.8,1.6-1.8,1.3v0.1v1.2
			v0.1c1,0.3,1.8,1.5,1.8,2.6l0.1,0l1.2,0.4l0.1,0C128.9,54.9,129.7,54.3,130.7,54.6z M128.9,53.3c-0.3,0.1-0.5,0.3-0.7,0.5
			c-0.2-0.4-0.4-0.7-0.7-1c0.3-0.1,0.5-0.3,0.7-0.5C128.4,52.6,128.6,53,128.9,53.3z"/>
		<path class="st7" d="M122.6,51.7v-1.3v-0.1c-1-0.3-1.8-1.5-1.8-2.6l-0.1,0l-1.2-0.4l-0.1,0c0,1.1-0.8,1.6-1.8,1.3v0.1v1.2v0.1
			c1,0.3,1.8,1.5,1.8,2.6l0.1,0l1.2,0.4l0.1,0C120.8,51.9,121.6,51.3,122.6,51.7L122.6,51.7z M120.9,50.3c-0.3,0.1-0.5,0.3-0.7,0.5
			c-0.2-0.4-0.4-0.7-0.7-1c0.3-0.1,0.5-0.3,0.7-0.5C120.3,49.7,120.6,50,120.9,50.3z"/>
		<path class="st7" d="M114.5,48.7v-0.1v-1.2v-0.1c-1-0.3-1.8-1.5-1.8-2.6l-0.1,0l-1.2-0.4l-0.1,0c0,1.1-0.8,1.6-1.8,1.3v1.4
			c1,0.3,1.8,1.5,1.8,2.6l0.1,0l1.2,0.4l0.1,0C112.8,48.9,113.6,48.4,114.5,48.7L114.5,48.7z M112.8,47.4c-0.3,0.1-0.5,0.3-0.7,0.5
			c-0.2-0.4-0.4-0.7-0.7-1c0.3-0.1,0.5-0.3,0.7-0.5C112.3,46.7,112.5,47.1,112.8,47.4z"/>
		<path class="st7" d="M129.6,69.5v0.1v1.2v0.1c1,0.3,1.8,1.5,1.8,2.6l0.1,0.1l1.2,0.4l0.1,0.1c0-1.1,0.8-1.6,1.8-1.3v-0.1v-1.2
			v-0.1c-1-0.3-1.8-1.5-1.8-2.6l-0.1-0.1l-1.2-0.4l-0.1-0.1C131.4,69.2,130.6,69.8,129.6,69.5z M131.3,70.8c0.3-0.1,0.5-0.3,0.7-0.5
			c0.2,0.4,0.4,0.7,0.7,1c-0.3,0.1-0.5,0.3-0.7,0.5C131.9,71.5,131.6,71.1,131.3,70.8z"/>
		<path class="st7" d="M121.7,66.6v1.3V68c1,0.3,1.8,1.5,1.8,2.6l0.1,0.1l1.2,0.4l0.1,0.1c0-1.1,0.8-1.6,1.8-1.3v-0.1v-1.2v-0.1
			c-1-0.3-1.8-1.5-1.8-2.6l-0.1-0.1l-1.2-0.4l-0.1-0.1C123.4,66.4,122.6,67,121.7,66.6L121.7,66.6z M123.4,68
			c0.3-0.1,0.5-0.3,0.7-0.5c0.2,0.4,0.4,0.7,0.7,1c-0.3,0.1-0.5,0.3-0.7,0.5C123.9,68.6,123.7,68.3,123.4,68z"/>
		<path class="st7" d="M113.4,63.6v0.1v1.1V65c1,0.3,1.8,1.5,1.8,2.6l0.1,0.1l1.2,0.4l0.1,0.1c0-1.1,0.8-1.6,1.8-1.3v-1.3v-0.1
			c-1-0.3-1.8-1.5-1.8-2.6l-0.1,0l-1.2-0.4l-0.1,0C115.2,63.4,114.4,64,113.4,63.6L113.4,63.6z M115.1,64.9c0.3-0.1,0.5-0.3,0.7-0.5
			c0.2,0.4,0.4,0.7,0.7,1c-0.3,0.1-0.5,0.3-0.7,0.5C115.7,65.6,115.4,65.2,115.1,64.9z"/>
		<path class="st7" d="M133.8,65.4v0.1v1.2v0.1c1,0.3,1.8,1.5,1.8,2.6l0.1,0.1l1.2,0.4L137,70c0-1.1,0.8-1.6,1.8-1.3v-1.4
			c-1-0.3-1.8-1.5-1.8-2.6l-0.1-0.1l-1.2-0.4l-0.1-0.1C135.6,65.2,134.8,65.8,133.8,65.4L133.8,65.4z M135.5,66.8
			c0.3-0.1,0.5-0.3,0.7-0.5c0.2,0.4,0.4,0.7,0.7,1c-0.3,0.1-0.5,0.3-0.7,0.5C136.1,67.4,135.8,67.1,135.5,66.8z"/>
		<path class="st7" d="M125.8,62.5v0.1v1.2v0.1c1,0.3,1.8,1.5,1.8,2.6l0.1,0.1l1.2,0.4l0.1,0.1c0-1.1,0.8-1.6,1.8-1.3v-1.4
			c-1-0.3-1.8-1.5-1.8-2.6l-0.1,0l-1.2-0.4l-0.1,0C127.5,62.2,126.7,62.8,125.8,62.5L125.8,62.5z M127.5,63.8
			c0.3-0.1,0.5-0.3,0.7-0.5c0.2,0.4,0.4,0.7,0.7,1c-0.3,0.1-0.5,0.3-0.7,0.5C128,64.5,127.8,64.1,127.5,63.8z"/>
		<path class="st7" d="M117.7,59.5v1.4c1,0.3,1.8,1.5,1.8,2.6l0.1,0l1.2,0.4l0.1,0c0-1.1,0.8-1.6,1.8-1.3v-0.1v-1.2v-0.1
			c-1-0.3-1.8-1.5-1.8-2.6l-0.1,0l-1.2-0.4l-0.1,0C119.4,59.3,118.7,59.8,117.7,59.5L117.7,59.5z M119.4,60.8
			c0.3-0.1,0.5-0.3,0.7-0.5c0.2,0.4,0.4,0.7,0.7,1c-0.3,0.1-0.5,0.3-0.7,0.5C120,61.5,119.7,61.2,119.4,60.8z"/>
		<path class="st7" d="M114.5,59.8v-0.1v-1.2v-0.1c-1-0.3-1.8-1.5-1.8-2.6l-0.1,0l-1.2-0.4l-0.1,0c0,1.1-0.8,1.6-1.8,1.3v0.1v1.2V58
			c1,0.3,1.8,1.5,1.8,2.6l0.1,0l1.2,0.4l0.1,0C112.8,60,113.6,59.4,114.5,59.8z M112.8,58.4c-0.3,0.1-0.5,0.3-0.7,0.5
			c-0.2-0.4-0.4-0.7-0.7-1c0.3-0.1,0.5-0.3,0.7-0.5C112.3,57.8,112.5,58.1,112.8,58.4z"/>
		<path class="st7" d="M134.5,83.7v-0.1v-1.2v-0.1c-1-0.3-1.8-1.5-1.8-2.6l-0.1-0.1l-1.2-0.4l-0.1-0.1c0,1.1-0.8,1.6-1.8,1.3v1.3
			v0.1c1,0.3,1.8,1.5,1.8,2.6l0.1,0.1l1.2,0.4l0.1,0.1C132.8,84,133.5,83.4,134.5,83.7L134.5,83.7z M132.8,82.4
			c-0.3,0.1-0.5,0.3-0.7,0.5c-0.2-0.4-0.4-0.7-0.7-1c0.3-0.1,0.5-0.3,0.7-0.5C132.3,81.7,132.5,82.1,132.8,82.4z"/>
		<path class="st7" d="M126.6,80.9v-1.4c-1-0.3-1.8-1.5-1.8-2.6l-0.1-0.1l-1.2-0.4l-0.1-0.1c0,1.1-0.8,1.6-1.8,1.3v0.1v1.2v0.1
			c1,0.3,1.8,1.5,1.8,2.6l0.1,0.1l1.2,0.4l0.1,0.1C124.8,81.1,125.6,80.6,126.6,80.9L126.6,80.9z M124.8,79.6
			c-0.3,0.1-0.5,0.3-0.7,0.5c-0.2-0.4-0.4-0.7-0.7-1c0.3-0.1,0.5-0.3,0.7-0.5C124.3,78.9,124.6,79.2,124.8,79.6z"/>
		<path class="st7" d="M118.3,77.9v-0.1v-1.2v-0.1c-1-0.3-1.8-1.5-1.8-2.6l-0.1-0.1l-1.2-0.4l-0.1-0.1c0,1.1-0.8,1.6-1.8,1.3V76
			c1,0.3,1.8,1.5,1.8,2.6l0.1,0.1l1.2,0.4l0.1,0.1C116.6,78.1,117.4,77.5,118.3,77.9L118.3,77.9z M116.6,76.5
			c-0.3,0.1-0.5,0.3-0.7,0.5c-0.2-0.4-0.4-0.7-0.7-1c0.3-0.1,0.5-0.3,0.7-0.5C116.1,75.9,116.3,76.2,116.6,76.5z"/>
		<path class="st7" d="M138.7,79.7v-1.4c-1-0.3-1.8-1.5-1.8-2.6l-0.1-0.1l-1.2-0.4l-0.1-0.1c0,1.1-0.8,1.6-1.8,1.3v1.3v0.1
			c1,0.3,1.8,1.5,1.8,2.6l0.1,0.1l1.2,0.4L137,81C137,79.9,137.8,79.3,138.7,79.7z M137,78.3c-0.3,0.1-0.5,0.3-0.7,0.5
			c-0.2-0.4-0.4-0.7-0.7-1c0.3-0.1,0.5-0.3,0.7-0.5C136.5,77.7,136.7,78,137,78.3z"/>
		<path class="st7" d="M130.7,76.7v-0.1v-1.2v-0.1c-1-0.3-1.8-1.5-1.8-2.6l-0.1-0.1l-1.2-0.4l-0.1-0.1c0,1.1-0.8,1.6-1.8,1.3v0.1
			v1.2v0.1c1,0.3,1.8,1.5,1.8,2.6l0.1,0.1l1.2,0.4l0.1,0.1C128.9,77,129.7,76.4,130.7,76.7z M128.9,75.4c-0.3,0.1-0.5,0.3-0.7,0.5
			c-0.2-0.4-0.4-0.7-0.7-1c0.3-0.1,0.5-0.3,0.7-0.5C128.4,74.7,128.6,75.1,128.9,75.4z"/>
		<path class="st7" d="M122.6,73.8v-1.4c-1-0.3-1.8-1.5-1.8-2.6l-0.1-0.1l-1.2-0.4l-0.1-0.1c0,1.1-0.8,1.6-1.8,1.3v0.1v1.2V72
			c1,0.3,1.8,1.5,1.8,2.6l0.1,0.1l1.2,0.4l0.1,0.1C120.8,74,121.6,73.4,122.6,73.8L122.6,73.8z M120.9,72.4
			c-0.3,0.1-0.5,0.3-0.7,0.5c-0.2-0.4-0.4-0.7-0.7-1c0.3-0.1,0.5-0.3,0.7-0.5C120.3,71.8,120.6,72.1,120.9,72.4z"/>
		<path class="st7" d="M114.5,70.8v-0.1v-1.2v-0.1c-1-0.3-1.8-1.5-1.8-2.6l-0.1-0.1l-1.2-0.4l-0.1-0.1c0,1.1-0.8,1.6-1.8,1.3v1.3V69
			c1,0.3,1.8,1.5,1.8,2.6l0.1,0.1l1.2,0.4l0.1,0.1C112.8,71,113.6,70.4,114.5,70.8L114.5,70.8z M112.8,69.5
			c-0.3,0.1-0.5,0.3-0.7,0.5c-0.2-0.4-0.4-0.7-0.7-1c0.3-0.1,0.5-0.3,0.7-0.5C112.3,68.8,112.5,69.2,112.8,69.5z"/>
		<path class="st7" d="M129.6,91.6v0.1v1.2V93c1,0.3,1.8,1.5,1.8,2.6l0.1,0.1l1.2,0.4l0.1,0.1c0-1.1,0.8-1.6,1.8-1.3v-0.1v-1.2v-0.1
			c-1-0.3-1.8-1.5-1.8-2.6l-0.1-0.1l-1.2-0.4l-0.1-0.1C131.4,91.3,130.6,91.9,129.6,91.6z M131.3,92.9c0.3-0.1,0.5-0.3,0.7-0.5
			c0.2,0.4,0.4,0.7,0.7,1c-0.3,0.1-0.5,0.3-0.7,0.5C131.9,93.6,131.6,93.2,131.3,92.9z"/>
		<path class="st7" d="M121.7,88.7v0.1V90v0.1c1,0.3,1.8,1.5,1.8,2.6l0.1,0.1l1.2,0.4l0.1,0.1c0-1.1,0.8-1.6,1.8-1.3v-1.4
			c-1-0.3-1.8-1.5-1.8-2.6l-0.1-0.1l-1.2-0.4l-0.1-0.1C123.4,88.5,122.6,89.1,121.7,88.7L121.7,88.7z M123.4,90.1
			c0.3-0.1,0.5-0.3,0.7-0.5c0.2,0.4,0.4,0.7,0.7,1c-0.3,0.1-0.5,0.3-0.7,0.5C123.9,90.7,123.7,90.4,123.4,90.1z"/>
		<path class="st7" d="M113.4,85.7v0.1V87v0.1c1,0.3,1.8,1.5,1.8,2.6l0.1,0.1l1.2,0.4l0.1,0.1c0-1.1,0.8-1.6,1.8-1.3v-1.4
			c-1-0.3-1.8-1.5-1.8-2.6l-0.1-0.1l-1.2-0.4l-0.1-0.1C115.2,85.5,114.4,86,113.4,85.7L113.4,85.7z M115.1,87
			c0.3-0.1,0.5-0.3,0.7-0.5c0.2,0.4,0.4,0.7,0.7,1c-0.3,0.1-0.5,0.3-0.7,0.5C115.7,87.7,115.4,87.3,115.1,87z"/>
		<path class="st7" d="M133.8,88.9c1,0.3,1.8,1.5,1.8,2.6l0.1,0.1l1.2,0.4L137,92c0-1.1,0.8-1.6,1.8-1.3v-0.1v-1.2v-0.1
			c-1-0.3-1.8-1.5-1.8-2.6l-0.1-0.1l-1.2-0.4l-0.1-0.1c0,1.1-0.8,1.6-1.8,1.3v0.1v1.2V88.9z M135.5,88.9c0.3-0.1,0.5-0.3,0.7-0.5
			c0.2,0.4,0.4,0.7,0.7,1c-0.3,0.1-0.5,0.3-0.7,0.5C136.1,89.5,135.8,89.2,135.5,88.9z"/>
		<path class="st7" d="M125.8,86c1,0.3,1.8,1.5,1.8,2.6l0.1,0.1l1.2,0.4l0.1,0.1c0-1.1,0.8-1.6,1.8-1.3v-0.1v-1.2v-0.1
			c-1-0.3-1.8-1.5-1.8-2.6l-0.1-0.1l-1.2-0.4l-0.1-0.1c0,1.1-0.8,1.6-1.8,1.3v0.1v1.2C125.7,85.8,125.7,86,125.8,86z M127.5,85.9
			c0.3-0.1,0.5-0.3,0.7-0.5c0.2,0.4,0.4,0.7,0.7,1c-0.3,0.1-0.5,0.3-0.7,0.5C128,86.6,127.8,86.2,127.5,85.9z"/>
		<path class="st7" d="M117.7,83c1,0.3,1.8,1.5,1.8,2.6l0.1,0.1l1.2,0.4l0.1,0.1c0-1.1,0.8-1.6,1.8-1.3v-0.1v-1.2v-0.1
			c-1-0.3-1.8-1.5-1.8-2.6l-0.1-0.1l-1.2-0.4l-0.1-0.1c0,1.1-0.8,1.6-1.8,1.3V83L117.7,83z M119.4,82.9c0.3-0.1,0.5-0.3,0.7-0.5
			c0.2,0.4,0.4,0.7,0.7,1c-0.3,0.1-0.5,0.3-0.7,0.5C120,83.6,119.7,83.2,119.4,82.9z"/>
		<path class="st7" d="M109.6,80.1c1,0.3,1.8,1.5,1.8,2.6l0.1,0.1l1.2,0.4l0.1,0.1c0-1.1,0.8-1.6,1.8-1.3v-1.3v-0.1
			c-1-0.3-1.8-1.5-1.8-2.6l-0.1-0.1l-1.2-0.4l-0.1-0.1c0,1.1-0.8,1.6-1.8,1.3V80.1z M111.4,80c0.3-0.1,0.5-0.3,0.7-0.5
			c0.2,0.4,0.4,0.7,0.7,1c-0.3,0.1-0.5,0.3-0.7,0.5C111.9,80.6,111.6,80.3,111.4,80z"/>
	</g>
</g>
</svg>
