<?xml version="1.0" encoding="utf-8"?>
<!-- Generator: Adobe Illustrator 28.1.0, SVG Export Plug-In . SVG Version: 6.00 Build 0)  -->
<svg version="1.1" id="Capa_1" xmlns="http://www.w3.org/2000/svg" xmlns:xlink="http://www.w3.org/1999/xlink" x="0px" y="0px"
	 viewBox="0 0 203.5 162.8" style="enable-background:new 0 0 203.5 162.8;" xml:space="preserve">
<style type="text/css">
	.st0{fill:#2C80C3;}
	.st1{fill:#FDC300;}
	.st2{fill:#7E6A25;}
</style>
<rect class="st0" width="203.5" height="162.8"/>
<g>
	<path class="st1" d="M156.3,133.8l-3.8-2.9l-6.7-1.9l-12.8-3.2l7-2.9l0.8-2.4l0.4-10.5l-2.6-26.8l-3.1-4.6l-3.4-2l-9.7-1.5
		l-7.8-2.4l-2-1.3l-1.5-3.3l0.4-5.2H96.4l0.5,5.8l-2.5,3.4L75,77.6l-2.8,4.3L71.3,89l-1.8,20v6.7l-1,2.8v4.4l-3.6,4.3l-11.7,2.7
		l-4.3,3.9l0.9,6.8l3.6,6.3l11.8,0.9h79.4l7.6-0.5l4.2-3.7l0.8-4.7L156.3,133.8L156.3,133.8z M85.9,120.3l-1.3,2.6l-1.5,1.7
		l-6.4,0.9l-0.1-0.8l4-4.6l2-28l6,10.9l0.5,4.3L85.9,120.3L85.9,120.3z M121.6,119.3l-2.3-3.9l0.3-9.2l2.3-5.7l3.5-5.4l1.2-2.4
		l2.5,22.8L121.6,119.3L121.6,119.3z"/>
	<polygon class="st2" points="111.1,65.9 109.3,68.2 106.8,69.8 103.9,70.2 101.1,69.4 97.9,67.4 96.7,65.9 96.4,62.9 111.3,62.9 	
		"/>
	<polygon class="st2" points="117.8,72 123.3,74.3 112.1,85.2 111.3,88.4 108.2,116.2 103.1,115.8 105.9,85.7 108,81.3 	"/>
	<polygon class="st2" points="69.5,108.9 72.8,109.2 77,111.6 78.8,115.5 74.6,113.1 69.5,114.9 	"/>
	<polygon class="st2" points="68.5,118.4 71.4,117.3 74.2,117.9 79.1,121.8 76.5,124.7 74.2,122.2 70.5,122 68.5,122.8 	"/>
	<polygon class="st2" points="67.2,124.3 74.2,126.2 65.6,126.2 	"/>
	<polygon class="st2" points="77.1,131.3 74.6,138.4 74.2,139.1 72.5,139.1 72.3,141.1 71.6,142.1 70.8,142.1 70.1,140.6 
		70.7,131.1 69.9,132.8 69.8,140.8 69.7,142.9 69.3,143.7 68.5,143.9 67.6,143.3 67.6,142.5 68,131.6 68.3,130.1 67.6,131.7 
		67.3,141.1 67.2,142.2 66.7,142.3 66,141.6 65.8,139.7 66.2,131.2 66.8,129.1 65.6,130.8 65.4,139.6 64.6,138.2 64.4,132.6 
		64.9,127 56.4,129.1 63.1,130 64,139.7 65.6,143.4 66.8,144.8 67.8,145.5 69.9,144.3 73.8,141.8 77.9,134.4 78.8,131.4 	"/>
	<polygon class="st2" points="74.7,128.3 74.8,131.2 73.4,135.3 72.5,139.1 72.5,135.8 73.1,133.3 	"/>
	<polygon class="st2" points="150.5,131.2 154.2,134.1 155.6,138.4 155.3,142.7 153.1,145.9 132.6,147.7 144.6,147.7 152.2,147.1 
		156.4,143.4 157.3,138.7 156.3,133.8 152.5,130.9 	"/>
	<g>
		<polygon class="st1" points="116.9,49.8 115.9,49.8 114.6,52.7 113.6,46.8 111.9,44 109.1,42.8 106.2,43 103.9,44 101.6,43 
			98.7,42.8 95.9,44 94.2,46.8 93.2,52.7 91.9,49.8 90.9,49.8 90,51.9 90.2,54.6 91,57.2 91.1,65.4 91.4,67.6 92.2,68.2 92.9,66.4 
			93.6,62.6 94.2,59.1 96.4,62.9 99.3,65.8 102.7,67.4 103.9,67.6 105.1,67.4 108.5,65.8 111.4,62.9 113.6,59.1 114.2,62.6 
			114.9,66.4 115.6,68.2 116.4,67.6 116.7,65.4 116.8,57.2 117.6,54.6 117.8,51.9 		"/>
		<polygon class="st2" points="94.2,46.8 95.9,44 98.7,42.8 101.6,43 103.9,44 106.2,43 109.1,42.8 111.9,44 113.6,46.8 114.6,52.7 
			115.9,49.8 115.9,48.8 116.9,47.2 116.4,46 116.9,44.1 116.3,42.9 116.3,41 115.8,40.2 115.5,38.4 114.7,37.9 114.3,36.7 
			113.2,36.2 112.5,34.8 110.8,34.8 110.8,33.7 109.9,32.8 110.3,31.2 109.2,30.9 108.9,29.7 107.5,29.2 107,28.5 107,25.6 
			103.9,8.4 100.8,25.6 100.8,28.5 100.3,29.2 98.9,29.7 98.6,30.9 97.5,31.2 97.8,32.8 97,33.7 97,34.8 95.3,34.8 94.6,36.2 
			93.5,36.7 93.1,37.9 92.3,38.4 92,40.2 91.5,41 91.5,42.9 90.9,44.1 91.4,46 90.9,47.2 91.9,48.8 91.9,49.8 93.2,52.7 		"/>
	</g>
	<polygon class="st2" points="161.9,162.8 41.6,162.8 45.1,155.2 41.6,147.7 161.9,147.7 158.4,155.2 	"/>
</g>
</svg>
