<?xml version="1.0" encoding="utf-8"?>
<!-- Generator: Adobe Illustrator 28.1.0, SVG Export Plug-In . SVG Version: 6.00 Build 0)  -->
<svg version="1.1" id="Capa_1" xmlns="http://www.w3.org/2000/svg" xmlns:xlink="http://www.w3.org/1999/xlink" x="0px" y="0px"
	 viewBox="0 0 203.5 162.8" style="enable-background:new 0 0 203.5 162.8;" xml:space="preserve">
<style type="text/css">
	.st0{fill:#33915C;}
	.st1{fill:#F8F5E0;}
	.st2{fill:#1B4C2F;}
	.st3{fill:#F39D96;}
</style>
<rect class="st0" width="203.5" height="162.8"/>
<g>
	<circle class="st1" cx="126.5" cy="40.7" r="28.8"/>
	<polygon class="st2" points="0,122.6 24.6,118.3 47.7,111.8 63.1,103.6 73.9,101.2 82.1,101.2 92.4,102.7 103.7,102.7 111.9,101.2 
		121.2,102.9 174.2,121.4 178,119.9 185.9,120.9 194.6,124.3 203.5,125.8 203.5,162.8 0,162.8 	"/>
	<polygon class="st3" points="104.3,84.3 118,67.7 127.7,36.6 132.1,38.6 138.5,38.7 140,40.5 143.6,39.5 142.8,35.6 135.1,28.4 
		134,24.4 132.7,24.4 130.9,25.8 129.1,23.8 128.6,20.4 126.3,20.4 125.8,22.8 126.3,25.5 123.9,26.4 119.7,26.7 119,28 121,30 
		107.2,55.2 97.8,62.6 84.2,69.1 82.2,74.4 74,81 58.1,89.3 54,97.9 50.9,110.7 47.5,115.6 42.8,121.5 40.1,127.5 46.9,122.5 
		50.9,114.7 56,101.7 57.2,118.1 51.2,125.1 52.7,133 52.6,148 48.9,157.9 50.8,162.8 54.5,156.4 56.6,148.1 58,129.7 60.4,125.1 
		60.1,128.7 62.5,133.3 66.3,155.3 68.8,157 69.5,160.1 73.8,161.2 70.9,155.3 67.3,134.8 69.3,118.9 75.8,110.1 85.3,107.2 
		80.8,129.1 80.6,132.7 76.1,147.9 75.6,156.7 74.4,159.4 76.1,161.4 79.6,161.6 78.4,156.5 84.9,133.2 87.8,127.8 89.2,118.3 
		92.5,113.2 93.6,107.7 94.8,108.9 107,154.6 110,157.7 110.7,160.6 117,161.9 114.4,157.4 111.1,153.6 110.1,148.8 105.3,130 
		105.6,127.3 104.1,119.9 102.8,115.4 103.1,103 106.8,92.9 	"/>
	<polygon class="st3" points="139.6,119.8 147.1,110.6 152.5,93.6 154.9,94.7 158.4,94.7 159.2,95.7 161.2,95.2 160.8,93.1 
		156.6,89.1 155.9,86.9 155.2,86.9 154.2,87.7 153.3,86.6 153,84.7 151.7,84.7 151.4,86 151.7,87.5 150.4,88 148.1,88.1 147.7,88.8 
		148.8,89.9 141.2,103.8 136.1,107.8 128.6,111.4 127.5,114.3 123,117.9 114.3,122.5 112.1,127.2 110.4,134.2 108.5,136.9 
		105.9,140.1 104.4,143.4 108.2,140.7 110.4,136.4 113.2,129.3 113.8,138.3 110.5,142.1 111.3,146.4 111.3,154.7 109.3,160.1 
		110.3,162.8 112.3,159.3 113.5,154.7 114.3,144.6 115.6,142.1 115.4,144.1 116.7,146.6 118.8,158.7 120.2,159.6 120.6,161.3 
		122.9,161.9 121.3,158.7 119.4,147.4 120.5,138.7 124.1,133.9 129.2,132.3 126.8,144.3 126.6,146.3 124.2,154.6 123.9,159.4 
		123.3,160.9 124.2,162 126.1,162.1 125.5,159.3 129,146.6 130.6,143.6 131.4,138.4 133.2,135.6 133.8,132.6 134.4,133.2 
		141.1,158.3 142.8,160 143.2,161.6 146.6,162.3 145.2,159.8 143.4,157.8 142.8,155.1 140.2,144.8 140.4,143.3 139.5,139.2 
		138.8,136.8 139,130 141,124.5 	"/>
</g>
</svg>
