<?xml version="1.0" encoding="utf-8"?>
<!-- Generator: Adobe Illustrator 28.1.0, SVG Export Plug-In . SVG Version: 6.00 Build 0)  -->
<svg version="1.1" id="Capa_1" xmlns="http://www.w3.org/2000/svg" xmlns:xlink="http://www.w3.org/1999/xlink" x="0px" y="0px"
	 viewBox="0 0 203.5 162.8" style="enable-background:new 0 0 203.5 162.8;" xml:space="preserve">
<style type="text/css">
	.st0{fill:#FDC300;}
	.st1{fill:#F8F5E0;}
	.st2{fill:#F39D96;}
	.st3{fill:#601313;}
	.st4{fill:#AB5243;}
</style>
<g>
	<rect class="st0" width="203.5" height="162.8"/>
	<g>
		<circle class="st1" cx="111.2" cy="62.9" r="30.6"/>
		<g>
			<polygon class="st2" points="27.3,162.8 27.3,116.4 22.7,109.6 55.3,109.6 55.3,162.8 			"/>
			<polygon class="st2" points="49,112.6 14.4,112.6 22.7,101.5 33.9,93.8 53.3,76.7 75.2,99 57.3,99 57.3,112.6 			"/>
			<polygon class="st2" points="78.6,105.3 78.6,97.4 67.9,95.7 57,95.7 51.6,106.6 48,123 46.3,140.9 46.3,153.7 48.6,162.8 
				78.6,162.8 			"/>
			<polygon class="st3" points="53.3,76.7 46.3,91.6 43.8,102 39.9,112.6 14.4,112.6 22.7,101.5 33.9,93.8 			"/>
			<polygon class="st4" points="39,162.8 39,116.1 49.5,116.1 50.3,112.6 24.7,112.6 27.3,116.4 27.3,162.8 			"/>
			<polygon class="st4" points="78.6,99.1 68,99.7 60.4,102.8 58.6,108.7 55.3,120.3 53.3,134.3 52.1,149.6 55.3,162.8 48.6,162.8 
				46.3,153.7 46.3,140.9 48,123 51.6,106.6 57,95.7 67.9,95.7 78.6,97.4 			"/>
			<polygon class="st4" points="176.1,162.8 176.1,116.4 180.8,109.6 148.2,109.6 148.2,162.8 			"/>
			<polygon class="st3" points="154.5,112.6 189.1,112.6 180.8,101.5 169.6,93.8 150.2,76.7 128.2,99 146.2,99 146.2,112.6 			"/>
			<polygon class="st4" points="124.9,105.3 124.9,97.4 135.5,95.7 146.5,95.7 151.8,106.6 155.5,123 157.2,140.9 157.2,153.7 
				154.8,162.8 124.9,162.8 			"/>
			<polygon class="st4" points="150.2,76.7 157.2,91.6 159.7,102 163.6,112.6 189.1,112.6 180.8,101.5 169.6,93.8 			"/>
			<polygon class="st2" points="164.5,162.8 164.5,116.1 153.9,116.1 153.2,112.6 178.7,112.6 176.1,116.4 176.1,162.8 			"/>
			<polygon class="st2" points="124.9,99.1 135.5,99.7 143,102.8 144.8,108.7 148.2,120.3 150.2,134.3 151.4,149.6 148.2,162.8 
				154.8,162.8 157.2,153.7 157.2,140.9 155.5,123 151.8,106.6 146.5,95.7 135.5,95.7 124.9,97.4 			"/>
			<rect x="73.2" y="111.4" class="st4" width="57.1" height="51.4"/>
			<polygon class="st3" points="110.3,126.4 94.2,126.4 90.5,139.6 91.9,150 98.2,159.7 102.3,161.2 110.3,156.6 112.9,146.4 
				112.9,134.3 			"/>
			<rect x="130.3" y="113" class="st2" width="2.5" height="49.8"/>
			<polygon class="st3" points="136.9,115.6 116.8,99.8 101.7,81.9 86.7,99.8 66.6,115.6 64.1,119.4 72.3,115.1 72.3,121.8 
				75.2,115.8 78.6,121.8 80.5,115.1 83.8,120.3 85.1,114.7 86.2,120.3 89.5,115.3 89.9,121.8 93,115.1 93.7,119.4 96.1,114.7 
				97.7,120.3 99.9,114.6 100.3,120.3 101.7,114.5 103.2,120.3 103.6,114.6 105.8,120.3 107.3,114.7 109.8,119.4 110.4,115.1 
				113.5,121.8 113.9,115.3 117.3,120.3 118.4,114.7 119.7,120.3 123,115.1 124.9,121.8 128.2,115.8 131.1,121.8 131.1,115.1 
				139.4,119.4 			"/>
		</g>
	</g>
</g>
</svg>
