<?xml version="1.0" encoding="utf-8"?>
<!-- Generator: Adobe Illustrator 28.1.0, SVG Export Plug-In . SVG Version: 6.00 Build 0)  -->
<svg version="1.1" id="Capa_1" xmlns="http://www.w3.org/2000/svg" xmlns:xlink="http://www.w3.org/1999/xlink" x="0px" y="0px"
	 viewBox="0 0 203.5 162.8" style="enable-background:new 0 0 203.5 162.8;" xml:space="preserve">
<style type="text/css">
	.st0{fill:#FDC300;}
	.st1{fill:#7E6A25;}
	.st2{fill:#1B4C2F;}
	.st3{fill:#004259;}
	.st4{fill:#33915C;}
</style>
<g>
	<rect class="st0" width="203.5" height="162.8"/>
	<g>
		<polygon class="st1" points="0,151 16.9,147.1 73.6,144.6 186.1,143.8 203.5,143.8 203.5,162.8 0,162.8 		"/>
		<g>
			<polygon class="st2" points="134.9,43.7 172.9,60 173.8,57.1 172.8,53.4 175.3,50.5 179.4,52.8 177.8,55 179.4,59.1 183.1,60.6 
				181.1,62.8 183.1,131.3 185.8,131.3 186.6,156.3 134.9,159.8 			"/>
			<polygon class="st3" points="43,153 73.6,153 73.6,127 74,114.6 75.9,105 79.5,98.1 83.9,94.9 85.7,86.6 64.8,78.6 46.2,86.1 
				41.6,116.2 41.1,147.2 			"/>
			<polygon class="st4" points="134.9,159.8 94.7,156.6 93.6,67.2 75.3,71.2 74.9,61.2 53.1,66.8 53.2,76.3 39.2,79.6 38.4,152.4 
				16.9,150.1 16.9,130.5 18.7,130.5 19.6,74.9 134.9,43.7 			"/>
			<polygon class="st2" points="38.4,152.4 39.2,79.6 53.2,76.3 53.1,66.8 74.9,61.2 75.3,71.2 93.6,67.2 94.7,156.6 87.8,156.6 
				87.8,125 87,123.3 87.6,117.2 87.8,107.6 86.2,99.8 82.2,91.2 76.6,85.7 67.8,82.3 59.8,83.8 52.4,90.7 48,97.5 45.5,104.2 
				44.1,113.6 43.7,119.7 44.3,123.5 43.4,126 43,153 			"/>
			<polygon class="st4" points="137.3,40.8 173.8,57.1 183.1,60.6 181.1,62.8 172.9,60 134.9,43.7 			"/>
			<rect x="77.3" y="22.2" class="st3" width="0.9" height="32"/>
			<polygon class="st3" points="77.3,23.9 65.7,30 65.7,37.2 77.3,31.7 			"/>
			<g>
				<polygon class="st2" points="132.5,31.1 131.4,32.7 131.3,35.9 133.7,39.7 129.5,38.4 124.9,39.8 124.9,38.4 126.3,36.6 
					126.3,33.2 124.5,31.1 126.7,29.5 128.5,28.7 129.8,28.7 				"/>
				<polygon class="st2" points="121.5,35 120.4,36.5 120.3,39.5 122.6,43 118.7,41.8 114.3,43.1 114.3,41.8 115.6,40.1 115.7,36.9 
					113.9,35 116,33.4 117.7,32.7 118.9,32.7 				"/>
				<polygon class="st2" points="111.7,38.1 110.7,39.6 110.7,42.4 112.8,45.8 109.1,44.6 105,45.8 105,44.6 106.2,43 106.2,39.9 
					104.6,38.1 106.6,36.7 108.2,36 109.3,36 				"/>
				<polygon class="st2" points="102.3,41.2 101.3,42.7 101.2,45.5 103.3,48.9 99.6,47.7 95.5,48.9 95.5,47.7 96.7,46.1 96.8,43.1 
					95.2,41.2 97.1,39.8 98.7,39.1 99.9,39.1 				"/>
				<polygon class="st2" points="93.3,43.8 92.3,45.3 92.2,48.1 94.4,51.5 90.7,50.3 86.5,51.5 86.5,50.3 87.7,48.7 87.8,45.7 
					86.2,43.8 88.1,42.4 89.8,41.7 90.9,41.7 				"/>
				<polygon class="st2" points="84.9,46.3 84,47.8 83.9,50.5 86,53.7 82.4,52.6 78.4,53.8 78.4,52.6 79.6,51 79.6,48.1 78.1,46.3 
					79.9,45 81.5,44.3 82.6,44.3 				"/>
				<polygon class="st2" points="76.7,48.4 76.2,49.8 76.2,53 78.2,56.2 74.7,55.1 70.7,56.3 70.7,55.1 71.8,53.5 71.9,50.6 
					70.3,48.9 71.9,47.4 73.7,45.8 				"/>
				<polygon class="st2" points="68.9,50.7 68.4,51.9 68.4,54.8 70.2,57.7 67,56.7 63.5,57.8 63.5,56.7 64.5,55.3 64.6,52.6 
					63.1,51.1 64.5,49.8 66.2,48.3 				"/>
				<polygon class="st2" points="61.9,53 61.5,54.3 61.4,57.2 63.3,60.1 60.1,59.1 56.5,60.1 56.5,59.1 57.5,57.6 57.6,55 
					56.2,53.4 57.6,52.1 59.2,50.7 				"/>
				<polygon class="st2" points="55.5,54.9 55,56.2 54.9,59 56.8,61.9 53.6,61 50,62 50,61 51,59.5 51.1,56.9 49.7,55.3 51.1,54 
					52.8,52.6 				"/>
				<polygon class="st2" points="48.9,57 48.4,58.2 48.4,61.1 50.2,64 47,63 43.5,64.1 43.5,63 44.5,61.6 44.5,59 43.1,57.4 
					44.5,56.1 46.2,54.6 				"/>
				<polygon class="st2" points="42.5,59.2 42,60.3 42,62.9 43.7,65.5 40.8,64.6 37.6,65.5 37.6,64.6 38.5,63.3 38.6,61 37.3,59.5 
					38.5,58.4 40.1,57.1 				"/>
				<polygon class="st2" points="36.5,60.9 36,62 36,64.6 37.7,67.2 34.8,66.3 31.6,67.3 31.6,66.3 32.5,65.1 32.6,62.7 31.3,61.3 
					32.5,60.1 34.1,58.8 				"/>
				<polygon class="st2" points="30.7,63 30.3,64 30.2,66.5 31.8,69 29.1,68.1 26,69 26,68.1 26.9,66.9 27,64.7 25.8,63.3 27,62.2 
					28.4,60.9 				"/>
				<polygon class="st2" points="25.3,64.1 24.9,65.3 24.8,67.9 26.4,70.5 23.6,69.6 20.5,70.6 20.5,69.6 21.4,68.3 21.5,66 
					20.2,64.5 21.4,63.3 22.9,62 				"/>
			</g>
			<polygon class="st2" points="137.3,40.8 129.5,38.4 16.9,71.3 19.7,73 19.6,74.9 134.9,43.7 			"/>
		</g>
	</g>
</g>
</svg>
