<?xml version="1.0" encoding="UTF-8"?>
<svg id="Capa_1" data-name="Capa 1" xmlns="http://www.w3.org/2000/svg" viewBox="0 0 203.52 162.77">
  <defs>
    <style>
      .cls-1 {
        fill: #f39d96;
      }

      .cls-1, .cls-2, .cls-3, .cls-4, .cls-5 {
        stroke-width: 0px;
      }

      .cls-2 {
        fill: #601313;
      }

      .cls-3 {
        fill: #2c80c3;
      }

      .cls-4 {
        fill: #ab5243;
      }

      .cls-5 {
        fill: #e6332a;
      }
    </style>
  </defs>
  <rect class="cls-3" width="203.52" height="162.77"/>
  <g>
    <path class="cls-5" d="M166.15,13.1l-4.14-2.67-3.04,1.47-2.76-.64-2.3.64-.83,1.66-2.67.64-1.56-.64-2.39.64-1.84,2.12-2.67.46-2.39-.46-1.84.55-1.29,2.12-2.02.74-1.75-1.38-3.04.92-1.2,1.84-2.39.92-2.02-.92-2.67.83-1.47,2.48h-3.04l-1.76,2.37-17.01,4.68,1.29,2.79.18,4.32,17.39-4.6,3.04.28,2.48-.46,1.84.92,2.94-.55,1.75-2.12,1.75-.28,2.3.83,3.04-.74,1.38-1.66,1.93-.18,3.04.64,1.84-.74,1.47-1.47,2.48-.37,2.21.46,2.58-.92,1.2-1.2,2.12-.37,2.48.64,1.75-.18,2.12-1.93,2.94-.55,1.84-1.56.55-5.15-1.84-4.23ZM123.29,30.12l-4.78-.74,3.68-3.04,4.97.83-3.86,2.94ZM135.24,28.64l-6.9-2.3,3.77-4.51,6.62,1.56-3.5,5.24ZM152.8,24.01l-6.9-2.3,3.77-4.51,6.62,1.56-3.5,5.24ZM162.5,19.66l-4.78-.74,3.68-3.04,4.97.83-3.86,2.94Z"/>
    <polygon class="cls-1" points="98.08 31.46 94.93 26.34 89.09 20.6 81.34 18.04 72.72 19.81 66.14 25.24 62.81 32.43 61.97 39 63.64 47.14 67.92 54.34 74.39 58.61 81.34 60.07 82.42 62.79 85.86 64.25 88.99 62.89 90.66 61.22 91.18 57.47 95.46 53.71 99.21 47.03 99.73 41.14 99.55 38.58 99.37 34.26 98.08 31.46"/>
    <polygon class="cls-4" points="89.58 50.68 92.52 44.22 93.1 37.07 90.27 30.12 86.15 25.91 80.08 23.26 73.13 25.24 68.92 28.64 66.57 35.31 66.57 42.45 68.92 47.64 73.13 52.83 78.12 54.89 79.84 55.28 89.58 50.68"/>
    <polygon class="cls-5" points="65.63 26.34 60.69 25.24 53.15 25.79 44.83 30.12 39.05 35.99 35.53 45.1 36.02 55.87 39.45 64.25 44.44 69.38 51.39 73.98 58.83 76.04 67.06 76.04 74.89 72.61 80.85 67.62 83.68 63.32 82.42 62.79 81.34 60.07 74.39 58.61 67.92 54.34 63.64 47.14 61.97 39 62.81 32.43 65.63 26.34"/>
    <polygon class="cls-2" points="142.66 125.56 152.99 125.56 152.99 142.62 144.31 141.42 142.66 125.56"/>
    <polygon class="cls-4" points="159.12 122.56 159.87 138.72 152.99 142.62 152.99 125.56 159.12 122.56"/>
    <polygon class="cls-1" points="150.3 121.67 159.12 122.56 152.99 125.56 142.66 125.56 150.3 121.67"/>
    <polygon class="cls-2" points="137.43 134.09 138.03 142.62 128.6 141.42 127.25 133.19 137.43 134.09"/>
    <polygon class="cls-1" points="136.53 127.95 127.25 133.19 137.43 134.09 143.23 131.02 142.91 127.95 136.53 127.95"/>
    <polygon class="cls-4" points="138.03 142.62 144.11 139.45 143.23 131.02 137.43 134.09 138.03 142.62"/>
    <polygon class="cls-1" points="55.88 118.37 48.69 121.67 39.86 127.95 38.37 135.88 43.9 144.11 55.88 148.75 71.74 152.34 85.8 152.34 100.17 150.85 111.84 147.7 119.17 143.21 123.66 137.9 123.66 129.15 116.18 122.56 106.6 118.37 55.88 118.37"/>
    <polygon class="cls-5" points="56.02 103.71 56.02 133.19 57.97 137.9 64.7 142.62 73.53 144.86 81.41 144.86 91.34 143.96 98.37 141.72 103.31 138.72 106.6 134.09 106.6 102.96 104.96 107.15 97.47 112.54 86.85 115.23 79.84 115.38 70.99 114.33 63.06 111.64 58.27 108.65 56.02 103.71"/>
    <polygon class="cls-2" points="57.82 97.72 56.02 100.87 56.02 103.71 58.27 108.65 63.06 111.64 70.99 114.33 79.84 115.38 86.85 115.23 97.47 112.54 104.96 107.15 106.6 102.96 105.4 98.77 104.49 97.72 104.49 103.8 103.34 106.55 96.9 111.27 87.37 113.84 79.84 114.01 71.57 112.87 64.27 110.47 59.99 107.85 57.71 103.97 57.82 97.72"/>
    <polygon class="cls-1" points="89.3 83.17 95.01 84.86 99.79 87.29 103.91 91.42 104.48 93.2 104.49 97.72 104.49 103.8 103.34 106.55 96.9 111.27 87.37 113.84 79.84 114.01 71.57 112.87 64.27 110.47 59.99 107.85 57.71 103.97 57.82 97.72 57.71 93.67 58.85 91.23 61.38 88.14 66.9 84.86 72.15 83.17 76.84 82.61 81.41 82.61 86.86 82.61 89.3 83.17"/>
    <polygon class="cls-4" points="60.16 96.66 60.16 93.2 61.66 89.64 66.62 86.73 72.71 84.58 77.12 83.92 87.05 83.92 94.64 86.08 99.23 88.42 102.42 92.17 102.42 95.54 102.04 96.66 100.07 94.13 94.08 90.29 87.71 89.17 81.01 88.61 74.96 89.26 69.43 90.29 64.47 92.64 61.47 94.88 60.16 96.66"/>
    <polygon class="cls-2" points="81.01 104.72 75.9 104.72 69.25 102.96 63.81 100.79 61 98.31 60.16 96.66 61.47 94.88 64.47 92.64 69.43 90.29 74.96 89.26 81.01 88.61 87.71 89.17 94.08 90.29 100.07 94.13 102.04 96.66 99.04 100.22 92.95 102.96 87.33 104.72 81.01 104.72"/>
    <polygon class="cls-5" points="106.6 102.96 109.11 100.68 112.92 99.9 117.91 102.15 120.55 106.55 121.43 114.56 120.25 120.52 117.61 125.56 114.78 129.32 111.16 131.02 107.94 131.57 106.6 131.57 106.6 127.27 109.01 127.95 112.83 126.68 116.15 123.91 118.69 119.35 120.25 115.73 120.16 111.82 118.79 108.4 116.34 105.47 112.92 104 110.09 104.2 107.55 105.96 106.6 107.43 106.6 108.6 108.33 108.99 109.89 108.99 112.63 107.82 113.51 106.55 113.5 109.91 112.96 110.94 111.31 111.89 109.5 112.34 107.77 111.77 106.6 110.61 106.6 102.96"/>
    <polygon class="cls-2" points="106.6 112.14 107.77 113 109.34 113.29 111.64 112.96 113.62 111.6 114.32 110.2 114.32 106.55 113.51 106.55 113.5 109.91 112.96 110.94 111.31 111.89 109.5 112.34 107.77 111.77 106.6 110.61 106.6 112.14"/>
    <polygon class="cls-2" points="106.6 105.67 107.15 105.01 109.67 103.4 112.8 102.96 117.17 104.72 119.68 107.81 120.98 110.45 121.43 114.56 120.25 120.52 117.61 125.56 114.78 129.32 111.16 131.02 107.94 131.57 106.6 131.57 106.6 129.94 107.65 130.68 109.91 130.51 112.34 129.65 114.53 128.17 116.84 125.16 119.31 120.17 120.25 115.73 120.16 111.82 118.79 108.4 116.34 105.47 112.92 104 110.09 104.2 107.55 105.96 106.6 107.43 106.6 105.67"/>
    <polygon class="cls-2" points="69.68 48.58 73.5 47.98 79.22 47.98 84.17 46.91 88.03 46.91 90.53 48.58 89.58 50.68 89.68 52.13 88.68 55.28 90.18 59.3 88.99 62.89 89.97 78.78 88.58 89.32 86.52 89.07 87.53 79.13 86.67 77.13 85.86 64.25 84.74 62.81 83.09 61.59 81.95 57.58 79.84 55.28 78.12 54.89 73.13 52.83 69.68 48.58"/>
  </g>
</svg>