<?xml version="1.0" encoding="UTF-8"?>
<svg id="Capa_1" data-name="Capa 1" xmlns="http://www.w3.org/2000/svg" xmlns:xlink="http://www.w3.org/1999/xlink" viewBox="0 0 203.46 273.48">
  <defs>
    <style>
      .cls-1 {
        stroke-width: .28px;
      }

      .cls-1, .cls-2, .cls-3, .cls-4 {
        fill: none;
      }

      .cls-1, .cls-3, .cls-4 {
        stroke: #1d1d1b;
        stroke-miterlimit: 10;
      }

      .cls-5 {
        clip-path: url(#clippath);
      }

      .cls-2, .cls-6, .cls-7, .cls-8, .cls-9, .cls-10 {
        stroke-width: 0px;
      }

      .cls-3 {
        stroke-width: .26px;
      }

      .cls-4 {
        stroke-width: .29px;
      }

      .cls-6 {
        fill: #f39d96;
      }

      .cls-7 {
        fill: #f8f5e0;
      }

      .cls-8 {
        fill: #601313;
      }

      .cls-9 {
        fill: #ab5243;
      }

      .cls-10 {
        fill: #fdc300;
      }
    </style>
    <clipPath id="clippath">
      <rect class="cls-2" width="203.46" height="273.48"/>
    </clipPath>
  </defs>
  <rect class="cls-10" width="203.46" height="273.48"/>
  <g>
    <rect class="cls-1" y="-488.31" width="813.86" height="761.79"/>
    <line class="cls-4" x2="813.86"/>
    <line class="cls-3" x1="203.46" y1="-488.31" x2="203.46" y2="162.77"/>
  </g>
  <g class="cls-5">
    <circle class="cls-7" cx="148.39" cy="171.93" r="41.07"/>
    <polygon class="cls-6" points="203.46 216.16 198.58 211.83 195.33 203.83 192.52 202.32 189.71 187.4 194.9 180.05 193.39 161.21 195.12 148.5 193.82 137.89 194.47 134.22 189.71 134.22 180.78 129.37 177.95 137.46 175.26 156.13 172.22 171.49 161.61 180.48 161.61 194.32 168.31 222.64 159.14 239.72 135.78 255.33 135.78 250.24 130.1 244.77 129.51 242.17 127.96 240.5 125.1 246.35 127.89 253.34 118.05 263.13 116.02 265.46 113.99 269.52 105.99 260.8 95.79 248.49 91.26 241.67 86.68 236.8 82.78 227.49 82.78 219.52 85.65 215.09 86.98 209.77 82.78 207.96 77.08 211.88 76.64 216.47 68.21 220.83 62.81 232.66 61.78 248.91 57.23 254.82 51.79 257.73 48.87 257.73 47.4 249.89 49.02 248.47 47.4 239.9 46.39 237.91 42.84 239.46 39.52 248.93 41.34 251.57 40.4 256.4 37.74 261.06 37.74 263.13 33.96 261.61 23.69 255.85 21.7 246.4 21.7 240.49 16.68 232.07 14.17 221.59 11.02 216.99 9.1 215.39 7.52 249.89 11.07 273.18 203.46 273.18 203.46 216.16"/>
    <g>
      <polygon class="cls-8" points="152.66 152.5 149.74 157.3 147.19 156 144.13 155.96 142.32 156.16 140.08 157.45 136.6 152.61 136.04 150.98 144.05 148.5 149.5 149.09 151.94 150.82 152.66 152.5"/>
      <polygon class="cls-9" points="149.74 157.3 147.86 157.92 145.03 158 142.13 157.93 140.08 157.45 142.32 156.16 144.13 155.96 147.19 156 149.74 157.3"/>
      <rect class="cls-9" x="142.48" y="165.3" width="5.34" height="4.23"/>
      <polygon class="cls-8" points="142.48 165.3 140.08 157.45 140.57 157.17 143.05 165.3 142.48 165.3"/>
      <polygon class="cls-8" points="144.07 165.3 142.07 156.3 142.32 156.16 142.6 156.13 144.63 165.3 144.07 165.3"/>
      <polygon class="cls-8" points="147.82 165.3 147.26 165.3 149.38 157.11 149.74 157.3 147.82 165.3"/>
      <polygon class="cls-8" points="146.36 165.3 145.81 165.3 146.91 156 147.19 156 147.45 156.13 146.36 165.3"/>
      <polygon class="cls-6" points="128.99 133.85 125.28 125.85 121.87 114.64 121.09 107.61 122.26 101.47 125.54 95.83 124.43 96.29 121.05 99.9 118.5 104.39 117.58 105.4 115.45 110.49 115.26 114.43 115.63 119.66 117.62 125.62 121.65 133.21 127.02 140.94 136.6 152.61 136.75 152.16 137.63 152.04 138.28 151.2 138.97 151.35 135.32 144.71 128.99 133.85"/>
      <polygon class="cls-6" points="154.54 126.05 156.49 116.39 157.37 106.83 157.37 99.42 155.32 93.57 153.44 91.52 151.2 90.4 149.05 89.74 144.99 89.49 141.05 89.49 138.9 90.09 137.57 94.74 136.69 100.3 137.18 114.34 138.9 126.05 142.88 150.36 144.26 149.74 145.87 150.13 147.21 149.93 148.13 150.74 151.52 139.12 154.54 126.05"/>
      <polygon class="cls-9" points="137.18 114.34 136.69 100.3 137.57 94.74 138.9 90.09 137.04 90.09 134.65 90.9 131.93 92.26 129.84 92.73 125.54 95.83 122.26 101.47 121.09 107.61 121.87 114.64 125.28 125.85 128.99 133.85 135.32 144.71 138.97 151.35 139.85 150.58 141 150.78 141.96 150.13 142.88 150.36 138.9 126.05 137.18 114.34"/>
      <polygon class="cls-6" points="171.97 107.7 170.69 104.54 169.25 101.93 166.93 98.88 168.98 102.83 170.15 108.59 169.56 116.78 165.86 125.66 157.37 141.17 151 151.73 152.3 151.89 152.66 152.5 157.69 144.99 163.2 137.18 167.37 130.04 170.16 124.59 171.91 119.02 172.22 114.3 171.97 107.7"/>
      <polygon class="cls-9" points="165.86 125.66 169.56 116.78 170.15 108.59 168.98 102.83 166.93 98.88 165.62 97.16 162.55 94.75 158.91 93.1 154.6 91.06 151.2 90.4 153.44 91.52 155.32 93.57 157.37 99.42 157.37 106.83 156.49 116.39 154.54 126.05 151.52 139.12 148.13 150.74 149.27 150.55 149.81 151.12 150.69 151.04 151 151.73 157.37 141.17 165.86 125.66"/>
    </g>
    <g>
      <polygon class="cls-6" points="69.81 171.49 66.89 176.29 64.34 174.99 61.27 174.95 59.47 175.15 57.23 176.45 53.75 171.61 53.19 169.97 61.2 167.5 66.65 168.08 69.09 169.81 69.81 171.49"/>
      <polygon class="cls-9" points="66.89 176.29 65 176.92 62.17 176.99 59.28 176.93 57.23 176.45 59.47 175.15 61.27 174.95 64.34 174.99 66.89 176.29"/>
      <rect class="cls-9" x="59.63" y="184.29" width="5.34" height="4.23"/>
      <polygon class="cls-6" points="59.63 184.29 57.23 176.45 57.72 176.16 60.2 184.29 59.63 184.29"/>
      <polygon class="cls-6" points="61.22 184.29 59.22 175.29 59.47 175.15 59.74 175.12 61.78 184.29 61.22 184.29"/>
      <polygon class="cls-6" points="64.97 184.29 64.4 184.29 66.52 176.1 66.89 176.29 64.97 184.29"/>
      <polygon class="cls-6" points="63.51 184.29 62.96 184.29 64.06 174.99 64.34 174.99 64.6 175.12 63.51 184.29"/>
      <polygon class="cls-9" points="46.14 152.84 42.43 144.84 39.02 133.63 38.24 126.61 39.41 120.46 42.68 114.82 41.57 115.28 38.2 118.89 35.65 123.38 34.73 124.4 32.6 129.49 32.41 133.42 32.78 138.65 34.77 144.62 38.8 152.2 44.16 159.93 53.75 171.61 53.9 171.15 54.78 171.03 55.43 170.19 56.12 170.34 52.47 163.7 46.14 152.84"/>
      <polygon class="cls-9" points="71.69 145.04 73.64 135.38 74.52 125.83 74.52 118.41 72.47 112.56 70.59 110.51 68.35 109.39 66.2 108.74 62.14 108.48 58.2 108.48 56.05 109.08 54.72 113.73 53.84 119.29 54.33 133.34 56.05 145.04 60.03 169.35 61.41 168.73 63.01 169.12 64.35 168.93 65.27 169.73 68.67 158.11 71.69 145.04"/>
      <polygon class="cls-8" points="54.33 133.34 53.84 119.29 54.72 113.73 56.05 109.08 54.19 109.08 51.8 109.89 49.08 111.25 46.99 111.72 42.68 114.82 39.41 120.46 38.24 126.61 39.02 133.63 42.43 144.84 46.14 152.84 52.47 163.7 56.12 170.34 57 169.58 58.15 169.77 59.11 169.12 60.03 169.35 56.05 145.04 54.33 133.34"/>
      <polygon class="cls-9" points="89.12 126.69 87.84 123.53 86.39 120.92 84.08 117.87 86.13 121.83 87.3 127.58 86.71 135.77 83 144.65 74.52 160.16 68.15 170.73 69.45 170.88 69.81 171.49 74.83 163.98 80.34 156.17 84.52 149.03 87.3 143.58 89.06 138.01 89.36 133.29 89.12 126.69"/>
      <polygon class="cls-8" points="83 144.65 86.71 135.77 87.3 127.58 86.13 121.83 84.08 117.87 82.77 116.16 79.7 113.74 76.05 112.1 71.75 110.05 68.35 109.39 70.59 110.51 72.47 112.56 74.52 118.41 74.52 125.83 73.64 135.38 71.69 145.04 68.67 158.11 65.27 169.73 66.42 169.54 66.96 170.11 67.84 170.04 68.15 170.73 74.52 160.16 83 144.65"/>
    </g>
    <g>
      <polygon class="cls-6" points="188 91.81 182.57 100.73 177.82 98.33 172.13 98.25 168.77 98.62 164.61 101.03 158.12 92.03 157.09 88.98 171.98 84.38 182.13 85.48 186.66 88.69 188 91.81"/>
      <polygon class="cls-9" points="182.57 100.73 179.06 101.9 173.8 102.05 168.42 101.92 164.61 101.03 168.77 98.62 172.13 98.25 177.82 98.33 182.57 100.73"/>
      <rect class="cls-9" x="169.06" y="115.62" width="9.93" height="7.87"/>
      <polygon class="cls-6" points="169.06 115.62 164.61 101.03 165.52 100.5 170.13 115.62 169.06 115.62"/>
      <polygon class="cls-6" points="172.02 115.62 168.31 98.88 168.77 98.62 169.28 98.56 173.06 115.62 172.02 115.62"/>
      <polygon class="cls-6" points="179 115.62 177.95 115.62 181.89 100.39 182.57 100.73 179 115.62"/>
      <polygon class="cls-6" points="176.29 115.62 175.26 115.62 177.31 98.32 177.82 98.33 178.3 98.57 176.29 115.62"/>
      <polygon class="cls-8" points="143.98 57.13 137.08 42.26 130.73 21.4 129.28 8.34 131.46 -3.09 137.55 -13.59 135.49 -12.73 129.21 -6.01 124.47 2.33 122.75 4.23 118.79 13.69 118.45 21.01 119.14 30.73 122.84 41.83 130.33 55.95 140.31 70.32 158.12 92.03 158.41 91.17 160.05 90.96 161.26 89.39 162.54 89.68 155.75 77.33 143.98 57.13"/>
      <polygon class="cls-8" points="191.5 42.62 195.13 24.66 196.76 6.89 196.76 -6.9 192.95 -17.78 189.44 -21.59 185.28 -23.67 181.28 -24.9 173.73 -25.37 166.41 -25.37 162.41 -24.26 159.94 -15.61 158.3 -5.27 159.21 20.85 162.41 42.62 169.81 87.83 172.37 86.69 175.36 87.4 177.85 87.04 179.56 88.54 185.88 66.92 191.5 42.62"/>
      <polygon class="cls-6" points="159.21 20.85 158.3 -5.27 159.94 -15.61 162.41 -24.26 158.96 -24.26 154.51 -22.74 149.45 -20.21 145.56 -19.35 137.55 -13.59 131.46 -3.09 129.28 8.34 130.73 21.4 137.08 42.26 143.98 57.13 155.75 77.33 162.54 89.68 164.18 88.25 166.32 88.61 168.1 87.4 169.81 87.83 162.41 42.62 159.21 20.85"/>
      <polygon class="cls-8" points="223.92 8.5 221.54 2.62 218.84 -2.24 214.53 -7.9 218.34 -.55 220.52 10.15 219.43 25.39 212.54 41.89 196.76 70.73 184.91 90.39 187.33 90.67 188 91.81 197.34 77.85 207.59 63.33 215.36 50.04 220.54 39.91 223.8 29.55 224.37 20.77 223.92 8.5"/>
      <polygon class="cls-6" points="212.54 41.89 219.43 25.39 220.52 10.15 218.34 -.55 214.53 -7.9 212.11 -11.1 206.39 -15.59 199.61 -18.65 191.61 -22.45 185.28 -23.67 189.44 -21.59 192.95 -17.78 196.76 -6.9 196.76 6.89 195.13 24.66 191.5 42.62 185.88 66.92 179.56 88.54 181.7 88.18 182.7 89.25 184.34 89.11 184.91 90.39 196.76 70.73 212.54 41.89"/>
    </g>
    <g>
      <polygon class="cls-8" points="32.43 136.27 26.29 146.36 20.92 143.63 14.48 143.55 10.68 143.96 5.98 146.69 -1.35 136.51 -2.53 133.06 14.32 127.86 25.79 129.1 30.91 132.73 32.43 136.27"/>
      <polygon class="cls-9" points="26.29 146.36 22.33 147.68 16.37 147.84 10.29 147.7 5.98 146.69 10.68 143.96 14.48 143.55 20.92 143.63 26.29 146.36"/>
      <rect class="cls-9" x="11.02" y="163.19" width="11.23" height="8.9"/>
      <polygon class="cls-8" points="11.02 163.19 5.98 146.69 7.01 146.09 12.22 163.19 11.02 163.19"/>
      <polygon class="cls-8" points="14.36 163.19 10.16 144.26 10.68 143.96 11.26 143.9 15.54 163.19 14.36 163.19"/>
      <polygon class="cls-8" points="22.25 163.19 21.06 163.19 25.52 145.97 26.29 146.36 22.25 163.19"/>
      <polygon class="cls-8" points="19.19 163.19 18.03 163.19 20.34 143.62 20.92 143.63 21.47 143.91 19.19 163.19"/>
      <polygon class="cls-6" points="-17.35 97.04 -25.15 80.22 -32.33 56.63 -33.97 41.86 -31.51 28.94 -24.62 17.07 -26.95 18.04 -34.06 25.63 -39.41 35.07 -41.36 37.22 -45.83 47.92 -46.22 56.19 -45.44 67.19 -41.26 79.74 -32.79 95.7 -21.5 111.96 -1.35 136.51 -1.03 135.54 .82 135.3 2.19 133.53 3.64 133.85 -4.04 119.88 -17.35 97.04"/>
      <polygon class="cls-6" points="36.39 80.63 40.49 60.32 42.34 40.22 42.34 24.63 38.03 12.32 34.07 8.02 29.36 5.66 24.83 4.28 16.3 3.75 8.02 3.75 3.49 5 .7 14.78 -1.15 26.48 -.12 56.02 3.49 80.63 11.86 131.76 14.76 130.47 18.14 131.27 20.96 130.87 22.89 132.56 30.03 108.12 36.39 80.63"/>
      <polygon class="cls-8" points="-.12 56.02 -1.15 26.48 .7 14.78 3.49 5 -.41 5 -5.45 6.71 -11.16 9.58 -15.57 10.55 -24.62 17.07 -31.51 28.94 -33.97 41.86 -32.33 56.63 -25.15 80.22 -17.35 97.04 -4.04 119.88 3.64 133.85 5.49 132.24 7.91 132.64 9.92 131.27 11.86 131.76 3.49 80.63 -.12 56.02"/>
      <polygon class="cls-6" points="73.05 42.04 70.36 35.4 67.31 29.91 62.44 23.5 66.75 31.81 69.21 43.91 67.98 61.14 60.19 79.81 42.34 112.43 28.93 134.66 31.67 134.98 32.43 136.27 43 120.48 54.59 104.05 63.37 89.03 69.23 77.57 72.92 65.85 73.56 55.92 73.05 42.04"/>
      <polygon class="cls-8" points="60.19 79.81 67.98 61.14 69.21 43.91 66.75 31.81 62.44 23.5 59.69 19.89 53.23 14.81 45.56 11.34 36.51 7.05 29.36 5.66 34.07 8.02 38.03 12.32 42.34 24.63 42.34 40.22 40.49 60.32 36.39 80.63 30.03 108.12 22.89 132.56 25.31 132.16 26.44 133.37 28.29 133.21 28.93 134.66 42.34 112.43 60.19 79.81"/>
    </g>
    <polygon class="cls-8" points="0 229.59 1.23 222.8 5.98 215.39 9.1 215.39 11.02 216.99 15.56 241.39 18.29 239.98 19.18 240.28 19.18 241.68 18.15 242.87 20.29 250.19 20.29 252.92 23.32 265.12 21.7 265.12 21.77 266.75 23.32 266.31 23.69 267.27 21.92 270.74 23.03 270.74 23.03 273.48 0 273.48 0 229.59"/>
    <polygon class="cls-8" points="45.43 236.65 46.39 237.91 45.43 239.46 45.43 242.13 44.32 244.44 44.32 245.9 43.44 248.86 44.18 250.26 42.62 250.26 43.14 253.59 42.62 255.36 40.7 260.39 37.74 263.13 37.74 261.06 40.4 256.4 40.33 253.29 39.22 251.15 39.52 248.93 42.62 241.54 42.84 239.46 45.43 236.65"/>
    <polygon class="cls-8" points="51.79 257.73 54.9 255.51 55.34 252.41 58.67 248.12 62 239.39 62.81 232.66 66.95 224.45 68.21 220.83 76.64 216.47 77.08 211.88 82.78 207.96 82.41 210.03 80.71 210.4 79.6 211.59 78.93 217.13 77.23 218.39 74.72 218.46 72.87 220.68 71.09 221.57 69.17 225.64 67.76 227.12 68.28 229.85 70.57 229.48 71.17 231.03 71.02 233.4 69.76 235.1 69.69 237.69 70.28 239.32 70.28 241.17 73.09 243.68 71.76 245.01 71.98 248.41 70.65 251.89 70.57 254.4 68.87 255.07 65.69 253.66 61.48 253.37 58.74 254.03 57.86 256.03 55.71 257.73 51.79 257.73"/>
    <polygon class="cls-8" points="86.7 273.18 86.18 267.93 84.48 265.27 85.14 258.4 82.78 256.84 83.15 255.59 85.22 254.85 90.98 256.1 91.95 253.74 91.95 249.37 89.95 247.75 87.88 245.38 91.21 247.08 92.76 246.64 95.79 248.49 99.19 253.29 98.53 254.25 97.49 253.96 98.01 256.18 100.15 255.88 100.15 259.06 102.45 261.43 102.45 264.24 99.78 261.94 99.93 264.16 104.81 268.97 104 273.18 86.7 273.18"/>
    <polygon class="cls-8" points="105.99 260.8 110.17 269.04 110.17 273.18 114.35 273.18 115.78 269.88 118.05 263.13 116.02 265.46 113.99 269.52 105.99 260.8"/>
    <polygon class="cls-8" points="118.05 273.18 118.89 268.57 121.39 262.24 119.72 260.8 120.56 257.73 120.92 255.19 122.35 256.86 125.1 250.3 122.95 248.5 125.1 246.35 127.96 240.5 129.51 242.17 127.48 244.2 128.16 245.38 127.51 246.81 129.51 246.86 130.05 248.16 130.05 249.95 132 250.2 131.3 253.79 129.85 254.93 131.05 256.84 129.31 257.22 128.71 258.87 128.86 260.16 130 259.96 135.78 255.33 138.56 253.64 151.09 237.5 155.27 235.01 158.54 226.21 157.98 208.49 156.62 206.46 156.85 204.65 154.93 202.17 155.72 195.28 154.93 188.51 155.27 185.69 154.93 183.32 157.37 177.56 164.98 169.53 166.44 166.61 168.93 165.3 170.15 160.18 170.15 154.42 171.18 152.98 170.15 150.74 169.49 141.1 173.55 134.11 176.15 133.54 179 129.37 180.78 129.37 180.78 130.5 183.03 132.41 183.6 134.78 185.63 134.9 186.76 137.61 188.57 141.22 186.76 142.8 183.26 143.48 183.26 147.88 184.61 148.5 184.16 152.5 185.52 152.98 185.74 163.68 181.79 162.66 176.78 159.84 180.26 168.65 177.95 166.61 176.78 168.76 176.78 175.53 180.26 177.22 181.91 180.38 179.08 184.11 178.97 187.72 174.46 192.12 173.78 194.83 171.75 195.28 170.84 196.86 168.14 198.67 168.81 201.28 170.84 200.81 171.18 204.31 176.38 205.67 178.75 204.76 180.21 206.8 182.13 213.12 179.76 227 180.33 233.66 178.29 237.61 169.72 237.84 171.07 240.66 166.44 245.85 164.07 245.85 163.06 251.04 165.43 249.8 167.23 252.73 169.04 249.12 171.41 244.83 172.31 246.98 170.96 249.35 176.94 258.38 175.92 260.8 177.73 265.49 179.54 264.02 183.82 266.28 190.94 257.47 189.69 240.66 194.32 234.67 196.13 229.14 199.51 224.85 200.3 217.63 203.46 216.16 203.46 273.18 118.05 273.18"/>
  </g>
</svg>