<?xml version="1.0" encoding="utf-8"?>
<!-- Generator: Adobe Illustrator 28.1.0, SVG Export Plug-In . SVG Version: 6.00 Build 0)  -->
<svg version="1.1" id="Capa_1" xmlns="http://www.w3.org/2000/svg" xmlns:xlink="http://www.w3.org/1999/xlink" x="0px" y="0px"
	 viewBox="0 0 203.5 162.8" style="enable-background:new 0 0 203.5 162.8;" xml:space="preserve">
<style type="text/css">
	.st0{fill:#F39D96;}
	.st1{fill:#601313;}
	.st2{fill:#FDC300;}
	.st3{fill:#F8F5E0;}
	.st4{fill:#AB5243;}
</style>
<g>
	<polygon class="st0" points="128.9,163.2 130,163 130.2,162.8 128.8,162.8 	"/>
	<polygon class="st0" points="125.5,-1.2 124.4,-0.7 123.8,0 124.9,0 	"/>
	<polygon class="st1" points="-1,38.5 -1.3,39.5 0,41.4 0,38.4 	"/>
	<polygon class="st0" points="0,38.4 0,35.3 -2.5,36.1 -1.3,39.5 -1,38.5 	"/>
	<polygon class="st1" points="119.7,163.8 120.1,164.1 121.4,162.8 120,162.8 	"/>
	<path class="st2" d="M184.8,0l-2.3,3.7L179,18.6h0v7.9h-8.5l-0.3,1.1l-2.8,5.4l-2.5,4.3c2.3,1,4.4,2.2,6.5,3.6l2.2-3.8l2.6-0.6
		l2.8-4.2h1.8l8.9,4.9h4.8l-0.7,3.7l1.3,10.6l-1.7,12.7l1.5,18.8l-5.2,7.4l2.8,14.9l2.8,1.5l3.2,8l4.9,4.3V0H184.8z"/>
	<polygon class="st2" points="173.8,5.1 170,5 170.5,7.3 170.7,7.5 172,10.7 172.1,14.3 173.1,18.6 175.3,18.6 176.9,5 	"/>
	<polygon class="st2" points="59.3,79.9 57.8,79.6 60.2,87.3 61.2,87.3 59.6,79.9 	"/>
	<polygon class="st2" points="62.2,80 60.1,80 61.8,87.3 63,87.3 63.8,80 	"/>
	<polygon class="st2" points="64.4,79.9 63.5,87.3 64.4,87.3 66.4,79.5 65,79.9 	"/>
	<polygon class="st2" points="178,18.6 181.7,4 179.1,4.9 177.9,4.9 176.3,18.6 	"/>
	<polygon class="st2" points="16.4,50.9 12.1,50.8 15.5,66.2 18,66.2 19.9,50.8 	"/>
	<polygon class="st2" points="21.1,66.2 25.3,49.7 22.3,50.7 21,50.7 19.2,66.2 	"/>
	<polygon class="st2" points="10.3,50.7 7.3,50 12.2,66.2 14.4,66.2 10.9,50.7 	"/>
	<path class="st2" d="M6,118.4h3.1L11,120l3.1,4.6l2.5,10.5l5,8.4v5.9l2,9.4l7,3.9h7.8l1.9-3.4l-0.1-3.1l-1.1-2.1l0.3-2.2l3.3-9.5
		l2.6-2.8l1,1.3l1,2l1.6,8.6l-1.6,1.4l1.5,7.8h2.9l3.1-2.2l0.4-3.1l3.3-4.3l3.3-8.7l0.8-6.7l5.4-11.8l8.4-4.4l0.4-4.6l5.7-3.9
		l4.2,1.8l-1.3,5.3l-2.9,4.4v8l3.9,9.3l4.6,4.9l4.5,6.8l9.3,11.3H120l0.6-2l0.4-2.5l1.4,1.7l2.8-6.6l-2.1-1.8l2.1-2.2l2.9-5.8
		l1.5,1.7l0.6,2.6l5.7,5.5v5.1l3.1-2l12.3-15.8l4.2-2.5l3.3-8.8l-0.5-14.4c-3.1,0.8-6.4,1.2-9.7,1.2c-22.7,0-41.1-18.4-41.1-41.1
		c0-14,7-26.4,17.7-33.8l-3.4-4.9l-4-7.6l-2-6l-0.4-5.2l0.2-3.9l2.1-5.1l0.9-1l2.5-4.5l2.7-2.9H58.7l-4.1,7.1l-4.8,6.9l2.1-1
		l2.4-0.8H56l2.2-0.6h3.9l4.1,0.2l2.1,0.7l3.4,0.7l4.3,2l3.7,1.6l3.1,2.4l1.3,1.7l2.3,3l1.5,2.6l1.3,3.2l0.2,6.6L89.1,41l-1.8,5.6
		L84.5,52l-4.2,7.1L74.8,67l-5,7.5l-2.9,4.8l-1.9,8v4.2h-5.3v-4.2l-2.4-7.8l-3.5-4.8l-9.6-11.7l-5.4-7.7l-4-7.6l-2-6L32.6,39
		l-0.2,0.2l-6.1,10.1l-4,16.8v8.9H11v-8.9L6,49.7l-6-8.3v91.2l1.2-6.8L6,118.4z"/>
	<path class="st3" d="M157.7,48l-5,7.5l-2.9,4.8l-1.9,8v4.2h-5.3v-4.2l-2.4-7.8l-3.5-4.8L127,43.9l-2-2.8
		c-10.7,7.4-17.7,19.8-17.7,33.8c0,22.7,18.4,41.1,41.1,41.1c3.3,0,6.6-0.4,9.7-1.2l-0.1-3.3l-1.4-2l0.2-1.8l-1.9-2.5l0.8-6.9
		l-0.8-6.8l0.3-2.8l-0.3-2.4l2.4-5.8l7.6-8l1.5-2.9l2.5-1.3l1.2-5.1v-5.8l1-1.4l-1-2.2l-0.7-9.6l1.9-3.2c-2-1.4-4.2-2.6-6.5-3.6
		l-1.7,2.9L157.7,48z"/>
	<polygon class="st3" points="142.1,60.9 140.7,60.6 143,68.3 144.1,68.3 142.4,60.9 	"/>
	<polygon class="st3" points="147.2,60.9 146.4,68.3 147.3,68.3 149.3,60.5 147.9,60.9 	"/>
	<polygon class="st3" points="145,61 143,61 144.6,68.3 145.8,68.3 146.7,61 	"/>
	<polygon class="st0" points="135.8,153.2 130.1,147.8 129.5,145.2 127.5,147.2 128.2,148.4 127.5,149.8 129.5,149.9 130,151.2 
		130,153 132,153.2 131.3,156.8 129.9,157.9 131,159.9 129.3,160.2 128.7,161.9 128.8,162.8 130.2,162.8 135.8,158.3 	"/>
	<polygon class="st0" points="68.2,123.8 62.8,135.7 67,127.5 	"/>
	<polygon class="st0" points="42.8,142.5 39.5,151.9 42.6,144.5 	"/>
	<polygon class="st0" points="99.2,156.3 98.5,157.3 97.5,157 98,159.2 100.2,158.9 100.2,162.1 100.8,162.8 105.1,162.8 
		95.8,151.5 	"/>
	<polygon class="st0" points="82.8,159.9 83.2,158.6 85.2,157.9 91,159.1 92,156.7 92,152.4 90,150.8 87.9,148.4 91.2,150.1 
		92.8,149.7 95.8,151.5 91.3,144.7 86.7,139.8 82.8,130.5 82.8,122.5 85.7,118.1 87,112.8 82.8,111 82.4,113 80.7,113.4 79.6,114.6 
		78.9,120.1 77.2,121.4 74.7,121.5 72.9,123.7 71.1,124.6 69.2,128.6 67.8,130.1 68.3,132.9 70.6,132.5 71.2,134 71,136.4 
		69.8,138.1 69.7,140.7 70.3,142.3 70.3,144.2 73.1,146.7 71.8,148 72,151.4 70.7,154.9 70.6,157.4 68.9,158.1 65.7,156.7 
		61.5,156.4 58.7,157 57.9,159 55.7,160.7 51.8,160.7 48.9,160.7 47.4,152.9 49,151.5 47.4,142.9 46.4,140.9 45.4,142.5 45.4,145.1 
		44.3,147.4 44.3,148.9 43.4,151.9 44.2,153.3 42.6,153.3 43.1,156.6 42.6,158.4 40.9,162.8 85,162.8 85.1,161.4 	"/>
	<polygon class="st0" points="138.8,156.3 135.8,158.3 138.6,156.7 	"/>
	<polygon class="st0" points="21.7,149.4 21.7,143.5 16.7,135.1 14.2,124.6 11,120 15.6,144.4 18.3,143 19.2,143.3 19.2,144.7 
		18.2,145.9 20.3,153.2 20.3,155.9 22,162.8 30.7,162.8 23.7,158.9 	"/>
	<path class="st0" d="M195.3,106.8l-2.8-1.5l-2.8-14.9l5.2-7.4l-1.5-18.8l1.7-12.7l-1.3-10.6l0.7-3.7h-4.8l-8.9-4.9v1.1l2.2,1.9
		l0.6,2.4l2,0.1l1.1,2.7l1.8,3.6l-1.8,1.6l-3.5,0.7v4.4l1.3,0.6l-0.4,3.4c0.1,0.3,0.3,0.5,0.4,0.8l0.8,0.3l0,1.5
		c2.5,5.3,3.9,11.2,3.9,17.5c0,13.4-6.5,25.4-16.4,32.9l3.4,0.9l2.4-0.9l1.5,2l1.9,6.3l-2.4,13.9l0.6,6.7l-2,4l-8.6,0.2l1.3,2.8
		l-4.6,5.2h-2.4l-1,5.2l2.4-1.2l1.8,2.9l1.8-3.6l2.4-4.3l0.9,2.1l-1.3,2.4l6,9l-0.6,1.4h12.7l1.9-2.3l-1.2-16.8l4.6-6l1.8-5.5
		l3.4-4.3l0.8-7.2l3.2-1.5l-4.9-4.3L195.3,106.8z"/>
	<path class="st0" d="M181.8,65.7l-5-2.8l3.5,8.8l-2.3-2l-1.2,2.2v6.8l3.5,1.7l1.7,3.2l-2.8,3.7l-0.1,3.6l-4.5,4.4l-0.7,2.7l-2,0.5
		l-0.9,1.6l-2.7,1.8l0.7,2.6l2-0.5l0.3,3.5l1.8,0.5c10-7.5,16.4-19.4,16.4-32.9c0-6.3-1.4-12.2-3.9-17.5l0.2,9.2L181.8,65.7z"/>
	<path class="st0" d="M184.7,55.7c-0.1-0.3-0.3-0.5-0.4-0.8l-0.1,0.6L184.7,55.7z"/>
	<polygon class="st1" points="151,54.7 150.7,54 149.8,54.1 149.3,53.6 148.1,53.7 147.2,52.9 145.9,53.1 144.3,52.7 142.9,53.4 
		142,53.1 141,53.8 139.9,53.6 139,54.4 138.3,54.2 137.6,55 136.8,55.2 136.6,55.6 140.1,60.5 142.1,59.3 142.1,59.3 142.3,59.2 
		144.1,59 147.2,59 147.5,59.1 147.4,59.1 149.4,60.1 149.4,60.1 149.7,60.3 152.7,55.5 152.3,54.9 	"/>
	<polygon class="st4" points="140.7,60.6 142.1,60.9 142.4,60.9 142.1,59.3 140.1,60.5 140.6,60.2 	"/>
	<polygon class="st4" points="147.9,60.9 149.3,60.5 149.4,60.1 147.4,59.1 147.2,60.9 	"/>
	<polygon class="st4" points="143,61 145,61 146.7,61 146.9,59 147.2,59 144.1,59 142.3,59.2 142.6,59.1 	"/>
	<polygon class="st4" points="146.4,68.3 145.8,68.3 144.6,68.3 144.1,68.3 143,68.3 142.5,68.3 142.5,72.5 147.8,72.5 147.8,68.3 
		147.3,68.3 	"/>
	<polygon class="st1" points="140.7,60.6 140.1,60.5 142.5,68.3 143,68.3 	"/>
	<polygon class="st1" points="140.6,60.2 140.1,60.5 140.7,60.6 	"/>
	<polygon class="st1" points="142.4,60.9 144.1,68.3 144.6,68.3 143,61 	"/>
	<polygon class="st1" points="142.1,59.3 142.1,59.3 142.3,59.2 	"/>
	<polygon class="st1" points="143,61 142.6,59.1 142.3,59.2 142.1,59.3 142.4,60.9 	"/>
	<polygon class="st1" points="147.3,68.3 147.8,68.3 149.7,60.3 149.3,60.5 	"/>
	<polygon class="st1" points="149.4,60.1 149.7,60.3 149.4,60.1 	"/>
	<polygon class="st1" points="149.3,60.5 149.7,60.3 149.4,60.1 	"/>
	<polygon class="st1" points="146.7,61 145.8,68.3 146.4,68.3 147.2,60.9 	"/>
	<polygon class="st1" points="147.5,59.1 147.2,59 147.4,59.1 	"/>
	<polygon class="st1" points="146.7,61 147.2,60.9 147.4,59.1 147.2,59 146.9,59 	"/>
	<path class="st0" d="M118.5,7.4l-0.9,1l-2.1,5.1l-0.2,3.9l0.4,5.2l2,6l4,7.6l3.4,4.9c1.5-1,3.1-2,4.8-2.8l-0.8-1.4l-3.7-8
		l-3.4-11.2l-0.8-7l1.2-6.1l2.6-4.5h-1.1L121,2.9L118.5,7.4z"/>
	<path class="st0" d="M136.6,55.6L136,54l2.3-0.7l-3.1-5.5l-5.5-9.4c-1.7,0.8-3.2,1.8-4.8,2.8l2,2.8L136.6,55.6z"/>
	<polygon class="st0" points="137.6,55 138.3,54.2 139,54.4 138.4,53.3 136,54 136.6,55.6 136.8,55.2 	"/>
	<path class="st0" d="M137.2,17.4l1.7,11.7l0.9,5.7c2.8-0.6,5.6-0.9,8.6-0.9c1.7,0,3.3,0.1,5,0.3l1.2-5.1l2-9.7l0.9-9.6V2.4L156.5,0
		h-19.3l-0.5,3.3L137.2,17.4z"/>
	<path class="st0" d="M148.6,52l2.9-9.9l1.8-8c-1.6-0.2-3.3-0.3-5-0.3c-2.9,0-5.8,0.3-8.6,0.9l2.8,17.2l1.4-0.4L148.6,52z"/>
	<polygon class="st0" points="144.3,52.7 145.9,53.1 147.2,52.9 148.1,53.7 148.6,52 144,51.5 142.6,51.9 142.9,53.4 	"/>
	<path class="st4" d="M138.9,29.1l-1.7-11.7l-0.5-14l0.5-3.3h-12.4l-2.6,4.5l-1.2,6.1l0.8,7l3.4,11.2l3.7,8l0.8,1.4
		c3.1-1.6,6.5-2.8,10-3.5L138.9,29.1z"/>
	<path class="st4" d="M138.4,53.3l4.3-1.3l-2.8-17.2c-3.5,0.7-6.9,1.9-10,3.5l5.5,9.4L138.4,53.3z"/>
	<polygon class="st4" points="139.9,53.6 141,53.8 142,53.1 142.9,53.4 142.6,51.9 138.4,53.3 139,54.4 	"/>
	<path class="st0" d="M169.1,21l-3.2,7.7l-4.1,7.4c1.1,0.4,2.1,0.8,3.1,1.2l2.5-4.3l2.8-5.4l0.3-1.1h-1.4V21z"/>
	<polygon class="st0" points="168.5,4.9 169,5.8 170.2,11.6 169.7,17.3 170.1,18.6 172,18.6 169,4.9 	"/>
	<polygon class="st0" points="172,10.7 170.7,7.5 170.5,7.3 172.1,14.3 	"/>
	<path class="st0" d="M157.4,44.2l-5.7,9.5l0.3,0.2l0.7,1.7l5-7.5l5.5-7.8l1.7-2.9c-1-0.4-2-0.8-3.1-1.2L157.4,44.2z"/>
	<polygon class="st0" points="152.3,54.9 152.7,55.5 151.9,53.8 151.7,53.6 151,54.7 	"/>
	<path class="st4" d="M157.4,9.8l-0.9,9.6l-2,9.7l-1.2,5.1c2.9,0.4,5.7,1,8.4,1.9l4.1-7.4l3.2-7.7v-2.4L164.6,4l-2.9-4h-5.2l0.9,2.4
		V9.8z"/>
	<polygon class="st4" points="165.8,4.3 169.7,17.3 170.2,11.6 169,5.8 168.5,4.9 168.4,4.9 	"/>
	<path class="st4" d="M151.5,42.1l-2.9,9.9l0.9,0.1l2.2,1.5l5.7-9.5l4.4-8.1c-2.7-0.9-5.5-1.6-8.4-1.9L151.5,42.1z"/>
	<polygon class="st4" points="148.6,52 148.1,53.7 149.3,53.6 149.8,54.1 150.7,54 151,54.7 151.7,53.6 149.5,52.1 	"/>
	<polygon class="st0" points="68.2,73.7 67.8,73 67,73.1 66.4,72.5 65.3,72.7 64.3,71.9 63,72.1 61.4,71.7 60,72.4 59.1,72.1 
		58.2,72.8 57,72.6 56.1,73.4 55.4,73.2 54.8,74 53.9,74.2 53.8,74.6 57.2,79.4 59.2,78.3 59.2,78.3 59.5,78.2 59.7,78.1 59.7,78.1 
		61.3,78 64.3,78 64.6,78.1 64.6,78.1 66.5,79.1 66.5,79.1 66.9,79.3 69.8,74.5 69.5,73.9 	"/>
	<polygon class="st4" points="62.2,80 63.8,80 64.1,78 64.3,78 61.3,78 59.7,78.1 60.1,80 	"/>
	<polygon class="st4" points="65,79.9 66.4,79.5 66.5,79.1 64.6,78.1 64.4,79.9 	"/>
	<polygon class="st4" points="57.8,79.6 59.3,79.9 59.6,79.9 59.2,78.3 57.2,79.4 57.7,79.2 	"/>
	<polygon class="st4" points="63.5,87.3 63,87.3 61.8,87.3 61.2,87.3 60.2,87.3 59.6,87.3 59.6,91.5 65,91.5 65,87.3 64.4,87.3 	"/>
	<polygon class="st0" points="57.8,79.6 57.2,79.4 59.6,87.3 60.2,87.3 	"/>
	<polygon class="st0" points="57.7,79.2 57.2,79.4 57.8,79.6 	"/>
	<polygon class="st0" points="59.6,79.9 61.2,87.3 61.8,87.3 60.1,80 	"/>
	<polygon class="st0" points="59.7,78.1 59.5,78.2 59.7,78.1 	"/>
	<polygon class="st0" points="59.2,78.3 59.2,78.3 59.5,78.2 	"/>
	<polygon class="st0" points="60.1,80 59.7,78.1 59.5,78.2 59.2,78.3 59.6,79.9 	"/>
	<polygon class="st0" points="64.4,87.3 65,87.3 66.9,79.3 66.4,79.5 	"/>
	<polygon class="st0" points="66.5,79.1 66.9,79.3 66.5,79.1 	"/>
	<polygon class="st0" points="66.4,79.5 66.9,79.3 66.5,79.1 	"/>
	<polygon class="st0" points="63.8,80 63,87.3 63.5,87.3 64.4,79.9 	"/>
	<polygon class="st0" points="64.6,78.1 64.3,78 64.6,78.1 	"/>
	<polygon class="st0" points="63.8,80 64.4,79.9 64.6,78.1 64.3,78 64.1,78 	"/>
	<polygon class="st4" points="55.5,72.3 52.5,66.7 46.1,55.9 42.4,47.9 39,36.6 38.3,30.5 32.6,39 32.8,41.7 34.8,47.6 38.8,55.2 
		44.2,62.9 53.8,74.6 53.2,73 	"/>
	<polygon class="st4" points="54.8,74 55.4,73.2 56.1,73.4 55.5,72.3 53.2,73 53.8,74.6 53.9,74.2 	"/>
	<polygon class="st4" points="53.8,22.3 54.3,36.3 56,48 59.8,70.9 61.2,70.5 65.8,71 68.7,61.1 71.7,48 73.6,38.4 74.5,28.8 
		74.5,21.4 72.5,15.6 70.6,13.5 68.3,12.4 66.2,11.7 62.1,11.5 58.2,11.5 56,12.1 54.7,16.7 	"/>
	<polygon class="st4" points="61.4,71.7 63,72.1 64.3,71.9 65.3,72.7 65.8,71 61.2,70.5 59.8,70.9 60,72.4 	"/>
	<polygon class="st1" points="38.3,30.5 39,36.6 42.4,47.9 46.1,55.9 52.5,66.7 55.5,72.3 59.8,70.9 56,48 54.3,36.3 53.8,22.3 
		54.7,16.7 56,12.1 54.2,12.1 51.8,12.9 49.7,13.9 43,23.5 	"/>
	<polygon class="st1" points="57,72.6 58.2,72.8 59.1,72.1 60,72.4 59.8,70.9 55.5,72.3 56.1,73.4 	"/>
	<polygon class="st4" points="87.3,30.6 86.7,38.8 83,47.7 74.5,63.2 68.8,72.6 69.1,72.8 69.8,74.5 74.8,67 80.3,59.2 84.5,52 
		87.3,46.6 89.1,41 89.4,36.3 89.1,29.7 87.8,26.5 86.4,23.9 84.1,20.9 86.1,24.8 	"/>
	<polygon class="st4" points="68.8,72.6 68.2,73.7 69.5,73.9 69.8,74.5 69.1,72.8 	"/>
	<polygon class="st1" points="72.5,15.6 74.5,21.4 74.5,28.8 73.6,38.4 71.7,48 68.7,61.1 65.8,71 66.7,71.1 68.8,72.6 74.5,63.2 
		83,47.7 86.7,38.8 87.3,30.6 86.1,24.8 84.1,20.9 82.8,19.2 79.7,16.7 76,15.1 71.8,13.1 68.3,12.4 70.6,13.5 	"/>
	<polygon class="st1" points="66.4,72.5 67,73.1 67.8,73 68.2,73.7 68.8,72.6 66.7,71.1 65.8,71 65.3,72.7 	"/>
	<polygon class="st0" points="165.6,0.2 166.9,1.9 167.4,2.4 168.3,1.9 168.3,1.9 168.8,1.6 169.3,1.6 169.3,1.6 172.1,1.3 
		177.8,1.3 182.6,3.7 184.8,0 165.4,0 	"/>
	<polygon class="st0" points="167.4,2.4 166.9,1.9 167.3,2.5 	"/>
	<polygon class="st0" points="165.5,3.5 165.5,3.5 167.3,2.5 166.9,1.9 165.6,0.2 165.4,0 161.7,0 164.6,4 	"/>
	<polygon class="st4" points="173.8,5.1 176.9,5 177.3,1.3 177.8,1.3 172.1,1.3 169.3,1.6 170,5 	"/>
	<polygon class="st4" points="178.3,1.6 177.9,4.9 179.1,4.9 181.7,4 181.9,3.4 182.6,3.7 177.8,1.3 	"/>
	<polygon class="st4" points="168.3,1.9 167.4,2.4 168.9,4.5 	"/>
	<polygon class="st4" points="168.5,4.9 169,4.9 168.9,4.5 167.4,2.4 167.3,2.5 	"/>
	<polygon class="st4" points="168.4,4.9 168.5,4.9 167.3,2.5 165.5,3.5 165.8,4.3 	"/>
	<polygon class="st4" points="176.3,18.6 175.3,18.6 173.1,18.6 172.1,18.6 171.9,22 170.5,26.5 179,26.5 179,18.6 178,18.6 	"/>
	<polygon class="st4" points="172.1,18.6 172,18.6 170.1,18.6 169.6,18.6 169.6,19.8 169.1,21 169.1,26.5 170.5,26.5 171.9,22 	"/>
	<polygon class="st4" points="169.1,21 169.6,19.8 169.6,18.6 169.1,18.6 	"/>
	<polygon class="st0" points="169.6,18.6 170.1,18.6 169.7,17.3 	"/>
	<polygon class="st0" points="165.8,4.3 164.6,4 169.1,18.6 169.6,18.6 169.7,17.3 	"/>
	<polygon class="st0" points="165.5,3.5 164.6,4 165.5,3.5 	"/>
	<polygon class="st0" points="165.5,3.5 164.6,4 165.8,4.3 	"/>
	<polygon class="st0" points="170,5 169.3,5 170.5,7.3 	"/>
	<polygon class="st0" points="172.2,17.3 172.1,18.6 173.1,18.6 172.1,14.3 	"/>
	<polygon class="st0" points="172.1,14.3 170.5,7.3 169.3,5 169,4.9 172,18.6 172.1,18.6 172.2,17.3 	"/>
	<polygon class="st0" points="168.3,1.9 168.3,1.9 168.8,1.6 	"/>
	<polygon class="st0" points="169.3,1.6 168.8,1.6 169.3,1.6 	"/>
	<polygon class="st0" points="169.2,4.9 169.3,5 170,5 169.3,1.6 168.8,1.6 168.3,1.9 168.9,4.5 	"/>
	<polygon class="st0" points="169.2,4.9 168.9,4.5 169,4.9 169.3,5 	"/>
	<polygon class="st0" points="178,18.6 179,18.6 179,18.6 182.6,3.7 181.7,4 	"/>
	<polygon class="st0" points="181.7,4 182.6,3.7 181.9,3.4 	"/>
	<polygon class="st0" points="175.3,18.6 176.3,18.6 177.9,4.9 176.9,5 	"/>
	<polygon class="st0" points="176.9,5 177.9,4.9 178.3,1.6 177.8,1.3 177.3,1.3 	"/>
	<polygon class="st1" points="10.2,47.3 10.2,47.3 10.7,47 14.5,46.6 20.3,46.6 20.3,46.6 20.9,46.6 26.3,49.4 32.4,39.3 31.7,38 
		28.9,37.7 28.3,36.2 26.4,36.4 25.3,35.2 22.9,35.6 21,33.9 18.1,34.3 14.8,33.5 11.9,34.8 9.9,34.3 7.9,35.7 5.5,35.2 3.6,36.9 
		2.2,36.5 0.8,38.3 0,38.4 0,41.4 6,49.7 	"/>
	<polygon class="st4" points="21.5,46.9 21,50.7 22.3,50.7 25.3,49.7 25.5,49 26.3,49.4 20.9,46.6 	"/>
	<polygon class="st4" points="12.1,50.8 16.4,50.9 19.9,50.8 20.3,46.6 14.5,46.6 10.7,47 11.3,46.9 	"/>
	<polygon class="st4" points="7.3,50 10.3,50.7 10.9,50.7 10.2,47.3 6,49.7 7,49.1 	"/>
	<polygon class="st4" points="19.2,66.2 18,66.2 15.5,66.2 14.4,66.2 12.2,66.2 11,66.2 11,75.1 22.2,75.1 22.2,66.2 21.1,66.2 	"/>
	<polygon class="st1" points="7.3,50 6,49.7 11,66.2 12.2,66.2 	"/>
	<polygon class="st1" points="7,49.1 6,49.7 7.3,50 	"/>
	<polygon class="st1" points="10.9,50.7 14.4,66.2 15.5,66.2 12.1,50.8 	"/>
	<polygon class="st1" points="10.2,47.3 10.2,47.3 10.7,47 	"/>
	<polygon class="st1" points="12.1,50.8 11.3,46.9 10.7,47 10.2,47.3 10.9,50.7 	"/>
	<polygon class="st1" points="21.1,66.2 22.2,66.2 26.3,49.4 25.3,49.7 	"/>
	<polygon class="st1" points="25.3,49.7 26.3,49.4 25.5,49 	"/>
	<polygon class="st1" points="18,66.2 19.2,66.2 21,50.7 19.9,50.8 	"/>
	<polygon class="st1" points="20.3,46.6 20.3,46.6 20.9,46.6 	"/>
	<polygon class="st1" points="21,50.7 21.5,46.9 20.9,46.6 20.3,46.6 19.9,50.8 	"/>
	<polygon class="st0" points="0,30.2 0,35.3 2.4,34.6 	"/>
	<polygon class="st0" points="0,35.3 0,38.4 0.8,38.3 2.2,36.5 3.6,36.9 2.4,34.6 	"/>
	<polygon class="st0" points="14.3,30.9 24,31.9 30,11.1 32.6,0 6.2,0 11.4,31.8 	"/>
	<polygon class="st0" points="14.3,30.9 11.4,31.8 11.9,34.8 14.8,33.5 18.1,34.3 21,33.9 22.9,35.6 24,31.9 	"/>
	<polygon class="st1" points="11.4,31.8 6.2,0 0,0 0,30.2 2.4,34.6 	"/>
	<polygon class="st1" points="2.4,34.6 3.6,36.9 5.5,35.2 7.9,35.7 9.9,34.3 11.9,34.8 11.4,31.8 	"/>
	<polygon class="st0" points="42.3,15.4 38.9,21.2 41.6,18.3 42.7,17.8 47,14.7 49.1,14.3 49.7,13.9 54.6,7.1 58.7,0 50.8,0 	"/>
	<polygon class="st0" points="32.6,32.5 33.8,29.5 30.3,35.3 30.9,35.7 32.4,39.3 32.6,39 32.4,36.4 	"/>
	<polygon class="st0" points="38.2,29.6 39.4,23.5 42.7,17.8 41.6,18.3 38.9,21.2 33.8,29.5 32.6,32.5 32.4,36.4 32.6,39 38.3,30.5 
			"/>
	<polygon class="st0" points="47,14.7 42.7,17.8 39.4,23.5 38.2,29.6 38.3,30.5 43,23.5 49.7,13.9 49.1,14.3 	"/>
	<polygon class="st0" points="30.3,35.3 28.9,37.7 31.7,38 32.4,39.3 30.9,35.7 	"/>
	<polygon class="st1" points="24,31.9 25.8,32.1 30.3,35.3 33.8,29.5 34.7,27.4 35.7,26.4 38.2,21.9 38.9,21.2 42.3,15.4 50.8,0 
		32.6,0 30,11.1 	"/>
	<polygon class="st1" points="35.7,26.4 34.7,27.4 33.8,29.5 38.9,21.2 38.2,21.9 	"/>
	<polygon class="st1" points="25.8,32.1 24,31.9 22.9,35.6 25.3,35.2 26.4,36.4 28.3,36.2 28.9,37.7 30.3,35.3 	"/>
	<polygon class="st1" points="7.5,152.9 9.1,118.4 6,118.4 1.2,125.8 0,132.6 0,162.8 9,162.8 	"/>
	<polygon class="st1" points="20.3,153.2 18.2,145.9 19.2,144.7 19.2,143.3 18.3,143 15.6,144.4 11,120 9.1,118.4 7.5,152.9 
		9,162.8 22,162.8 20.3,155.9 	"/>
	<polygon class="st1" points="39.5,151.9 39.2,154.2 40.3,156.3 40.4,159.4 41.3,154.6 	"/>
	<polygon class="st1" points="45.4,139.7 42.8,142.5 46.4,140.9 	"/>
	<polygon class="st1" points="43.1,156.6 42.6,153.3 44.2,153.3 43.4,151.9 44.3,148.9 44.3,147.4 45.4,145.1 45.4,142.5 
		46.4,140.9 42.8,142.5 42.6,144.5 39.5,151.9 41.3,154.6 40.4,159.4 38.5,162.8 40.9,162.8 42.6,158.4 	"/>
	<polygon class="st1" points="61.8,151.9 62.8,135.7 62,142.4 58.7,151.1 55.3,155.4 54.9,158.5 51.8,160.7 57.2,157.8 	"/>
	<polygon class="st1" points="57.9,159 58.7,157 61.5,156.4 65.7,156.7 68.9,158.1 70.6,157.4 70.7,154.9 72,151.4 71.8,148 
		73.1,146.7 70.3,144.2 70.3,142.3 69.7,140.7 69.8,138.1 71,136.4 71.2,134 70.6,132.5 68.3,132.9 67.8,130.1 69.2,128.6 
		71.1,124.6 72.9,123.7 74.7,121.5 77.2,121.4 78.9,120.1 79.6,114.6 80.7,113.4 82.4,113 82.8,111 77.1,114.9 76.6,119.5 
		68.2,123.8 67,127.5 62.8,135.7 61.8,151.9 57.2,157.8 51.8,160.7 55.7,160.7 	"/>
	<polygon class="st1" points="100.2,158.9 98,159.2 97.5,157 98.5,157.3 99.2,156.3 95.8,151.5 92.8,149.7 91.2,150.1 87.9,148.4 
		90,150.8 92,152.4 92,156.7 91,159.1 85.2,157.9 83.2,158.6 82.8,159.9 85.1,161.4 85,162.8 100.8,162.8 100.2,162.1 	"/>
	<path class="st1" d="M178,40.5l2.8-8.1H179l-2.8,4.2l-2.6,0.6l-2.2,3.8c2.1,1.4,4,3,5.8,4.8L178,40.5z"/>
	<path class="st1" d="M168.3,125.7l-3.1-13.2c-2.3,1-4.6,1.8-7.1,2.4l0.5,14.4l-3.3,8.8l-4.2,2.5l-12.3,15.8l20.3-13.6L168.3,125.7z
		"/>
	<polygon class="st1" points="125.1,149.4 123,151.5 125.1,153.3 122.3,159.9 120.9,158.2 120.6,160.7 120,162.8 121.4,162.8 
		127.9,156.4 	"/>
	<path class="st1" d="M170.2,53.7l1,2.2l-1,1.4v5.8l-1.2,5.1l-2.5,1.3l-1.5,2.9l-7.6,8l-2.4,5.8l0.3,2.4l-0.3,2.8l0.8,6.8l-0.8,6.9
		l1.9,2.5l-0.2,1.8l1.4,2l0.1,3.3c2.5-0.6,4.8-1.4,7.1-2.4l-3.6-15.1V83.5l10.6-9l3-15.4l1.9-13.5c-1.8-1.8-3.7-3.4-5.8-4.8
		l-1.9,3.2L170.2,53.7z"/>
	<path class="st1" d="M185.5,56l-0.8-0.3c0.3,0.6,0.6,1.2,0.9,1.8L185.5,56z"/>
	<polygon class="st1" points="199.5,127.9 196.1,132.2 194.3,137.7 189.7,143.7 190.9,160.5 189.1,162.8 203.5,162.8 203.5,119.2 
		200.3,120.6 	"/>
	<polygon class="st1" points="129.3,160.2 131,159.9 129.9,157.9 131.3,156.8 132,153.2 130,153 130,151.2 129.5,149.9 127.5,149.8 
		128.2,148.4 127.5,147.2 129.5,145.2 128,143.5 125.1,149.4 127.9,156.4 121.4,162.8 128.8,162.8 128.7,161.9 	"/>
	<path class="st1" d="M168.3,125.7l-9.2,17.1l-20.3,13.6l-0.3,0.3l-2.8,1.7l-5.5,4.4h46.1l0.6-1.4l-6-9l1.3-2.4l-0.9-2.1l-2.4,4.3
		l-1.8,3.6l-1.8-2.9l-2.4,1.2l1-5.2h2.4l4.6-5.2l-1.3-2.8l8.6-0.2l2-4l-0.6-6.7l2.4-13.9l-1.9-6.3l-1.5-2l-2.4,0.9l-3.4-0.9
		c-2.4,1.8-5.1,3.4-7.8,4.6L168.3,125.7z"/>
	<path class="st1" d="M177.2,45.7c2.8,2.7,5.1,5.8,7,9.2l0.4-3.4l-1.3-0.6v-4.4l3.5-0.7l1.8-1.6l-1.8-3.6l-1.1-2.7l-2-0.1l-0.6-2.4
		l-2.2-1.9v-1.1l-2.8,8.1L177.2,45.7z"/>
	<path class="st1" d="M177.2,45.7l-1.9,13.5l-3,15.4l-10.6,9v13.8l3.6,15.1c2.8-1.3,5.4-2.8,7.8-4.6l-1.8-0.5l-0.3-3.5l-2,0.5
		l-0.7-2.6l2.7-1.8l0.9-1.6l2-0.5l0.7-2.7l4.5-4.4l0.1-3.6l2.8-3.7l-1.7-3.2l-3.5-1.7v-6.8l1.2-2.2l2.3,2l-3.5-8.8l5,2.8l4,1
		l-0.2-9.2c-0.3-0.6-0.6-1.2-0.9-1.8l-0.5-0.2l0.1-0.6C182.3,51.5,180,48.4,177.2,45.7z"/>
</g>
</svg>
