<?xml version="1.0" encoding="utf-8"?>
<!-- Generator: Adobe Illustrator 28.1.0, SVG Export Plug-In . SVG Version: 6.00 Build 0)  -->
<svg version="1.1" id="Capa_1" xmlns="http://www.w3.org/2000/svg" xmlns:xlink="http://www.w3.org/1999/xlink" x="0px" y="0px"
	 viewBox="0 0 203.5 162.8" style="enable-background:new 0 0 203.5 162.8;" xml:space="preserve">
<style type="text/css">
	.st0{fill:#F39D96;}
	.st1{fill:#2C80C3;}
	.st2{fill:#004259;}
	.st3{fill:#FDC300;}
	.st4{fill:#E6332A;}
</style>
<rect class="st0" width="203.5" height="162.8"/>
<g>
	<polygon class="st1" points="95.1,142 94.2,134.3 99.7,122.9 99.7,116.2 95.3,107.2 93.4,102.8 93.9,94.3 95.5,90.7 98.4,90.7 
		98.5,93.7 97.6,98.7 97.9,102.9 103.7,114 104.3,122.5 	"/>
	<polygon class="st2" points="91.4,93.7 86.4,101.2 86.4,107.4 93.4,115.1 95.3,119.4 95.3,124.2 92.7,130.1 84,139.1 90.7,122.4 
		90.3,117.9 85.3,108.1 84,99.7 86.2,93.7 89.6,90.7 	"/>
	<polygon class="st2" points="103.7,141 105.2,133.4 112.6,118.8 113.2,111.7 110.5,104.5 103.7,96.2 101.4,89.3 100.6,93.7 
		101.4,98.2 107.7,106.9 109.1,112.5 108.3,118.6 104.3,128.7 103.7,132.7 	"/>
	<polygon class="st1" points="110,88.4 108,92.7 109,98.1 114.2,102.9 119.5,107.9 120.2,114.9 113.2,130 114.1,138.6 117.7,130.3 
		123.5,119.2 123.5,111.6 121.4,106.3 111.6,91.8 	"/>
	<g>
		<polygon class="st3" points="89.3,85.2 88,82.1 89.9,79.9 93.2,79.9 94.7,82.5 96.1,81 99.1,81.3 100.9,83.5 100.1,86.3 
			101.4,88.3 101.4,90.8 99.4,92.2 95.9,92.2 95.4,94.8 92.8,95.6 90.2,94.3 89.6,92.2 86.8,91 85.3,87.8 87.1,85.8 		"/>
		<polygon class="st4" points="74.8,77.7 72.9,75.1 74.3,72.5 77.5,71.8 79.5,74.1 80.6,72.3 83.6,72 85.8,73.6 85.6,76.6 
			87.3,78.3 87.9,80.7 86.2,82.6 82.8,83.3 82.8,85.8 80.4,87.2 77.6,86.5 76.6,84.6 73.5,84 71.5,81.1 72.8,78.8 		"/>
		<polygon class="st4" points="108.6,89.2 105.4,89.8 103.7,87.5 104.4,84.2 107.2,83.4 106.1,81.7 107.1,78.8 109.5,77.5 
			112.1,78.9 114.4,78.1 116.8,78.6 117.8,81 117,84.3 119.3,85.4 119.5,88.2 117.7,90.3 115.6,90.5 113.7,93 110.3,93.7 
			108.7,91.5 		"/>
		<polygon class="st3" points="121.7,76.3 119,74.5 119.3,71.6 122,69.8 124.7,71.1 125,69.1 127.7,67.6 130.4,68.3 131.3,71.1 
			133.5,72 135,74.1 134.1,76.4 131.2,78.4 132.2,80.8 130.5,82.9 127.7,83.3 126,82 122.9,82.5 119.9,80.7 120.2,78.1 		"/>
		<polygon class="st4" points="129.8,64.7 127,66.4 124.5,64.8 124.1,61.5 126.4,59.7 124.8,58.5 124.7,55.5 126.5,53.4 129.4,53.8 
			131.2,52.2 133.7,51.9 135.4,53.7 135.9,57.1 138.5,57.3 139.6,59.8 138.7,62.5 136.8,63.4 135.9,66.4 132.9,68.2 130.7,66.8 		
			"/>
		<polygon class="st3" points="123.2,45.5 120.2,44.4 119.9,41.5 122.2,39.1 125,39.9 124.9,37.8 127.3,35.9 130.1,36 131.5,38.5 
			133.9,39 135.7,40.7 135.3,43.2 132.9,45.7 134.4,47.8 133.1,50.3 130.4,51.2 128.5,50.2 125.7,51.4 122.3,50.2 122.1,47.6 		"/>
		<polygon class="st4" points="68.3,49.8 65,49.6 63.8,47 65.3,44 68.2,43.8 67.5,41.9 69.1,39.3 71.8,38.5 74,40.5 76.3,40.1 
			78.6,41.2 79,43.7 77.6,46.8 79.6,48.3 79.2,51.1 77,52.8 74.9,52.5 72.5,54.6 69,54.5 67.9,52 		"/>
		<polygon class="st3" points="100.8,34.1 98.9,36.7 96,36.2 94.3,33.4 95.8,30.9 93.8,30.4 92.5,27.7 93.4,25 96.2,24.2 97.3,22.1 
			99.4,20.8 101.7,21.8 103.5,24.8 105.9,23.9 108,25.8 108.2,28.6 106.8,30.2 107.1,33.3 105.1,36.2 102.5,35.7 		"/>
		<polygon class="st4" points="112.9,34.6 110.1,34.1 109.4,31.7 110.9,29.4 113.5,29.5 113.1,27.8 114.7,25.8 117.1,25.5 
			118.7,27.4 120.8,27.4 122.6,28.5 122.7,30.7 121.1,33.2 122.7,34.7 122,37 119.9,38.2 118.1,37.7 115.9,39.2 112.9,38.7 
			112.3,36.5 		"/>
		<polygon class="st3" points="75,62.5 77.6,63.5 77.9,66 76,68 73.5,67.4 73.6,69.1 71.6,70.8 69.2,70.7 68,68.6 65.9,68.2 
			64.3,66.7 64.7,64.6 66.7,62.5 65.4,60.7 66.5,58.5 68.8,57.7 70.4,58.5 72.9,57.5 75.7,58.5 75.9,60.8 		"/>
		<polygon class="st3" points="83.6,37.5 81.2,39 79.1,37.8 78.6,35 80.5,33.4 79.1,32.4 78.8,29.8 80.3,27.9 82.8,28.2 84.3,26.8 
			86.4,26.4 88,27.9 88.5,30.8 90.7,30.8 91.8,32.9 91.1,35.2 89.5,36.1 88.9,38.7 86.4,40.4 84.4,39.2 		"/>
	</g>
</g>
</svg>
