<?xml version="1.0" encoding="utf-8"?>
<!-- Generator: Adobe Illustrator 28.1.0, SVG Export Plug-In . SVG Version: 6.00 Build 0)  -->
<svg version="1.1" id="Capa_1" xmlns="http://www.w3.org/2000/svg" xmlns:xlink="http://www.w3.org/1999/xlink" x="0px" y="0px"
	 viewBox="0 0 203.5 162.8" style="enable-background:new 0 0 203.5 162.8;" xml:space="preserve">
<style type="text/css">
	.st0{fill:#2C80C3;}
	.st1{fill:#7E6A25;}
	.st2{fill:#FDC300;}
	.st3{fill:#F8F5E0;}
</style>
<rect class="st0" width="203.5" height="162.8"/>
<g>
	<polygon class="st1" points="119,51.3 118.6,39.4 110,47.7 106.3,53 104.4,57.5 102.4,66.3 107.1,68.2 111.7,70.1 116.3,62.3 
		118.1,57.7 	"/>
	<polygon class="st1" points="136.1,86.2 147,81.4 136.1,76.6 129.8,75 124.9,75 116,76.3 116,81.4 116,86.4 124.9,87.8 129.8,87.8 
			"/>
	<polygon class="st1" points="122.5,109.1 133.6,113.5 129.4,102.3 126.1,96.8 122.6,93.3 115.4,87.9 111.8,91.5 108.2,95.1 
		113.6,102.3 117,105.8 	"/>
	<polygon class="st1" points="84.5,51.3 84.9,39.4 93.4,47.7 97.2,53 99,57.5 101.1,66.3 96.4,68.2 91.7,70.1 87.2,62.3 85.3,57.7 	
		"/>
	<polygon class="st1" points="67.4,86.2 56.5,81.4 67.4,76.6 73.6,75 78.6,75 87.5,76.3 87.5,81.4 87.5,86.4 78.6,87.8 73.6,87.8 	
		"/>
	<polygon class="st1" points="80.9,109.1 69.8,113.5 74.1,102.3 77.4,96.8 80.8,93.3 88.1,87.9 91.7,91.5 95.3,95.1 89.9,102.3 
		86.5,105.8 	"/>
	<polygon class="st1" points="96.9,115.7 101.8,126.6 106.6,115.7 108.1,109.4 108.1,104.6 106.8,95.6 101.8,95.6 96.7,95.6 
		95.4,104.6 95.4,109.4 	"/>
	<g>
		<polygon class="st2" points="106.6,47.1 101.8,36.1 96.9,47.1 95.4,53.3 95.4,58.2 96.7,67.2 101.8,67.2 106.8,67.2 108.1,58.2 
			108.1,53.3 		"/>
		<polygon class="st2" points="129.4,60.4 133.6,49.3 122.5,53.6 117,57 113.5,60.4 108.2,67.7 111.8,71.3 115.4,74.8 122.6,69.4 
			126.1,66 		"/>
		<polygon class="st2" points="135.3,72.8 143.6,64.2 131.6,63.9 125.3,64.8 120.7,66.7 113,71.3 114.9,76 116.8,80.7 125.6,78.5 
			130.1,76.6 		"/>
		<polygon class="st2" points="131.5,99.2 143.4,99 135.2,90.3 130.1,86.4 125.6,84.5 116.8,82.3 114.9,86.9 112.9,91.6 120.6,96.3 
			125.1,98.2 		"/>
		<polygon class="st2" points="110,115 118.6,123.4 119,111.4 118.1,105.1 116.3,100.5 111.7,92.7 107.1,94.6 102.4,96.5 
			104.4,105.3 106.3,109.8 		"/>
		<polygon class="st2" points="74.1,60.4 69.8,49.3 81,53.6 86.5,57 89.9,60.4 95.3,67.7 91.7,71.3 88.1,74.8 80.9,69.4 77.4,66 		
			"/>
		<polygon class="st2" points="68.1,72.8 59.9,64.2 71.8,63.9 78.2,64.8 82.7,66.7 90.5,71.3 88.5,76 86.6,80.7 77.9,78.5 
			73.3,76.6 		"/>
		<polygon class="st2" points="72,99.2 60,99 68.2,90.3 73.4,86.4 77.9,84.5 86.6,82.3 88.6,86.9 90.6,91.6 82.9,96.3 78.3,98.2 		
			"/>
		<polygon class="st2" points="93.4,115 84.9,123.4 84.5,111.4 85.3,105.1 87.2,100.5 91.7,92.7 96.4,94.6 101.1,96.5 99,105.3 
			97.2,109.8 		"/>
	</g>
	<circle class="st3" cx="101.8" cy="81.4" r="17.3"/>
</g>
</svg>
