<?xml version="1.0" encoding="UTF-8"?>
<svg id="Capa_1" data-name="Capa 1" xmlns="http://www.w3.org/2000/svg" viewBox="0 0 203.46 162.77">
  <defs>
    <style>
      .cls-1 {
        fill: #f39d96;
      }

      .cls-1, .cls-2, .cls-3 {
        stroke-width: 0px;
      }

      .cls-2 {
        fill: #7e6a25;
      }

      .cls-3 {
        fill: #fdc300;
      }
    </style>
  </defs>
  <rect class="cls-1" width="203.46" height="162.77"/>
  <g>
    <polygon class="cls-3" points="107.4 60.22 96.06 60.22 86.24 65.89 80.56 75.71 80.56 87.06 86.24 96.88 96.06 102.55 107.4 102.55 117.23 96.88 122.9 87.06 122.9 75.71 117.23 65.89 107.4 60.22"/>
    <polygon class="cls-2" points="101.73 60.22 101.73 14.23 92.78 62.11 96.06 60.22 101.73 60.22"/>
    <polygon class="cls-3" points="101.73 60.22 101.73 14.23 110.69 62.11 107.4 60.22 101.73 60.22"/>
    <polygon class="cls-3" points="117.23 65.89 150.04 33.23 121.83 73.86 117.23 65.89"/>
    <polygon class="cls-2" points="150.04 33.23 109.55 61.45 117.23 65.89 150.04 33.23"/>
    <polygon class="cls-3" points="128.48 19.93 122.03 28.39 122.9 43.81 119.58 54.46 110.44 60.83 118.37 43.5 119.46 28.49 128.48 19.93"/>
    <polygon class="cls-2" points="128.48 19.93 118.91 24.56 116.59 28.69 113.87 40.38 107.9 47.24 110.44 60.83 118.37 43.5 119.46 28.49 128.48 19.93"/>
    <polygon class="cls-3" points="168.48 81.39 121.17 90.05 122.9 87.06 122.9 81.39 168.48 81.39"/>
    <polygon class="cls-2" points="168.48 81.39 121.44 73.19 122.9 75.71 122.9 81.39 168.48 81.39"/>
    <polygon class="cls-3" points="163.43 56.73 153.41 58.07 143.2 69.33 132.52 75.12 122.2 73.32 140.06 65.93 151.99 56.73 156.5 56 163.43 56.73"/>
    <polygon class="cls-2" points="163.43 56.73 156.49 53.54 148.94 55.14 137.94 60.22 129.99 62.11 122.2 73.32 140.06 65.93 151.99 56.73 156.5 56 163.43 56.73"/>
    <polygon class="cls-2" points="86.24 65.89 53.42 33.23 81.63 73.86 86.24 65.89"/>
    <polygon class="cls-3" points="53.42 33.23 93.92 61.45 86.24 65.89 53.42 33.23"/>
    <polygon class="cls-3" points="76.89 18.86 78.29 29.41 89.78 39.72 95.07 49.85 93.02 60.83 85.87 42.71 76.54 31.29 76.89 18.86"/>
    <polygon class="cls-2" points="76.89 18.86 73.37 28.9 74.64 33.46 80.96 43.66 81.58 52.85 93.02 60.83 85.87 42.71 76.54 31.29 76.89 18.86"/>
    <polygon class="cls-2" points="34.98 81.39 82.29 90.05 80.56 87.06 80.56 81.39 34.98 81.39"/>
    <polygon class="cls-3" points="34.98 81.39 82.02 73.19 80.56 75.71 80.56 81.39 34.98 81.39"/>
    <polygon class="cls-3" points="41.02 54.47 48.84 60.87 64.04 60.64 74.99 64.29 81.26 73.32 63.69 65.25 48.83 62.82 45.22 60.02 41.02 54.47"/>
    <polygon class="cls-2" points="41.02 54.47 43.43 61.71 49.75 66.14 60.98 70.7 68.33 75.57 81.26 73.32 63.69 65.25 48.83 62.82 45.22 60.02 41.02 54.47"/>
    <polygon class="cls-2" points="40.04 106.04 46 109.23 53.57 107.73 64.63 102.79 73.27 100.95 81 89.82 63.4 96.85 51.47 106.04 46.96 106.77 40.04 106.04"/>
    <polygon class="cls-2" points="101.73 102.55 101.73 148.54 110.69 100.66 107.4 102.55 101.73 102.55"/>
    <polygon class="cls-3" points="101.73 102.55 101.73 148.54 92.78 100.66 96.06 102.55 101.73 102.55"/>
    <polygon class="cls-3" points="86.24 96.88 53.42 129.54 81.63 88.91 86.24 96.88"/>
    <polygon class="cls-2" points="53.42 129.54 93.92 101.32 86.24 96.88 53.42 129.54"/>
    <polygon class="cls-3" points="74.98 142.84 81.43 134.38 80.56 118.97 83.88 108.32 93.02 101.95 85.1 119.27 84 134.28 74.98 142.84"/>
    <polygon class="cls-2" points="74.98 142.84 84.56 138.21 86.87 134.08 89.59 122.4 95.56 115.54 93.02 101.95 85.1 119.27 84 134.28 74.98 142.84"/>
    <polygon class="cls-3" points="40.04 106.04 50.06 104.7 60.27 93.44 70.51 87.89 81 89.82 63.4 96.85 51.47 106.04 46.96 106.77 40.04 106.04"/>
    <polygon class="cls-2" points="117.23 96.88 150.04 129.54 121.83 88.91 117.23 96.88"/>
    <polygon class="cls-3" points="150.04 129.54 109.55 101.32 117.23 96.88 150.04 129.54"/>
    <polygon class="cls-3" points="126.58 143.91 125.18 133.36 113.68 123.05 108.39 112.92 110.44 101.95 117.59 120.07 126.93 131.48 126.58 143.91"/>
    <polygon class="cls-2" points="126.58 143.91 130.09 133.87 128.82 129.31 122.5 119.11 121.88 109.92 110.44 101.95 117.59 120.07 126.93 131.48 126.58 143.91"/>
    <polygon class="cls-3" points="162.44 108.3 154.62 101.9 139.43 102.13 128.47 98.48 122.2 89.45 139.77 97.52 154.63 99.95 158.25 102.75 162.44 108.3"/>
    <polygon class="cls-2" points="162.44 108.3 160.03 101.06 153.71 96.63 142.49 92.07 135.13 87.2 122.2 89.45 139.77 97.52 154.63 99.95 158.25 102.75 162.44 108.3"/>
    <polygon class="cls-2" points="86.87 73.19 91.23 71.42 93.92 71.42 98.41 73.86 95.07 70.22 91.32 70.22 86.87 73.19"/>
    <polygon class="cls-2" points="97.26 77.29 93.92 78.55 90.81 77.92 87.29 75.57 91.54 73.32 96.2 73.86 97.26 77.29"/>
    <polygon class="cls-2" points="116.46 73.19 112.1 71.42 109.41 71.42 104.91 73.86 108.26 70.22 112.01 70.22 116.46 73.19"/>
    <polygon class="cls-2" points="106.07 77.29 109.41 78.55 112.51 77.92 116.03 75.57 111.78 73.32 107.13 73.86 106.07 77.29"/>
    <polygon class="cls-2" points="97.92 82.56 97.26 84.62 98.41 85.72 99.98 85.72 100.9 87.2 102.65 87.2 103.57 85.72 105.17 85.72 106.21 84.62 105.25 82.56 105.02 84.88 103.49 84.88 102.89 85.22 102.19 86.4 101.36 86.36 100.15 85.09 98.59 84.88 97.92 82.56"/>
    <polygon class="cls-2" points="93.02 91.09 96.58 91.09 99.39 89.45 101.73 90.7 103.84 89.45 106.21 91.09 109.94 91.09 107.9 93.12 104.33 94.96 99.49 94.96 96.48 93.7 93.02 91.09"/>
  </g>
</svg>