<?xml version="1.0" encoding="UTF-8"?>
<svg id="Capa_1" data-name="Capa 1" xmlns="http://www.w3.org/2000/svg" viewBox="0 0 203.46 162.77">
  <defs>
    <style>
      .cls-1 {
        fill: #f39d96;
      }

      .cls-1, .cls-2, .cls-3, .cls-4, .cls-5 {
        stroke-width: 0px;
      }

      .cls-2 {
        fill: #2c80c3;
      }

      .cls-3 {
        fill: #7e6a25;
      }

      .cls-4 {
        fill: #fdc300;
      }

      .cls-5 {
        fill: #004259;
      }
    </style>
  </defs>
  <rect class="cls-1" width="203.46" height="162.77"/>
  <g>
    <polygon class="cls-5" points="104.99 130.96 109.01 130.27 113.55 128.27 119.04 121.69 127.17 107.12 130.77 95.58 133.88 78.75 132.28 66.83 128.69 55.29 126.23 51.51 125.09 46.97 117.85 50.94 109.01 53.59 107.12 60.59 109.01 72.13 111.28 78.94 109.01 86.69 110.53 92.37 109.58 101.47 106.36 110.34 106.55 113.55 104.66 118.66 105.23 125.47 104.99 130.96"/>
    <polygon class="cls-2" points="117.85 50.94 116.96 58.32 121.5 75.53 120.36 85.37 121.5 92.37 116.2 108.45 116.2 112.8 111.09 124.15 111.09 129.36 113.55 128.27 119.04 121.69 127.17 107.12 130.77 95.58 133.88 78.75 132.28 66.83 128.69 55.29 126.23 51.51 125.09 46.97 117.85 50.94"/>
    <polygon class="cls-5" points="98.47 130.96 94.45 130.27 89.91 128.27 84.43 121.69 76.29 107.12 72.7 95.58 69.58 78.75 71.19 66.83 74.78 55.29 77.24 51.51 78.37 46.97 85.61 50.94 94.46 53.59 96.34 60.59 94.45 72.13 92.18 78.94 94.45 86.69 92.94 92.37 93.88 101.47 97.1 110.34 96.91 113.55 98.8 118.66 98.24 125.47 98.47 130.96"/>
    <polygon class="cls-2" points="85.61 50.94 86.51 58.32 81.97 75.53 83.1 85.37 81.97 92.37 87.26 108.45 87.26 112.8 92.37 124.15 92.37 129.36 89.91 128.27 84.43 121.69 76.29 107.12 72.7 95.58 69.58 78.75 71.19 66.83 74.78 55.29 77.24 51.51 78.37 46.97 85.61 50.94"/>
    <polygon class="cls-2" points="94.46 53.59 109.01 53.59 107.12 60.59 109.01 72.13 111.28 78.94 109.01 86.69 110.53 92.37 109.58 101.47 106.36 110.34 106.55 113.55 104.66 118.66 105.23 125.47 104.99 130.96 98.47 130.96 98.24 125.47 98.8 118.66 96.91 113.55 97.1 110.34 93.88 101.47 92.94 92.37 94.45 86.69 92.18 78.94 94.45 72.13 96.34 60.59 94.46 53.59"/>
    <polygon class="cls-4" points="101.73 28.45 109.01 29.42 117.34 31.69 123.96 37.13 125.66 42.8 125.09 46.97 117.85 50.94 109.01 53.59 94.46 53.59 85.61 50.94 78.37 46.97 77.04 41.02 79.69 35.05 86.5 30.7 93.12 28.45 101.73 28.45"/>
    <polygon class="cls-4" points="113.55 128.27 112.42 132.09 105.8 134.32 98.8 134.32 93.31 133.42 90.28 131.29 89.91 128.27 92.37 129.36 94.45 130.27 98.47 130.96 104.99 130.96 109.01 130.27 111.09 129.36 113.55 128.27"/>
    <polygon class="cls-3" points="77.04 41.02 80.6 45.28 87.19 48.45 95.73 50.16 108.09 50.16 114.75 48.37 121.34 45.59 125.66 42.8 125.09 46.97 117.85 50.94 109.01 53.59 94.46 53.59 85.61 50.94 78.37 46.97 77.04 41.02"/>
    <polygon class="cls-4" points="70.25 73.79 82.56 80.68 93.38 83.04 101.35 83.63 109.91 83.63 120.69 82.54 133.52 76.04 133.88 78.75 132.98 83.63 120.94 89.19 109.82 89.73 101.35 90.18 93.85 89.41 82.9 86.61 70.05 81.27 69.58 78.75 70.25 73.79"/>
    <polygon class="cls-4" points="74.01 99.8 82.15 104.61 86.65 106.59 96.1 107.59 107.36 107.59 116.86 106.43 123.85 103.69 129.6 99.31 127.17 107.12 123.19 109.88 116.2 112.05 106.55 113.55 96.91 113.55 87.26 111.97 80.22 109.54 76.29 107.12 74.01 99.8"/>
  </g>
</svg>