<?xml version="1.0" encoding="UTF-8"?>
<svg id="Capa_1" data-name="Capa 1" xmlns="http://www.w3.org/2000/svg" viewBox="0 0 203.46 162.77">
  <defs>
    <style>
      .cls-1 {
        fill: #601313;
      }

      .cls-1, .cls-2, .cls-3, .cls-4, .cls-5, .cls-6 {
        stroke-width: 0px;
      }

      .cls-2 {
        fill: #33915c;
      }

      .cls-3 {
        fill: #2c80c3;
      }

      .cls-4 {
        fill: #e6332a;
      }

      .cls-5 {
        fill: #fdc300;
      }

      .cls-6 {
        fill: #004259;
      }
    </style>
  </defs>
  <rect class="cls-5" width="203.46" height="162.77"/>
  <g>
    <polygon class="cls-4" points="123.43 80.21 116.96 69.71 109.25 63.75 101.74 62.18 101.74 62.18 101.73 62.18 101.72 62.18 101.72 62.18 94.21 63.75 86.51 69.71 80.03 80.21 78.28 88.09 78.28 100.34 81.61 116.62 87.38 132.55 93.86 142.53 101.72 148.47 101.72 148.48 101.73 148.48 101.74 148.48 101.74 148.47 109.6 142.53 116.08 132.55 121.86 116.62 125.18 100.34 125.18 88.09 123.43 80.21"/>
    <polygon class="cls-1" points="117.89 109.26 112.23 113.61 106.15 117.82 101.73 118.57 97.31 117.82 91.24 113.61 85.57 109.26 81.85 109.26 87.7 113.92 92.87 122.4 97.39 130.2 101.72 132.82 101.72 132.83 101.73 132.83 101.74 132.83 101.74 132.82 106.08 130.2 110.6 122.4 115.76 113.92 121.62 109.26 117.89 109.26"/>
    <polygon class="cls-3" points="109.71 103.18 105.75 99.31 103.98 94.16 101.73 97.25 99.48 94.16 97.71 99.31 93.75 103.18 90.24 106.57 90.44 109.71 92.87 112.56 96.71 114.14 99.73 112.86 100.11 112.19 101.72 116.12 101.72 116.17 101.73 116.14 101.74 116.17 101.74 116.12 103.35 112.19 103.74 112.86 106.75 114.14 110.6 112.56 113.02 109.71 113.22 106.57 109.71 103.18"/>
    <polygon class="cls-4" points="92.27 65.25 90.55 51.26 76.32 29.29 76.32 24.21 96.14 3.76 72.39 14.81 66.29 23.57 65.53 31.06 71.24 57.35 81.49 77.85 86.51 69.71 92.27 65.25"/>
    <polygon class="cls-4" points="77.69 70.25 59.21 58.56 61.47 79.04 55.76 93.72 63.64 103.76 65.53 119.22 75.75 122.77 81.86 131.63 86.05 128.88 81.61 116.62 78.28 100.34 78.28 88.09 80.03 80.21 81.49 77.85 77.69 70.25"/>
    <polygon class="cls-2" points="80.83 78.91 75.46 73.23 67.87 71.85 72.5 77.27 73.58 84.46 67.87 82.39 60.29 88.6 67.77 88.6 71.91 91.65 67.48 96.28 66.79 105.33 70.56 100.91 73.58 101.6 70.56 107.8 71.71 115.38 73.49 119.62 76.93 114.2 80.83 112.83 78.28 100.34 78.28 88.09 80.03 80.21 80.83 78.91"/>
    <polygon class="cls-1" points="89.77 136.24 83.14 144.73 79.1 152.12 78.28 159.01 81.96 150.45 86.68 144.63 92.87 141 89.77 136.24"/>
    <polygon class="cls-5" points="97.71 90.96 91.06 82.98 84.1 77.85 82.79 79.79 81.84 79.63 80.83 81.83 80.38 85.71 85.3 86.65 92.32 90.11 98.5 93.3 100.11 94.71 97.71 90.96"/>
    <polygon class="cls-1" points="83.4 86.29 87.13 99.96 89.49 101.32 92.9 100.59 99.07 93.8 98.5 93.3 85.3 86.65 83.4 86.29"/>
    <polygon class="cls-3" points="90.44 93.09 88.64 93.62 87.4 95.04 87.13 96.91 87.92 98.62 89.5 99.64 91.39 99.64 92.97 98.62 93.75 96.91 93.49 95.04 92.25 93.62 90.44 93.09"/>
    <polygon class="cls-2" points="87.7 116.84 93.75 126.75 93.26 134.03 94.76 139.36 97.31 145.14 95.18 143.53 91.24 135.76 88.08 127.43 87.7 116.84"/>
    <polygon class="cls-5" points="92.92 114.78 92.27 117.78 92.92 120.72 93.96 122.52 93.96 118.29 95.51 116.58 92.92 114.78"/>
    <polygon class="cls-5" points="96.89 117.52 96.7 120.72 98.41 125.17 98.41 121.05 100 118.27 97.31 117.82 96.89 117.52"/>
    <polygon class="cls-5" points="94.73 125.62 94.5 123.15 95.51 121.05 96.57 128.8 94.73 125.62"/>
    <polygon class="cls-5" points="99.3 131.36 99.3 126.76 100 125.17 98.11 126.97 97.39 130.2 99.3 131.36"/>
    <polygon class="cls-6" points="99.07 113.14 100 111.3 98.09 108.46 94.79 107.25 92.51 108.3 92.27 110.62 93.89 112.98 96.71 114.14 99.07 113.14"/>
    <polygon class="cls-4" points="111.19 65.25 112.92 51.26 127.14 29.29 127.14 24.21 107.33 3.76 131.08 14.81 137.17 23.57 137.94 31.06 132.22 57.35 121.98 77.85 116.96 69.71 111.19 65.25"/>
    <polygon class="cls-4" points="125.78 70.25 144.26 58.56 141.99 79.04 147.71 93.72 139.83 103.76 137.94 119.22 127.71 122.77 121.61 131.63 117.41 128.88 121.86 116.62 125.18 100.34 125.18 88.09 123.43 80.21 121.98 77.85 125.78 70.25"/>
    <polygon class="cls-2" points="122.63 78.91 128.01 73.23 135.59 71.85 130.96 77.27 129.88 84.46 135.59 82.39 143.18 88.6 135.69 88.6 131.55 91.65 135.99 96.28 136.68 105.33 132.9 100.91 129.88 101.6 132.9 107.8 131.75 115.38 129.98 119.62 126.53 114.2 122.63 112.83 125.18 100.34 125.18 88.09 123.43 80.21 122.63 78.91"/>
    <polygon class="cls-1" points="113.69 136.24 120.33 144.73 124.36 152.12 125.18 159.01 121.51 150.45 116.78 144.63 110.6 141 113.69 136.24"/>
    <polygon class="cls-2" points="101.74 97.23 105.75 90.96 101.74 80.47 101.74 80.42 101.73 80.45 101.72 80.42 101.72 80.47 97.71 90.96 101.72 97.23 101.72 97.26 101.73 97.25 101.74 97.26 101.74 97.23"/>
    <polygon class="cls-5" points="105.75 90.96 112.4 82.98 119.37 77.85 120.68 79.79 121.62 79.63 122.63 81.83 123.09 85.71 118.16 86.65 111.14 90.11 104.96 93.3 103.35 94.71 105.75 90.96"/>
    <polygon class="cls-1" points="120.06 86.29 116.33 99.96 113.97 101.32 110.57 100.59 104.39 93.8 104.96 93.3 118.16 86.65 120.06 86.29"/>
    <polygon class="cls-3" points="113.02 93.09 114.83 93.62 116.06 95.04 116.33 96.91 115.55 98.62 113.96 99.64 112.08 99.64 110.49 98.62 109.71 96.91 109.98 95.04 111.21 93.62 113.02 93.09"/>
    <polygon class="cls-2" points="115.76 116.84 109.71 126.75 110.21 134.03 108.71 139.36 106.15 145.14 108.28 143.53 112.23 135.76 115.39 127.43 115.76 116.84"/>
    <polygon class="cls-5" points="110.54 114.78 111.19 117.78 110.54 120.72 109.5 122.52 109.5 118.29 107.95 116.58 110.54 114.78"/>
    <polygon class="cls-5" points="106.58 117.52 106.77 120.72 105.05 125.17 105.05 121.05 103.47 118.27 106.15 117.82 106.58 117.52"/>
    <polygon class="cls-5" points="108.73 125.62 108.96 123.15 107.95 121.05 106.89 128.8 108.73 125.62"/>
    <polygon class="cls-5" points="104.16 131.36 104.16 126.76 103.47 125.17 105.36 126.97 106.08 130.2 104.16 131.36"/>
    <polygon class="cls-6" points="104.39 113.14 103.47 111.3 105.37 108.46 108.67 107.25 110.96 108.3 111.19 110.62 109.57 112.98 106.75 114.14 104.39 113.14"/>
    <polygon class="cls-5" points="103 118.35 103 120.84 101.73 124.92 100.68 121.05 100.68 118.35 101.73 118.57 103 118.35"/>
    <polygon class="cls-2" points="90.44 94.6 89.46 94.89 88.78 95.67 88.64 96.69 89.06 97.63 89.93 98.18 90.96 98.18 91.82 97.63 92.25 96.69 92.11 95.67 91.43 94.89 90.44 94.6"/>
    <polygon class="cls-2" points="113.02 94.57 114.01 94.86 114.68 95.64 114.83 96.66 114.4 97.59 113.53 98.15 112.51 98.15 111.64 97.59 111.21 96.66 111.36 95.64 112.03 94.86 113.02 94.57"/>
    <polygon class="cls-2" points="90.55 51.26 68.77 45.95 67.01 37.86 84.75 42.31 90.55 51.26"/>
    <polygon class="cls-3" points="91.24 8.81 96.14 3.76 87.74 7.67 91.24 8.81"/>
    <polygon class="cls-3" points="113.22 9.84 114.68 7.18 107.33 3.76 113.22 9.84"/>
    <polygon class="cls-2" points="112.92 51.26 134.7 45.95 136.46 37.86 118.71 42.31 112.92 51.26"/>
  </g>
</svg>